<svg width="16" height="16" viewBox="0 0 16 16" fill="none" xmlns="http://www.w3.org/2000/svg">
<rect width="16" height="16" rx="8" fill="white"/>
<path d="M4.19629 3.64771V4.36255H2.71191V12.4368H4.19629V13.1536H2V3.64771H4.19629ZM11.4961 13.1536H9.2998V12.4368H10.7842V4.36255H9.2998V3.64673H11.4961V13.1536ZM7.33789 5.48071C8.28907 5.48095 9.06344 6.25584 9.06348 7.20825C9.06348 7.60153 8.93001 7.96334 8.70801 8.25415C9.0943 8.57125 9.34082 9.05236 9.34082 9.59009C9.34082 10.5426 8.56695 11.3176 7.61523 11.3176H4.18262V5.48071H7.33789ZM5.61426 10.2444H7.18359C7.5438 10.2443 7.83691 9.95069 7.83691 9.59009C7.83691 9.22949 7.5438 8.93586 7.18359 8.93579H5.61426V10.2444ZM5.61426 7.86255H7.05469C7.41494 7.86232 7.70801 7.56894 7.70801 7.20825C7.70797 6.84778 7.41492 6.55516 7.05469 6.55493H5.61426V7.86255ZM13.126 2.84595C13.3708 2.84595 13.573 2.91252 13.7305 3.04517C13.8878 3.17749 13.9667 3.34598 13.9668 3.55103C13.9668 3.73876 13.8896 3.88248 13.7354 3.98169C13.9117 4.08127 14 4.23411 14 4.4397C13.9999 4.65155 13.9188 4.8253 13.7568 4.96118C13.5946 5.09676 13.3864 5.16528 13.1328 5.16528C12.8945 5.16526 12.6933 5.10183 12.5293 4.97583C12.3658 4.85053 12.2677 4.67913 12.2363 4.46216H12.8799C12.9285 4.58742 13.014 4.65158 13.1396 4.65161C13.2167 4.65161 13.28 4.63087 13.3301 4.59009C13.3794 4.54912 13.4043 4.49507 13.4043 4.42896C13.4042 4.36522 13.3801 4.31427 13.332 4.27563C13.2835 4.23693 13.2158 4.2171 13.1299 4.21704H12.9121V3.76685H13.1133C13.1949 3.76683 13.2602 3.7487 13.3086 3.71216C13.3568 3.67589 13.3807 3.62787 13.3809 3.5686C13.3809 3.5024 13.3586 3.44908 13.3135 3.40942C13.2684 3.36963 13.2071 3.34895 13.1299 3.34888C13.0529 3.34888 12.9892 3.37575 12.9395 3.42896C12.9098 3.46064 12.8885 3.50309 12.873 3.55396H12.2598C12.2952 3.33155 12.3906 3.1581 12.5459 3.03345C12.7013 2.90877 12.8943 2.84602 13.126 2.84595Z" fill="#154096"/>
</svg>
