<svg width="16" height="16" viewBox="0 0 16 16" fill="none" xmlns="http://www.w3.org/2000/svg">
<g clip-path="url(#clip0_55_46076)">
<rect width="16" height="16" rx="2" fill="#004A8F"/>
<rect width="16" height="5.33333" fill="#FDC82F"/>
<rect y="6" width="16" height="10" fill="#008542"/>
<path d="M16 6.28576V5.14307H0V6.28576H4.37067L3.08063 10.8577H5.6762C6.91751 10.9076 7.87271 9.99765 7.56196 8.93064C7.49652 8.72704 7.35387 8.55722 7.16462 8.45762C7.40179 8.31339 7.59894 8.1119 7.73798 7.87165C7.83343 7.6892 7.87481 7.48328 7.85724 7.27811C7.83967 7.07294 7.76388 6.87705 7.63879 6.71348C7.4873 6.56337 7.30536 6.4475 7.10527 6.37372C6.90517 6.29993 6.69157 6.26994 6.47889 6.28576H9.23099L7.95356 10.8577H9.23156L9.72694 8.8561H10.4723C10.9935 8.8561 10.9447 9.35377 10.9574 9.4908L10.9946 10.8571H12.1734C12.1734 10.8571 12.1362 9.34116 12.1362 9.2414C12.1408 9.17845 12.1328 9.11521 12.1128 9.05536C12.0928 8.9955 12.0611 8.94021 12.0195 8.89269C11.978 8.84518 11.9274 8.80638 11.8708 8.77854C11.8141 8.75071 11.7525 8.73439 11.6895 8.73054C12.0354 8.60795 12.3288 8.37059 12.5209 8.05799C12.6228 7.90104 12.687 7.72263 12.7085 7.53672C12.73 7.35082 12.7082 7.16246 12.6447 6.9864C12.55 6.7584 12.3842 6.56705 12.1721 6.44082C11.9599 6.31459 11.7126 6.2602 11.4671 6.28576H16ZM10.2321 7.14063H11.1231C11.1841 7.13325 11.246 7.1384 11.3051 7.15577C11.3641 7.17313 11.4189 7.20235 11.4662 7.24163C11.5136 7.28091 11.5524 7.32943 11.5803 7.38423C11.6083 7.43903 11.6248 7.49894 11.6288 7.56032C11.6223 7.64677 11.5982 7.73098 11.5579 7.80777C11.5177 7.88455 11.4621 7.95229 11.3947 8.00681C11.3273 8.06132 11.2495 8.10146 11.166 8.12476C11.0825 8.14806 10.9951 8.15402 10.9092 8.14228H9.9666C9.9666 8.14228 10.22 7.15382 10.2321 7.1412V7.14063ZM4.90446 8.8561H5.76048C6.21056 8.8561 6.37225 9.21617 6.23923 9.61751C6.21458 9.69205 6.11997 10.0005 5.57414 10.0005H4.57937L4.90446 8.85381V8.8561ZM5.37576 7.14292H6.36824C6.42155 7.14499 6.47387 7.15809 6.52186 7.1814C6.56986 7.20471 6.6125 7.23772 6.6471 7.27835C6.68169 7.31897 6.70748 7.36633 6.72284 7.41743C6.7382 7.46853 6.74279 7.52226 6.73633 7.57523C6.72272 7.72753 6.65354 7.8695 6.54199 7.97407C6.43043 8.07865 6.2843 8.13852 6.13144 8.14228H5.07704L5.37576 7.14292Z" fill="white"/>
</g>
<defs>
<clipPath id="clip0_55_46076">
<rect width="16" height="16" rx="2" fill="white"/>
</clipPath>
</defs>
</svg>
