<svg width="43" height="37" viewBox="0 0 43 37" fill="none" xmlns="http://www.w3.org/2000/svg">
<path d="M41.7881 0.104393L27.2429 0L24.6009 3.01118L32.981 3.06878C33.4892 3.07418 33.9361 3.36396 34.1434 3.82473C34.3506 4.28549 34.2731 4.81466 33.9415 5.19263L17.6571 23.7835L17.6211 28.8879L42.1468 0.901736C42.4171 0.590358 42.199 0.104393 41.7881 0.104393Z" fill="#0083BB"/>
<path d="M32.9802 3.87099L18.4349 3.7666L15.8668 6.69499L24.1694 6.75259C24.6776 6.75799 25.1245 7.04777 25.3318 7.50853C25.539 7.9693 25.4615 8.49846 25.1245 8.87644L8.85636 27.4565L8.82031 32.6545L33.3442 4.66834C33.6145 4.35696 33.3965 3.87459 32.9802 3.87099Z" fill="#2EA8D3"/>
<path d="M0 36.3468L0.0630758 27.8316L12.9161 13.159L4.67482 13.1014L9.61997 7.45703L24.1653 7.56142C24.5743 7.56682 24.7924 8.04919 24.5239 8.35877L0 36.3468Z" fill="#99D5EF"/>
</svg>
