<svg width="98" height="42" viewBox="0 0 98 42" fill="none" xmlns="http://www.w3.org/2000/svg">
<path d="M44.2728 16.4296C44.0853 17.1964 43.9087 17.9433 43.7285 18.6885C43.4582 19.8026 43.1933 20.9221 42.9139 22.0308C42.8725 22.2018 42.9085 22.227 43.0689 22.227C44.4386 22.2216 45.8082 22.2216 47.1797 22.2216H47.4698C47.304 22.9218 47.1382 23.6057 46.9724 24.2897C46.6877 25.4614 46.3957 26.6277 46.1272 27.7976C46.0803 27.9902 46.0083 28.0316 45.8208 28.0316C44.4512 28.0208 43.0815 28.0316 41.7101 28.0208C41.5335 28.0208 41.4452 28.0514 41.3983 28.2494C40.8631 30.5046 40.3134 32.7581 39.7692 35.0133C39.7529 35.0763 39.7439 35.1375 39.7331 35.2005C39.6664 35.8539 39.8629 36.0662 40.5225 36.0662C41.6326 36.0662 42.7481 36.0716 43.8583 36.0608C44.0349 36.0608 44.0763 36.1076 44.0349 36.2732C43.5934 38.0713 43.1572 39.8748 42.7211 41.6782C42.6959 41.7862 42.6743 41.8798 42.5139 41.8744C40.4594 41.8492 38.4031 41.9158 36.3486 41.833C35.7251 41.8078 35.1196 41.6728 34.5537 41.3921C33.6706 40.9565 33.2363 40.2257 33.157 39.2628C33.0939 38.4799 33.2814 37.7347 33.4634 36.9824C35.0042 30.6288 36.5451 24.2753 38.0877 17.9145C38.1959 17.4628 38.3112 17.0128 38.4139 16.5574C38.4392 16.453 38.4716 16.4062 38.5851 16.4062C40.4792 16.4278 42.3625 16.4278 44.2728 16.4278V16.4296Z" fill="#3A3A3A"/>
<path d="M60.6698 41.9898C60.6644 41.8764 60.7329 41.808 60.7744 41.7306C61.7025 40.0262 62.6324 38.3199 63.5713 36.6208C63.6434 36.4858 63.6596 36.3616 63.6236 36.2158C62.4558 31.6712 61.288 27.1247 60.1202 22.5854C60.0985 22.508 60.0841 22.4306 60.0625 22.3514C60.1202 22.2992 60.1869 22.3208 60.2445 22.3208C62.1386 22.3262 64.0327 22.337 65.9213 22.337C66.17 22.337 66.2746 22.4 66.3358 22.6538C66.8242 24.6229 67.327 26.5883 67.8298 28.5574C67.8407 28.5934 67.8551 28.6294 67.8767 28.7032C67.9398 28.5988 67.9812 28.5322 68.0227 28.4602C69.0968 26.4965 70.1709 24.5311 71.2395 22.562C71.3278 22.3964 71.427 22.3388 71.6126 22.3388C73.5373 22.3388 75.4638 22.328 77.3885 22.3226H77.5291C77.5507 22.427 77.4822 22.4828 77.4462 22.5512C74.0005 28.9516 70.5493 35.3519 67.1036 41.7576C67.0405 41.871 66.99 41.9592 66.8242 41.9592C64.8166 41.9646 62.8126 41.9844 60.805 42.0006C60.7581 41.9898 60.7167 41.9898 60.6698 41.9898Z" fill="#3A3A3A"/>
<path d="M48.0811 41.8815C47.1782 41.8815 46.2753 41.8761 45.3724 41.8869C45.1958 41.8869 45.1381 41.8761 45.1904 41.6637C46.2537 37.299 47.3079 32.9308 48.3712 28.5679C48.5839 27.6967 48.7353 26.8058 49.0723 25.9671C49.9643 23.7496 52.1756 22.2413 54.5617 22.2251C55.7403 22.2143 56.9117 22.2251 58.0903 22.2197C58.2507 22.2197 58.3138 22.2665 58.3498 22.4159C58.7643 24.214 59.186 26.0121 59.6113 27.8065C59.6528 27.9937 59.6221 28.0351 59.4293 28.0351C58.2363 28.0243 57.0414 28.0567 55.8538 28.0243C54.6139 27.9937 54.194 28.6669 54.0012 29.4696C53.0208 33.5175 52.035 37.56 51.0636 41.6079C51.0114 41.8149 50.9447 41.8869 50.7212 41.8869C49.8346 41.8761 48.9569 41.8815 48.0793 41.8815H48.0811Z" fill="#3A3A3A"/>
<path d="M97.8729 16.3306C96.0455 16.3306 94.2145 16.336 92.3871 16.3252C92.1943 16.3252 92.1853 16.4332 92.1582 16.5538C91.7167 18.3734 91.2752 20.1877 90.8445 22.0056C90.8084 22.1658 90.7507 22.2342 90.5651 22.2342C89.008 22.2234 87.4564 22.2234 85.8993 22.2288C84.7946 22.2342 83.6881 22.1766 82.5887 22.2648C81.3434 22.3692 80.2225 22.7831 79.3034 23.6633C78.3645 24.565 77.8508 25.6953 77.5499 26.9282C76.7659 30.1158 75.9982 33.3034 75.2251 36.491C75.007 37.3819 74.7836 38.2692 74.8358 39.1962C74.9025 40.3679 75.5423 41.2282 76.6632 41.6062C77.3066 41.824 77.9716 41.8762 78.6402 41.8762C82.9528 41.8762 87.26 41.8762 91.5725 41.8816C91.769 41.8816 91.8266 41.815 91.8681 41.6386C93.3729 35.4146 94.8831 29.1943 96.3879 22.9757C96.9232 20.7673 97.4566 18.566 97.9973 16.336C97.9396 16.336 97.9089 16.3306 97.8729 16.3306ZM89.3 28.2403C88.6765 30.7962 88.0547 33.3502 87.442 35.906C87.4113 36.041 87.3537 36.0824 87.2131 36.0824C86.4093 36.077 85.6038 36.077 84.8 36.077C84.0737 36.077 83.3529 36.0824 82.6266 36.077C81.6246 36.0716 81.2677 35.6216 81.5002 34.6461C81.9057 32.9362 82.3202 31.2299 82.7347 29.5255C82.9834 28.5049 83.5745 28.0424 84.6342 28.0388C86.1336 28.0334 87.6276 28.0388 89.1288 28.0334C89.2946 28.028 89.3415 28.055 89.3 28.2403Z" fill="#3A3A3A"/>
<path d="M41.7881 0.104393L27.2429 0L24.6009 3.01118L32.981 3.06878C33.4892 3.07418 33.9361 3.36396 34.1434 3.82473C34.3506 4.28549 34.2731 4.81466 33.9415 5.19263L17.6571 23.7835L17.6211 28.8879L42.1468 0.901736C42.4171 0.590358 42.199 0.104393 41.7881 0.104393Z" fill="#0083BB"/>
<path d="M32.9802 3.87099L18.4349 3.7666L15.8668 6.69499L24.1694 6.75259C24.6776 6.75799 25.1245 7.04777 25.3318 7.50853C25.539 7.9693 25.4615 8.49846 25.1245 8.87644L8.85636 27.4565L8.82031 32.6545L33.3442 4.66834C33.6145 4.35696 33.3965 3.87459 32.9802 3.87099Z" fill="#2EA8D3"/>
<path d="M0 36.3468L0.0630758 27.8316L12.9161 13.159L4.67482 13.1014L9.61997 7.45703L24.1653 7.56142C24.5743 7.56682 24.7924 8.04919 24.5239 8.35877L0 36.3468Z" fill="#99D5EF"/>
</svg>
