<svg width="353" height="150" viewBox="0 0 353 150" fill="none" xmlns="http://www.w3.org/2000/svg">
<path d="M158.123 58.6747C157.456 61.4137 156.825 64.0801 156.177 66.7445C155.213 70.7249 154.267 74.7215 153.266 78.6837C153.119 79.2953 153.248 79.3861 153.822 79.3861C158.715 79.368 163.608 79.368 168.501 79.368H169.54C168.948 81.8668 168.353 84.3091 167.761 86.7535C166.743 90.9358 165.704 95.1019 164.74 99.2841C164.572 99.9684 164.313 100.118 163.646 100.118C158.753 100.081 153.861 100.118 148.968 100.081C148.337 100.081 148.022 100.192 147.856 100.895C145.946 108.946 143.982 116.998 142.037 125.05C141.981 125.272 141.944 125.494 141.908 125.716C141.668 128.047 142.371 128.806 144.725 128.806C148.691 128.806 152.676 128.824 156.641 128.788C157.272 128.788 157.42 128.956 157.272 129.547C155.698 135.97 154.139 142.411 152.583 148.851C152.49 149.241 152.415 149.574 151.841 149.554C144.503 149.461 137.163 149.701 129.824 149.407C127.601 149.314 125.432 148.833 123.411 147.834C120.261 146.28 118.704 143.67 118.425 140.227C118.203 137.431 118.87 134.767 119.519 132.082C125.022 109.391 130.527 86.697 136.031 63.9873C136.421 62.3765 136.827 60.7658 137.199 59.1369C137.292 58.7675 137.403 58.6 137.811 58.6C144.576 58.6747 151.304 58.6747 158.123 58.6747Z" fill="white"/>
<path d="M216.687 149.962C216.669 149.554 216.909 149.314 217.057 149.037C220.373 142.948 223.692 136.858 227.047 130.786C227.305 130.306 227.362 129.862 227.233 129.343C223.063 113.111 218.894 96.8781 214.722 80.6638C214.648 80.3853 214.593 80.1087 214.518 79.8302C214.722 79.6445 214.963 79.7192 215.167 79.7192C221.932 79.7373 228.696 79.7757 235.442 79.7757C236.331 79.7757 236.703 79.9977 236.926 80.904C238.668 87.9383 240.465 94.9525 242.263 101.987C242.3 102.116 242.356 102.245 242.431 102.506C242.653 102.136 242.801 101.894 242.95 101.636C246.786 94.6215 250.622 87.6053 254.44 80.573C254.755 79.9816 255.107 79.7777 255.774 79.7777C262.65 79.7777 269.525 79.7414 276.401 79.7212H276.902C276.977 80.0906 276.734 80.2944 276.605 80.5346C264.299 103.394 251.974 126.253 239.668 149.13C239.446 149.538 239.26 149.853 238.668 149.853C231.495 149.871 224.343 149.946 217.17 150C217.002 149.964 216.855 149.964 216.689 149.964L216.687 149.962Z" fill="white"/>
<path d="M171.727 149.574C168.501 149.574 165.277 149.556 162.052 149.592C161.421 149.592 161.217 149.556 161.403 148.797C165.203 133.212 168.964 117.61 172.763 102.023C173.523 98.9127 174.061 95.7296 175.265 92.7322C178.453 84.8097 186.349 79.4245 194.874 79.368C199.081 79.3316 203.269 79.368 207.477 79.3498C208.051 79.3498 208.273 79.5173 208.403 80.0522C209.886 86.475 211.386 92.8977 212.905 99.3023C213.053 99.9684 212.942 100.116 212.257 100.116C207.994 100.079 203.732 100.19 199.488 100.079C195.058 99.9684 193.558 102.374 192.871 105.243C189.368 119.699 185.848 134.135 182.382 148.591C182.196 149.332 181.955 149.59 181.159 149.59C177.99 149.554 174.857 149.572 171.725 149.572L171.727 149.574Z" fill="white"/>
<path d="M349.551 58.3235C343.027 58.3235 336.485 58.3416 329.961 58.3053C329.276 58.3053 329.237 58.6949 329.146 59.1187C327.572 65.6162 325.995 72.0934 324.457 78.5908C324.328 79.1641 324.124 79.4043 323.457 79.4043C317.897 79.368 312.355 79.368 306.795 79.3861C302.848 79.4043 298.901 79.2004 294.972 79.5153C290.524 79.8847 286.52 81.3662 283.24 84.513C279.885 87.7345 278.05 91.7694 276.977 96.1737C274.178 107.558 271.435 118.94 268.674 130.324C267.896 133.507 267.1 136.672 267.284 139.986C267.524 144.169 269.804 147.243 273.808 148.593C276.106 149.37 278.478 149.556 280.869 149.556C296.27 149.556 311.652 149.556 327.054 149.574C327.758 149.574 327.962 149.334 328.111 148.704C333.485 126.475 338.88 104.264 344.254 82.0525C346.163 74.1684 348.071 66.3004 349.999 58.3416C349.795 58.3416 349.684 58.3235 349.555 58.3235H349.551ZM318.934 100.859C316.711 109.984 314.485 119.109 312.299 128.233C312.188 128.713 311.983 128.863 311.484 128.863C308.612 128.844 305.738 128.845 302.866 128.845C300.271 128.845 297.697 128.863 295.102 128.845C291.524 128.826 290.245 127.216 291.08 123.736C292.525 117.628 294.008 111.538 295.49 105.448C296.379 101.803 298.493 100.154 302.272 100.136C307.628 100.118 312.966 100.136 318.321 100.118C318.914 100.1 319.081 100.192 318.934 100.859Z" fill="white"/>
<path d="M149.246 0.369379L97.2974 0L87.8631 10.7544L117.795 10.9582C119.612 10.9764 121.204 12.0139 121.946 13.661C122.688 15.308 122.409 17.1953 121.223 18.5477L63.0669 84.9409L62.9375 103.172L150.526 3.22147C151.49 2.11131 150.712 0.371397 149.246 0.371397V0.369379Z" fill="white"/>
<path d="M117.777 13.8265L65.8296 13.4571L56.6561 23.9147L86.3089 24.1186C88.1259 24.1368 89.7184 25.1743 90.4602 26.8213C91.2019 28.4684 90.923 30.3557 89.7185 31.708L31.6173 98.0629L31.488 116.627L119.074 16.6765C120.038 15.5664 119.26 13.8446 117.777 13.8265Z" fill="white"/>
<path d="M0 129.805L0.222315 99.3951L46.1284 46.9959L16.6979 46.792L34.3599 26.6356L86.3069 27.005C87.7702 27.0232 88.5503 28.7449 87.5862 29.8551L0 129.805Z" fill="white"/>
</svg>
