<svg width="50" height="22" viewBox="0 0 50 22" fill="none" xmlns="http://www.w3.org/2000/svg">
<path d="M20.7967 3.37837L14.6021 3.33228L13.4771 4.67445L17.0463 4.69989C17.2629 4.70216 17.4528 4.83164 17.5413 5.03719C17.6297 5.24275 17.5965 5.47829 17.455 5.64707L10.5203 13.9331L10.5049 16.2083L20.9492 3.73432C21.0642 3.59577 20.9714 3.37863 20.7967 3.37863V3.37837Z" fill="#0083BB"/>
<path d="M17.044 5.05733L10.8497 5.01123L9.75578 6.31637L13.2917 6.34181C13.5083 6.34408 13.6982 6.47356 13.7867 6.67912C13.8751 6.88468 13.8419 7.12021 13.6982 7.28899L6.77006 15.5702L6.75464 17.887L17.1987 5.41303C17.3137 5.27448 17.2209 5.0596 17.044 5.05733Z" fill="#2EA8D3"/>
<path d="M3 19.5321L3.02651 15.7368L8.50052 9.19725L4.99112 9.17181L7.09719 6.65625L13.2915 6.70235C13.466 6.70462 13.559 6.91949 13.4441 7.05804L3 19.5321Z" fill="#99D5EF"/>
<path d="M25.3341 6.04028C25.2613 6.339 25.1926 6.62979 25.1218 6.92036C25.0167 7.35445 24.9135 7.79031 24.8044 8.22242C24.7883 8.28912 24.8024 8.29902 24.865 8.29902C25.3986 8.29704 25.9323 8.29704 26.4659 8.29704H26.5792C26.5146 8.56956 26.4498 8.83592 26.3852 9.10249C26.2741 9.5586 26.1608 10.0129 26.0557 10.4691C26.0374 10.5437 26.0092 10.56 25.9365 10.56C25.4028 10.556 24.8692 10.56 24.3356 10.556C24.2668 10.556 24.2325 10.5681 24.2144 10.6447C24.0061 11.5228 23.7919 12.4009 23.5798 13.279C23.5736 13.3032 23.5697 13.3274 23.5657 13.3516C23.5395 13.6059 23.6162 13.6887 23.873 13.6887C24.3054 13.6887 24.7401 13.6906 25.1725 13.6867C25.2413 13.6867 25.2574 13.7049 25.2413 13.7694C25.0696 14.4699 24.8996 15.1723 24.7299 15.8747C24.7198 15.9172 24.7116 15.9536 24.649 15.9514C23.8487 15.9412 23.0482 15.9674 22.2479 15.9353C22.0054 15.9252 21.7689 15.8728 21.5485 15.7638C21.2049 15.5943 21.0352 15.3097 21.0048 14.9341C20.9805 14.6293 21.0533 14.3387 21.124 14.0459C21.7242 11.5712 22.3246 9.09633 22.9248 6.61966C22.9673 6.444 23.0116 6.26834 23.0522 6.09069C23.0623 6.05041 23.0744 6.03214 23.1189 6.03214C23.8567 6.04028 24.5904 6.04028 25.3341 6.04028Z" fill="white"/>
<path d="M31.7209 15.9958C31.7189 15.9514 31.7452 15.9252 31.7612 15.895C32.1229 15.2309 32.4849 14.5667 32.8507 13.9046C32.879 13.8522 32.8851 13.8038 32.871 13.7472C32.4163 11.9769 31.9616 10.2067 31.5067 8.43836C31.4985 8.40799 31.4926 8.37783 31.4844 8.34745C31.5067 8.3272 31.5329 8.33534 31.5552 8.33534C32.2929 8.33732 33.0306 8.34151 33.7663 8.34151C33.8633 8.34151 33.9039 8.36572 33.9281 8.46456C34.1181 9.23171 34.314 9.99665 34.5102 10.7638C34.5142 10.7779 34.5204 10.792 34.5285 10.8204C34.5528 10.7801 34.5688 10.7537 34.5852 10.7255C35.0035 9.96055 35.4218 9.19539 35.8382 8.42846C35.8726 8.36396 35.9109 8.34173 35.9837 8.34173C36.7335 8.34173 37.4833 8.33777 38.2332 8.33556H38.2878C38.296 8.37585 38.2695 8.39808 38.2554 8.42428C36.9134 10.9172 35.5693 13.4102 34.2272 15.9051C34.203 15.9496 34.1827 15.9839 34.1181 15.9839C33.3359 15.9859 32.5558 15.9941 31.7736 16C31.7553 15.996 31.7392 15.996 31.7211 15.996L31.7209 15.9958Z" fill="white"/>
<path d="M26.8177 15.9536C26.4659 15.9536 26.1143 15.9516 25.7625 15.9555C25.6938 15.9555 25.6715 15.9516 25.6918 15.8688C26.1062 14.1692 26.5164 12.4676 26.9307 10.7678C27.0136 10.4285 27.0722 10.0814 27.2036 9.75451C27.5512 8.89051 28.4123 8.30321 29.342 8.29704C29.8009 8.29308 30.2576 8.29704 30.7165 8.29506C30.7791 8.29506 30.8033 8.31333 30.8174 8.37167C30.9792 9.07211 31.1428 9.77256 31.3085 10.471C31.3246 10.5437 31.3125 10.5597 31.2378 10.5597C30.7729 10.5558 30.3081 10.5679 29.8452 10.5558C29.3621 10.5437 29.1985 10.8061 29.1236 11.1189C28.7416 12.6954 28.3577 14.2698 27.9797 15.8463C27.9594 15.9271 27.9332 15.9553 27.8463 15.9553C27.5007 15.9514 27.1591 15.9533 26.8174 15.9533L26.8177 15.9536Z" fill="white"/>
<path d="M46.2107 6.00198C45.4992 6.00198 44.7858 6.00396 44.0743 6C43.9996 6 43.9954 6.04249 43.9855 6.08871C43.8138 6.79731 43.6418 7.5037 43.4741 8.21229C43.46 8.27481 43.4377 8.301 43.365 8.301C42.7586 8.29704 42.1543 8.29704 41.5479 8.29902C41.1175 8.301 40.687 8.27877 40.2585 8.31311C39.7734 8.3534 39.3368 8.51497 38.979 8.85815C38.6132 9.20947 38.413 9.64951 38.296 10.1298C37.9907 11.3714 37.6916 12.6127 37.3905 13.8542C37.3057 14.2013 37.2188 14.5465 37.2389 14.9079C37.2651 15.3641 37.5138 15.6993 37.9504 15.8466C38.201 15.9313 38.4598 15.9516 38.7205 15.9516C40.4 15.9516 42.0776 15.9516 43.7573 15.9536C43.834 15.9536 43.8563 15.9274 43.8726 15.8587C44.4587 13.4344 45.0469 11.0121 45.633 8.58981C45.8413 7.72999 46.0494 6.87193 46.2597 6.00396C46.2374 6.00396 46.2253 6.00198 46.2112 6.00198H46.2107ZM42.8717 10.6408C42.6293 11.636 42.3866 12.6312 42.1481 13.6261C42.136 13.6785 42.1137 13.6948 42.0593 13.6948C41.7461 13.6928 41.4327 13.6928 41.1195 13.6928C40.8364 13.6928 40.5556 13.6948 40.2726 13.6928C39.8825 13.6909 39.743 13.5152 39.834 13.1357C39.9916 12.4696 40.1534 11.8055 40.315 11.1413C40.4119 10.7438 40.6425 10.5639 41.0546 10.5619C41.6387 10.56 42.2208 10.5619 42.8049 10.56C42.8695 10.558 42.8878 10.5681 42.8717 10.6408Z" fill="white"/>
</svg>
