<svg width="103" height="43" viewBox="0 0 103 43" fill="none" xmlns="http://www.w3.org/2000/svg">
<path d="M46.2189 16.8201C46.024 17.6053 45.8396 18.3696 45.65 19.1334C45.3682 20.2745 45.0918 21.4202 44.7993 22.556C44.7562 22.7313 44.794 22.7574 44.9618 22.7574C46.392 22.7521 47.8222 22.7521 49.2524 22.7521H49.556C49.3829 23.4685 49.2093 24.1686 49.0362 24.8693C48.7384 26.0682 48.4348 27.2625 48.153 28.4614C48.104 28.6576 48.0284 28.7004 47.8334 28.7004C46.4032 28.69 44.973 28.7004 43.5428 28.69C43.3585 28.69 43.2663 28.7218 43.2179 28.9232C42.6596 31.2313 42.0854 33.5395 41.5171 35.8476C41.5006 35.9113 41.49 35.9749 41.4793 36.0386C41.409 36.7069 41.6146 36.9244 42.3028 36.9244C43.4619 36.9244 44.6268 36.9296 45.7859 36.9192C45.9702 36.9192 46.0133 36.9672 45.9702 37.1368C45.51 38.978 45.0545 40.8244 44.5997 42.6708C44.5725 42.7824 44.5506 42.8779 44.3829 42.8721C42.2379 42.8455 40.0923 42.9144 37.9473 42.8299C37.2974 42.8033 36.6636 42.6656 36.0728 42.3791C35.1518 41.9336 34.697 41.1854 34.6154 40.1983C34.5505 39.3969 34.7454 38.6331 34.935 37.8635C36.5436 31.3586 38.1528 24.8531 39.7614 18.343C39.8755 17.8813 39.9942 17.4195 40.1029 16.9526C40.1301 16.8467 40.1626 16.7987 40.2819 16.7987C42.2591 16.8201 44.2257 16.8201 46.2189 16.8201Z" fill="#0A0A0A"/>
<path d="M63.337 42.989C63.3317 42.8721 63.402 42.8033 63.4451 42.724C64.4145 40.9783 65.3845 39.2326 66.3652 37.4921C66.4408 37.3543 66.4573 37.227 66.4195 37.0783C65.2008 32.425 63.9821 27.7717 62.7628 23.1236C62.7409 23.0438 62.725 22.9645 62.7031 22.8847C62.7628 22.8314 62.8331 22.8528 62.8928 22.8528C64.87 22.858 66.8472 22.869 68.8191 22.869C69.0791 22.869 69.1878 22.9327 69.2527 23.1925C69.762 25.209 70.2871 27.2197 70.8129 29.2362C70.8235 29.2733 70.8401 29.3103 70.8619 29.3849C70.9269 29.279 70.97 29.2096 71.0138 29.1355C72.135 27.1248 73.2562 25.1135 74.3721 23.0976C74.4643 22.928 74.5671 22.8696 74.762 22.8696C76.7718 22.8696 78.7815 22.8592 80.7912 22.8534H80.9377C80.9596 22.9593 80.8887 23.0177 80.8509 23.0866C77.2538 29.6395 73.6514 36.1925 70.0544 42.7506C69.9894 42.8675 69.9351 42.9578 69.762 42.9578C67.6654 42.963 65.5747 42.9844 63.4782 43C63.4291 42.9896 63.386 42.9896 63.3376 42.9896L63.337 42.989Z" fill="#0A0A0A"/>
<path d="M50.1952 42.8779C49.2524 42.8779 48.3101 42.8727 47.3673 42.8831C47.183 42.8831 47.1233 42.8727 47.1777 42.6551C48.2883 38.1876 49.3877 33.7148 50.4983 29.2466C50.7204 28.355 50.8775 27.4425 51.2296 26.5832C52.1612 24.3121 54.4693 22.7683 56.961 22.7521C58.191 22.7417 59.415 22.7521 60.6449 22.7469C60.8127 22.7469 60.8777 22.795 60.9155 22.9483C61.3491 24.7895 61.7875 26.6307 62.2317 28.4667C62.2748 28.6576 62.2423 28.6998 62.0421 28.6998C60.7962 28.6894 59.5503 28.7213 58.3097 28.6894C57.0148 28.6576 56.5765 29.3473 56.3756 30.1696C55.3519 34.3137 54.3228 38.452 53.3096 42.5961C53.2553 42.8085 53.185 42.8825 52.9522 42.8825C52.0259 42.8721 51.1103 42.8773 50.1946 42.8773L50.1952 42.8779Z" fill="#0A0A0A"/>
<path d="M102.173 16.7194C100.266 16.7194 98.3535 16.7246 96.4466 16.7142C96.2463 16.7142 96.2351 16.8259 96.2085 16.9474C95.7483 18.81 95.2876 20.6668 94.838 22.5294C94.8002 22.6937 94.7405 22.7626 94.5456 22.7626C92.9204 22.7521 91.3006 22.7521 89.6755 22.7574C88.5217 22.7626 87.368 22.7041 86.2196 22.7944C84.9194 22.9003 83.7491 23.325 82.7903 24.2271C81.8097 25.1506 81.2733 26.3072 80.9596 27.5698C80.1414 30.8332 79.3397 34.0961 78.5328 37.3596C78.3053 38.272 78.0726 39.1793 78.1264 40.1294C78.1967 41.3284 78.863 42.2096 80.0333 42.5967C80.705 42.8195 81.3985 42.8727 82.0974 42.8727C86.5989 42.8727 91.095 42.8727 95.5971 42.8779C95.8027 42.8779 95.8624 42.8091 95.9061 42.6285C97.4769 36.2561 99.0536 29.8889 100.624 23.5217C101.183 21.2616 101.74 19.0061 102.304 16.7246C102.244 16.7246 102.212 16.7194 102.174 16.7194H102.173ZM93.2235 28.9128C92.5737 31.5287 91.9233 34.1447 91.2841 36.7601C91.2516 36.8978 91.1919 36.9406 91.046 36.9406C90.2065 36.9354 89.3665 36.9354 88.5271 36.9354C87.7685 36.9354 87.0159 36.9406 86.2574 36.9354C85.2118 36.9302 84.8378 36.4685 85.0818 35.4709C85.5042 33.72 85.9378 31.9743 86.3708 30.2286C86.6308 29.1836 87.2487 28.7108 88.3534 28.7056C89.9188 28.7004 91.479 28.7056 93.0445 28.7004C93.2176 28.6952 93.2666 28.7218 93.2235 28.9128Z" fill="#0A0A0A"/>
<path d="M43.6243 0.105889L28.4398 0L25.6822 3.08292L34.4311 3.14136C34.9622 3.14657 35.4277 3.44398 35.6445 3.91614C35.8613 4.3883 35.7798 4.92931 35.433 5.31699L18.4343 24.3497L18.3965 29.5759L43.9983 0.923487C44.2801 0.605243 44.0526 0.106467 43.6243 0.106467V0.105889Z" fill="#0A0A0A"/>
<path d="M34.4258 3.96359L19.2418 3.8577L16.5604 6.85556L25.2279 6.914C25.759 6.91921 26.2245 7.21662 26.4413 7.68878C26.6581 8.16094 26.5765 8.70195 26.2245 9.08963L9.24165 28.1114L9.20385 33.433L34.8051 4.78061C35.0869 4.46236 34.8594 3.96879 34.4258 3.96359Z" fill="#0A0A0A"/>
<path d="M0 37.2109L0.0649822 28.4933L13.4832 13.4721L4.88076 13.4137L10.0433 7.63555L25.2273 7.74143C25.655 7.74664 25.883 8.24021 25.6012 8.55845L0 37.2109Z" fill="#0A0A0A"/>
</svg>
