<svg width="134" height="38" viewBox="0 0 134 38" fill="none" xmlns="http://www.w3.org/2000/svg">
<g clip-path="url(#clip0_12_12584)">
<path d="M49.6213 5.92817C49.8708 5.92817 50.0683 6.12621 50.0683 6.37621V9.37293C50.0683 9.62291 49.8675 9.82098 49.6213 9.82098H44.8407V22.4735C44.8407 22.7234 44.6399 22.9216 44.3938 22.9216H40.9089C40.6594 22.9216 40.4619 22.7201 40.4619 22.4735V9.82098H35.6813C35.4318 9.82098 35.2344 9.62291 35.2344 9.37293V6.37621C35.2344 6.12621 35.4352 5.92817 35.6813 5.92817H49.6246H49.6213Z" fill="white"/>
<path d="M64.559 9.82098C64.8083 9.82098 65.0059 9.62291 65.0059 9.37293V6.37621C65.0059 6.12621 64.8083 5.92817 64.559 5.92817H52.3582C52.1087 5.92817 51.9112 6.12621 51.9112 6.37621V22.4735C51.9112 22.7234 52.112 22.9216 52.3582 22.9216H64.559C64.8083 22.9216 65.0059 22.7201 65.0059 22.4735V19.48C65.0059 19.23 64.8083 19.0319 64.559 19.0319H56.2933V16.3112H63.0755V12.4183H56.2933V9.82423H64.559V9.82098Z" fill="white"/>
<path d="M82.2077 22.1523C81.5957 21.0873 80.0474 18.4152 79.3382 17.1912C80.1706 16.6231 80.828 15.6977 81.3982 14.5971C81.722 13.7043 81.8904 12.8017 81.8776 11.8893C81.8807 11.7984 81.884 11.7108 81.884 11.6199C81.884 9.82117 81.1875 8.15235 79.918 7.15237C78.7973 6.27899 77.2297 5.92835 75.5617 5.92835H68.3586C68.2517 5.91861 68.1512 5.91861 68.0606 5.92835H68.0152C67.769 5.92835 67.5682 6.12964 67.5682 6.3764C67.5585 6.45107 67.5585 6.53224 67.5682 6.6264V22.4768C67.5682 22.7236 67.769 22.9249 68.0152 22.9249H71.5003C71.7462 22.9249 71.9472 22.7236 71.9472 22.4768V18.3016C72.9965 18.3049 74.0492 18.3114 75.0985 18.3146L75.1926 18.4964L77.2751 22.4737C77.3042 22.5287 77.3366 22.5776 77.369 22.6231C77.3884 22.6522 77.411 22.6781 77.4337 22.7042C77.4822 22.7528 77.5343 22.7919 77.5891 22.821C77.5891 22.821 77.5924 22.821 77.5957 22.8243C77.7381 22.9023 77.9067 22.9249 78.1205 22.9249H81.8646C82.0847 22.9412 82.2337 22.8924 82.2985 22.7788C82.3957 22.6231 82.3309 22.373 82.2046 22.1523H82.2077ZM75.3997 14.4218H71.9472V9.74324H75.2573C76.6824 9.79521 77.4047 10.5744 77.4241 12.0841C77.369 13.5062 76.7503 14.3471 75.3964 14.425L75.3997 14.4218Z" fill="white"/>
<path d="M99.0886 22.1523C98.4765 21.0873 96.9283 18.4152 96.219 17.1912C97.0515 16.6231 97.7089 15.6977 98.2788 14.5971C98.6028 13.7043 98.7712 12.8017 98.7582 11.8893C98.7615 11.7984 98.7648 11.7108 98.7648 11.6199C98.7648 9.82117 98.0684 8.15235 96.7987 7.15237C95.6782 6.27899 94.1105 5.92835 92.4426 5.92835H85.2392C85.1323 5.91861 85.032 5.91861 84.9412 5.92835H84.896C84.6499 5.92835 84.4491 6.12964 84.4491 6.3764C84.4394 6.45107 84.4394 6.53224 84.4491 6.6264V22.4768C84.4491 22.7236 84.6499 22.9249 84.896 22.9249H88.3809C88.6271 22.9249 88.8279 22.7236 88.8279 22.4768V18.3016C89.8774 18.3049 90.93 18.3114 91.9793 18.3146L92.0732 18.4964L94.1559 22.4737C94.185 22.5287 94.2174 22.5776 94.2498 22.6231C94.2692 22.6522 94.2919 22.6781 94.3146 22.7042C94.3631 22.7528 94.4149 22.7919 94.47 22.821C94.47 22.821 94.4733 22.821 94.4766 22.8243C94.619 22.9023 94.7873 22.9249 95.0011 22.9249H98.7452C98.9656 22.9412 99.1146 22.8924 99.1794 22.7788C99.2766 22.6231 99.2118 22.373 99.0855 22.1523H99.0886ZM92.2806 14.4218H88.8279V9.74324H92.138C93.5631 9.79521 94.2855 10.5744 94.3049 12.0841C94.2498 13.5062 93.6312 14.3471 92.2773 14.425L92.2806 14.4218Z" fill="white"/>
<path d="M105.058 22.4247C104.945 22.7754 104.66 22.9247 104.2 22.9247H100.258C99.9147 22.9247 99.8014 22.7754 99.8014 22.5741C99.8014 22.4736 99.8305 22.3989 99.8598 22.2981L106.114 6.30156C106.227 5.97688 106.486 5.85352 106.914 5.85352H111.141C111.568 5.85352 111.827 5.97688 111.941 6.30156L118.078 22.2981C118.107 22.3989 118.136 22.4736 118.136 22.5741C118.136 22.7723 118.023 22.9247 117.68 22.9247H113.625C113.168 22.9247 112.883 22.7754 112.767 22.4247L111.911 19.8534H105.942L105.058 22.4247ZM108.971 11.1684L107.173 16.3339H110.713L108.971 11.1684Z" fill="white"/>
<path d="M35.2656 29.4552H36.1529V37.8642H35.2656V29.4552Z" fill="white"/>
<path d="M45.8953 29.4552V37.8642H45.1633L39.7705 31.0396V37.8642H38.8832V29.4552H39.6151L45.0208 36.2798V29.4552H45.8953Z" fill="white"/>
<path d="M55.5058 29.4552L51.7909 37.8642H50.9164L47.2014 29.4552H48.1601L51.373 36.7603L54.6086 29.4552H55.5089H55.5058Z" fill="white"/>
<path d="M62.6465 37.0947V37.8642H56.7128V29.4552H62.4651V30.2247H57.6003V33.2149H61.9403V33.9714H57.6003V37.0947H62.6465Z" fill="white"/>
<path d="M63.929 36.8448L64.2757 36.1597C64.8747 36.7474 65.9403 37.1793 67.0449 37.1793C68.6157 37.1793 69.2991 36.5168 69.2991 35.6889C69.2991 33.3838 64.1331 34.7993 64.1331 31.689C64.1331 30.452 65.0918 29.3838 67.2261 29.3838C68.172 29.3838 69.1565 29.6598 69.827 30.1273L69.529 30.8351C68.8101 30.3675 67.9712 30.137 67.2294 30.137C65.6941 30.137 65.0109 30.8221 65.0109 31.663C65.0109 33.9714 70.1767 32.5753 70.1767 35.6402C70.1767 36.8772 69.1953 37.9357 67.048 37.9357C65.7913 37.9357 64.5542 37.4908 63.9323 36.8415L63.929 36.8448Z" fill="white"/>
<path d="M73.6139 30.2247H70.6665V29.4552H77.4485V30.2247H74.5012V37.8642H73.6139V30.2247Z" fill="white"/>
<path d="M78.8607 29.4552H79.7483V37.8642H78.8607V29.4552Z" fill="white"/>
<path d="M91.194 29.4552V37.8642H90.3424V31.137L87.0451 36.7961H86.6275L83.3301 31.1727V37.8642H82.4783V29.4552H83.2105L86.854 35.6922L90.4621 29.4552H91.194Z" fill="white"/>
<path d="M99.8585 37.0947V37.8642H93.9251V29.4552H99.6771V30.2247H94.8126V33.2149H99.1526V33.9714H94.8126V37.0947H99.8585Z" fill="white"/>
<path d="M108.952 29.4552V37.8642H108.22L102.828 31.0396V37.8642H101.94V29.4552H102.672L108.078 36.2798V29.4552H108.952Z" fill="white"/>
<path d="M113.315 30.2247H110.368V29.4552H117.15V30.2247H114.203V37.8642H113.315V30.2247Z" fill="white"/>
<path d="M117.701 33.6597C117.701 31.2085 119.57 29.3838 122.112 29.3838C124.655 29.3838 126.511 31.1987 126.511 33.6597C126.511 36.1207 124.629 37.9357 122.112 37.9357C119.596 37.9357 117.701 36.111 117.701 33.6597ZM125.623 33.6597C125.623 31.6532 124.127 30.176 122.112 30.176C120.098 30.176 118.576 31.6532 118.576 33.6597C118.576 35.6662 120.085 37.1435 122.112 37.1435C124.14 37.1435 125.623 35.6662 125.623 33.6597Z" fill="white"/>
<path d="M127.695 36.8448L128.042 36.1597C128.641 36.7474 129.707 37.1793 130.812 37.1793C132.383 37.1793 133.066 36.5168 133.066 35.6889C133.066 33.3838 127.899 34.7993 127.899 31.689C127.899 30.452 128.858 29.3838 130.992 29.3838C131.938 29.3838 132.923 29.6598 133.593 30.1273L133.296 30.8351C132.577 30.3675 131.737 30.137 130.997 30.137C129.461 30.137 128.777 30.8221 128.777 31.663C128.777 33.9714 133.944 32.5753 133.944 35.6402C133.944 36.8772 132.963 37.9357 130.814 37.9357C129.558 37.9357 128.321 37.4908 127.699 36.8415L127.695 36.8448Z" fill="white"/>
<mask id="mask0_12_12584" style="mask-type:luminance" maskUnits="userSpaceOnUse" x="0" y="0" width="28" height="28">
<path d="M13.7198 27.5065C21.297 27.5065 27.4396 21.349 27.4396 13.7534C27.4396 6.15772 21.297 0.000244141 13.7198 0.000244141C6.14256 0.000244141 0 6.15772 0 13.7534C0 21.349 6.14256 27.5065 13.7198 27.5065Z" fill="white"/>
</mask>
<g mask="url(#mask0_12_12584)">
<path d="M13.7198 27.5065C21.297 27.5065 27.4396 21.349 27.4396 13.7534C27.4396 6.15772 21.297 0.000244141 13.7198 0.000244141C6.14256 0.000244141 0 6.15772 0 13.7534C0 21.349 6.14256 27.5065 13.7198 27.5065Z" fill="#EDEDED"/>
<path d="M18.4285 26.7695C17.7192 27.026 16.9807 27.2272 16.2228 27.3669C16.2131 27.3669 16.2034 27.3702 16.1936 27.3735C16.0317 27.4058 15.8698 27.4382 15.7046 27.4643C15.5135 27.4871 15.3224 27.5065 15.1313 27.5228C15.1151 27.5228 15.0989 27.5228 15.0795 27.5259C14.9985 27.5326 14.9143 27.539 14.8333 27.5423C14.5775 27.5584 14.3248 27.5681 14.0722 27.5748C10.5742 24.0487 8.48843 19.8053 8.15158 14.6202C8.12244 14.1787 8.10624 13.8118 8.12566 13.3313C8.13862 13.3898 8.14834 13.4514 8.1613 13.5099C9.57019 20.8377 13.243 25.1916 18.4285 26.7662V26.7695Z" fill="#7E7E7E"/>
<path d="M23.2101 3.70174C21.5161 3.63681 19.8643 3.78941 18.274 4.11409C18.1509 4.14005 18.0278 4.16603 17.9048 4.19201C17.8691 4.19848 17.8335 4.20822 17.8011 4.21472C17.6813 4.2407 17.5647 4.26993 17.4448 4.29914C16.8068 4.45498 16.1817 4.64005 15.5663 4.84784C15.3558 4.91927 15.1485 4.99394 14.9412 5.06862C14.9153 5.07836 14.8861 5.0881 14.8602 5.10107C14.7372 5.14654 14.6141 5.19523 14.4943 5.2407C14.3971 5.27965 14.2999 5.31862 14.2027 5.35757C14.0829 5.40626 13.9631 5.45823 13.8432 5.50692C13.0853 5.8316 12.3469 6.19523 11.6311 6.58484C11.5534 6.62703 11.4756 6.66925 11.4011 6.7147C11.1712 6.84456 10.9445 6.97445 10.721 7.11081C10.6659 7.14326 10.6109 7.17574 10.559 7.20821C10.5364 7.22118 10.5169 7.23417 10.4943 7.24716C10.3129 7.35756 10.1347 7.47119 9.95985 7.58483C9.63596 7.79587 9.31855 8.01015 9.0044 8.23092C8.88455 8.31534 8.76148 8.40301 8.64163 8.49067C7.85784 9.06533 7.1129 9.67572 6.41654 10.3023C6.20278 10.4939 5.99548 10.6887 5.79144 10.8835C5.68781 10.9842 5.5874 11.0815 5.48375 11.1822C5.43517 11.2309 5.38336 11.2829 5.33476 11.3315C5.03679 11.6302 4.74853 11.9322 4.47324 12.2374C4.28861 12.4387 4.11049 12.64 3.93882 12.8445C3.80604 13.0004 3.67647 13.1562 3.5534 13.3088C3.38821 13.5133 3.22627 13.7179 3.0708 13.9192C2.87324 14.1789 2.68537 14.4387 2.50725 14.6951C2.436 14.7958 2.36798 14.8965 2.29997 14.9971C2.19631 15.1529 2.09591 15.3088 1.99551 15.4614C1.93073 15.562 1.86919 15.6627 1.80765 15.7601C1.80765 15.7601 1.80765 15.7633 1.80765 15.7666C1.7785 15.8153 1.74935 15.864 1.7202 15.9127C1.6619 16.0101 1.60684 16.1075 1.55178 16.2016C1.52263 16.2503 1.49672 16.2958 1.47081 16.3445C1.46109 16.3607 1.45462 16.377 1.4449 16.3899C1.36393 16.5328 1.28944 16.6756 1.21494 16.8153C0.988223 17.2503 0.787414 17.6789 0.618993 18.0945C0.612516 18.1075 0.609276 18.1172 0.606038 18.1269C0.606038 18.1269 0.606038 18.1269 0.606038 18.1302C0.599559 18.1139 0.593081 18.0977 0.589844 18.0782C0.593081 18.0653 0.599559 18.049 0.602799 18.036C3.37525 9.7374 9.86916 3.21797 18.0408 0.588135C18.0959 0.604369 18.1477 0.62385 18.1995 0.640084C18.2707 0.662809 18.342 0.688784 18.4133 0.714759C18.4359 0.721252 18.4554 0.73099 18.4748 0.737484C18.5104 0.750472 18.5461 0.763458 18.5817 0.776445C20.3209 1.43228 21.8918 2.42903 23.2165 3.6855L23.2101 3.70174Z" fill="#7E7E7E"/>
<path d="M27.5248 13.7988C27.5248 13.8669 27.5248 13.9351 27.5248 14.0033C27.5248 14.039 27.5248 14.0747 27.5248 14.1105C27.3886 19.5033 24.1756 24.1297 19.5765 26.2889C18.5077 25.2921 17.5296 24.1883 16.6745 22.9447C9.75308 12.9319 16.0235 8.12674 25.2576 6.21118C25.3708 6.367 25.481 6.5196 25.5879 6.6722C25.5879 6.6722 25.591 6.67869 25.5943 6.68194C26.7668 8.65595 27.4631 10.9449 27.5248 13.3929C27.5248 13.3962 27.5248 13.3994 27.5248 13.4027C27.5248 13.4027 27.5248 13.4221 27.5248 13.4351C27.5248 13.5553 27.5248 13.6754 27.5248 13.7988Z" fill="white"/>
<path d="M18.0323 0.603957C9.86068 3.2338 3.36677 9.75324 0.59432 18.0519C0.591081 18.0649 0.584603 18.0811 0.581366 18.0941C0.558694 18.0259 0.536022 17.9545 0.516589 17.883C0.506872 17.8538 0.500395 17.8246 0.490678 17.7954C0.471243 17.7337 0.455051 17.6687 0.435616 17.6038C0.435616 17.5941 0.432379 17.5843 0.429139 17.5778C0.387035 17.4285 0.348168 17.2791 0.312541 17.1298C0.273675 16.9642 0.234808 16.7954 0.19918 16.6266C0.186224 16.5648 0.173269 16.4999 0.160314 16.4382C0.147359 16.3798 0.137642 16.3214 0.127926 16.2629C0.11497 16.1947 0.105254 16.1265 0.0922982 16.0551C0.0793428 15.9642 0.0631488 15.8766 0.0534323 15.7856C0.0404768 15.6947 0.0307601 15.6038 0.0178047 15.5129C0.00808816 15.4285 -0.00162845 15.3408 -0.011345 15.2532C-0.0178227 15.1915 -0.0243003 15.1265 -0.027539 15.0649C-0.0340168 14.9837 -0.0404949 14.9058 -0.0469727 14.8246C-0.0534503 14.7499 -0.0566895 14.6753 -0.0599284 14.5973C-0.0599284 14.5811 -0.0599284 14.5616 -0.0599284 14.5454C-0.0599284 14.4805 -0.0664062 14.4155 -0.0664062 14.3506C-0.0664062 14.3344 -0.0664062 14.3149 -0.0664062 14.2986C-0.0664062 14.2532 -0.0664062 14.2077 -0.0664062 14.159C-0.0664062 14.1363 -0.0664062 14.1168 -0.0664062 14.0941C-0.0664062 14.0129 -0.0664062 13.9285 -0.0664062 13.8473C-0.0664062 6.16559 6.14897 -0.0681152 13.8153 -0.0681152C14.1036 -0.0681152 14.3886 -0.0583751 14.6639 -0.0421413C14.6931 -0.0421413 14.7222 -0.0421413 14.7481 -0.0356478C14.7513 -0.0356478 14.7546 -0.0356478 14.7611 -0.0356478C14.8291 -0.032401 14.8971 -0.0259078 14.9651 -0.0194144C14.9748 -0.0194144 14.9813 -0.0194144 14.991 -0.0194144C15.0396 -0.0161677 15.0914 -0.00967395 15.14 -0.00642722C15.2696 0.00655968 15.3991 0.0195463 15.5287 0.0357799C15.6194 0.0487668 15.7068 0.0585072 15.7943 0.0747409C15.8849 0.0877279 15.9724 0.100714 16.0599 0.116948C16.1246 0.126688 16.1894 0.139675 16.2542 0.149415C16.3028 0.159155 16.3546 0.168896 16.4032 0.178636C16.4647 0.188376 16.523 0.201363 16.5845 0.21435C16.6655 0.230583 16.7465 0.246817 16.8275 0.266296C16.8339 0.266296 16.8437 0.266296 16.8501 0.27279C16.902 0.285778 16.9538 0.295519 17.0056 0.308505C17.119 0.334478 17.2258 0.3637 17.336 0.39292C17.4169 0.415648 17.4947 0.435127 17.5756 0.461102C17.7343 0.506554 17.8931 0.555256 18.0453 0.603957H18.0323Z" fill="white"/>
<path d="M11.9627 27.4804C11.9627 27.4804 11.9498 27.4804 11.9433 27.4804C7.29229 26.8799 3.36356 23.961 1.35547 19.9157C2.80325 17.0293 5.19676 14.6949 8.12468 13.3313C8.10524 13.8118 8.12468 14.1755 8.1506 14.6202C8.48742 19.8085 10.5732 24.0487 14.0712 27.5748C14.3239 27.5714 12.536 27.5551 11.9627 27.4804Z" fill="white"/>
</g>
</g>
<defs>
<clipPath id="clip0_12_12584">
<rect width="134" height="38" fill="white"/>
</clipPath>
</defs>
</svg>
