<svg width="4096" height="1279" viewBox="0 0 4096 1279" fill="none" xmlns="http://www.w3.org/2000/svg">
<g clip-path="url(#clip0_120_130)">
<path d="M2061.52 194.474C2230.26 180.856 2378 306.797 2391.27 475.56C2404.53 644.323 2278.29 791.803 2109.5 804.72C1941.2 817.598 1794.25 691.801 1781.02 523.534C1767.79 355.266 1893.28 208.051 2061.52 194.474ZM2104.49 717.66C2225.15 707.509 2314.65 601.323 2304.22 480.686C2293.78 360.05 2187.39 270.803 2066.78 281.517C1946.56 292.195 1857.67 398.163 1868.07 518.403C1878.47 638.642 1984.23 727.777 2104.49 717.66Z" fill="white"/>
<path d="M2742.01 203L2926.55 202.975C2951.22 202.951 3003.7 201.576 3026.29 204.329C3043.55 206.401 3060.38 211.179 3076.16 218.486C3116.37 237.129 3147.47 271.045 3162.58 312.711C3177.72 354.222 3175.72 400.052 3157.02 440.086C3137.43 482.047 3103.85 511.275 3060.64 527.048L3204.2 796.076H3105.53L3089.08 765.233L2966.77 536.182H2829.05V796.036H2742.01V203ZM3062.44 425.796C3078.3 407.792 3087.08 389.042 3085.46 364.334C3083.93 343.135 3074.09 323.399 3058.07 309.428C3047.67 300.495 3035.12 294.412 3021.67 291.774C3007.18 288.878 2970.16 290.035 2953.43 290.043L2829.05 290.036V449.125L2952.8 449.186C2993.92 449.186 3029.76 456.088 3062.44 425.796Z" fill="white"/>
<path d="M3752.11 203H3845.56L4093.37 796.036H3999.03L3939.21 653.036H3846.5H3658.43L3598.65 796.036H3504.18C3513.68 775.408 3523.57 749.886 3532.43 728.693L3587.46 597.053L3752.11 203ZM3694.88 566H3800.5H3902.92C3894 544.611 3802.47 321.845 3798.46 317.732L3729.04 484.092C3717.93 510.671 3705.29 539.32 3694.88 566Z" fill="white"/>
<path d="M1149.72 194.42C1152.78 193.998 1160.03 193.773 1163.31 193.705C1251.61 191.88 1323.74 221.768 1387.37 281.092L1328.21 345.332C1286.01 303.747 1232.72 280.726 1173.22 280.696C1115.14 280.581 1059.42 303.63 1018.39 344.736C977.236 385.784 954.086 441.507 954.04 499.632C954.101 557.872 977.393 613.681 1018.75 654.686C1060.31 696.133 1116.81 719.111 1175.5 718.441C1258.83 717.955 1352.18 672.043 1377.64 582.084C1379.51 575.499 1378.12 544.724 1378.07 536.182H1179.03V491.5V449.125H1465.09L1465.17 552.616C1465.17 559.417 1465.57 593.662 1464.55 597.885C1455.25 633.813 1435.58 670.272 1411.92 698.685C1305.11 827.003 1104.71 840.569 977.579 734.974C914.889 682.972 875.529 608.115 868.222 526.993C860.948 446.129 886.087 365.686 938.111 303.352C992.128 238.73 1066.26 201.848 1149.72 194.42Z" fill="white"/>
<path d="M2937.74 1096.92H2959.58V1276.18H2943.15V1138.5V1124.24L2877.96 1230.21C2857.14 1195.04 2834.31 1159.12 2812.81 1124.27V1276.18H2796.36V1096.92H2818.18L2878 1197.33C2898.1 1164.95 2918.16 1129.84 2937.74 1096.92Z" fill="white"/>
<path d="M1586.6 1096.92H1602.94L1703.43 1243.75V1096.92H1719.85V1276.18H1706.1L1605.64 1129.31V1276.18H1586.6V1096.92Z" fill="white"/>
<path d="M3386.33 1096.92H3405.37V1276.18H3389.1L3288.53 1129.35V1276.18H3272.13V1096.92H3285.91L3386.33 1243.73V1096.92Z" fill="white"/>
<path d="M2051.44 1096.91H2157.51V1113.09H2070.51V1178.34H2149.26V1194.81C2140.44 1194.79 2073.46 1193.8 2070.51 1195.96V1259.99H2157.51V1276.2H2051.44V1096.91Z" fill="white"/>
<path d="M3068.21 1096.91H3171.68V1113.09H3087.25V1178.34H3166.1V1194.81C3154.52 1194.81 3095.39 1193.2 3087.67 1195.24L3087.25 1196.91V1259.99H3174.25V1276.2H3068.21V1096.91Z" fill="white"/>
<path d="M1942.72 1096.92H1961.67L1955.27 1114.85C1948.74 1130.67 1941.75 1151.84 1935.78 1168.24L1896.5 1276.18H1877.45C1855.16 1217.49 1833.78 1156.09 1812.26 1096.92H1831.27L1885.64 1251.79L1942.72 1096.92Z" fill="white"/>
<path d="M3497.92 1096.91H3625.73V1113.09H3571.19V1220.5V1276.2H3552.16V1113.09H3497.92V1096.91Z" fill="white"/>
<path d="M2448.35 1096.91H2576.12V1113.09H2521.89V1221.5V1276.2H2502.86V1113.09H2448.35V1096.91Z" fill="white"/>
<path d="M1461.48 1096.91H1480.54V1276.2H1461.48V1096.91Z" fill="white"/>
<path d="M2668.71 1096.91H2687.75V1276.2H2668.71V1096.91Z" fill="white"/>
<path d="M247.886 203H341.22L503.158 590.245C531.125 657.163 562.807 728.895 589.1 796.036H494.861L455.166 701.155C448.745 685.806 440.825 668.249 435.082 653.036H154.096L94.3162 796.036H0V795.231C10.751 773.298 23.5736 739.756 33.2618 716.55L95.8608 566.713L196.956 324.907C213.642 284.996 232.003 243.041 247.886 203ZM190.572 566H295.5H398.802L322.092 382.928C318.737 374.889 297.4 321.124 294.282 317.636L190.572 566Z" fill="white"/>
<path d="M3783.22 1279C3755.01 1274.12 3733.13 1264.76 3715.8 1240.15C3701.58 1219.74 3696.07 1194.51 3700.51 1170.03C3704.77 1145.66 3718.68 1124.04 3739.1 1110.06C3759.74 1096.1 3785.11 1090.98 3809.55 1095.85C3833.55 1100.44 3854.72 1114.43 3868.34 1134.71C3882.18 1155.63 3887.09 1181.21 3882 1205.77C3877.18 1229.64 3862.96 1250.58 3842.54 1263.86C3828.02 1273.32 3816.22 1276.21 3799.78 1279H3783.22ZM3794.51 1262.83C3836.54 1261.17 3869.3 1225.82 3867.77 1183.79C3866.25 1141.75 3831 1108.87 3788.96 1110.27C3746.73 1111.67 3713.67 1147.11 3715.21 1189.33C3716.74 1231.56 3752.29 1264.5 3794.51 1262.83Z" fill="white"/>
<path d="M332.581 0H495.562V83.0357H297.864C308.472 55.9567 321.268 27.0014 332.581 0Z" fill="white"/>
<path d="M3981.51 1227.53C3988.19 1245.89 3996.96 1254.89 4015.88 1260.55C4035.78 1266.51 4071.89 1261.1 4076.21 1236.72C4084.73 1188.61 3999.9 1199.92 3981.98 1166.05C3975.42 1153.66 3975.11 1142.87 3978.07 1129.38C3980.18 1119.49 3989.15 1106.45 3998.48 1101.99C4037.04 1083.51 4071.19 1097.36 4090.54 1132.1L4074.65 1140.21C4064.76 1118.85 4045.79 1107.42 4022.3 1110.72C4006.91 1112.08 3988.25 1127.56 3993.07 1145.29C4000.68 1173.27 4054.7 1173.51 4075.45 1190.1C4089.6 1201.42 4092.38 1204.62 4096 1221.32V1232.76C4089.54 1263.03 4073.13 1273.8 4043.55 1279H4027.1C3996 1274.41 3977.14 1266.36 3965.44 1235.62L3981.51 1227.53Z" fill="white"/>
<path d="M2260.71 1227.45C2266.17 1243.33 2270.22 1248.34 2284.52 1256.7C2311.18 1272.29 2368.42 1258.2 2353.97 1219.68C2343.28 1191.18 2269.96 1195.09 2258.44 1161.09C2250.06 1136.34 2258.96 1107.81 2285.31 1098.36C2321.32 1086.76 2351.98 1098.85 2369.54 1132.1L2353.43 1140.34C2347.87 1128.01 2339.88 1118.33 2326.94 1113.38C2314.58 1108.66 2299.21 1109.87 2287.3 1115.34C2280.75 1118.35 2275.77 1123.97 2273.27 1130.74C2270.97 1136.98 2271.27 1144.88 2274.18 1150.88C2289.56 1182.45 2395.95 1171.21 2372.03 1244.58C2368.02 1256.89 2358.23 1266.26 2346.79 1271.85C2338.85 1275.73 2331.05 1277.09 2322.55 1279H2306.49C2278.04 1274.21 2255.79 1264.48 2244.56 1235.56L2260.71 1227.45Z" fill="white"/>
</g>
<defs>
<clipPath id="clip0_120_130">
<rect width="4096" height="1279" fill="white"/>
</clipPath>
</defs>
</svg>
