<svg width="2402" height="564" viewBox="0 0 2402 564" fill="none" xmlns="http://www.w3.org/2000/svg">
<path d="M693.444 97.4047C696.417 96.8733 712.1 96.7425 715.806 96.6363C753.753 95.4815 785.401 97.0735 821.542 110.533C869.082 128.239 899.952 174.016 880.949 224.496C870.946 251.069 845.992 267.273 820.321 278.088C763.704 300.064 701.326 289.622 641.619 289.643C642.807 273 642.381 248.84 642.584 231.297C643.128 187.603 642.821 143.903 641.663 100.221C657.823 100.007 677.186 98.3889 693.444 97.4047ZM667.709 116.244C666.909 127.764 666.905 140.438 667.039 152.015C667.508 192.427 666.237 233.369 667.649 273.722C713.242 278.119 759.381 282.787 803.928 268.188C846.47 251.727 865.372 219.881 855.012 174.388C841.124 113.405 759.295 107.361 708.482 111.587C694.101 112.709 681.844 114.62 667.709 116.244Z" fill="white"/>
<path d="M1001.81 97.4279C1008.28 96.4756 1024.46 96.4015 1031.66 96.5493C1067.87 97.2933 1146.56 91.3473 1156.14 138.655C1163.56 175.281 1124.88 185.681 1096.82 190.428C1117.73 192.236 1146.53 196.397 1160.73 213.12C1176.72 231.95 1168.08 257.059 1151.22 271.452C1110.64 300.733 997.916 291.069 946.456 289.44C946.105 269.458 946.866 246.392 946.96 226.046C947.257 184.093 947.08 142.137 946.431 100.188C963.198 100.153 984.87 98.3692 1001.81 97.4279ZM971.885 201.23L972.038 273.725C1011.06 277.963 1074.6 281.604 1112.24 271.484C1135.96 263.919 1146.3 252.038 1139.97 226.162C1135.66 208.505 1107.32 202.937 1091.99 201.776C1060.01 199.355 1026.85 199.215 994.873 200.496L971.885 201.23ZM972.436 116.295C971.999 139.525 971.811 162.759 971.872 185.994C1004.18 185.751 1054.5 186.554 1084.91 182.355C1108.35 178.223 1135.13 171.973 1130.47 141.329C1129.33 133.807 1124.25 126.163 1117.73 121.995C1094.44 109.041 1040.16 109.801 1014.1 111.548C1001.39 112.538 984.747 113.8 972.436 116.295Z" fill="white"/>
<path d="M142.974 98.8321C150.406 98.2598 164.414 98.7619 172.329 98.797C210.289 163.779 250.738 227.274 293.588 289.141L261.061 289.185C249.712 269.568 238.171 250.064 226.437 230.675L172.25 230.028C140.757 229.741 109.261 230.021 77.7772 230.865C66.0071 250.368 54.0791 269.775 41.9943 289.083L19.1479 289.229C64.0668 226.705 102.97 164.419 142.974 98.8321ZM86.2319 217.53C107.288 216.749 132.215 217.738 153.75 217.737C174.111 217.6 198.302 216.768 218.391 217.594C211.644 206.55 155.568 115.221 151.746 113.512C130.108 148.387 107.486 182.175 86.2319 217.53Z" fill="white"/>
<path d="M1339.74 98.8292C1348.08 98.3652 1360.66 98.8191 1369.32 98.8532C1407.27 163.823 1447.72 227.305 1490.57 289.157L1458.05 289.191C1446.7 269.563 1435.13 250.058 1423.35 230.679L1365.75 230.024C1335.46 229.803 1305.17 230.048 1274.88 230.758L1239.06 289.131L1216.09 289.18C1259.96 227.491 1301.21 163.984 1339.74 98.8292ZM1282.9 217.793C1302.8 216.604 1330.88 217.869 1351.75 217.817C1372.36 217.712 1395.09 217.021 1415.49 217.684C1408.95 207.05 1353.11 116.141 1348.87 113.653C1326.42 148.072 1304.43 182.789 1282.9 217.793Z" fill="white"/>
<path d="M550.327 98.7899L567.794 98.8168C568.072 122.488 567.098 147.882 567.022 171.825C566.92 210.892 567.169 249.959 567.767 289.021L543.748 289.175C486.225 232.334 422.836 179.168 363.114 124.702C364.045 138.12 362.838 165.653 362.771 180.026C362.547 216.409 362.73 252.794 363.319 289.173L345.972 289.209C346.454 225.756 346.454 162.3 345.973 98.8469C354.103 98.6972 362.708 98.8525 370.88 98.86C386.198 114.744 411.922 137.127 428.603 152.315C468.866 188.873 509.414 225.117 550.241 261.044L550.327 98.7899Z" fill="white"/>
<path d="M1740.42 98.7289C1745.91 98.4963 1752.5 98.7516 1758.07 98.8217C1756.66 162.271 1756.66 225.744 1758.07 289.194L1733.82 289.198C1674.75 231.388 1613.31 180.326 1553.4 124.866C1552.99 160.273 1552.83 195.682 1552.92 231.091C1552.96 247.909 1552.4 273.197 1553.78 289.172L1535.99 289.167C1536.83 225.738 1536.82 162.3 1535.94 98.8712C1542.95 98.3801 1553.37 98.7364 1560.64 98.7808C1619.8 153.698 1679.7 207.829 1740.3 261.158C1741.91 208.825 1741.04 151.215 1740.42 98.7289Z" fill="white"/>
<path d="M1844.7 98.3426C1853.08 98.1374 1860.88 98.4851 1869.26 98.8331C1868.26 135.447 1867.85 172.075 1868.02 208.702C1884.16 196.534 1906.97 182.344 1924.24 170.171C1956.95 146.914 1989.27 123.123 2021.19 98.8066C2033.01 97.9781 2046.2 98.5172 2058.13 98.8082C2017.13 123.531 1979.37 149.316 1940 176.395C1960.28 195.007 1980.79 213.38 2001.5 231.51C2023.86 251.273 2046.7 270.481 2070 289.117L2030.83 289.17C1999.62 257.043 1954.35 219.25 1919.56 190.713L1868.06 226.745C1867.93 247.129 1868.7 268.704 1869.1 289.166L1843.18 289.203C1843.97 245.662 1844.25 202.113 1844 158.565C1843.95 140.656 1843.61 122.824 1843.29 104.92C1843.23 101.371 1843.08 101.063 1844.7 98.3426Z" fill="white"/>
<path d="M2328.12 98.9634L2354.11 98.9773C2312.4 230.328 2273.67 364.175 2232.7 495.986L2205.43 496.004C2209.68 485.526 2215.66 463.757 2219.2 452.294L2246.15 364.893L2328.12 98.9634Z" fill="white"/>
<path d="M1486.33 400.312C1496.36 400.475 1506.82 400.127 1516.67 402.144C1541.73 407.276 1541.15 433.638 1521.34 445.36C1539.55 455.569 1544.23 472.92 1530.08 489.235C1516.83 499.529 1488.59 496.949 1471.64 496.905C1471.84 493.661 1473.6 478.37 1474.27 475.499C1476.51 465.832 1481.74 403.68 1486.33 400.312ZM1521.02 483.466C1542.68 464.319 1518.91 451.756 1498.95 451.101C1495.11 450.974 1491.28 450.929 1487.44 450.967C1485.55 462.949 1483.93 474.971 1482.57 487.024C1493.37 487.138 1511.94 488.437 1521.02 483.466ZM1518.21 437.461C1523.44 432.285 1530.17 422.761 1523.09 416.069C1515.41 408.809 1502.91 409.869 1493.12 409.915C1491.53 419.438 1489.46 432.242 1488.54 441.955C1498.31 441.929 1509.46 442.295 1518.21 437.461Z" fill="white"/>
<path d="M1585.56 424.246C1602.74 422.742 1610.05 424.756 1620.59 438.513C1620.83 434.681 1620.74 429.02 1622.68 425.944C1625.09 424.396 1629.16 424.771 1631.02 426.976C1630.51 438.106 1624.04 484.443 1621.69 495.598C1620.03 496.838 1616.64 496.715 1614.43 496.842C1610.85 494.626 1615.38 492.61 1612.39 487.632C1601.19 497.482 1585.8 502.131 1571.75 495.498C1563.95 491.74 1557.97 485.029 1555.12 476.851C1546.46 452.451 1563 431.964 1585.56 424.246ZM1589.24 489.832C1629.65 483.067 1626.84 429.926 1591.3 432.421C1581.52 434 1574.7 436.952 1568.62 445.348C1563.44 452.382 1561.28 461.198 1562.63 469.831C1564.75 482.677 1576.37 491.35 1589.24 489.832Z" fill="white"/>
<path d="M1226.37 424.231C1242.9 423.109 1251.31 424.093 1261.33 438.458C1261.76 433.497 1261.21 428.123 1265.49 425.261C1268.92 425.244 1269.45 424.691 1272.05 426.346C1272.37 432.827 1264.39 486.883 1262.74 495.261C1261.11 497.603 1259.15 498.722 1256.45 497.854C1253.13 494.857 1254.98 490.907 1254.37 487.216L1254.29 486.758C1243.16 497.259 1227.66 502.362 1213.17 495.644C1205.37 491.95 1199.34 485.316 1196.4 477.191C1187.46 452.723 1203.8 432.238 1226.37 424.231ZM1229.24 490.003C1270.81 483.501 1267.92 430.883 1233.69 432.369C1223.67 433.589 1216.78 436.283 1210.31 444.595C1204.85 451.526 1202.4 460.363 1203.52 469.115C1205.29 482.111 1216.39 490.361 1229.24 490.003Z" fill="white"/>
<path d="M971.738 400.42C994.636 400.305 1032.48 394.891 1025.97 429.915C1020.31 460.372 982.705 446.465 973.044 452.245L972.419 454.957C970.925 464.304 968.644 492.565 964.472 496.767C961.065 496.761 960.088 497.301 957.432 495.72C957.423 487.44 960.308 471.455 961.415 462.642C963.765 443.924 966.574 424.95 969.06 406.223C969.452 403.27 969.636 401.945 971.738 400.42ZM973.795 441.918C984.532 441.925 999.419 442.615 1009.06 438.489C1014.5 433.417 1022.51 423.313 1015.28 416.44C1006.58 408.175 989.571 409.949 978.267 409.939C977.117 420.643 975.626 431.308 973.795 441.918Z" fill="white"/>
<path d="M1372.79 424.169C1375.64 424.003 1378.48 423.9 1381.33 423.86C1404.87 423.673 1412.08 443.008 1411.98 463.017L1348.15 462.893C1351.03 487.726 1365.83 495.357 1388.67 485.909C1391.75 484.017 1394.89 480.727 1397.53 478.154L1404.49 483.907C1393.15 495.52 1370.9 504.46 1357.38 495.246C1324.47 472.804 1339.62 434.353 1372.79 424.169ZM1349.53 454.971L1379.75 454.782C1386.9 454.782 1397.03 455.11 1403.92 454.743C1398.76 436.859 1392.46 431.814 1373.34 433.102C1361.12 437.396 1356.07 441.345 1350.3 453.332C1350.04 453.876 1349.78 454.422 1349.53 454.971Z" fill="white"/>
<path d="M1839.89 424.125C1846.45 423.631 1852.9 423.503 1859.09 425.948C1866.52 428.949 1872.45 434.777 1875.57 442.15C1877.52 446.724 1879.64 456.478 1877.5 461.163C1874.86 466.962 1824.33 459.991 1815.64 463.756C1814.88 464.086 1814.6 465.381 1814.29 466.16C1814.56 469.179 1815.05 470.491 1816.2 473.255C1823.81 491.528 1838.32 493.4 1855.55 485.577C1858.08 483.858 1861.76 480.398 1864.17 478.249L1870.74 483.997C1837.24 518.787 1789.54 486.673 1811.49 443.88C1817.04 433.061 1828.48 427.198 1839.89 424.125ZM1816.29 454.979L1847.5 454.811C1851.72 454.876 1865.49 455.45 1868.66 454.33C1869.47 452.382 1869.12 451.54 1868.65 449.65C1864.81 434.452 1853.05 432.3 1839.78 433.086C1829.92 436.481 1823.3 440.221 1818.44 450.025C1817.66 451.645 1816.94 453.298 1816.29 454.979Z" fill="white"/>
<path d="M1746.46 398.031C1749.33 397.95 1752.5 397.482 1754.8 399.039C1755 407.217 1749.43 442.31 1748.08 451.945L1782.8 425.086L1797.37 425.066C1783.68 435.872 1769.53 446.567 1755.69 457.227L1778.87 482.486C1783.1 486.651 1788.2 492.468 1792.31 496.916L1780.06 496.912C1768.72 485.005 1757.56 472.928 1746.58 460.687C1746.17 466.926 1744.14 493.49 1740.61 496.94C1736.58 496.788 1737.58 497.377 1734.8 495.285C1731.89 488.587 1736.11 476.653 1737.05 469.307L1746.46 398.031Z" fill="white"/>
<path d="M1682.42 424.182C1705.68 422.001 1715.53 432.356 1713.26 455.92C1712.58 462.966 1710.3 492.104 1706.9 496.351C1703.09 497.202 1704.07 497.561 1701.13 496.212C1693.88 484.461 1724.99 418.225 1677.11 434.698C1651.11 450.204 1664.9 496.383 1651.47 497.744C1649.02 495.984 1647.62 489.441 1648.34 486.898C1653.11 470.111 1652.09 440.961 1657.95 425.546C1660.71 424.684 1661.16 424.636 1664 425.07C1666.75 428.824 1663.65 428.403 1665.98 432.814C1668.78 432.66 1676.16 426.553 1682.42 424.182Z" fill="white"/>
<path d="M1957.94 424.168C1960.48 423.915 1963.03 423.819 1965.57 423.881C1973.97 424.085 1977.61 427.715 1983.11 433.444C1982.07 435.133 1980.97 436.903 1979.85 438.513C1979.8 438.75 1978.14 440.217 1978.08 440.178C1972.15 436.247 1961.68 426.998 1955.49 435.382C1943.13 452.119 1979.72 457.366 1980.41 474.065C1981 488.425 1973.4 496.17 1959.81 498.395C1947.16 497.872 1944.09 495.535 1935.24 486.851C1937.08 484.66 1938.82 482.338 1940.57 480.069C1946.27 485.572 1956.6 493.407 1964.39 487.884C1989.68 469.956 1936.26 458.328 1943.33 437.665C1945.53 431.235 1953.02 426.599 1957.94 424.168Z" fill="white"/>
<path d="M1143.05 477.379C1150.96 460.975 1162.39 443.516 1171.62 427.682C1173.61 424.274 1178.39 424.367 1181.29 426.58C1181.3 429.656 1177.05 435.398 1175.19 438.308C1166.63 455.159 1150.62 481.374 1140.65 498.126C1132.01 474.063 1123.74 449.231 1115.4 425.016C1118.78 424.9 1121.58 424.508 1124.63 425.952C1128.23 432.39 1139.78 467.838 1143.05 477.379Z" fill="white"/>
<path d="M1309.44 399.042C1312.23 398.888 1313.53 398.706 1316.28 399.509C1319.58 403.943 1315.8 418.544 1314.88 425.291C1320.98 424.912 1325.18 423.451 1329.3 428.486C1328.2 435.506 1318.94 434.173 1313.73 433.924L1305.44 495.65L1304.41 496.73C1301.21 497.017 1299.58 497.359 1296.53 496.151C1296.52 488.02 1303.24 443.453 1304.89 433.942C1301.28 434.091 1298.99 434.332 1295.42 433.555C1292.82 431.087 1293.2 432.13 1292.72 429.057L1294.62 426.489C1297.82 424.235 1301.65 424.923 1305.66 425.102L1309.44 399.042Z" fill="white"/>
<path d="M1923.1 424.17C1927.83 423.739 1934.34 422.7 1936.55 427.712C1934.02 435.295 1927.47 433.615 1922.01 434.414C1900.52 437.563 1907.38 488.145 1899.7 497.448C1896.57 497.252 1895.56 497.213 1892.57 496.206C1892.54 490.586 1900.29 430.746 1902.3 425.613C1905.85 424.922 1906.74 425.074 1910.17 425.615C1912.56 429.835 1909.83 428.748 1910.93 431.951L1911 430.335L1913.13 430.495C1916.38 427.498 1919.2 426.218 1923.1 424.17Z" fill="white"/>
<path d="M1066.48 424.125C1071.26 423.757 1077.65 422.645 1079.39 428.172C1074.36 440.138 1064.47 426.943 1054.89 441.882C1046 455.73 1048.84 490.616 1041.4 498.237C1039.16 497.705 1036.8 497.446 1035.43 495.64C1035.96 483.701 1042.6 438.147 1045.08 426.17L1047.7 424.449C1050.9 424.303 1049.75 423.963 1052.31 425.947C1052.86 428.336 1053.04 429.211 1053 431.674L1052.99 432.222C1056.25 431.995 1059.57 427.172 1066.48 424.125Z" fill="white"/>
<path d="M1091.38 425.085C1094.76 424.86 1096.03 424.676 1099.36 425.742C1100.32 431.903 1091.78 487.323 1090.4 496.928C1087.7 497.042 1084.09 497.295 1082.11 495.867C1082.28 483.769 1089.5 438.211 1091.38 425.085Z" fill="white"/>
<path d="M1096.83 396.565C1100.72 395.748 1104.56 398.145 1105.54 402C1106.52 405.855 1104.29 409.797 1100.48 410.937C1097.87 411.718 1095.04 411.005 1093.11 409.08C1091.18 407.155 1090.46 404.327 1091.24 401.715C1092.01 399.102 1094.16 397.125 1096.83 396.565Z" fill="white"/>
</svg>
