<svg width="225" height="87" viewBox="0 0 225 87" fill="none" xmlns="http://www.w3.org/2000/svg">
<path d="M107.235 44.2952C119.44 43.6872 123.903 48.5806 124.523 60.6497C125.059 71.0733 123.971 82.7406 110.793 83.3318C100.394 83.688 94.5092 79.6501 93.4558 68.7378C92.8621 62.5857 93.055 53.7503 97.052 48.5821C99.2601 45.7268 103.761 44.5818 107.235 44.2952ZM102.843 74.7324C106.168 76.8106 107.298 77.3144 111.318 76.9912C112.554 76.5506 115.408 74.8201 115.875 73.5567C118.008 67.7825 117.833 60.3706 116.045 54.5297C114.849 50.622 110.578 50.2731 107.138 50.6671C104.485 50.8754 102.07 53.2926 101.533 55.7955C100.446 60.8646 100.132 70.1966 102.843 74.7324Z" fill="white"/>
<path d="M46.4057 50.74C46.3747 49.6012 45.8788 44.8755 47.4672 44.9507C55.3367 45.3236 66.8262 42.2885 69.4781 52.2254C70.2805 56.345 69.689 66.0829 69.8892 70.7031C69.9655 72.4629 69.9663 80.9423 69.7679 82.3466C68.9655 83.1932 67.349 82.8814 66.2191 82.8093C64.7913 82.8452 63.4703 83.1796 62.4455 82.1361C62.121 81.2535 62.3855 80.1438 62.5218 79.1872C55.5037 86.3615 38.8891 84.6887 38.0822 72.64C37.5074 64.0572 43.3056 59.96 51.2546 59.9626C54.8151 59.9637 58.9991 60.1456 62.4897 59.856C62.1711 57.5379 62.4451 55.3585 61.8096 53.1028C58.8334 49.8315 51.0169 51.1057 46.4057 50.74ZM61.1098 73.7439C62.1645 70.6793 61.9402 68.9798 62.3836 65.9462C61.1727 65.4751 54.237 65.7977 52.2335 65.6858C50.2696 66.0781 47.4129 66.447 46.5435 68.301C43.3153 75.1853 49.6961 78.3975 55.6505 76.8495C57.7135 76.3133 59.6691 74.9882 61.1098 73.7439Z" fill="white"/>
<path d="M69.4777 52.2254C70.2802 56.3451 69.6887 66.0829 69.8888 70.7031C69.9651 72.4629 69.966 80.9423 69.7676 82.3466C68.9651 83.1932 67.3486 82.8814 66.2188 82.8094C67.2508 82.4479 68.3169 82.5371 69.4125 82.5514L69.4777 52.2254Z" fill="white"/>
<path d="M52.2334 65.6858C53.7728 65.3841 61.387 64.9056 62.3186 65.5511L62.3834 65.9462C61.1725 65.4751 54.2369 65.7977 52.2334 65.6858Z" fill="white"/>
<path d="M33.6386 29.7333C35.5254 29.5639 39.0499 29.4343 40.6013 30.576C41.0777 31.3771 40.8167 32.5326 40.6967 33.4146C40.0731 38.0023 34.8812 33.7424 34.1803 38.393C33.8546 40.5548 34.2868 42.6649 33.9491 44.8046C36.6726 44.8668 40.4957 43.722 40.8316 47.1719C41.348 52.4728 37.5449 50.8152 33.9201 51.1516C34.0522 51.7387 34.2209 52.613 34.1882 53.2065C33.705 62.005 33.9474 70.8367 34.0016 79.6521C34.0113 79.8176 34.0201 79.9835 34.028 80.1491C34.2183 84.2026 30.0132 82.8282 26.8671 82.8096C26.596 79.7699 26.7043 74.4558 26.6935 71.297C26.7153 64.5334 26.663 57.7698 26.5369 51.0072L22.3394 50.762C21.9839 45.3743 21.2071 45.3097 26.6151 44.5662C26.545 41.1575 26.4619 36.3381 28.1228 33.3588C29.5324 30.8306 31.139 30.4588 33.6386 29.7333Z" fill="white"/>
<path d="M77.9986 37.4763C79.7808 37.3791 81.9322 37.3798 83.6895 37.6498C83.8031 38.7544 84.2358 43.4935 84.495 44.2135C84.7831 44.5185 85.0595 44.8529 85.5297 44.8384C88.1098 44.7595 90.5296 44.9593 93.0962 45.2043C90.999 52.6119 91.6138 50.7928 83.924 51.0329C84.4131 53.2808 83.9987 57.1552 84.0125 59.599C84.0424 64.8359 83.7783 70.8206 84.443 75.9945C87.0294 77.7095 89.1333 76.6126 90.6347 77.4955C91.0871 78.2151 90.9638 77.9593 90.9908 78.8631C91.0893 80.9199 91.5355 83.6074 88.4578 83.6371C83.3472 83.7676 77.3339 81.9693 76.9569 75.8754C76.4493 67.6731 77.0841 59.2556 76.5726 51.0079L73.1134 50.804C73.0684 46.8063 72.2189 45.4007 76.6038 44.5525C76.6983 42.7139 76.7337 40.7943 77.0182 38.9807C77.1746 37.9832 77.3183 37.9689 77.9986 37.4763Z" fill="white"/>
<path d="M143.406 44.2821C145.049 44.1729 147.341 44.0149 148.63 45.1126C148.765 45.6762 147.911 50.2312 147.504 50.3823C144.981 51.2718 140.543 49.6056 138.537 51.7655C136.651 53.8498 136.633 57.2411 136.648 59.8789C136.685 66.541 136.615 73.1801 136.748 79.8371C136.814 83.1923 134.842 82.8577 132.28 82.8234L129.324 82.9493C129.076 77.0145 129.362 70.5723 129.388 64.6171C129.416 58.0941 129.27 51.5172 129.501 44.9979L130.168 44.9678C131.41 44.9133 135.083 44.5695 135.917 45.3326C136.237 46.6494 136.247 47.1917 137.505 46.4347C139.75 45.0832 140.829 44.484 143.406 44.2821Z" fill="white"/>
<path d="M159.319 12.9723C169.815 12.9367 166.844 11.7726 175.196 17.8643C175.476 18.6611 175.855 19.5567 176.169 20.3518C174.975 20.7526 174.359 20.9535 173.093 21.1767C169.685 21.684 165.324 23.8312 161.907 23.4887C160.803 23.3781 159.448 16.8892 159.131 15.7602C158.859 14.7882 158.947 13.9332 159.319 12.9723Z" fill="white"/>
<path d="M201.98 12.89C204.847 12.917 206.409 12.7614 209.17 13.7177C209.02 14.3582 208.841 14.9558 208.638 15.5792C206.857 21.028 206.879 23.1872 201.817 26.6044C200.705 27.0705 198.202 29.0021 197.266 28.4633C196.678 26.8399 198.004 15.6231 198.615 13.5555C198.832 12.8203 201.316 12.9023 201.98 12.89Z" fill="white"/>
<path d="M182.182 45.8509C184.902 45.7753 191.725 49.5742 194.839 50.3388C197.787 51.0624 195.3 57.661 194.446 59.4265C193.035 63.5371 185.783 56.271 184.63 54.741C183.53 53.2823 182.321 47.7423 182.182 45.8509Z" fill="white"/>
<path d="M169.242 35.3565L169.822 35.4611C170.749 36.8129 169.856 47.7405 169.553 50.0101C167.078 50.5796 162.623 50.5271 159.978 50.5658C158.262 49.7027 159.084 47.9396 159.442 46.3385C161.017 39.2916 163.334 38.7206 169.242 35.3565Z" fill="white"/>
<path d="M205.679 26.159C206.079 26.2412 206.476 26.3376 206.869 26.4477C208.782 26.9986 212.962 30.0077 213.894 31.7187C214.006 34.0913 207.278 37.9825 205.007 38.4364C203.345 38.4118 198.423 38.2152 197.021 37.9434L196.842 37.6127C197.221 35.7468 204.312 27.1539 205.679 26.159Z" fill="white"/>
<path d="M161.818 25.789C163.387 25.6602 169.292 26.2131 171.367 26.3251C169.128 29.006 166.947 32.0101 164.614 34.6659C163.628 35.7883 163.123 36.9757 161.925 37.9291C161.231 37.9814 160.358 37.8742 159.834 37.4321C158.415 36.235 152.618 33.5447 153.126 31.5507C154.498 29.8878 159.699 26.3388 161.818 25.789Z" fill="white"/>
<path d="M174.308 2.6188C175.969 3.35643 181.181 7.12737 182.466 8.52747C183.442 9.59029 185.553 16.5337 184.68 17.694C183.981 17.95 183.339 17.62 182.61 17.3717C179.068 16.0795 174.995 14.7675 171.731 12.9288C169.868 11.8792 173.31 3.72601 174.308 2.6188Z" fill="white"/>
<path d="M192.972 2.86536C193.891 3.22131 194.742 5.61919 195.106 6.54797C196.936 11.2132 196.532 15.1481 194.352 19.6065C193.988 20.3503 193.738 20.6259 192.96 20.8939C192.009 20.5226 191.797 19.9298 191.183 19.0062C189.062 16.4467 186.923 12.4004 185.385 9.41716C184.432 7.5697 191.515 3.35447 192.972 2.86536Z" fill="white"/>
<path d="M174.334 42.5146L174.755 42.7093C176.12 44.6235 181.849 52.3596 182.089 54.9678C182.203 56.2093 178.877 58.5586 177.583 59.3749C176.26 60.2516 175.387 60.6682 173.951 61.3572C169.903 50.4803 170.028 52.7932 174.334 42.5146Z" fill="white"/>
<path d="M203.92 40.3052C204.628 40.1633 205.176 40.3938 205.67 40.8818C206.463 41.6653 209.454 49.746 208.343 50.0193C205.434 50.7348 200.386 50.5098 197.456 49.7284C195.851 48.6843 191.461 45.8529 191.558 43.9307C192.375 42.7859 195.476 42.4709 196.88 42.1454C199.243 41.5946 201.591 40.9811 203.92 40.3052Z" fill="white"/>
</svg>
