<svg width="111" height="42" viewBox="0 0 111 42" fill="none" xmlns="http://www.w3.org/2000/svg">
<g clip-path="url(#clip0_12_12531)">
<path d="M30.0485 30.5643H0V0.180664H30.0485V30.5643ZM9.53162 29.25V1.4919H1.29091V29.25H9.53162ZM28.7787 11.2155H20.4345V20.863H10.926V29.2389H28.7787V11.2155ZM10.9089 9.80786H28.7556V1.48784H10.9089V9.80786ZM19.1366 11.2094H10.9129V19.4929H19.1366V11.2094Z" fill="white"/>
<path d="M50.7525 13.7152C50.1266 13.7152 49.5168 13.7843 48.9331 13.6889C48.5956 13.634 48.2179 13.3824 47.9969 13.1053C46.0429 10.6574 44.1211 8.1831 42.1883 5.71794C42.0958 5.60022 41.9944 5.49061 41.8437 5.31503V13.6909H39.0901V0.175657C39.7622 0.175657 40.4594 0.133031 41.1465 0.198999C41.3806 0.221326 41.6337 0.483167 41.8025 0.697308C43.7544 3.16957 45.6903 5.65299 47.6322 8.13236C47.7326 8.26125 47.8442 8.381 48.0039 8.56673V0.175657H50.7525V13.7152Z" fill="white"/>
<path d="M58.9328 0.000385618C62.5343 0.0085047 65.2326 2.22603 65.7781 5.69998C66.5115 10.3735 63.2687 13.814 59.0805 13.8647C55.7081 13.9053 52.6511 11.9324 52.0403 8.26155C51.2677 3.62251 54.3659 -0.0432544 58.9328 0.000385618ZM58.9187 2.64822C57.2139 2.65025 56.0366 3.41547 55.4921 4.93273C55.0018 6.30079 55.0119 7.69017 55.5353 9.04301C56.0637 10.407 57.1175 11.1012 58.543 11.1986C60.076 11.3032 61.3609 10.8414 62.1244 9.3901C62.6006 8.48584 62.7041 7.4943 62.6528 6.48449C62.5323 4.10154 61.1118 2.64416 58.9187 2.64721V2.64822Z" fill="white"/>
<path d="M88.6888 30.1919H85.5706V16.6899C85.6861 16.6767 85.7976 16.6523 85.9091 16.6534C87.5818 16.6625 89.2564 16.6402 90.9271 16.7C92.0783 16.7406 93.1824 17.0441 94.0835 17.8245C96.0003 19.4859 95.6316 22.7883 93.3883 24.1665C93.1754 24.2975 92.9503 24.4071 92.8268 24.4741C93.2135 24.9856 93.6405 25.4737 93.9821 26.0177C94.8309 27.3685 95.6406 28.7437 96.4875 30.1452C95.3433 30.1452 94.2523 30.1858 93.1683 30.1148C92.9172 30.0985 92.6258 29.7372 92.4631 29.4663C91.8212 28.3996 91.2224 27.3076 90.6086 26.2237C90.0159 25.1774 89.9486 25.1408 88.6888 25.2403V30.1919ZM88.6848 22.9781C89.2825 22.9781 89.8321 23.0086 90.3776 22.971C91.3721 22.902 92.0994 22.2007 92.1939 21.2711C92.3064 20.1557 91.8895 19.3976 90.915 19.1855C90.1977 19.0292 89.4463 19.0343 88.6858 18.9653V22.9781H88.6848Z" fill="white"/>
<path d="M72.9573 16.6826H76.0936C76.0936 16.8947 76.0936 17.0764 76.0936 17.257C76.0936 19.6593 76.0916 22.0615 76.0956 24.4637C76.0956 24.8007 76.0886 25.1457 76.1509 25.4746C76.4372 26.9756 77.3614 27.7124 78.8673 27.6718C80.1924 27.6353 81.0523 26.8091 81.2653 25.3518C81.3115 25.0351 81.3386 24.7134 81.3386 24.3937C81.3446 21.8413 81.3416 19.2888 81.3416 16.6948H84.4549V17.2378C84.4549 19.708 84.4187 22.1782 84.4639 24.6474C84.5282 28.234 81.9032 30.684 78.0526 30.347C76.0032 30.1674 74.3446 29.2784 73.4837 27.3003C73.1753 26.5909 72.9683 25.779 72.9502 25.0087C72.8869 22.3203 72.9261 19.6298 72.9281 16.9404C72.9281 16.8744 72.9422 16.8095 72.9563 16.6857L72.9573 16.6826Z" fill="white"/>
<path d="M48.7572 16.6797H51.8805C51.8805 16.903 51.8805 17.1009 51.8805 17.2988C51.8865 19.903 51.8524 22.5072 51.9096 25.1104C51.9558 27.2213 54.1017 28.3956 55.8828 27.3299C56.8804 26.7322 57.1114 25.7244 57.1215 24.6618C57.1446 22.1936 57.1285 19.7244 57.1285 17.2552C57.1285 17.0735 57.1285 16.8908 57.1285 16.6807H60.2408C60.2528 16.8492 60.2729 16.9964 60.2719 17.1425C60.2629 19.7964 60.2669 22.4514 60.2377 25.1053C60.2076 27.812 58.2105 29.9747 55.5413 30.2944C53.9831 30.4811 52.5034 30.3208 51.1502 29.4774C49.5117 28.4575 48.7763 26.8793 48.7301 25.0109C48.6638 22.3408 48.713 19.6675 48.715 16.9954C48.715 16.8979 48.7401 16.8015 48.7562 16.6787L48.7572 16.6797Z" fill="white"/>
<path d="M88.2977 13.7256C87.4337 13.7256 86.6301 13.7439 85.8284 13.7185C85.3351 13.7033 84.9845 13.4516 84.8258 12.9472C84.6229 12.3048 84.3818 11.6756 84.1859 11.0311C84.1095 10.7794 84.004 10.6769 83.7358 10.679C82.2792 10.6901 80.8225 10.6891 79.3658 10.679C79.1096 10.6769 78.9841 10.75 78.9047 11.0149C78.7048 11.6756 78.4556 12.321 78.2387 12.9767C78.087 13.4334 77.7534 13.6901 77.3114 13.7104C76.4796 13.748 75.6448 13.7216 74.7346 13.7216C75.0661 12.8528 75.3756 12.0389 75.687 11.225C77.0402 7.68606 78.3994 4.14818 79.7415 0.604197C79.8741 0.254062 80.0399 0.110963 80.4257 0.128216C81.2113 0.162722 81.9999 0.121112 82.7855 0.152573C82.9482 0.158663 83.1953 0.308866 83.2516 0.451964C84.9273 4.76929 86.5838 9.09472 88.2404 13.4191C88.2696 13.4943 88.2716 13.5795 88.2987 13.7236L88.2977 13.7256ZM81.5468 3.13938C80.9239 4.99865 80.3503 6.70772 79.7707 8.43809H83.3099C82.7252 6.68133 82.1606 4.98444 81.5468 3.13938Z" fill="white"/>
<path d="M111.001 30.1908C110.117 30.1908 109.267 30.205 108.417 30.1847C107.965 30.1745 107.691 29.8904 107.55 29.4651C107.331 28.8116 107.125 28.1519 106.87 27.5115C106.81 27.3613 106.58 27.1867 106.427 27.1847C104.971 27.1603 103.515 27.1614 102.06 27.1837C101.916 27.1857 101.7 27.3481 101.647 27.4861C101.41 28.0971 101.223 28.7283 101.012 29.3494C100.809 29.9472 100.487 30.1979 99.8616 30.2101C99.0941 30.2253 98.3266 30.2141 97.4807 30.2141C97.547 30.003 97.5862 29.8488 97.6425 29.7006C99.2428 25.5203 100.852 21.343 102.434 17.1566C102.589 16.7466 102.788 16.6248 103.198 16.6411C103.966 16.6715 104.738 16.6319 105.506 16.6644C105.67 16.6715 105.916 16.8237 105.973 16.9699C107.651 21.3014 109.311 25.64 110.972 29.9787C110.99 30.0243 110.987 30.0771 111.001 30.1898V30.1908ZM106.043 24.9885C105.457 23.2277 104.881 21.4952 104.263 19.6411C103.641 21.4963 103.062 23.2236 102.471 24.9885H106.043Z" fill="white"/>
<path d="M78.6659 0.140625C78.5915 0.350706 78.5423 0.505984 78.482 0.657201C76.8255 4.83244 75.1588 9.00361 73.5234 13.187C73.3496 13.6315 73.1396 13.7705 72.6885 13.7421C72.0556 13.7015 71.4167 13.7502 70.7818 13.7188C70.6291 13.7117 70.4011 13.5736 70.3478 13.4387C68.6099 9.09496 66.889 4.74414 65.1671 0.394346C65.143 0.334468 65.1329 0.269515 65.1018 0.151789C66.0311 0.151789 66.9272 0.124387 67.8213 0.162952C68.2804 0.182235 68.5456 0.512073 68.6993 0.952533C69.726 3.88961 70.7637 6.82364 71.7985 9.75768C71.8185 9.81451 71.8517 9.86627 71.8859 9.93528C72.566 7.99381 73.234 6.08481 73.9051 4.17581C74.2738 3.12845 74.6455 2.08109 75.0192 1.03575C75.2613 0.35781 75.5697 0.142655 76.297 0.14164C77.0636 0.13961 77.8301 0.14164 78.6659 0.14164V0.140625Z" fill="white"/>
<path d="M46.7375 24.9462H42.2299V30.184H39.0745V16.6921H47.6748V19.1045H42.26V22.4465H46.7365V24.9452L46.7375 24.9462Z" fill="white"/>
<path d="M68.1811 30.1936H65.0558V19.2014H61.2815V16.6875H71.9724C71.9724 17.4497 71.9885 18.1905 71.9533 18.9284C71.9493 19.0248 71.6871 19.1821 71.5415 19.1851C70.6212 19.2085 69.7 19.1973 68.7798 19.1973C68.599 19.1973 68.4182 19.1973 68.1811 19.1973V30.1936Z" fill="white"/>
<path d="M71.4013 37.8106C70.897 38.7372 70.4017 39.6699 69.8803 40.5863C69.7759 40.77 69.5559 41.0308 69.4182 41.0136C69.2284 40.9902 69.0114 40.77 68.8999 40.5782C68.3714 39.6709 67.8742 38.7443 67.2523 37.8502V41.8306H66.6094V36.4273C67.0845 36.2751 67.3839 36.406 67.63 36.8881C68.1705 37.9496 68.7773 38.9777 69.3991 40.0951C69.9888 39.0122 70.5715 38.0034 71.0899 36.9622C71.329 36.4811 71.6113 36.2548 72.1678 36.4273V41.8285H71.5269V37.838C71.4857 37.8289 71.4445 37.8207 71.4023 37.8116L71.4013 37.8106Z" fill="white"/>
<path d="M86.9424 38.974C87.0298 37.2933 88.161 36.2145 89.7623 36.2855C91.3516 36.3566 92.3753 37.6079 92.2859 39.3698C92.2075 40.9063 91.0121 41.976 89.468 41.8887C87.8888 41.8004 86.857 40.6089 86.9424 38.973V38.974ZM87.7491 39.1191C87.7521 40.3755 88.372 41.1093 89.5132 41.2067C90.5108 41.292 91.2833 40.6303 91.4752 39.5271C91.6681 38.4198 91.1497 37.3796 90.2556 37.0832C88.8723 36.6235 87.7451 37.5389 87.7491 39.1191Z" fill="white"/>
<path d="M78.4245 37.8673V41.8253H77.7695V36.4282C78.1694 36.2668 78.4115 36.4546 78.6455 36.7692C79.5376 37.9688 80.4488 39.1531 81.4464 40.4664V36.4079H82.1184V42.0009C81.797 41.799 81.5086 41.7056 81.3519 41.5056C80.3956 40.2918 79.4693 39.0547 78.533 37.8257C78.4969 37.8389 78.4607 37.8531 78.4245 37.8663V37.8673Z" fill="white"/>
<path d="M45.0398 41.9476C44.8148 41.7923 44.5365 41.6807 44.3738 41.4746C43.541 40.4181 42.7383 39.3373 41.9226 38.2666C41.8141 38.1245 41.6965 37.9895 41.4916 37.7388V41.8238H40.8125V36.4266C41.1802 36.3007 41.4273 36.4012 41.6634 36.724C42.4791 37.8363 43.325 38.9263 44.1618 40.0233C44.2502 40.139 44.3477 40.2476 44.5275 40.4638V36.4043H45.1604V41.7963C45.1192 41.8461 45.079 41.8958 45.0378 41.9466L45.0398 41.9476Z" fill="white"/>
<path d="M52.2177 36.9644V38.7384C52.7662 38.7384 53.3097 38.7384 53.8542 38.7384C54.0732 38.7384 54.2892 38.7009 54.2973 39.051C54.3063 39.4214 54.0883 39.4052 53.8412 39.4021C53.3107 39.3971 52.7793 39.4001 52.2238 39.4001V41.1741C52.9159 41.1741 53.596 41.1721 54.2752 41.1741C54.8327 41.1762 54.8427 41.1914 54.7302 41.8247H51.4492V36.4072H54.7664V36.9644H52.2187H52.2177Z" fill="white"/>
<path d="M76.6518 36.9977H74.1132V38.7331H76.1103V39.3816H74.1162V41.1658H76.6216V41.8133H73.3477V36.4131H76.6237C76.6317 36.5785 76.6397 36.7521 76.6518 36.9977Z" fill="white"/>
<path d="M48.3449 40.7511C48.8442 39.4815 49.3244 38.2616 49.8025 37.0417C49.9834 36.5817 50.3393 36.3712 50.8704 36.4105C50.7117 36.8083 50.56 37.1899 50.4073 37.5715C49.8799 38.8838 49.3475 40.193 48.8301 41.5093C48.7296 41.765 48.6051 41.8726 48.3187 41.8675C48.0455 41.8635 47.9501 41.7386 47.8596 41.5123C47.1876 39.8266 46.5034 38.1449 45.8203 36.4561C46.5657 36.2927 46.5808 36.2999 46.84 36.9534C47.3342 38.2017 47.8275 39.4501 48.3439 40.7532L48.3449 40.7511Z" fill="white"/>
<path d="M59.002 36.8475C58.8935 37.36 58.6695 37.4635 58.2636 37.1702C58.121 37.0677 57.9301 37.0098 57.7543 36.9835C57.1425 36.8931 56.7095 37.1357 56.599 37.6046C56.4955 38.043 56.7085 38.313 57.3515 38.5535C57.6327 38.659 57.9211 38.7473 58.1953 38.8661C58.9337 39.1868 59.1838 39.5927 59.1346 40.3549C59.0904 41.043 58.6042 41.6418 57.9432 41.8255C57.1164 42.0548 56.2775 41.8234 55.6406 41.1922C55.8857 40.6025 55.8928 40.5995 56.4383 40.9486C56.8853 41.2338 57.3846 41.4104 57.8497 41.1151C58.1079 40.9506 58.3581 40.5873 58.3832 40.294C58.4033 40.0646 58.117 39.7389 57.8839 39.5745C57.6207 39.3887 57.2651 39.34 56.9516 39.2253C56.1148 38.9188 55.7401 38.383 55.8395 37.6462C55.942 36.8921 56.5428 36.3471 57.3665 36.2923C57.9713 36.2517 58.5228 36.408 59.002 36.8475Z" fill="white"/>
<path d="M92.6719 41.1824C92.9059 40.607 92.9351 40.5979 93.4304 40.9277C93.8694 41.22 94.3345 41.3672 94.8498 41.1459C95.2025 40.9947 95.3943 40.7349 95.4205 40.333C95.4476 39.922 95.2175 39.6967 94.8991 39.5556C94.5344 39.3942 94.1406 39.2988 93.7719 39.1446C93.1159 38.8685 92.8467 38.4453 92.8678 37.7806C92.8879 37.1351 93.2535 36.6226 93.8684 36.4044C94.5254 36.172 95.1522 36.2785 95.747 36.6195C95.9509 36.7362 96.0845 36.8651 95.9268 37.1442C95.765 37.4304 95.6234 37.3208 95.3994 37.2396C95.0508 37.1117 94.657 36.9626 94.3124 37.0163C94.0522 37.0569 93.7438 37.3584 93.6262 37.6212C93.4685 37.9714 93.7136 38.2697 94.0582 38.4159C94.441 38.5793 94.8378 38.7112 95.2246 38.8655C95.8042 39.0969 96.1598 39.513 96.1819 40.1584C96.206 40.8252 95.7841 41.4808 95.1964 41.7376C94.3767 42.0958 93.3058 41.8604 92.6729 41.1824H92.6719Z" fill="white"/>
<path d="M59.7578 37.0423V36.4131H63.9309V37.0088H62.2472V41.8275H61.4696V37.0413H59.7578V37.0423Z" fill="white"/>
<path d="M84.4921 37.0191H82.7812V36.4102H86.9433V37.015H85.2656V41.8134H84.4921V37.0191Z" fill="white"/>
<path d="M38.9648 41.8137V36.4064H39.6922V41.8137H38.9648Z" fill="white"/>
<path d="M65.4264 41.8349H64.7031V36.4062H65.4264V41.8349Z" fill="white"/>
</g>
<defs>
<clipPath id="clip0_12_12531">
<rect width="111" height="42" fill="white"/>
</clipPath>
</defs>
</svg>
