<svg width="119" height="32" viewBox="0 0 119 32" fill="none" xmlns="http://www.w3.org/2000/svg">
<g clip-path="url(#clip0_12_12672)">
<path d="M113.408 0.276367C114.986 0.280188 116.65 0.282099 118.228 0.28592C116.648 7.75602 115.263 15.2777 112.523 22.4478C111.535 25.0309 110.292 27.4859 108.104 29.3142C106.278 30.8407 104.3 30.8121 102.617 29.2321C104.054 29.1365 105.017 28.3704 105.728 27.2031C107.56 24.196 108.546 20.864 109.484 17.5168C111.018 12.0413 112.122 6.46451 113.306 0.906836C113.352 0.692859 113.41 0.276367 113.41 0.276367H113.408Z" fill="white"/>
<path d="M106.007 0.240234C107.474 0.240234 108.942 0.240234 110.266 0.240234H110.757L110.654 0.874524C109.381 8.11345 108.22 15.3791 105.812 22.364C105.119 24.3757 104.158 26.2671 102.687 27.8452C101.097 29.5494 99.5249 29.7443 97.75 28.447C98.8275 28.2235 99.2956 27.4134 99.7159 26.5747C101.227 23.5542 102.018 20.2968 102.763 17.0394C104.024 11.5314 105.029 5.96986 105.896 0.387344C105.902 0.356776 105.912 0.242145 105.912 0.242145H106.007V0.240234Z" fill="white"/>
<path d="M41.2471 22.6086C41.9082 19.6969 42.5711 16.7872 43.2398 13.845L46.0559 13.8412C45.7063 15.4556 45.3757 17.0146 45.028 18.5717C44.602 20.4803 44.176 22.3889 43.7193 24.2917C43.3888 25.673 42.7755 26.2615 41.6942 26.3245C40.3893 26.4009 39.5945 25.8946 39.1055 24.563C38.282 22.3124 37.5044 20.0447 36.7059 17.7845C36.6657 17.6718 36.6122 17.561 36.5033 17.305C35.8614 20.3102 35.25 23.1703 34.631 26.0742H31.5742C32.0862 23.7377 32.5868 21.4393 33.0931 19.1429C33.3109 18.1571 33.5516 17.1751 33.7598 16.1873C33.8592 15.7154 34.0541 15.2875 34.2929 14.8786C34.7915 14.0189 35.5156 13.5012 36.5454 13.5814C37.5847 13.6635 38.198 14.3112 38.5266 15.2474C39.3844 17.6871 40.2288 20.1306 41.079 22.5723L41.1841 22.8111L41.249 22.6124L41.2471 22.6086Z" fill="white"/>
<path d="M55.0714 22.6086C55.7324 19.6969 56.3953 16.7872 57.064 13.845L59.8801 13.8412C59.5305 15.4556 59.2 17.0146 58.8523 18.5717C58.4262 20.4803 58.0002 22.3889 57.5436 24.2917C57.213 25.673 56.5998 26.2615 55.5184 26.3245C54.2135 26.4009 53.4188 25.8946 52.9297 24.563C52.1062 22.3124 51.3287 20.0447 50.5301 17.7845C50.4899 17.6718 50.4365 17.561 50.3276 17.305C49.6856 20.3102 49.0743 23.1703 48.4553 26.0742H45.3984C45.9105 23.7377 46.411 21.4393 46.9173 19.1429C47.1351 18.1571 47.3758 17.1751 47.5841 16.1873C47.6834 15.7154 47.8783 15.2875 48.1171 14.8786C48.6157 14.0189 49.3398 13.5012 50.3696 13.5814C51.4089 13.6635 52.0222 14.3112 52.3508 15.2474C53.2086 17.6871 54.0531 20.1306 54.9032 22.5723L55.0083 22.8111L55.0733 22.6124L55.0714 22.6086Z" fill="white"/>
<path d="M17.72 8.26367H20.9545C19.6821 14.2359 18.4211 20.1432 17.1583 26.0696H13.9219C15.1924 20.1127 16.4476 14.2283 17.7219 8.26367H17.72Z" fill="white"/>
<path d="M77.7467 13.8294L77.4334 15.6692C78.702 14.1083 80.0603 13.1798 82.0511 13.6479C81.839 14.6471 81.6327 15.6215 81.4302 16.5786C78.1479 16.6493 76.9997 17.6351 76.3406 20.8926C75.9967 22.5948 75.6642 24.299 75.3127 26.0624H72.082C72.9379 21.9682 73.7843 17.9102 74.6383 13.8294H77.7467Z" fill="white"/>
<path d="M100.014 24.7047C98.7798 21.7778 97.9678 18.9961 97.0928 16.2373C96.1968 13.4117 95.4192 10.544 94.1258 7.85589L93.9844 7.48717C94.1468 6.96369 94.6722 5.46202 95.0313 5.24805C95.7803 5.62824 96.1165 6.36379 96.4642 7.05348C97.9047 9.91734 98.7396 13.0028 99.7446 16.0272C100.153 17.2556 100.553 18.6579 101.03 19.8596L101.315 20.8168C101.315 20.8168 101.17 21.3422 101.069 21.6078C100.707 22.5477 100.417 23.5144 100.016 24.7047H100.014Z" fill="white"/>
<path d="M94.1585 5.22266C93.123 6.87525 92.9205 8.71125 92.5441 10.4747C91.4647 15.5318 90.477 20.6099 89.4529 25.6785C89.4281 25.7989 89.3842 25.9135 89.3345 26.0759H87.168C87.7411 23.4241 88.3124 20.8182 88.8683 18.2103C89.5255 15.1267 90.156 12.0374 90.8247 8.95579C91.2163 7.14845 92.0933 5.72703 94.1585 5.22457V5.22266Z" fill="white"/>
<path d="M91.2181 6.42285C89.7202 7.85191 89.4814 9.76816 89.0802 11.6175C88.039 16.4244 86.9997 21.2312 85.9489 26.0782H83.832C84.2925 23.9136 84.7395 21.7948 85.1942 19.678C85.7903 16.9001 86.4112 14.1299 86.9882 11.3481C87.4907 8.92562 88.6886 7.11828 91.2181 6.42285Z" fill="white"/>
<path d="M93.1337 10.8076C95.0443 16.1876 96.1141 21.6288 98.9799 26.5139C98.743 27.1444 98.2062 27.9239 97.1248 27.8226C96.5497 27.3775 96.2307 26.7623 95.9422 26.1318C94.4367 22.8534 93.3133 19.2158 92.2186 15.7883L92.125 15.5017L92.1498 15.3585C92.4479 13.9084 92.7727 12.464 93.1337 10.8076Z" fill="white"/>
<path d="M13.7254 18.052C13.5229 14.8308 11.7442 13.3215 8.53839 13.5451C7.36916 13.6272 6.28972 14.3551 5.45483 15.1098L5.66116 13.824H2.78967C1.5956 19.6052 0.416811 25.3138 -0.773438 31.0874H2.45342C2.6865 29.9487 2.87182 28.8597 3.13547 27.7898C3.39148 26.7524 3.68187 25.2202 3.90731 24.5573C4.84538 26.1984 6.26298 26.5939 7.87927 26.4276C9.7936 26.2309 11.2838 25.2832 12.3174 23.6612C13.4064 21.9513 13.8515 20.0542 13.7254 18.052ZM10.3018 18.8945C10.1967 20.207 9.9751 21.3763 9.29496 22.4079C8.54986 23.537 7.3214 24.0854 6.21712 23.795C5.28861 23.5504 4.65241 22.5474 4.66579 21.1336C4.67725 19.8631 4.96574 18.6366 5.68791 17.5514C6.48268 16.3554 7.63663 15.8358 8.73327 16.1778C9.79933 16.5102 10.3457 17.496 10.3037 18.8945H10.3018Z" fill="white"/>
<path d="M71.8232 20.9594C72.148 20.0366 72.1824 19.1463 72.213 18.2713C72.2951 15.8755 71.0456 14.1981 68.8027 13.6784C67.7137 13.4263 66.5961 13.4205 65.5052 13.7205C62.2955 14.6012 59.9188 17.9446 60.1347 21.2536C60.3105 23.9474 61.5332 25.5504 63.9366 26.1827C66.0057 26.7272 68.0117 26.4139 70.0617 25.7032C70.1802 24.8989 70.2986 24.1022 70.4324 23.189C69.9815 23.3495 69.6643 23.4775 69.3395 23.5749C67.9239 24.0029 66.4872 24.2321 65.0333 23.7984C63.7589 23.4182 63.1533 22.3579 63.4151 20.9575H71.8251L71.8232 20.9594ZM67.9869 16.0379C69.0205 16.3341 69.4121 17.3887 68.946 18.6592H63.8507C64.3951 16.5805 66.1184 15.503 67.9869 16.0379Z" fill="white"/>
<path d="M28.4964 13.7707C26.3776 13.274 24.2818 13.4899 22.1859 14.2197C22.0369 15.0259 21.8898 15.8226 21.7217 16.7282C22.1687 16.5735 22.4878 16.4588 22.8088 16.3518C24.1499 15.9086 25.5102 15.6144 26.9145 16.0137C28.12 16.3557 28.4218 17.1409 28.0302 18.4095C28.0302 18.4095 27.5029 18.3846 27.224 18.3942C25.2886 18.4496 23.3342 18.419 21.5478 19.3284C19.8857 20.1729 19.1329 21.9 19.58 23.7321C19.9678 25.3236 21.2517 26.2254 23.1393 26.296C24.7097 26.3553 26.3279 25.6063 27.415 24.5288L27.0539 26.0343H29.6159C30.126 23.0558 31.0851 20.1537 31.173 17.1065C31.2227 15.3832 30.2235 14.1758 28.4964 13.7726V13.7707ZM24.2264 24.013C23.552 23.9977 22.9444 23.8296 22.7075 23.1284C22.484 22.4693 22.7247 21.8847 23.2138 21.4204C24.0239 20.6524 25.0746 20.5416 26.112 20.4422C26.6107 20.3945 27.117 20.4346 27.6806 20.4346C27.3825 22.7234 26.0509 24.0531 24.2264 24.0149V24.013Z" fill="white"/>
</g>
<defs>
<clipPath id="clip0_12_12672">
<rect width="119" height="32" fill="white"/>
</clipPath>
</defs>
</svg>
