<svg width="99" height="34" viewBox="0 0 99 34" fill="none" xmlns="http://www.w3.org/2000/svg">
<path d="M98.0081 4.723C95.9001 4.723 94.1314 5.80096 93.2828 7.11865H92.9924L91.6833 4.79457H90.3262V19.961H93.3316V12.6059C93.3316 9.73079 95.1492 8.02932 98.2505 8.02932H98.9535V4.79457C98.6405 4.7469 98.3247 4.72298 98.0081 4.723ZM84.2927 7.11865H84.0014C82.8868 5.63367 80.7544 4.50652 78.6699 4.50652C74.454 4.50652 70.8189 7.95775 70.8189 12.3903C70.8189 16.6789 74.3083 20.2733 78.6699 20.2733C80.9 20.2733 82.8868 19.1711 83.929 17.4464V19.9619H86.9335V4.79457H85.5765L84.2927 7.11865ZM78.8644 17.374C78.2017 17.3766 77.5452 17.2494 76.9324 16.9999C76.3197 16.7504 75.7629 16.3834 75.2944 15.9201C74.8257 15.4569 74.4545 14.9065 74.202 14.3006C73.9496 13.6948 73.8209 13.0456 73.8234 12.3903C73.823 11.7357 73.953 11.0873 74.2062 10.4824C74.4593 9.8775 74.8307 9.32788 75.2989 8.86501C75.7671 8.40213 76.323 8.03507 76.9348 7.78484C77.5466 7.53461 78.2024 7.40611 78.8644 7.4067C79.5282 7.40376 80.186 7.53045 80.8002 7.7795C81.4144 8.02856 81.9728 8.39507 82.4433 8.85802C82.9138 9.32097 83.2873 9.87123 83.5422 10.4772C83.7972 11.0833 83.9286 11.7331 83.929 12.3894C83.9308 13.0465 83.8009 13.6974 83.5467 14.3044C83.2925 14.9115 82.9192 15.4627 82.4483 15.9263C81.9773 16.3898 81.4181 16.7564 80.8029 17.0049C80.1878 17.2534 79.5289 17.3788 78.8644 17.374ZM60.7133 4.50652C56.3028 4.50652 52.9102 8.05347 52.9102 12.3662C52.9102 16.8229 56.3752 20.2733 60.9802 20.2733C63.6454 20.2733 65.8991 19.1461 67.6931 16.8945L65.3164 15.0982C64.3231 16.44 62.7235 17.3507 60.9793 17.3507C58.6523 17.3507 56.4955 15.7217 56.0839 13.4692H68.3698V12.3671C68.3454 7.88619 65.0495 4.50831 60.7124 4.50831L60.7133 4.50652ZM56.1083 10.8803C56.6177 8.65283 58.6288 7.33424 60.7377 7.33424C62.8945 7.33424 64.6144 8.67609 65.0749 10.8803H56.1083ZM38.6854 17.3257C38.0279 17.3291 37.376 17.2039 36.7675 16.9574C36.159 16.7109 35.6059 16.3479 35.1397 15.8892C34.6736 15.4306 34.3037 14.8854 34.0515 14.2848C33.7992 13.6844 33.6694 13.0406 33.6697 12.3903C33.6697 9.65833 35.8021 7.45411 38.6854 7.45411C40.0669 7.45411 41.1336 8.02932 42.0057 8.79596L44.2838 6.75904C42.9267 5.39393 40.939 4.50741 38.7098 4.50741C34.3718 4.50741 30.6643 8.05347 30.6643 12.3903C30.6643 16.7746 34.275 20.2733 38.7098 20.2733C41.6664 20.2733 43.9201 18.9314 45.3251 16.7272L42.8055 15.1697C41.8356 16.44 40.503 17.3257 38.6854 17.3257ZM47.2159 4.07534V19.9619H50.2195V1.67969H49.8577L47.2159 4.07534ZM11.1316 1.70384L9.33937 10.0886L7.4241 11.6469L5.63097 19.9378H8.78116L12.7076 1.70384H11.1316ZM16.1971 1.70384L15.4697 5.03431L13.5788 6.59086L10.6711 19.9378H12.2471L12.9736 16.6073L14.8879 15.0499L17.7722 1.70295L16.1971 1.70384ZM6.09146 1.70295L3.18373 15.1447L1.26937 16.7263L0.566406 19.9378H3.7166L7.66656 1.70205H6.09237L6.09146 1.70295ZM24.7276 1.70384L20.8011 19.9378H22.3527L25.2604 6.49603L27.1748 4.93859L27.8778 1.70384H24.7276ZM22.8132 1.70384H19.6621L15.7366 19.9378H17.3117L19.1301 11.5512L21.0436 9.99468L22.8132 1.70384ZM37.2071 30.1206C36.7466 30.6958 36.0201 30.983 35.1236 30.983C33.524 30.983 32.433 29.8809 32.433 28.2277C32.433 26.5987 33.524 25.4966 35.1236 25.4966C36.1893 25.4966 36.7701 25.9994 37.0868 26.4064L37.1103 26.4547H37.4252L37.3039 24.8731L37.256 24.849C36.7222 24.4419 35.8989 24.2022 35.0503 24.2022C32.6754 24.2022 30.9547 25.9037 30.9547 28.2519C30.9547 30.6001 32.6754 32.3249 35.0503 32.3249C35.9713 32.3249 36.8434 32.0618 37.3772 31.6539L37.4007 31.6298L37.5464 30.1206H37.2071ZM42.3441 24.178C39.9457 24.178 38.2973 25.8321 38.2973 28.2277C38.2973 30.576 39.9936 32.3007 42.3441 32.3007C44.6954 32.3007 46.4152 30.6001 46.4152 28.2277C46.4152 25.8562 44.7433 24.178 42.3441 24.178ZM44.9614 28.2277C44.9614 29.8809 43.9192 30.983 42.3685 30.983C40.8178 30.983 39.7756 29.8809 39.7756 28.2277C39.7756 26.5987 40.8178 25.4966 42.3685 25.4966C43.9192 25.4966 44.9614 26.5746 44.9614 28.2277ZM52.2072 24.2505C52.1104 24.2022 51.9647 24.1789 51.7711 24.1789C51.266 24.1763 50.7692 24.3057 50.3309 24.5538C49.8926 24.802 49.5284 25.1603 49.275 25.5923L48.9358 24.2746H47.9912V32.1817H49.446V27.8923C49.446 26.503 50.3182 25.5682 51.6019 25.5682C51.8444 25.5682 52.0869 25.5923 52.257 25.6398L52.4017 25.6881L52.2814 24.2746L52.209 24.2505H52.2072ZM57.9023 24.2505C57.8055 24.2022 57.6599 24.1789 57.4663 24.1789C56.9612 24.1763 56.4644 24.3057 56.0261 24.5538C55.5877 24.802 55.2235 25.1603 54.9702 25.5923L54.6309 24.2746H53.6855V32.1817H55.1403V27.8923C55.1403 26.503 56.0124 25.5682 57.2962 25.5682C57.5386 25.5682 57.7811 25.5923 57.9512 25.6398L58.0959 25.6881L57.9747 24.2746L57.9023 24.2505ZM62.3372 24.178C60.108 24.178 58.4352 25.9278 58.4352 28.2519C58.4352 30.6717 60.1315 32.3007 62.6521 32.3007C63.7422 32.3007 64.8577 31.9661 65.4874 31.4625L65.5118 31.4383L65.7543 29.9775H65.4386L65.415 30.0008C64.7845 30.6243 63.7667 30.983 62.7244 30.983C61.1258 30.983 60.1315 30.1931 59.9135 28.7555H65.9723V28.6589C65.9959 28.4442 65.9959 28.276 65.9959 28.0846C65.9959 25.7596 64.5185 24.178 62.3372 24.178ZM62.3128 25.4966C63.5975 25.4966 64.4696 26.3107 64.5664 27.581H59.9379C60.156 26.3107 61.1014 25.4966 62.3128 25.4966ZM71.2305 30.8399C71.0858 30.9597 70.8189 31.0313 70.504 31.0313C69.6554 31.0313 69.2438 30.6001 69.2438 29.6895V25.5208H71.473V24.2988H69.2673V22.6931L66.384 25.2336V25.5199H67.8134V29.8093C67.8134 31.3659 68.7588 32.3007 70.3104 32.3007C70.6732 32.3007 71.1337 32.2291 71.3517 32.086L71.4006 32.0618L71.5453 30.8399H71.2305ZM76.2716 24.178C73.8723 24.178 72.2248 25.8321 72.2248 28.2277C72.2248 30.576 73.9211 32.3007 76.2716 32.3007C78.622 32.3007 80.3427 30.6001 80.3427 28.2277C80.3427 25.8562 78.6708 24.178 76.2716 24.178ZM78.8644 28.2277C78.8644 29.8809 77.8222 30.983 76.2716 30.983C74.72 30.983 73.6787 29.8809 73.6787 28.2277C73.6787 26.5987 74.72 25.4966 76.2716 25.4966C77.8457 25.4966 78.8644 26.5746 78.8644 28.2277ZM86.1103 24.2505C85.9714 24.1974 85.8229 24.173 85.6742 24.1789C85.1689 24.1762 84.6719 24.3054 84.2334 24.5536C83.795 24.8018 83.4306 25.1602 83.1772 25.5923L82.8388 24.2746H81.8934V32.1817H83.3473V27.8923C83.3473 26.503 84.2203 25.5682 85.5041 25.5682C85.7466 25.5682 85.989 25.5923 86.1582 25.6398L86.3039 25.6881L86.1826 24.2746L86.1103 24.2505ZM89.9878 24.178C88.9691 24.178 87.9758 24.4902 87.4908 24.8015L87.4429 24.8257L87.2493 26.215H87.5641L87.5886 26.1917C88.2182 25.7122 88.9456 25.4966 89.8901 25.4966C91.1993 25.4966 91.9022 26.0718 91.9022 27.1498V27.5568C91.4091 27.4461 90.9052 27.3899 90.3995 27.3895C88.097 27.3895 86.8132 28.3002 86.8132 29.9534C86.8132 31.3426 87.9278 32.3249 89.5273 32.3249C90.5931 32.3249 91.5385 31.8221 92.0714 30.9356L92.4107 32.2291H93.3316V27.0782C93.3316 25.2569 92.0714 24.1789 89.9869 24.1789L89.9878 24.178ZM90.3751 28.5874C90.86 28.5874 91.3684 28.6589 91.8778 28.7788C91.8778 30.1448 91.0292 31.0072 89.7698 31.0072C88.8244 31.0072 88.2182 30.5518 88.2182 29.8576C88.2182 29.0185 88.9456 28.5874 90.3751 28.5874Z" fill="white"/>
</svg>
