<svg xmlns:xlink="http://www.w3.org/1999/xlink" width="110" height="50" viewBox="0 0 110 50" fill="none" xmlns="http://www.w3.org/2000/svg">
<path fill-rule="evenodd" clip-rule="evenodd" d="M0.863375 41.5787C0.63942 41.4324 0.448703 41.2402 0.303724 41.0147C0.158746 40.7891 0.0627781 40.5352 0.0221113 40.2697C-0.0185555 40.0042 -0.00300375 39.733 0.0677475 39.474C0.138499 39.215 0.262853 38.9739 0.432658 38.7666C1.75277 37.1598 3.30879 35.7652 5.047 34.6307C6.92835 33.3882 9.21836 32.9361 11.4268 33.3712C13.6353 33.8064 15.5867 35.0942 16.8633 36.959C17.2969 37.5801 17.8727 38.0871 18.542 38.4371C19.2114 38.787 19.9546 38.9697 20.7089 38.9697C21.4632 38.9697 22.2064 38.787 22.8758 38.4371C23.5451 38.0871 24.1209 37.5801 24.5545 36.959C25.8311 35.0942 27.7825 33.8064 29.991 33.3712C32.1994 32.9361 34.4895 33.3882 36.3708 34.6307C38.1027 35.7623 39.654 37.1517 40.9718 38.7515C41.1425 38.9601 41.2673 39.2028 41.3377 39.4635C41.4082 39.7243 41.4227 39.9972 41.3804 40.2641C41.3381 40.5309 41.2399 40.7857 41.0923 41.0115C40.9447 41.2372 40.7512 41.4289 40.5244 41.5736L40.4159 41.6425C40.023 41.8904 39.5537 41.9855 39.096 41.9101C38.6384 41.8346 38.2238 41.5937 37.9301 41.2326C36.8476 39.934 35.5748 38.809 34.1554 37.8964C33.4062 37.4203 32.5375 37.1691 31.6513 37.1724C30.8989 37.1748 30.158 37.3579 29.4902 37.7065C28.8224 38.055 28.2469 38.559 27.8116 39.1765C27.0204 40.3281 25.9628 41.269 24.73 41.9181C23.4972 42.5671 22.1261 42.905 20.7348 42.9024H20.683C19.2917 42.905 17.9206 42.5671 16.6878 41.9181C15.455 41.269 14.3974 40.3281 13.6062 39.1765C13.1698 38.5579 12.5926 38.0534 11.9229 37.7051C11.2532 37.3568 10.5104 37.1747 9.75651 37.1741C8.87372 37.1726 8.00872 37.4237 7.26236 37.8981C5.83485 38.8151 4.55659 39.9484 3.47272 41.2578C3.1792 41.6206 2.76327 41.8621 2.30422 41.9361C1.84516 42.0101 1.37508 41.9116 0.983574 41.6593L0.863375 41.5787Z" fill="#FFFFFF"></path>
<path d="M34.4644 43.8062V44.8847C34.4646 45.0663 34.4292 45.2462 34.3602 45.414C34.2913 45.5819 34.1901 45.7344 34.0624 45.8628C33.9348 45.9912 33.7833 46.093 33.6165 46.1624C33.4497 46.2318 33.2709 46.2675 33.0904 46.2672H8.3409C8.16041 46.2675 7.98164 46.2318 7.81485 46.1624C7.64805 46.093 7.4965 45.9912 7.36888 45.8628C7.24125 45.7344 7.14005 45.5819 7.07108 45.414C7.00211 45.2462 6.96672 45.0663 6.96694 44.8847V43.7928C6.96694 42.4808 5.2975 41.8945 4.51119 42.9377C4.49283 42.9646 4.47279 42.9898 4.45443 43.015C4.28045 43.251 4.1873 43.5375 4.18899 43.8314V47.68C4.18943 48.0468 4.33456 48.3985 4.59249 48.6577C4.85042 48.9169 5.20006 49.0625 5.56461 49.0625H35.8684C36.2326 49.0621 36.5819 48.9163 36.8394 48.6571C37.097 48.3979 37.2419 48.0465 37.2423 47.68V43.8449C37.244 43.5505 37.1509 43.2634 36.9769 43.0268L36.9201 42.9512C36.1288 41.9063 34.4644 42.4926 34.4644 43.8062Z" fill="#FFFFFF"></path>
<path d="M6.96692 30.7317V5.11534C6.9667 4.93372 7.00209 4.75384 7.07106 4.58601C7.14003 4.41817 7.24123 4.26567 7.36885 4.13725C7.49648 4.00883 7.64803 3.907 7.81483 3.8376C7.98162 3.7682 8.16038 3.73259 8.34088 3.73281H33.0904C33.2709 3.73259 33.4496 3.7682 33.6164 3.8376C33.7832 3.907 33.9348 4.00883 34.0624 4.13725C34.19 4.26567 34.2912 4.41817 34.3602 4.58601C34.4292 4.75384 34.4646 4.93372 34.4644 5.11534V30.7368C34.4645 31.0171 34.5494 31.2908 34.7077 31.5216C34.866 31.7523 35.0903 31.9291 35.3508 32.0286L35.3825 32.0403C35.5904 32.1194 35.8142 32.1465 36.0347 32.1195C36.2553 32.0924 36.466 32.0119 36.6489 31.8849C36.8317 31.7579 36.9813 31.5881 37.0846 31.3902C37.188 31.1923 37.2421 30.9721 37.2423 30.7485V2.32171C37.2423 1.95489 37.0976 1.60306 36.84 1.34352C36.5824 1.08398 36.2329 0.937945 35.8684 0.9375H5.56459C5.19975 0.9375 4.84986 1.08334 4.59188 1.34293C4.3339 1.60252 4.18897 1.9546 4.18897 2.32171V30.7418C4.18863 30.9655 4.24229 31.1858 4.34533 31.384C4.44837 31.5822 4.59771 31.7522 4.7805 31.8794C4.96329 32.0067 5.17406 32.0874 5.39468 32.1145C5.61531 32.1417 5.83918 32.1145 6.04706 32.0353L6.07878 32.0235C6.33973 31.9245 6.56452 31.7479 6.72318 31.5171C6.88185 31.2863 6.96687 31.0123 6.96692 30.7317Z" fill="#FFFFFF"></path>
<path d="M29.683 24.5381L29.7147 24.6338C29.757 26.9688 29.003 28.8553 27.4527 30.2933C25.9023 31.7313 23.8077 32.4503 21.1689 32.4503C18.4888 32.4503 16.3158 31.5403 14.6497 29.7205C12.9836 27.9006 12.1488 25.5734 12.1455 22.7389V18.3292C12.1455 15.5071 12.968 13.1804 14.6129 11.3494C16.2579 9.51831 18.4043 8.60278 21.052 8.60278C23.7632 8.60278 25.8967 9.29825 27.4527 10.6892C29.0086 12.0801 29.7648 13.984 29.7214 16.4008L29.6897 16.4948H28.456C27.8359 16.4876 27.2334 16.2862 26.7323 15.9186C26.2312 15.551 25.8563 15.0355 25.6597 14.4437C25.4679 13.8736 25.1474 13.3561 24.7231 12.9318C23.8895 12.1098 22.6652 11.6988 21.0503 11.6988C19.4922 11.6988 18.2557 12.322 17.3408 13.5685C16.426 14.815 15.9696 16.3884 15.9719 18.2889V22.7305C15.9719 24.6523 16.436 26.2364 17.3642 27.4829C18.2924 28.7293 19.5606 29.3554 21.1689 29.361C22.7404 29.361 23.9346 28.9472 24.7515 28.1195C25.1684 27.6925 25.483 27.1754 25.6714 26.6077C25.8612 26.0137 26.2316 25.4947 26.7304 25.124C27.2291 24.7532 27.831 24.5495 28.451 24.5414L29.683 24.5381Z" fill="#FFFFFF"></path>
<path d="M56.496 26.2818L56.5177 26.349C56.5477 27.9717 56.0241 29.282 54.9467 30.2799C53.8694 31.2777 52.4147 31.7778 50.5828 31.78C48.7219 31.78 47.2122 31.1478 46.0536 29.8834C44.895 28.6191 44.3163 27.0019 44.3174 25.032V21.9696C44.3174 20.0075 44.8889 18.3903 46.0319 17.1181C47.1749 15.8459 48.6663 15.2103 50.506 15.2114C52.3892 15.2114 53.8711 15.6941 54.9517 16.6595C56.0324 17.6248 56.5583 18.9486 56.5294 20.6307L56.5077 20.6962H54.294C54.1971 20.696 54.1039 20.6588 54.0332 20.592C53.9625 20.5253 53.9197 20.434 53.9134 20.3367C53.8555 19.4341 53.5694 18.7302 53.0553 18.2251C52.4776 17.654 51.6279 17.3684 50.506 17.3684C50.0031 17.3529 49.5042 17.4634 49.0542 17.6901C48.6043 17.9167 48.2174 18.2524 47.9284 18.6669C47.294 19.5337 46.9768 20.6268 46.9768 21.946V25.032C46.9768 26.368 47.2996 27.4689 47.9451 28.3346C48.2449 28.7525 48.6424 29.0895 49.1025 29.316C49.5625 29.5425 50.071 29.6514 50.5828 29.6331C51.6746 29.6331 52.5043 29.3459 53.072 28.7714C53.5761 28.2607 53.8544 27.549 53.9067 26.6362C53.9139 26.5394 53.9574 26.4489 54.0283 26.3831C54.0993 26.3173 54.1925 26.2811 54.289 26.2818H56.496Z" fill="#FFFFFF"></path>
<path d="M65.9499 31.5465C65.8675 31.5468 65.7873 31.5203 65.7211 31.4709C65.6549 31.4216 65.6064 31.3521 65.5826 31.2727C65.5225 31.0661 65.4724 30.8628 65.429 30.6629C65.4142 30.5925 65.3804 30.5275 65.3313 30.4751C65.2822 30.4228 65.2197 30.3851 65.1507 30.3661C65.0817 30.3472 65.0088 30.3478 64.9401 30.3679C64.8714 30.3879 64.8095 30.4266 64.7612 30.4798C64.4906 30.7591 64.1873 31.0045 63.8581 31.2105C63.2582 31.5893 62.5629 31.787 61.8547 31.78C60.616 31.78 59.665 31.4592 59.0017 30.8175C58.3383 30.1757 58.0045 29.2944 58 28.1733C58 27.0153 58.4546 26.1138 59.3639 25.4687C60.2732 24.8237 61.5531 24.5011 63.2037 24.5011H64.8981C64.9997 24.5011 65.0971 24.4607 65.1691 24.3886C65.241 24.3165 65.2817 24.2186 65.2821 24.1164V23.4445C65.2821 22.8185 65.1007 22.3279 64.7379 21.9729C64.3751 21.6179 63.8492 21.441 63.1603 21.4421C62.5526 21.4421 62.069 21.5877 61.7095 21.8788C61.4517 22.0798 61.2741 22.3671 61.2087 22.6885C61.1926 22.7782 61.1463 22.8596 61.0776 22.919C61.0089 22.9783 60.9219 23.012 60.8314 23.0144L58.6043 23.0245L58.5927 22.9573C58.5403 22.0132 58.9599 21.1761 59.8514 20.4459C60.7429 19.7157 61.9004 19.3562 63.3239 19.3674C64.7095 19.3674 65.8269 19.7213 66.6761 20.4291C67.5253 21.1369 67.9504 22.1544 67.9516 23.4814V28.8016C67.9497 29.2771 67.9826 29.7521 68.0501 30.2228C68.0896 30.5085 68.1454 30.7918 68.217 31.0711C68.2324 31.1281 68.2346 31.1879 68.2233 31.2458C68.2119 31.3037 68.1875 31.3582 68.1518 31.4051C68.116 31.4519 68.07 31.4898 68.0174 31.5158C67.9647 31.5418 67.9067 31.5552 67.8481 31.5549L65.9499 31.5465ZM62.404 29.6231C63.0421 29.6324 63.6696 29.4575 64.212 29.1191C64.655 28.8666 65.0157 28.4902 65.2504 28.0356C65.2738 27.9828 65.2852 27.9254 65.2838 27.8676V26.5691C65.2838 26.5183 65.2739 26.4681 65.2546 26.4212C65.2353 26.3743 65.207 26.3317 65.1713 26.2958C65.1357 26.26 65.0933 26.2315 65.0468 26.2121C65.0002 26.1927 64.9502 26.1827 64.8998 26.1827H63.1586C62.3795 26.1827 61.7713 26.3764 61.3339 26.7639C61.1298 26.9278 60.9647 27.1354 60.8506 27.3717C60.7366 27.608 60.6764 27.867 60.6745 28.1297C60.6651 28.3329 60.7002 28.5357 60.7772 28.7237C60.8542 28.9118 60.9713 29.0806 61.1202 29.2182C61.4174 29.4887 61.8431 29.6231 62.404 29.6231Z" fill="#FFFFFF"></path>
<path d="M80.8047 25.961C80.8047 27.7013 80.3985 29.1062 79.586 30.1758C78.7736 31.2453 77.6411 31.78 76.1887 31.78C75.5721 31.7919 74.9605 31.6668 74.3974 31.4138C74.1381 31.2939 73.8943 31.1427 73.6712 30.9636C73.6172 30.9171 73.551 30.8871 73.4806 30.8772C73.4102 30.8673 73.3384 30.8779 73.2738 30.9078C73.2091 30.9377 73.1544 30.9855 73.1159 31.0457C73.0775 31.1059 73.057 31.176 73.0569 31.2475V35.7613C73.0569 35.8638 73.0164 35.9621 72.9444 36.0345C72.8724 36.107 72.7747 36.1477 72.6729 36.1477H70.7697C70.6679 36.1477 70.5702 36.107 70.4982 36.0345C70.4262 35.9621 70.3857 35.8638 70.3857 35.7613V19.9705C70.3857 19.8681 70.4262 19.7698 70.4982 19.6973C70.5702 19.6249 70.6679 19.5842 70.7697 19.5842H72.3173C72.4074 19.5844 72.4946 19.6164 72.5635 19.6748C72.6325 19.7331 72.6789 19.814 72.6946 19.9033L72.758 20.2662C72.7708 20.3363 72.8026 20.4016 72.8499 20.4547C72.8972 20.5077 72.9582 20.5466 73.0262 20.5669C73.0941 20.5873 73.1663 20.5883 73.2348 20.5699C73.3032 20.5515 73.3653 20.5144 73.4141 20.4627C73.6704 20.2027 73.9628 19.9814 74.2822 19.8059C74.8599 19.5034 75.5042 19.3525 76.1553 19.3675C77.6211 19.3675 78.7625 19.9515 79.5794 21.1196C80.3963 22.2876 80.8047 23.827 80.8047 25.7375V25.961ZM78.1453 25.7291C78.1453 24.5062 77.9166 23.5055 77.4592 22.7272C77.2592 22.36 76.9614 22.0562 76.5992 21.8499C76.2371 21.6437 75.8249 21.5432 75.4091 21.5597C74.912 21.5437 74.4204 21.6683 73.9901 21.9192C73.6274 22.1445 73.3252 22.456 73.1103 22.8263C73.0744 22.8873 73.056 22.9571 73.0569 23.0279V28.2187C73.0563 28.2908 73.0753 28.3617 73.1119 28.4237C73.3255 28.7852 73.6279 29.0855 73.9901 29.2955C74.4325 29.5332 74.9295 29.6491 75.4308 29.6315C76.339 29.6315 77.0184 29.2955 77.4692 28.6236C77.9199 27.9516 78.1425 27.0646 78.137 25.9626L78.1453 25.7291Z" fill="#FFFFFF"></path>
<path d="M85.1939 16.6493H83.2907C83.1889 16.6493 83.0912 16.6086 83.0192 16.5362C82.9472 16.4637 82.9067 16.3654 82.9067 16.263V14.6789C82.9067 14.5764 82.9472 14.4781 83.0192 14.4056C83.0912 14.3332 83.1889 14.2925 83.2907 14.2925H85.1939C85.2957 14.2925 85.3934 14.3332 85.4654 14.4056C85.5374 14.4781 85.5779 14.5764 85.5779 14.6789V16.263C85.5779 16.3654 85.5374 16.4637 85.4654 16.5362C85.3934 16.6086 85.2957 16.6493 85.1939 16.6493ZM85.1939 31.5464H83.2907C83.1892 31.5465 83.0918 31.506 83.0198 31.4339C82.9478 31.3618 82.9072 31.2639 82.9067 31.1618V19.9654C82.9067 19.9147 82.9167 19.8644 82.936 19.8176C82.9553 19.7707 82.9835 19.7281 83.0192 19.6922C83.0549 19.6563 83.0972 19.6279 83.1438 19.6084C83.1904 19.589 83.2403 19.579 83.2907 19.579H85.1939C85.2957 19.579 85.3934 19.6197 85.4654 19.6922C85.5374 19.7647 85.5779 19.8629 85.5779 19.9654V31.1618C85.5774 31.2639 85.5368 31.3618 85.4648 31.4339C85.3928 31.506 85.2954 31.5465 85.1939 31.5464Z" fill="#FFFFFF"></path>
<path d="M91.5126 17.0575V19.1994C91.5126 19.25 91.5226 19.3002 91.5419 19.347C91.5612 19.3937 91.5895 19.4362 91.6252 19.472C91.6609 19.5077 91.7032 19.536 91.7498 19.5552C91.7964 19.5745 91.8463 19.5843 91.8966 19.584H93.2622C93.3126 19.584 93.3624 19.594 93.4089 19.6135C93.4554 19.6329 93.4976 19.6614 93.5331 19.6973C93.5687 19.7332 93.5968 19.7758 93.6159 19.8227C93.635 19.8695 93.6447 19.9198 93.6445 19.9704V21.19C93.6447 21.2407 93.635 21.2909 93.6159 21.3377C93.5968 21.3846 93.5687 21.4272 93.5331 21.4631C93.4976 21.499 93.4554 21.5275 93.4089 21.5469C93.3624 21.5664 93.3126 21.5764 93.2622 21.5764H91.8966C91.8463 21.5761 91.7964 21.5859 91.7498 21.6052C91.7032 21.6244 91.6609 21.6527 91.6252 21.6884C91.5895 21.7242 91.5612 21.7667 91.5419 21.8135C91.5226 21.8602 91.5126 21.9104 91.5126 21.9611V28.19C91.5126 28.6839 91.6189 29.0361 91.8315 29.2467C91.9444 29.3536 92.0775 29.4365 92.2229 29.4904C92.3684 29.5444 92.5231 29.5683 92.6779 29.5608C92.8218 29.5616 92.9655 29.5487 93.107 29.5222C93.2413 29.4978 93.3736 29.463 93.5026 29.418L93.7464 31.0979C93.7595 31.1834 93.7435 31.2709 93.7011 31.3462C93.6587 31.4215 93.5923 31.4802 93.5126 31.5128C93.3399 31.5832 93.1618 31.6394 92.9801 31.6808C92.6606 31.7522 92.3341 31.7877 92.0068 31.7866C91.0252 31.7866 90.2544 31.4971 89.6946 30.9181C89.1348 30.3391 88.8566 29.4303 88.8599 28.1917V21.956C88.8599 21.9054 88.85 21.8552 88.8306 21.8084C88.8113 21.7616 88.783 21.7192 88.7473 21.6834C88.7117 21.6477 88.6693 21.6194 88.6227 21.6001C88.5762 21.5809 88.5263 21.5711 88.4759 21.5713H87.4292C87.3788 21.5713 87.329 21.5613 87.2825 21.5419C87.236 21.5225 87.1938 21.494 87.1583 21.4581C87.1227 21.4222 87.0946 21.3796 87.0755 21.3327C87.0564 21.2858 87.0467 21.2356 87.0469 21.185V19.9654C87.0467 19.9147 87.0564 19.8645 87.0755 19.8176C87.0946 19.7708 87.1227 19.7282 87.1583 19.6923C87.1938 19.6564 87.236 19.6279 87.2825 19.6084C87.329 19.589 87.3788 19.579 87.4292 19.579H88.4759C88.5263 19.5792 88.5762 19.5694 88.6227 19.5502C88.6693 19.531 88.7117 19.5027 88.7473 19.4669C88.783 19.4312 88.8113 19.3887 88.8306 19.3419C88.85 19.2951 88.8599 19.245 88.8599 19.1943V17.0575C88.8599 17.0068 88.8698 16.9565 88.8891 16.9097C88.9084 16.8628 88.9367 16.8202 88.9724 16.7843C89.008 16.7484 89.0503 16.72 89.0969 16.7006C89.1435 16.6811 89.1934 16.6711 89.2439 16.6711H91.1353C91.236 16.6729 91.332 16.7144 91.4026 16.7867C91.4731 16.8589 91.5127 16.9562 91.5126 17.0575Z" fill="#FFFFFF"></path>
<path d="M102.83 31.5465C102.747 31.5468 102.667 31.5203 102.601 31.4709C102.535 31.4216 102.486 31.3521 102.462 31.2727C102.404 31.0661 102.352 30.8628 102.309 30.6629C102.294 30.5925 102.26 30.5275 102.211 30.4751C102.162 30.4228 102.099 30.3851 102.03 30.3661C101.961 30.3472 101.888 30.3478 101.82 30.3679C101.751 30.3879 101.689 30.4266 101.641 30.4798C101.37 30.7587 101.068 31.004 100.739 31.2105C100.139 31.589 99.4442 31.7866 98.7361 31.78C97.4974 31.78 96.5463 31.4592 95.883 30.8175C95.2197 30.1757 94.8858 29.2944 94.8813 28.1733C94.8813 27.0153 95.3354 26.1138 96.2436 25.4687C97.1518 24.8237 98.4317 24.5011 100.083 24.5011H101.776C101.878 24.5011 101.975 24.4607 102.047 24.3886C102.119 24.3165 102.16 24.2186 102.16 24.1164V23.4445C102.16 22.8185 101.979 22.3279 101.616 21.9729C101.253 21.6179 100.727 21.441 100.038 21.4421C99.4306 21.4421 98.947 21.5877 98.5875 21.8788C98.3309 22.0808 98.1534 22.3676 98.0867 22.6885C98.0706 22.7782 98.0243 22.8596 97.9556 22.919C97.8869 22.9783 97.7999 23.012 97.7094 23.0144L95.4824 23.0245L95.4707 22.9573C95.4206 22.0132 95.8402 21.1761 96.7294 20.4459C97.6187 19.7157 98.7767 19.3562 100.204 19.3674C101.589 19.3674 102.707 19.7213 103.556 20.4291C104.405 21.1369 104.83 22.1544 104.831 23.4814V28.8016C104.83 29.2771 104.863 29.752 104.93 30.2228C104.969 30.5085 105.025 30.7918 105.097 31.0711C105.112 31.1281 105.114 31.1879 105.103 31.2458C105.092 31.3037 105.067 31.3582 105.031 31.4051C104.996 31.4519 104.95 31.4898 104.897 31.5158C104.844 31.5418 104.786 31.5552 104.728 31.5549L102.83 31.5465ZM99.2803 29.6231C99.9185 29.6324 100.546 29.4575 101.088 29.1191C101.532 28.8676 101.893 28.4909 102.127 28.0356C102.15 27.9828 102.162 27.9254 102.16 27.8676V26.5691C102.16 26.4666 102.12 26.3683 102.048 26.2958C101.976 26.2234 101.878 26.1827 101.776 26.1827H100.038C99.2592 26.1827 98.6515 26.3764 98.2152 26.7639C98.0095 26.9268 97.8427 27.134 97.7271 27.3704C97.6115 27.6068 97.5501 27.8662 97.5475 28.1297C97.5381 28.3329 97.5732 28.5357 97.6502 28.7237C97.7272 28.9118 97.8443 29.0806 97.9932 29.2182C98.2948 29.4892 98.7239 29.6242 99.2803 29.6231Z" fill="#FFFFFF"></path>
<path d="M109.616 31.5464H107.713C107.612 31.5465 107.514 31.506 107.442 31.4339C107.37 31.3618 107.33 31.2639 107.329 31.1618V14.6789C107.329 14.5764 107.37 14.4781 107.442 14.4056C107.514 14.3332 107.611 14.2925 107.713 14.2925H109.616C109.718 14.2925 109.816 14.3332 109.888 14.4056C109.96 14.4781 110 14.5764 110 14.6789V31.1618C110 31.2639 109.959 31.3618 109.887 31.4339C109.815 31.506 109.718 31.5465 109.616 31.5464Z" fill="#FFFFFF"></path>
</svg>