<svg width="114" height="34" viewBox="0 0 114 34" fill="none" xmlns="http://www.w3.org/2000/svg">
<g clip-path="url(#clip0_12_12687)">
<path d="M23.8712 6.65235C22.2047 6.65235 20.5757 7.14652 19.19 8.07237C17.8044 8.99822 16.7244 10.3142 16.0867 11.8538C15.449 13.3934 15.2821 15.0876 15.6072 16.7221C15.9323 18.3565 16.7348 19.8579 17.9132 21.0363C19.0916 22.2147 20.593 23.0172 22.2274 23.3423C23.8619 23.6674 25.5561 23.5005 27.0957 22.8628C28.6353 22.2251 29.9513 21.1451 30.8771 19.7594C31.803 18.3738 32.2971 16.7447 32.2971 15.0783C32.2983 13.9714 32.0811 12.8753 31.658 11.8525C31.235 10.8297 30.6144 9.90038 29.8318 9.11774C29.0491 8.3351 28.1198 7.71449 27.097 7.29145C26.0742 6.8684 24.9781 6.65123 23.8712 6.65235ZM23.8712 19.9932C22.8992 19.9932 21.9489 19.7049 21.1407 19.1649C20.3324 18.6248 19.7024 17.8572 19.3305 16.9591C18.9585 16.061 18.8611 15.0728 19.0508 14.1194C19.2404 13.166 19.7085 12.2903 20.3959 11.6029C21.0832 10.9155 21.959 10.4474 22.9124 10.2578C23.8658 10.0682 24.854 10.1655 25.7521 10.5375C26.6502 10.9095 27.4178 11.5394 27.9578 12.3477C28.4979 13.1559 28.7861 14.1062 28.7861 15.0783C28.7857 16.3816 28.2677 17.6315 27.3461 18.5531C26.4245 19.4747 25.1746 19.9927 23.8712 19.9932Z" fill="white"/>
<path d="M12.1602 17.8534C11.5717 18.7079 10.7275 19.3538 9.74884 19.6985C8.77022 20.0431 7.70756 20.0687 6.71349 19.7715C5.71943 19.4744 4.84511 18.8698 4.21615 18.0447C3.58718 17.2196 3.23592 16.2163 3.21283 15.179C3.18975 14.1418 3.49601 13.1239 4.08764 12.2716C4.67927 11.4193 5.52582 10.7764 6.50568 10.4353C7.48554 10.0943 8.54829 10.0725 9.54127 10.3733C10.5343 10.674 11.4064 11.2817 12.0323 12.1092L14.939 10.1299C13.8933 8.67484 12.412 7.59009 10.7091 7.03253C9.00626 6.47497 7.17019 6.4735 5.46645 7.02835C3.7627 7.58319 2.2796 8.66559 1.23164 10.119C0.183674 11.5724 -0.37483 13.3215 -0.3631 15.1132C-0.351371 16.905 0.229983 18.6466 1.29688 20.0862C2.36379 21.5257 3.86093 22.5886 5.57179 23.1211C7.28265 23.6536 9.11855 23.6281 10.814 23.0483C12.5094 22.4685 13.9764 21.3644 15.0029 19.8958L12.1602 17.8534Z" fill="white"/>
<path d="M92.172 6.65235C90.5055 6.65235 88.8765 7.14652 87.4908 8.07237C86.1052 8.99822 85.0252 10.3142 84.3875 11.8538C83.7498 13.3934 83.5829 15.0876 83.908 16.7221C84.2331 18.3565 85.0356 19.8579 86.214 21.0363C87.3924 22.2147 88.8937 23.0172 90.5282 23.3423C92.1627 23.6674 93.8568 23.5005 95.3965 22.8628C96.9361 22.2251 98.2521 21.1451 99.1779 19.7594C100.104 18.3738 100.598 16.7447 100.598 15.0783C100.599 13.9714 100.382 12.8753 99.9588 11.8525C99.5358 10.8297 98.9152 9.90038 98.1325 9.11774C97.3499 8.3351 96.4206 7.71449 95.3978 7.29145C94.375 6.8684 93.2788 6.65123 92.172 6.65235ZM92.172 19.9932C91.1999 19.9932 90.2497 19.7049 89.4414 19.1649C88.6332 18.6248 88.0032 17.8572 87.6312 16.9591C87.2592 16.061 87.1619 15.0728 87.3515 14.1194C87.5412 13.166 88.0093 12.2903 88.6966 11.6029C89.384 10.9155 90.2597 10.4474 91.2131 10.2578C92.1665 10.0682 93.1548 10.1655 94.0529 10.5375C94.9509 10.9095 95.7185 11.5394 96.2586 12.3477C96.7987 13.1559 97.0869 14.1062 97.0869 15.0783C97.0865 16.3816 96.5685 17.6315 95.6469 18.5531C94.7253 19.4747 93.4754 19.9927 92.172 19.9932Z" fill="white"/>
<path d="M110.14 17.2155C113.523 15.301 113.236 12.396 113.236 12.396C113.285 11.0396 112.834 9.71234 111.971 8.66543C111.107 7.61852 109.889 6.92456 108.548 6.71484H101.141V23.3749H104.843V17.8224H106.471L109.821 23.3757H113.683L110.14 17.2155ZM107.363 14.4725H104.842V10.2276H107.363C107.926 10.2276 108.466 10.4512 108.864 10.8492C109.262 11.2473 109.486 11.7871 109.486 12.35C109.486 12.9129 109.262 13.4528 108.864 13.8508C108.466 14.2489 107.926 14.4725 107.363 14.4725Z" fill="white"/>
<path d="M80.4224 17.8545C79.8338 18.709 78.9896 19.3549 78.011 19.6995C77.0324 20.0441 75.9697 20.0697 74.9757 19.7726C73.9816 19.4755 73.1073 18.8709 72.4783 18.0458C71.8494 17.2206 71.4981 16.2174 71.475 15.1801C71.4519 14.1428 71.7582 13.1249 72.3498 12.2726C72.9415 11.4203 73.788 10.7775 74.7679 10.4364C75.7477 10.0953 76.8105 10.0736 77.8035 10.3743C78.7964 10.6751 79.6685 11.2828 80.2945 12.1102L83.1986 10.1318C82.4164 9.05368 81.3898 8.17625 80.203 7.57144C79.0162 6.96664 77.703 6.65166 76.3709 6.65234C75.2316 6.65869 74.1043 6.88623 73.0517 7.32233C72.8846 8.54154 72.472 9.71419 71.8388 10.7694C71.8076 10.8403 71.7643 10.9052 71.7109 10.9612L72.0297 10.6739C70.5295 14.2165 68.6789 15.3016 67.9766 15.5888C68.0778 17.3336 68.7207 19.0034 69.8156 20.3656C70.9105 21.7278 72.4029 22.7147 74.0851 23.1889C75.7672 23.663 77.5553 23.6008 79.2005 23.0109C80.8456 22.421 82.2658 21.3327 83.2634 19.8977L80.4224 17.8545Z" fill="white"/>
<path d="M46.8513 20.1846L49.6276 17.5038V6.84375H45.8293L41.2664 13.9612L36.834 6.8446H33.1602V23.312H36.7342V13.9928L41.3934 20.6312L46.0526 13.9928V23.2839H49.6267V18.6844C48.7398 19.2521 47.8121 19.7536 46.8513 20.1846Z" fill="white"/>
<path d="M12.4453 33.3328C12.4453 33.3328 25.5619 35.6948 41.4557 25.5138C41.4557 25.5138 48.7641 19.7371 53.3602 13.6093V23.3112C53.3472 23.5661 53.3895 23.8207 53.4841 24.0577C53.5787 24.2946 53.7234 24.5084 53.9083 24.6842C54.0932 24.86 54.3139 24.9938 54.5554 25.0764C54.7968 25.159 55.0532 25.1884 55.3071 25.1626C55.3071 25.1626 56.041 25.322 57.0971 23.5985C58.1507 21.8434 64.7883 10.5449 64.7883 10.5449C64.7883 10.5449 64.7567 15.2331 67.1179 15.2331C69.479 15.2331 73.2108 10.4179 76.7533 1.22656C76.7533 1.22656 68.2643 13.3544 67.4622 12.2693V5.2797C67.4617 5.08686 67.4201 4.89635 67.3401 4.72088C67.2601 4.5454 67.1437 4.389 66.9985 4.26211C66.8533 4.13522 66.6827 4.04075 66.4981 3.98501C66.3134 3.92927 66.1191 3.91355 65.9279 3.93888C64.3638 3.93888 62.8644 7.44989 61.9063 9.20497C60.9482 10.96 56.1049 19.0032 56.1049 19.0032V8.50345C56.1049 8.50345 56.2004 6.87538 54.9244 6.87538C53.6483 6.87538 53.0099 8.92112 50.1373 13.2905C47.0532 17.8267 43.1578 21.7542 38.647 24.8754C34.2427 27.9065 28.5939 32.5665 12.4453 33.3328Z" fill="#7E7E7E"/>
</g>
<defs>
<clipPath id="clip0_12_12687">
<rect width="114" height="34" fill="white"/>
</clipPath>
</defs>
</svg>
