<svg width="129" height="31" viewBox="0 0 129 31" fill="none" xmlns="http://www.w3.org/2000/svg">
<path d="M89.418 29.327L89.188 29.227C86.159 27.727 85.383 24.907 85.383 22.427V14.685C85.383 12.191 86.159 9.37001 89.188 7.88501C89.2624 7.84408 89.3392 7.80767 89.418 7.776C93.3715 6.47768 97.6365 6.47768 101.59 7.776C101.668 7.80458 101.745 7.83799 101.819 7.87601C104.848 9.37601 105.625 12.196 105.625 14.689V22.431C105.625 24.914 104.848 27.731 101.819 29.223C101.745 29.2633 101.668 29.2997 101.59 29.332C97.6363 30.6292 93.3716 30.6292 89.418 29.332V29.327ZM89.834 14.257V22.842C89.844 23.049 89.889 25.893 95.498 25.893C101.229 25.893 101.163 23.049 101.174 22.842V14.257C101.163 14.05 101.119 11.206 95.509 11.206C89.768 11.205 89.845 14.049 89.835 14.256L89.834 14.257ZM68.399 22.711V0.740005C68.3901 0.700654 68.3864 0.660318 68.388 0.62001C68.3857 0.590236 68.3895 0.560299 68.399 0.531998V0.5C68.4307 0.36018 68.5082 0.234994 68.6193 0.144379C68.7304 0.053763 68.8687 0.00293192 69.012 0H72.227C72.3905 0.00236864 72.5464 0.0691243 72.661 0.18576C72.7756 0.302397 72.8395 0.459503 72.839 0.623001V7.228H80.968C81.0484 7.22787 81.1281 7.24361 81.2024 7.27432C81.2767 7.30503 81.3442 7.3501 81.401 7.40695C81.4579 7.46381 81.503 7.53134 81.5337 7.60565C81.5644 7.67996 81.5801 7.75959 81.58 7.84V11.012C81.5782 11.1739 81.513 11.3287 81.3984 11.4431C81.2838 11.5575 81.1289 11.6224 80.967 11.624H72.835V22.713C72.835 24.955 73.71 25.913 75.766 25.913C76.9692 25.9003 78.1401 25.5227 79.124 24.83C79.397 24.644 79.638 24.491 79.857 24.36C79.878 24.349 79.89 24.328 79.911 24.328C79.9352 24.2999 79.9652 24.2774 79.999 24.262C80.0032 24.2579 80.0082 24.2548 80.0137 24.2529C80.0193 24.251 80.0252 24.2503 80.031 24.251C80.1121 24.2093 80.2018 24.187 80.293 24.186C80.4039 24.1858 80.5128 24.2163 80.6074 24.2742C80.702 24.3321 80.7787 24.4151 80.829 24.514L82.382 27.456C82.4301 27.5437 82.4556 27.642 82.456 27.742C82.4543 27.8871 82.4051 28.0275 82.316 28.142L82.305 28.153L82.283 28.175C82.2361 28.2172 82.1844 28.2538 82.129 28.284H82.118C81.5665 28.6688 80.9763 28.9949 80.357 29.257C78.825 29.9502 77.1615 30.3046 75.48 30.296C70.849 30.3 68.399 27.675 68.399 22.71V22.711ZM33.946 30.3C30.26 30.3 27.537 29.436 25.846 27.741C25.1267 26.9753 24.5698 26.0719 24.2089 25.0852C23.848 24.0986 23.6906 23.0491 23.746 22V14.509C23.7407 13.563 23.9324 12.6262 24.3089 11.7583C24.6854 10.8904 25.2385 10.1105 25.933 9.46802C27.814 7.69602 29.87 6.79901 33.49 6.79901C40.073 6.79901 43.449 10.266 43.449 16.806C43.449 17.506 43.48 18.094 43.481 18.591C43.4835 18.813 43.4742 19.035 43.453 19.256C43.442 19.343 43.432 19.42 43.42 19.508C43.4159 19.5124 43.4127 19.5176 43.4108 19.5233C43.4089 19.529 43.4083 19.535 43.409 19.541C43.3598 19.651 43.28 19.7444 43.1791 19.8102C43.0782 19.876 42.9605 19.9114 42.84 19.912H28.193V22.001C28.1646 22.4593 28.2297 22.9187 28.3844 23.351C28.5392 23.7834 28.7802 24.1798 29.093 24.516C30.023 25.435 31.729 25.883 34.124 25.894C35.3988 25.9431 36.6732 25.7844 37.897 25.424C39.306 24.966 40.117 24.483 40.445 24.483C40.5558 24.4833 40.6644 24.5141 40.7589 24.572C40.8534 24.6298 40.9303 24.7125 40.981 24.811L42.381 27.469C42.4417 27.5846 42.4647 27.7162 42.4468 27.8456C42.4289 27.9749 42.3709 28.0953 42.281 28.19C42.2344 28.2326 42.1827 28.2692 42.127 28.299H42.116C40.216 29.634 37.523 30.299 34.1 30.299C34.0492 30.2886 33.9967 30.289 33.946 30.3ZM28.193 14.8V15.5H39.063V14.8C39.063 14.8 39.063 14.787 39.063 14.763C39.063 14.374 38.904 11.055 33.693 11.055C30.001 11.057 28.193 13.236 28.193 14.803V14.8ZM57.048 30.286C56.807 30.286 56.566 30.286 56.337 30.275L55.714 30.242C55.528 30.231 55.342 30.22 55.167 30.199C51.744 29.899 49.655 28.777 48.43 27.299C48.321 27.157 48.211 27.026 48.113 26.872C47.992 26.708 47.883 26.533 47.774 26.358C47.698 26.227 47.632 26.085 47.555 25.942C47.4304 25.675 47.3209 25.4013 47.227 25.122C47.2178 25.0969 47.2104 25.0712 47.205 25.045C47.1584 24.9171 47.122 24.7857 47.096 24.652C47.0686 24.5816 47.0501 24.508 47.041 24.433C46.9684 24.1302 46.9136 23.8233 46.877 23.514V23.504C46.866 23.35 46.855 23.198 46.833 23.044C46.822 22.815 46.811 22.585 46.811 22.355V14.755C46.808 14.349 46.8337 13.9434 46.888 13.541C46.9213 13.2432 46.9727 12.9476 47.042 12.656V12.634C47.064 12.557 47.075 12.481 47.097 12.415C47.14 12.262 47.184 12.109 47.228 11.967C47.326 11.6823 47.4353 11.409 47.556 11.147C47.6497 10.9453 47.7594 10.7513 47.884 10.567C47.972 10.414 48.07 10.267 48.169 10.13C49.35 8.501 51.461 7.22099 55.113 6.90399C55.313 6.88199 55.496 6.86 55.693 6.849L56.338 6.81601C56.6 6.80501 56.874 6.80499 57.125 6.80499H57.245C57.464 6.80499 57.661 6.816 57.879 6.827H58.043C58.109 6.827 58.164 6.83801 58.229 6.83801C60.4427 6.84848 62.6094 7.4771 64.485 8.65302C64.5494 8.69499 64.6115 8.74037 64.671 8.789L64.682 8.80002C64.7837 8.90841 64.8406 9.05136 64.841 9.20001C64.8409 9.26167 64.8319 9.323 64.814 9.38202L63.881 12.413C63.8414 12.5338 63.7676 12.6405 63.6686 12.7202C63.5695 12.7999 63.4495 12.8492 63.323 12.862H63.29C63.1345 12.8321 62.9862 12.7727 62.853 12.687C62.853 12.687 61.829 12.128 61.424 11.919C60.2433 11.387 58.9563 11.1328 57.662 11.176C56.0712 11.0812 54.4772 11.3003 52.971 11.821C52.4401 12.0581 51.9935 12.4504 51.6901 12.9463C51.3866 13.4422 51.2405 14.0184 51.271 14.599C51.2686 14.601 51.2667 14.6034 51.2653 14.6061C51.2639 14.6089 51.2631 14.6119 51.263 14.615C51.2631 14.6181 51.2639 14.6211 51.2653 14.6238C51.2667 14.6266 51.2686 14.6291 51.271 14.631C51.2619 14.7257 51.2582 14.8209 51.26 14.916V22.166C51.2582 22.2611 51.2619 22.3563 51.271 22.451V22.494C51.2698 22.5416 51.2735 22.5892 51.282 22.636C51.277 23.1901 51.4337 23.7335 51.733 24.1998C52.0323 24.6661 52.4612 25.0349 52.967 25.261C54.4731 25.7821 56.0671 26.0016 57.658 25.907C59.3934 25.8225 61.094 25.3888 62.658 24.632C62.703 24.608 62.778 24.572 62.822 24.551C62.9047 24.5135 62.9934 24.4911 63.084 24.485C63.1946 24.4864 63.3027 24.5177 63.3971 24.5754C63.4914 24.6331 63.5684 24.7152 63.62 24.813L65.006 27.459C65.0548 27.5479 65.0802 27.6476 65.08 27.749C65.0783 27.899 65.025 28.0438 64.929 28.159L64.907 28.181C64.8608 28.2236 64.8094 28.2603 64.754 28.29C62.7627 29.6025 60.4238 30.2883 58.039 30.259H57.82C57.6273 30.2777 57.4336 30.285 57.24 30.281L57.048 30.286ZM0.612 29.859C0.450171 29.8574 0.29542 29.7925 0.180984 29.678C0.0665494 29.5636 0.00156367 29.4088 0 29.247V14.683C0 12.189 0.765998 9.368 3.795 7.883C7.88149 6.4426 12.337 6.43873 16.426 7.87201C19.455 9.37201 20.231 12.192 20.231 14.685V29.249L20.221 29.369C20.1885 29.5053 20.1123 29.6272 20.0039 29.7161C19.8955 29.805 19.761 29.8558 19.621 29.861H16.406C16.3087 29.8611 16.2128 29.8371 16.127 29.7912C16.0412 29.7453 15.968 29.679 15.914 29.598C15.8608 29.5309 15.8235 29.4526 15.805 29.369C15.7962 29.3297 15.7925 29.2893 15.794 29.249V14.256C15.772 14.049 15.728 11.205 10.118 11.205C4.387 11.205 4.464 14.049 4.442 14.256V29.249C4.44044 29.4108 4.37547 29.5656 4.26103 29.68C4.1466 29.7945 3.99183 29.8594 3.83 29.861L0.612 29.859ZM125.172 29.842C125.075 29.8423 124.979 29.8185 124.893 29.7728C124.807 29.7271 124.734 29.6609 124.68 29.58C124.626 29.5128 124.589 29.4341 124.571 29.35C124.562 29.3104 124.558 29.2697 124.56 29.229V14.256C124.538 14.049 124.494 11.205 118.885 11.205C113.154 11.205 113.231 14.049 113.209 14.256V29.232C113.207 29.3939 113.142 29.5488 113.028 29.6634C112.914 29.778 112.759 29.8432 112.597 29.845H109.382C109.22 29.8432 109.065 29.778 108.951 29.6634C108.837 29.5488 108.772 29.3939 108.77 29.232V14.683C108.77 12.189 109.536 9.368 112.57 7.883C116.656 6.44252 121.112 6.43865 125.201 7.87201C128.231 9.37201 129.007 12.192 129.007 14.685V29.234L128.996 29.355C128.963 29.4913 128.887 29.6131 128.779 29.7019C128.67 29.7907 128.536 29.8417 128.396 29.847L125.172 29.842Z" fill="white"/>
</svg>
