<svg width="189" height="44" viewBox="0 0 189 44" fill="none" xmlns="http://www.w3.org/2000/svg">
<path d="M188.173 0C185.091 12.6682 174.06 19.5749 167.575 23.2624L167.294 22.8878C169.951 20.7324 179.08 14.0293 181.999 2.91313L188.173 0Z" fill="white"/>
<path d="M27.8729 24.3373C27.7038 25.4907 25.3509 41.8522 25.1282 43.3775H30.3992C30.5668 42.22 32.9224 25.8597 33.1438 24.3373H27.8729Z" fill="white"/>
<path d="M71.005 24.3373C70.8374 25.4907 68.4832 41.8522 68.2616 43.3775H80.6152C80.7392 42.5412 81.0505 40.334 81.2056 39.2691H73.722L74.231 35.7483H81.02C81.1385 34.9343 81.4217 32.9516 81.5726 31.9119H74.7818L75.2793 28.4404H82.5677C82.6886 27.6041 83.0119 25.3981 83.1568 24.3373H71.005Z" fill="white"/>
<path d="M12.3054 35.2438C12.3054 35.2438 16.7164 25.2108 17.0574 24.3381H23.6944C23.6986 25.6725 22.8149 42.0298 22.819 43.3754H18.0471L18.8393 30.0464C18.8393 30.0464 13.4629 42.5307 13.1061 43.3754H9.33653L7.64362 30.0464C7.51525 30.6469 5.72906 39.5572 4.75511 43.3754H0C0.49497 41.6747 4.1292 25.3163 4.41946 24.3381H10.8054L12.3054 35.2438Z" fill="white"/>
<path d="M57.227 35.5953L60.2476 28.5273L61.229 35.5953H57.227ZM61.7379 39.5243C61.7379 39.5243 62.0762 42.6296 62.1989 43.3745H67.2498C66.9696 41.8073 64.2088 25.4473 64.0077 24.3388H57.6126C57.2438 25.1286 49.9453 41.5057 49.0786 43.3745H54.2154C54.4879 42.7389 55.7847 39.5312 55.7847 39.5312L61.7379 39.5243Z" fill="white"/>
<path fill-rule="evenodd" clip-rule="evenodd" d="M39.6022 34.1318C39.024 38.1719 38.3607 42.7938 38.2693 43.3783H33.4747C33.6933 41.8515 36.0518 25.49 36.2181 24.3394H43.4441C45.0583 24.3394 47.2348 24.6396 48.5036 26.0977C49.2056 26.9031 49.5568 27.9793 49.5568 29.3195C49.5568 29.729 49.5202 30.1599 49.458 30.613C48.9942 34.2293 47.1645 34.9226 44.8215 35.3547L48.6898 43.3783H43.574L39.6022 34.1318ZM43.9235 28.6347C43.3652 27.9962 42.4702 27.9134 41.6666 27.9134H40.4909C40.4909 27.9134 40.1722 30.1463 39.7757 32.9186H41.4607C42.5589 32.8891 43.2214 32.4585 43.2214 32.4585C44.1842 31.9997 44.3407 30.5486 44.3407 30.5486C44.4634 29.729 44.3195 29.0893 43.9235 28.6347Z" fill="white"/>
<path d="M143.949 31.9119C144.049 31.8908 144.135 31.8685 144.233 31.8474C144.135 31.8685 144.037 31.8908 143.942 31.9119H143.949Z" fill="white"/>
<path d="M152.366 24.3373C152.245 25.1287 151.873 27.6405 151.691 28.867C155.416 27.8327 159.908 26.3483 164.072 24.3373H152.366Z" fill="white"/>
<path d="M117.692 32.7854C117.23 32.4333 116.69 32.1036 116.065 31.8257C116.044 31.8129 114.672 31.1368 114.672 31.1368L114.661 31.1283L114.636 31.117C114.188 30.8601 113.14 30.2525 113.14 29.2338C113.14 28.7357 113.338 28.3093 113.691 28.0088C114.124 27.6524 114.797 27.5205 115.513 27.6454C116.417 27.7871 117.456 28.3724 118.597 29.3462C119.137 28.3093 120.171 26.3222 120.55 25.6109C119.24 24.5401 117.97 23.9664 116.078 23.6351C113.739 23.2856 111.485 23.7824 109.901 24.9766C108.569 25.994 107.738 27.4812 107.514 29.2803C107.478 29.5917 107.469 29.8822 107.469 30.1683C107.469 31.0159 107.619 31.7541 107.914 32.3995C108.029 32.4095 108.139 32.4177 108.253 32.4333C110.639 32.6073 113.921 32.7546 117.692 32.7854Z" fill="white"/>
<path d="M142.611 28.4431H149.896C150.017 27.6012 150.334 25.3996 150.488 24.3388H138.332C138.264 24.8299 137.795 28.0684 137.265 31.752C138.944 31.5415 140.613 31.2988 142.234 31.008L142.611 28.4431Z" fill="white"/>
<path d="M154.32 29.0712C153.781 29.2552 153.222 29.422 152.648 29.5988C152.56 29.6311 152.473 29.6579 152.374 29.6902C152.138 29.759 151.899 29.8306 151.653 29.9063C151.551 29.9286 151.453 29.9638 151.358 29.9877C150.566 30.2194 149.765 30.4521 148.921 30.681C148.782 30.7146 148.652 30.7526 148.517 30.7903C148.279 30.8493 148.035 30.9137 147.787 30.9756C147.633 31.0148 147.484 31.0613 147.322 31.0977C147.087 31.1593 146.847 31.2211 146.605 31.287C146.429 31.3235 146.248 31.3671 146.073 31.4149C145.676 31.5087 145.273 31.6083 144.856 31.7023C144.652 31.7515 144.446 31.7984 144.233 31.8474C144.133 31.8685 144.046 31.8921 143.949 31.9119H143.942C141.779 32.3973 139.48 32.8616 137.042 33.2739C136.998 33.2824 136.951 33.2895 136.899 33.2937C136.447 33.375 135.984 33.4507 135.521 33.5266C135.419 33.5392 135.327 33.5477 135.225 33.5659C134.748 33.6485 134.263 33.7202 133.775 33.7917C133.741 33.7958 133.711 33.8017 133.685 33.8017C131.064 34.1833 128.306 34.5102 125.415 34.757H125.371C124.932 34.7994 124.489 34.8358 124.039 34.8735C124.002 34.8735 123.955 34.8807 123.908 34.8848C123.453 34.9171 122.993 34.9508 122.532 34.9762C122.505 34.9803 122.466 34.9872 122.438 34.9872C121.96 35.0167 121.487 35.049 121.01 35.0757C120.983 35.0814 120.958 35.0814 120.94 35.0814C120.453 35.1053 119.965 35.1332 119.467 35.1584H119.432C117.004 35.2764 114.488 35.3408 111.892 35.3408H111.71C111.122 35.3354 110.531 35.331 109.925 35.331C109.827 35.331 109.715 35.331 109.608 35.3241C107.505 35.2918 105.358 35.2189 103.151 35.1009H103.117C99.7895 34.9297 96.3582 34.6518 92.8173 34.2493L96.8983 30.4326C96.8983 30.4326 99.2662 31.1426 102.548 31.7264C101.92 28.0457 101.374 24.8113 101.288 24.3384H94.8895C94.5243 25.1282 87.2192 41.5066 86.3636 43.3769H91.4947C91.7641 42.7388 93.4897 38.6468 93.4897 38.6468L98.8423 38.6427C98.8423 38.6427 99.3596 42.6251 99.4764 43.3769H104.528C104.422 42.7624 103.936 39.8901 103.365 36.5548C106.974 36.7567 110.579 36.7891 113.947 36.747C114.122 37.0277 114.209 37.3307 114.209 37.6576C114.209 37.777 114.202 37.8906 114.178 38.0112C114.101 38.438 113.879 38.7872 113.538 39.0299C112.835 39.5197 111.84 39.413 111.145 39.2909C109.515 39.0102 108.22 37.7798 107.172 36.7567C106.512 37.8219 105.137 40.0555 104.698 40.7784C106.623 42.5253 108.703 43.5945 110.909 43.8992C113.138 44.2332 115.349 43.7321 116.986 42.5294C118.419 41.4743 119.315 39.9422 119.59 38.0941C119.681 37.5593 119.717 37.0585 119.692 36.5786C123.305 36.427 126.301 36.2025 128.226 36.0398C128.851 36.4957 129.176 37.0346 129.176 37.6576C129.176 37.777 129.165 37.8906 129.149 38.0112C129.07 38.438 128.843 38.7872 128.494 39.0299C127.8 39.5197 126.802 39.413 126.117 39.2909C124.482 39.0102 123.178 37.7798 122.134 36.7567C121.478 37.8219 120.107 40.0555 119.659 40.7784C121.589 42.5253 123.673 43.5945 125.876 43.8992C128.105 44.2332 130.311 43.7321 131.944 42.5294C133.379 41.4743 134.284 39.9422 134.564 38.0941C134.742 37.0626 134.695 36.1365 134.447 35.3044C135.268 35.1963 136.049 35.0757 136.794 34.9508C136.223 38.9486 135.686 42.6839 135.588 43.3769L147.947 43.3772C148.063 42.5394 148.379 40.335 148.534 39.2657H141.049L141.556 35.7465H148.344C148.454 35.0167 148.693 33.3498 148.855 32.2624C149.775 31.9732 150.243 31.7979 150.243 31.7979C150.243 31.7979 152.535 31.1074 155.514 30.0241C155.084 33.0032 153.77 42.1198 153.59 43.3772H158.935C159.098 42.2587 161.009 29.0713 161.009 29.0713H164.877C164.986 28.2518 165.358 25.6391 165.532 24.4549C163.522 25.5647 159.733 27.3061 154.32 29.0712Z" fill="white"/>
<path d="M131.035 31.8263C131.005 31.815 129.643 31.1317 129.643 31.1317L129.624 31.126L129.607 31.115C129.153 30.861 128.101 30.2534 128.101 29.2347C128.107 28.7379 128.301 28.3058 128.657 28.0068C129.092 27.6489 129.76 27.5185 130.47 27.642C131.381 27.7836 132.418 28.3758 133.561 29.344C134.105 28.3058 135.137 26.3243 135.515 25.6115C134.202 24.5366 132.933 23.9682 131.044 23.6329C128.703 23.2934 126.45 23.7832 124.87 24.9787C123.534 25.9903 122.704 27.4847 122.484 29.2824C122.448 29.5895 122.429 29.8857 122.429 30.1705C122.429 31.1656 122.643 32.0213 123.059 32.7442C125.907 32.6795 128.909 32.5392 131.93 32.2936C131.649 32.1337 131.358 31.968 131.035 31.8263Z" fill="white"/>
</svg>
