<svg width="91" height="40" viewBox="0 0 91 40" fill="none" xmlns="http://www.w3.org/2000/svg">
<g clip-path="url(#clip0_12_12502)">
<path fill-rule="evenodd" clip-rule="evenodd" d="M0.50795 33.7847C0.322487 33.6629 0.16455 33.5028 0.0444899 33.3149C-0.0755701 33.1271 -0.155043 32.9156 -0.18872 32.6945C-0.222397 32.4734 -0.209519 32.2475 -0.150928 32.0318C-0.0923373 31.816 0.010643 31.6152 0.151263 31.4426C1.24448 30.1044 2.53306 28.9428 3.97251 27.998C5.53049 26.9631 7.4269 26.5866 9.25578 26.949C11.0847 27.3114 12.7007 28.384 13.7579 29.9371C14.1169 30.4544 14.5938 30.8767 15.148 31.1681C15.7023 31.4596 16.3178 31.6118 16.9425 31.6118C17.5671 31.6118 18.1826 31.4596 18.7369 31.1681C19.2912 30.8767 19.768 30.4544 20.1271 29.9371C21.1843 28.384 22.8003 27.3114 24.6292 26.949C26.4581 26.5866 28.3545 26.9631 29.9125 27.998C31.3467 28.9404 32.6314 30.0976 33.7226 31.43C33.864 31.6037 33.9673 31.8059 34.0257 32.0231C34.084 32.2403 34.0961 32.4675 34.061 32.6898C34.026 32.912 33.9447 33.1242 33.8225 33.3123C33.7002 33.5003 33.5399 33.6599 33.3521 33.7805L33.2623 33.8379C32.9369 34.0443 32.5483 34.1235 32.1693 34.0607C31.7903 33.9978 31.447 33.7972 31.2037 33.4965C30.3073 32.4149 29.2533 31.4779 28.0779 30.7178C27.4574 30.3213 26.738 30.1121 26.0041 30.1148C25.3811 30.1168 24.7675 30.2693 24.2145 30.5597C23.6614 30.85 23.1848 31.2697 22.8244 31.784C22.1691 32.7431 21.2934 33.5268 20.2725 34.0674C19.2516 34.6079 18.1161 34.8893 16.9639 34.8872H16.9211C15.7688 34.8893 14.6334 34.6079 13.6125 34.0674C12.5916 33.5268 11.7158 32.7431 11.0606 31.784C10.6992 31.2688 10.2212 30.8486 9.6666 30.5585C9.112 30.2684 8.49687 30.1167 7.87256 30.1162C7.1415 30.115 6.42517 30.3241 5.80709 30.7192C4.62494 31.483 3.56638 32.4268 2.66881 33.5175C2.42573 33.8196 2.0813 34.0207 1.70114 34.0824C1.32099 34.144 0.931704 34.062 0.607489 33.8519L0.50795 33.7847Z" fill="white"/>
<path d="M28.3335 35.639V36.5372C28.3337 36.6885 28.3043 36.8383 28.2472 36.9781C28.1901 37.1178 28.1063 37.2449 28.0006 37.3518C27.8949 37.4588 27.7694 37.5436 27.6313 37.6014C27.4932 37.6592 27.3451 37.6888 27.1957 37.6887H6.70003C6.55056 37.6888 6.40252 37.6592 6.26439 37.6014C6.12627 37.5436 6.00077 37.4588 5.89508 37.3518C5.78938 37.2449 5.70558 37.1178 5.64847 36.9781C5.59135 36.8383 5.56204 36.6885 5.56223 36.5372V35.6278C5.56223 34.5351 4.17972 34.0468 3.52856 34.9156C3.51335 34.938 3.49676 34.959 3.48156 34.98C3.33748 35.1766 3.26034 35.4152 3.26174 35.66V38.8653C3.2621 39.1708 3.38229 39.4637 3.59588 39.6796C3.80948 39.8955 4.09903 40.0168 4.40092 40.0168H29.4962C29.7978 40.0164 30.087 39.895 30.3003 39.6791C30.5136 39.4633 30.6336 39.1706 30.634 38.8653V35.6711C30.6354 35.426 30.5582 35.1869 30.4141 34.9898L30.3671 34.9268C29.7118 34.0566 28.3335 34.5449 28.3335 35.639Z" fill="white"/>
<path d="M5.56196 24.7502V3.41514C5.56178 3.26387 5.59109 3.11406 5.6482 2.97427C5.70532 2.83448 5.78912 2.70747 5.89481 2.60051C6.0005 2.49355 6.12601 2.40874 6.26413 2.35094C6.40226 2.29314 6.5503 2.26348 6.69977 2.26367H27.1954C27.3449 2.26348 27.4929 2.29314 27.631 2.35094C27.7692 2.40874 27.8947 2.49355 28.0004 2.60051C28.1061 2.70747 28.1899 2.83448 28.247 2.97427C28.3041 3.11406 28.3334 3.26387 28.3332 3.41514V24.7544C28.3333 24.9879 28.4036 25.2159 28.5347 25.408C28.6658 25.6002 28.8516 25.7474 29.0673 25.8303L29.0936 25.8401C29.2657 25.9059 29.451 25.9285 29.6337 25.906C29.8163 25.8834 29.9909 25.8164 30.1423 25.7106C30.2937 25.6048 30.4175 25.4635 30.5031 25.2986C30.5887 25.1338 30.6335 24.9504 30.6337 24.7642V1.08841C30.6337 0.782897 30.5139 0.489872 30.3005 0.273708C30.0872 0.0575433 29.7978 -0.0640824 29.4959 -0.0644531H4.40066C4.09853 -0.0644531 3.80877 0.0570089 3.59513 0.273213C3.3815 0.489418 3.26148 0.782655 3.26148 1.08841V24.7586C3.2612 24.9448 3.30564 25.1284 3.39097 25.2935C3.4763 25.4585 3.59997 25.6001 3.75134 25.7061C3.90271 25.8121 4.07725 25.8793 4.25996 25.9019C4.44266 25.9245 4.62806 25.9018 4.8002 25.8359L4.82647 25.8261C5.04257 25.7436 5.22872 25.5965 5.36012 25.4043C5.49152 25.2121 5.56192 24.9839 5.56196 24.7502Z" fill="white"/>
<path d="M24.3748 19.5913L24.401 19.6711C24.4361 21.6158 23.8116 23.187 22.5278 24.3847C21.2439 25.5823 19.5093 26.1811 17.324 26.1811C15.1046 26.1811 13.3051 25.4233 11.9253 23.9076C10.5456 22.3919 9.85433 20.4536 9.85156 18.0929V14.4202C9.85156 12.0697 10.5327 10.1319 11.8949 8.60688C13.2571 7.08185 15.0346 6.31934 17.2272 6.31934C19.4724 6.31934 21.2393 6.89857 22.5278 8.05703C23.8162 9.2155 24.4425 10.8012 24.4066 12.814L24.3803 12.8924H23.3586C22.8451 12.8863 22.3462 12.7186 21.9312 12.4124C21.5162 12.1063 21.2058 11.6769 21.0429 11.184C20.8842 10.7092 20.6187 10.2782 20.2674 9.92485C19.577 9.24021 18.5632 8.8979 17.2258 8.8979C15.9355 8.8979 14.9115 9.41697 14.1539 10.4551C13.3963 11.4932 13.0184 12.8037 13.0203 14.3866V18.0859C13.0203 19.6864 13.4046 21.0058 14.1733 22.0439C14.9419 23.0821 15.9922 23.6035 17.324 23.6081C18.6254 23.6081 19.6144 23.2635 20.2909 22.5742C20.6361 22.2186 20.8966 21.7879 21.0526 21.315C21.2098 20.8203 21.5166 20.3881 21.9296 20.0793C22.3426 19.7705 22.841 19.6008 23.3545 19.5941L24.3748 19.5913Z" fill="white"/>
<path d="M46.5776 21.0444L46.5955 21.1003C46.6204 22.4519 46.1868 23.5432 45.2946 24.3742C44.4024 25.2053 43.1978 25.6218 41.6807 25.6237C40.1397 25.6237 38.8895 25.0971 37.93 24.0441C36.9705 22.991 36.4913 21.6441 36.4922 20.0034V17.4528C36.4922 15.8187 36.9655 14.4718 37.912 13.4122C38.8586 12.3526 40.0936 11.8233 41.6171 11.8242C43.1766 11.8242 44.4038 12.2262 45.2987 13.0303C46.1937 13.8343 46.6292 14.9368 46.6052 16.3378L46.5872 16.3923H44.754C44.6738 16.3921 44.5966 16.3611 44.5381 16.3055C44.4796 16.25 44.4441 16.174 44.4388 16.0929C44.3909 15.3411 44.154 14.7549 43.7282 14.3342C43.2499 13.8585 42.5462 13.6207 41.6171 13.6207C41.2006 13.6077 40.7875 13.6998 40.4149 13.8886C40.0423 14.0774 39.7219 14.357 39.4825 14.7022C38.9572 15.4241 38.6945 16.3345 38.6945 17.4333V20.0034C38.6945 21.1162 38.9618 22.0331 39.4964 22.7541C39.7446 23.1021 40.0738 23.3828 40.4548 23.5715C40.8358 23.7601 41.2569 23.8508 41.6807 23.8356C42.5849 23.8356 43.272 23.5963 43.742 23.1178C44.1596 22.6925 44.39 22.0998 44.4333 21.3396C44.4393 21.2589 44.4753 21.1836 44.534 21.1288C44.5928 21.0739 44.67 21.0438 44.7499 21.0444H46.5776Z" fill="white"/>
<path d="M54.4077 25.4289C54.3395 25.4291 54.2731 25.4071 54.2182 25.366C54.1634 25.3249 54.1232 25.267 54.1036 25.2009C54.0538 25.0288 54.0123 24.8595 53.9764 24.693C53.9641 24.6343 53.9361 24.5802 53.8955 24.5366C53.8548 24.493 53.8031 24.4616 53.7459 24.4458C53.6887 24.4301 53.6284 24.4306 53.5715 24.4473C53.5146 24.464 53.4633 24.4962 53.4234 24.5405C53.1992 24.7731 52.9481 24.9775 52.6754 25.1491C52.1787 25.4646 51.6029 25.6292 51.0164 25.6234C49.9906 25.6234 49.203 25.3562 48.6537 24.8217C48.1044 24.2872 47.8279 23.5532 47.8242 22.6195C47.8242 21.6551 48.2007 20.9042 48.9537 20.3669C49.7067 19.8297 50.7667 19.5611 52.1335 19.5611H53.5367C53.6208 19.5611 53.7015 19.5273 53.7611 19.4673C53.8207 19.4072 53.8543 19.3258 53.8547 19.2407V18.681C53.8547 18.1596 53.7045 17.7511 53.404 17.4554C53.1035 17.1597 52.6681 17.0123 52.0975 17.0133C51.5943 17.0133 51.1938 17.1345 50.8961 17.377C50.6827 17.5444 50.5355 17.7837 50.4814 18.0514C50.4681 18.1261 50.4297 18.1939 50.3728 18.2433C50.3159 18.2927 50.2439 18.3208 50.1689 18.3228L48.3247 18.3312L48.315 18.2753C48.2717 17.489 48.6192 16.7917 49.3574 16.1836C50.0957 15.5754 51.0542 15.276 52.233 15.2854C53.3805 15.2854 54.3059 15.5801 55.0091 16.1696C55.7123 16.7591 56.0644 17.6065 56.0653 18.7118V23.1428C56.0638 23.5388 56.0911 23.9344 56.1469 24.3264C56.1797 24.5644 56.2258 24.8003 56.2852 25.033C56.2979 25.0804 56.2997 25.1302 56.2903 25.1785C56.281 25.2267 56.2607 25.2721 56.2311 25.3111C56.2015 25.3501 56.1634 25.3817 56.1198 25.4033C56.0762 25.425 56.0282 25.4361 55.9796 25.4359L54.4077 25.4289ZM51.4713 23.8269C51.9997 23.8347 52.5193 23.6891 52.9685 23.4072C53.3354 23.1969 53.6341 22.8834 53.8284 22.5048C53.8478 22.4608 53.8573 22.413 53.8561 22.3649V21.2834C53.8561 21.2411 53.8479 21.1993 53.8319 21.1602C53.8159 21.1212 53.7925 21.0857 53.763 21.0558C53.7334 21.0259 53.6984 21.0022 53.6598 20.9861C53.6212 20.9699 53.5799 20.9616 53.5381 20.9616H52.0962C51.451 20.9616 50.9473 21.1229 50.5851 21.4457C50.4161 21.5821 50.2794 21.7551 50.1849 21.9519C50.0904 22.1487 50.0406 22.3643 50.039 22.5831C50.0313 22.7524 50.0603 22.9213 50.1241 23.0779C50.1879 23.2346 50.2848 23.3751 50.4081 23.4898C50.6542 23.715 51.0067 23.8269 51.4713 23.8269Z" fill="white"/>
<path d="M66.7063 20.7775C66.7063 22.227 66.3699 23.3971 65.6971 24.2879C65.0243 25.1786 64.0865 25.624 62.8837 25.624C62.3731 25.6339 61.8666 25.5298 61.4003 25.319C61.1856 25.2191 60.9836 25.0932 60.7989 24.9441C60.7542 24.9053 60.6994 24.8803 60.6411 24.8721C60.5827 24.8639 60.5233 24.8727 60.4698 24.8976C60.4162 24.9224 60.3709 24.9623 60.3391 25.0124C60.3072 25.0626 60.2902 25.1209 60.2901 25.1805V28.9399C60.2901 29.0253 60.2566 29.1071 60.197 29.1675C60.1374 29.2278 60.0565 29.2617 59.9722 29.2617H58.3961C58.3118 29.2617 58.2309 29.2278 58.1713 29.1675C58.1116 29.1071 58.0781 29.0253 58.0781 28.9399V15.7883C58.0781 15.7029 58.1116 15.6211 58.1713 15.5607C58.2309 15.5004 58.3118 15.4665 58.3961 15.4665H59.6777C59.7523 15.4666 59.8245 15.4934 59.8816 15.542C59.9387 15.5906 59.9772 15.6579 59.9901 15.7323L60.0427 16.0345C60.0532 16.0929 60.0796 16.1473 60.1188 16.1915C60.1579 16.2357 60.2085 16.2681 60.2647 16.285C60.321 16.302 60.3808 16.3028 60.4375 16.2875C60.4942 16.2722 60.5456 16.2413 60.586 16.1982C60.7982 15.9816 61.0404 15.7973 61.3049 15.6512C61.7833 15.3992 62.3169 15.2736 62.8561 15.286C64.0699 15.286 65.0151 15.7724 65.6916 16.7453C66.3681 17.7181 66.7063 19.0002 66.7063 20.5914V20.7775ZM64.504 20.5844C64.504 19.5659 64.3146 18.7325 63.9358 18.0842C63.7702 17.7784 63.5236 17.5253 63.2237 17.3536C62.9237 17.1818 62.5824 17.0981 62.2381 17.1118C61.8264 17.0985 61.4193 17.2023 61.063 17.4112C60.7626 17.5989 60.5124 17.8583 60.3344 18.1668C60.3047 18.2176 60.2894 18.2756 60.2901 18.3347V22.6579C60.2897 22.718 60.3054 22.777 60.3358 22.8286C60.5126 23.1298 60.763 23.3798 61.063 23.5547C61.4294 23.7527 61.841 23.8492 62.2561 23.8346C63.0081 23.8346 63.5708 23.5547 63.9441 22.9951C64.3174 22.4355 64.5017 21.6967 64.4971 20.7789L64.504 20.5844Z" fill="white"/>
<path d="M70.3433 13.0215H68.7672C68.6829 13.0215 68.602 12.9876 68.5424 12.9273C68.4827 12.8669 68.4492 12.7851 68.4492 12.6998V11.3804C68.4492 11.295 68.4827 11.2132 68.5424 11.1528C68.602 11.0925 68.6829 11.0586 68.7672 11.0586H70.3433C70.4276 11.0586 70.5085 11.0925 70.5681 11.1528C70.6277 11.2132 70.6612 11.295 70.6612 11.3804V12.6998C70.6612 12.7851 70.6277 12.8669 70.5681 12.9273C70.5085 12.9876 70.4276 13.0215 70.3433 13.0215ZM70.3433 25.4289H68.7672C68.6831 25.4289 68.6024 25.3952 68.5428 25.3351C68.4832 25.2751 68.4496 25.1936 68.4492 25.1085V15.7834C68.4492 15.7411 68.4574 15.6993 68.4734 15.6602C68.4894 15.6212 68.5128 15.5857 68.5424 15.5558C68.5719 15.526 68.6069 15.5023 68.6455 15.4861C68.6841 15.4699 68.7254 15.4616 68.7672 15.4616H70.3433C70.4276 15.4616 70.5085 15.4955 70.5681 15.5558C70.6277 15.6162 70.6612 15.698 70.6612 15.7834V25.1085C70.6609 25.1936 70.6272 25.2751 70.5676 25.3351C70.508 25.3952 70.4273 25.4289 70.3433 25.4289Z" fill="white"/>
<path d="M75.5732 13.3618V15.1457C75.5732 15.1879 75.5814 15.2297 75.5974 15.2686C75.6134 15.3076 75.6369 15.343 75.6664 15.3728C75.696 15.4025 75.731 15.4261 75.7696 15.4421C75.8082 15.4581 75.8495 15.4663 75.8912 15.4661H77.0221C77.0638 15.4661 77.1051 15.4744 77.1436 15.4906C77.1821 15.5068 77.217 15.5305 77.2464 15.5604C77.2758 15.5903 77.2991 15.6258 77.315 15.6649C77.3308 15.7039 77.3388 15.7457 77.3387 15.7879V16.8036C77.3388 16.8458 77.3308 16.8877 77.315 16.9267C77.2991 16.9657 77.2758 17.0012 77.2464 17.0311C77.217 17.061 77.1821 17.0847 77.1436 17.1009C77.1051 17.1171 77.0638 17.1254 77.0221 17.1254H75.8912C75.8495 17.1253 75.8082 17.1334 75.7696 17.1494C75.731 17.1654 75.696 17.189 75.6664 17.2188C75.6369 17.2486 75.6134 17.2839 75.5974 17.3229C75.5814 17.3619 75.5732 17.4036 75.5732 17.4458V22.6337C75.5732 23.0451 75.6612 23.3384 75.8373 23.5138C75.9307 23.6028 76.041 23.6719 76.1614 23.7168C76.2818 23.7618 76.41 23.7817 76.5382 23.7754C76.6574 23.7761 76.7763 23.7653 76.8935 23.7432C77.0048 23.7229 77.1143 23.6939 77.2212 23.6565L77.423 25.0556C77.4339 25.1268 77.4207 25.1997 77.3855 25.2624C77.3504 25.3251 77.2954 25.374 77.2295 25.4012C77.0864 25.4598 76.9389 25.5066 76.7884 25.5411C76.5238 25.6005 76.2535 25.6301 75.9824 25.6292C75.1695 25.6292 74.5313 25.3881 74.0677 24.9059C73.6041 24.4237 73.3736 23.6668 73.3764 22.6351V17.4416C73.3764 17.3995 73.3682 17.3577 73.3522 17.3187C73.3362 17.2797 73.3127 17.2444 73.2832 17.2146C73.2536 17.1848 73.2186 17.1613 73.18 17.1452C73.1414 17.1292 73.1001 17.1211 73.0584 17.1212H72.1916C72.1499 17.1212 72.1086 17.1129 72.0701 17.0967C72.0316 17.0805 71.9967 17.0568 71.9672 17.0269C71.9378 16.997 71.9145 16.9615 71.8987 16.9225C71.8829 16.8835 71.8748 16.8416 71.875 16.7995V15.7837C71.8748 15.7415 71.8829 15.6997 71.8987 15.6607C71.9145 15.6216 71.9378 15.5861 71.9672 15.5562C71.9967 15.5263 72.0316 15.5026 72.0701 15.4864C72.1086 15.4702 72.1499 15.4619 72.1916 15.4619H73.0584C73.1001 15.4621 73.1414 15.4539 73.18 15.4379C73.2186 15.4219 73.2536 15.3983 73.2832 15.3686C73.3127 15.3388 73.3362 15.3034 73.3522 15.2644C73.3682 15.2255 73.3764 15.1837 73.3764 15.1415V13.3618C73.3764 13.3196 73.3846 13.2777 73.4006 13.2387C73.4166 13.1996 73.44 13.1642 73.4695 13.1343C73.4991 13.1044 73.5341 13.0807 73.5727 13.0645C73.6113 13.0484 73.6526 13.04 73.6944 13.04H75.2608C75.3441 13.0415 75.4236 13.0761 75.482 13.1362C75.5405 13.1964 75.5732 13.2775 75.5732 13.3618Z" fill="white"/>
<path d="M84.9454 25.4289C84.8772 25.4291 84.8107 25.4071 84.7559 25.366C84.7011 25.3249 84.6609 25.267 84.6412 25.2009C84.5929 25.0288 84.55 24.8595 84.5141 24.693C84.5018 24.6343 84.4738 24.5802 84.4332 24.5366C84.3925 24.493 84.3407 24.4616 84.2836 24.4458C84.2264 24.4301 84.1661 24.4306 84.1092 24.4473C84.0523 24.464 84.001 24.4962 83.9611 24.5405C83.7371 24.7728 83.4865 24.9771 83.2145 25.1491C82.7176 25.4643 82.1419 25.6289 81.5555 25.6234C80.5297 25.6234 79.7421 25.3562 79.1928 24.8217C78.6435 24.2872 78.367 23.5532 78.3633 22.6195C78.3633 21.6551 78.7393 20.9042 79.4914 20.3669C80.2435 19.8297 81.3034 19.5611 82.6712 19.5611H84.073C84.1571 19.5611 84.2378 19.5273 84.2974 19.4673C84.357 19.4072 84.3906 19.3258 84.391 19.2407V18.681C84.391 18.1596 84.2408 17.7511 83.9403 17.4554C83.6398 17.1597 83.2044 17.0123 82.6338 17.0133C82.1306 17.0133 81.7301 17.1345 81.4324 17.377C81.2199 17.5453 81.073 17.7841 81.0177 18.0514C81.0044 18.1261 80.966 18.1939 80.9091 18.2433C80.8522 18.2927 80.7802 18.3208 80.7052 18.3228L78.861 18.3312L78.8513 18.2753C78.8098 17.489 79.1573 16.7917 79.8937 16.1836C80.6301 15.5754 81.5891 15.276 82.7707 15.2854C83.9182 15.2854 84.8435 15.5801 85.5468 16.1696C86.25 16.7591 86.6021 17.6065 86.603 18.7118V23.1428C86.6022 23.5388 86.6294 23.9344 86.6846 24.3264C86.7174 24.5644 86.7635 24.8003 86.8228 25.033C86.8356 25.0804 86.8374 25.1302 86.828 25.1785C86.8187 25.2267 86.7984 25.2721 86.7688 25.3111C86.7392 25.3501 86.7011 25.3817 86.6575 25.4033C86.6139 25.425 86.5659 25.4361 86.5173 25.4359L84.9454 25.4289ZM82.0062 23.8269C82.5347 23.8347 83.0542 23.6891 83.5034 23.4072C83.8709 23.1977 84.1698 22.884 84.3634 22.5048C84.3828 22.4608 84.3922 22.413 84.391 22.3649V21.2834C84.391 21.198 84.3575 21.1162 84.2979 21.0558C84.2382 20.9955 84.1574 20.9616 84.073 20.9616H82.6338C81.9887 20.9616 81.4854 21.1229 81.1241 21.4457C80.9538 21.5813 80.8156 21.7539 80.7199 21.9508C80.6242 22.1476 80.5734 22.3637 80.5711 22.5831C80.5634 22.7524 80.5925 22.9213 80.6563 23.0779C80.72 23.2346 80.817 23.3751 80.9403 23.4898C81.19 23.7155 81.5454 23.8279 82.0062 23.8269Z" fill="white"/>
<path d="M90.5659 25.4289H88.9899C88.9058 25.4289 88.8251 25.3952 88.7655 25.3351C88.7059 25.2751 88.6722 25.1936 88.6719 25.1085V11.3804C88.6719 11.295 88.7054 11.2132 88.765 11.1528C88.8246 11.0925 88.9055 11.0586 88.9899 11.0586H90.5659C90.6502 11.0586 90.7311 11.0925 90.7908 11.1528C90.8504 11.2132 90.8839 11.295 90.8839 11.3804V25.1085C90.8835 25.1936 90.8499 25.2751 90.7903 25.3351C90.7307 25.3952 90.65 25.4289 90.5659 25.4289Z" fill="white"/>
</g>
<defs>
<clipPath id="clip0_12_12502">
<rect width="91" height="40" fill="white"/>
</clipPath>
</defs>
</svg>
