<svg width="112" height="44" viewBox="0 0 112 44" fill="none" xmlns="http://www.w3.org/2000/svg">
<g clip-path="url(#clip0_12_12670)">
<path fill-rule="evenodd" clip-rule="evenodd" d="M104.113 18.6705H101.41L101.187 19.6508H104.113C106.79 19.6508 107.694 20.3714 107.694 22.5068V23.5405C107.03 22.8683 105.856 22.5274 104.198 22.5274C101.551 22.5274 100.265 23.6623 100.265 25.9959V26.1658C100.265 28.3538 101.532 29.4636 104.03 29.4636H104.702C107.348 29.4636 108.69 28.3538 108.69 26.1658V22.5068C108.69 19.7819 107.364 18.6705 104.113 18.6705ZM107.694 26.3072C107.694 27.8732 106.847 28.4833 104.674 28.4833H104.254C102.157 28.4833 101.262 27.7899 101.262 26.1658V25.9959C101.262 24.2317 102.115 23.4796 104.113 23.4796H104.281C106.674 23.4796 107.694 24.2064 107.694 25.9107V26.3072ZM34.7234 20.5936L35.2549 17.9751H30.6793V14.398L27.4673 14.8887V25.5732C27.4673 29.267 28.8997 30.3661 32.805 30.3661H34.5148L35.0467 27.7707H33.0361C31.257 27.7707 30.679 27.327 30.679 25.3627V20.5936H34.7234ZM12.6549 13.1585V24.6383C12.6549 28.8935 14.5957 30.6702 18.8247 30.6702C23.2152 30.6702 25.1564 28.9403 25.1564 24.6614V23.5628C25.1564 19.5416 23.3537 17.5774 19.4255 17.5774C18.1775 17.5774 16.814 17.8345 15.8897 18.5591V12.6441L12.6549 13.1585ZM18.9401 20.149C21.1585 20.149 21.9444 21.0376 21.9444 23.6792V24.6614C21.9444 27.233 21.1585 28.1219 18.8939 28.1219C16.6294 28.1219 15.8432 27.233 15.8432 24.6381V23.3055C15.8432 20.944 16.6294 20.149 18.9401 20.149ZM42.4877 17.5774C38.2586 17.5774 36.3176 19.3775 36.3176 23.4923V24.1237C36.3176 28.028 38.0046 29.9216 41.9789 29.9216C43.25 29.9216 44.5211 29.6883 45.4221 28.9631V29.4312C45.4221 31.629 44.4749 32.3531 42.2563 32.3531H40.9281C40.1689 32.3668 39.8239 32.5032 39.3663 33.2621L39.3638 33.261C35.5536 39.3619 28.9385 43.0891 21.7294 43.0891C10.2269 43.0891 0.869266 33.6219 0.869266 21.9841C0.869266 10.3467 10.2269 0.879443 21.7294 0.879443C29.8089 0.879443 37.1589 5.61335 40.5977 12.9803H41.5562C38.0515 5.09174 30.2822 0 21.7294 0C9.74795 0 0 9.86214 0 21.9841C0 34.1064 9.74795 43.9686 21.7294 43.9686C28.7758 43.9686 35.2786 40.5505 39.3326 34.8781H42.4412C46.5315 34.8781 48.6344 33.3119 48.6344 29.314V23.2821C48.6344 19.3074 46.624 17.5774 42.4877 17.5774ZM45.4456 24.5211C45.4456 26.7188 44.683 27.3967 42.4879 27.3967C40.0149 27.3967 39.5298 26.5317 39.5298 23.9836V23.5862C39.5298 21.0607 39.9688 20.149 42.4877 20.149C44.9601 20.149 45.4456 21.0376 45.4456 23.6093V24.5211ZM110.749 29.4636H111.747V14.615H110.749V29.4636ZM88.2864 19.651L88.5101 18.6705H84.0507V15.8673L83.0258 16.0525V25.6553C83.0258 28.39 84.0386 29.407 86.762 29.407H88.2346L88.4209 28.4267H86.762C84.7095 28.4267 84.0507 27.7673 84.0507 25.7116V19.6513L88.2864 19.651ZM97.518 25.2017C97.518 27.7289 96.7368 28.5399 94.3022 28.5399C91.9401 28.5399 91.1424 27.6977 91.1424 25.2017V18.6705H90.1175V25.2017C90.1175 28.3095 91.291 29.5201 94.3022 29.5201C97.2949 29.5201 98.515 28.2694 98.515 25.2017V18.6705H97.518V25.2017ZM74.9682 24.4927V23.5848C74.9682 20.6803 75.9489 19.651 78.7166 19.651H81.055L81.2779 18.6705H78.7169C75.4159 18.6705 73.943 20.186 73.943 23.5845V24.4927C73.943 27.8912 75.4157 29.407 78.7169 29.407H81.0824L81.3061 28.4267H78.7169C76.019 28.4267 74.9682 27.3237 74.9682 24.4927ZM67.5883 18.6705H64.8857L64.6626 19.6508H67.5883C70.2443 19.6508 71.1403 20.3714 71.1403 22.5068V23.5405C70.477 22.8683 69.3032 22.5274 67.6441 22.5274C64.9983 22.5274 63.7119 23.6623 63.7119 25.9959V26.1658C63.7119 28.3538 64.9875 29.4636 67.504 29.4636H68.1768C70.8051 29.4636 72.1375 28.3538 72.1375 26.1658V22.5068C72.1375 19.7819 70.8194 18.6705 67.5883 18.6705ZM71.1403 26.3072C71.1403 27.8938 70.3295 28.4833 68.1489 28.4833H67.7285C65.6123 28.4833 64.709 27.7899 64.709 26.1658V25.9959C64.709 24.2317 65.5617 23.4796 67.5602 23.4796H67.7285C70.1199 23.4796 71.1403 24.2064 71.1403 25.9107V26.3072ZM57.5528 18.5003C54.3921 18.5003 52.9197 20.0801 52.9197 23.4712V32.6968H53.9167V27.9595C54.6383 28.9083 55.9834 29.4636 57.6088 29.4636C60.7552 29.4636 62.1583 27.9303 62.1583 24.4927V23.4431C62.1583 20.0248 60.7378 18.5003 57.5528 18.5003ZM61.1329 24.4924C61.1329 27.4017 60.1781 28.483 57.6088 28.483C55.1774 28.483 53.9446 27.2836 53.9446 24.9177V23.4712C53.9446 20.6363 54.9901 19.4803 57.5528 19.4803C60.129 19.4803 61.1329 20.5912 61.1329 23.4431V24.4924Z" fill="white"/>
</g>
<defs>
<clipPath id="clip0_12_12670">
<rect width="112" height="44" fill="white"/>
</clipPath>
</defs>
</svg>
