<svg width="98" height="50" viewBox="0 0 98 50" fill="none" xmlns="http://www.w3.org/2000/svg">
<path d="M84.17 25.9678C84.17 23.3146 85.9385 21.4517 88.4281 21.4517C90.8845 21.4517 92.6861 23.3517 92.6861 26.1025C92.6861 28.7557 90.9176 30.6186 88.4281 30.6186C85.9716 30.6186 84.17 28.7186 84.17 25.9678M79.6539 26.0331C79.6539 30.7823 82.9603 34.5493 87.3152 34.5493C88.2733 34.5844 89.2245 34.3742 90.0785 33.9385C90.9326 33.5028 91.6611 32.8561 92.195 32.0598C92.3918 31.7646 92.6539 31.863 92.6861 32.1251L93.0135 34.2219H96.9442V17.8444H93.0135L92.6861 19.8751C92.6531 20.1372 92.391 20.2356 92.195 19.9404C91.6596 19.1499 90.9289 18.5114 90.0739 18.0868C89.2188 17.6621 88.2685 17.4659 87.3152 17.517C83.0571 17.517 79.6539 21.1202 79.6539 26.0331ZM61.8652 17.8444L67.0402 34.2202H74.1805L79.3555 17.8444H74.8684L71.0031 31.0751C70.9047 31.4025 70.5773 31.4025 70.4789 31.0751L66.6474 17.8444H61.8652ZM55.8385 34.2202H60.2273V17.8444H55.8385V34.2202ZM55.3797 13.292C55.3703 13.6414 55.4326 13.989 55.563 14.3133C55.6933 14.6377 55.8887 14.9318 56.1373 15.1776C56.3858 15.4233 56.6822 15.6154 57.0079 15.7421C57.3337 15.8687 57.682 15.9272 58.0313 15.9138C58.3791 15.9218 58.725 15.8598 59.0484 15.7314C59.3717 15.6029 59.6659 15.4108 59.9135 15.1663C60.161 14.9218 60.3569 14.6301 60.4893 14.3083C60.6218 13.9866 60.6882 13.6415 60.6845 13.2936C60.6939 12.9441 60.6315 12.5963 60.5011 12.2719C60.3707 11.9475 60.1751 11.6533 59.9263 11.4075C59.6776 11.1617 59.3811 10.9696 59.0551 10.8431C58.7292 10.7165 58.3807 10.6583 58.0313 10.6719C57.6835 10.6638 57.3376 10.7259 57.0142 10.8543C56.6909 10.9827 56.3966 11.1749 56.1491 11.4193C55.9015 11.6638 55.7057 11.9556 55.5732 12.2773C55.4408 12.599 55.3744 12.9441 55.3781 13.292M44.4732 28.4243C44.4732 32.3549 46.766 34.2219 50.4998 34.2219H53.2837V30.4219H50.9256C49.5829 30.4219 48.8619 29.734 48.8619 28.2606V22.0372C48.8599 21.9851 48.8687 21.9331 48.8877 21.8845C48.9067 21.8359 48.9355 21.7918 48.9724 21.7549C49.0093 21.718 49.0534 21.6892 49.102 21.6702C49.1506 21.6512 49.2026 21.6424 49.2547 21.6444H53.2869V17.8444H49.2547C49.2026 17.8465 49.1506 17.8377 49.102 17.8187C49.0534 17.7997 49.0093 17.7708 48.9724 17.7339C48.9355 17.6971 48.9067 17.6529 48.8877 17.6044C48.8687 17.5558 48.8599 17.5038 48.8619 17.4517V11.6541L44.4732 13.0299V28.4243ZM28.8829 25.9678C28.8829 23.3146 30.6514 21.4517 33.141 21.4517C35.5974 21.4517 37.399 23.3517 37.399 26.1025C37.399 28.7557 35.6305 30.6186 33.141 30.6186C30.6845 30.6186 28.8829 28.7186 28.8829 25.9678M24.3668 26.0331C24.3668 30.7823 27.6732 34.5493 32.0281 34.5493C32.9862 34.5844 33.9374 34.3742 34.7914 33.9385C35.6455 33.5028 36.374 32.8561 36.9079 32.0598C37.1047 31.7646 37.3668 31.863 37.399 32.1251L37.7264 34.2219H41.6603V17.8444H37.7264L37.399 19.8751C37.366 20.1372 37.1039 20.2356 36.9079 19.9404C36.3725 19.1499 35.6418 18.5114 34.7868 18.0868C33.9317 17.6621 32.9814 17.4659 32.0281 17.517C27.77 17.517 24.3668 21.1202 24.3668 26.0331M8.73935 34.1557L20.5942 29.6686C20.9216 29.538 20.9869 29.3412 20.9869 28.9807V22.1025C20.9869 21.7751 20.7579 21.6767 20.4305 21.8073L9.49338 25.9678C9.10064 26.1291 8.90387 25.7388 9.16597 25.4767L12.4087 22.1702C12.4648 22.1294 12.5055 22.0709 12.5244 22.0041C12.5433 21.9374 12.5392 21.8662 12.5128 21.8021C12.4863 21.7379 12.4392 21.6845 12.3788 21.6503C12.3184 21.6162 12.2483 21.6033 12.1797 21.6138H0.682094C0.630182 21.6118 0.578411 21.6205 0.530007 21.6393C0.481603 21.6582 0.437605 21.6868 0.400757 21.7235C0.363909 21.7601 0.335 21.8039 0.315833 21.8522C0.296666 21.9005 0.287652 21.9522 0.289352 22.0041V26.0654C0.28731 26.1175 0.296072 26.1695 0.315087 26.2181C0.334101 26.2667 0.362958 26.3108 0.399842 26.3477C0.436727 26.3845 0.480842 26.4134 0.529416 26.4324C0.57799 26.4514 0.629972 26.4602 0.682094 26.4581H7.78935C7.84148 26.4561 7.89346 26.4649 7.94203 26.4839C7.9906 26.5029 8.03472 26.5317 8.0716 26.5686C8.10849 26.6055 8.13735 26.6496 8.15636 26.6982C8.17537 26.7468 8.18414 26.7988 8.18209 26.8509V33.8598C8.18209 34.1872 8.41113 34.2856 8.73855 34.1549" fill="white"/>
</svg>
