<svg width="158" height="42" viewBox="0 0 158 42" fill="none" xmlns="http://www.w3.org/2000/svg">
<path d="M44.8016 36.9C44.1016 36.9 43.6016 36.7 43.2016 36.3C42.8016 35.9 42.6016 35.4 42.6016 34.7C42.6016 34.1 42.8016 33.6 43.2016 33.1C43.6016 32.7 44.1016 32.5 44.8016 32.5C45.3016 32.5 45.7016 32.6 46.1016 32.9L45.9016 33.6C45.6016 33.4 45.2016 33.3 44.9016 33.3C44.5016 33.3 44.2016 33.4 44.0016 33.7C43.8016 34 43.6016 34.3 43.6016 34.7C43.6016 35.1 43.7016 35.4 44.0016 35.7C44.2016 36 44.6016 36.1 44.9016 36.1C45.3016 36.1 45.6016 36 46.0016 35.8L46.2016 36.5C45.7016 36.8 45.3016 36.9 44.8016 36.9Z" fill="white"/>
<path d="M51.3984 33.4996L51.8984 34.9996H50.8984L51.3984 33.4996ZM50.8984 32.5996L49.3984 36.7996H50.2984L50.6984 35.6996H52.0984L52.4984 36.7996H53.3984L51.8984 32.5996H50.8984Z" fill="white"/>
<path d="M57.7984 34.4996H58.1984C58.3984 34.4996 58.4984 34.3996 58.6984 34.2996C58.7984 34.1996 58.8984 33.9996 58.8984 33.8996C58.8984 33.6996 58.7984 33.5996 58.6984 33.4996C58.5984 33.3996 58.3984 33.2996 58.2984 33.2996H57.8984V34.4996H57.7984ZM56.8984 36.7996V32.5996H58.1984C58.5984 32.5996 58.8984 32.6996 59.1984 32.9996C59.4984 33.1996 59.5984 33.5996 59.5984 33.9996C59.5984 34.3996 59.4984 34.6996 59.1984 34.9996C58.8984 35.1996 58.5984 35.3996 58.1984 35.3996H57.6984V36.9996H56.8984V36.7996Z" fill="white"/>
<path d="M64.2008 32.5996H63.3008V36.7996H64.2008V32.5996Z" fill="white"/>
<path d="M67.8008 32.5996V33.3996H68.8008V36.7996H69.7008V33.3996H70.7008V32.5996H67.8008Z" fill="white"/>
<path d="M75.5016 33.4996L76.0016 34.9996H75.0016L75.5016 33.4996ZM75.1016 32.5996L73.6016 36.7996H74.5016L74.9016 35.6996H76.3016L76.7016 36.7996H77.6016L76.0016 32.5996H75.1016Z" fill="white"/>
<path d="M81.1016 32.5996V36.7996H83.3016V36.0996H81.9016V32.5996H81.1016Z" fill="white"/>
<path d="M29.8 29.4004C27.2 31.9004 23.9 33.3004 20.4 33.3004H20.3C13 33.2004 7 27.2004 7 19.9004C6.9 14.0004 10.8 8.80041 16.3 7.00041C16.6 7.60041 16.8 8.30041 16.9 8.90041C15.2 9.40041 13.7 10.3004 12.4 11.6004C10.8 13.1004 9.8 15.1004 9.3 17.1004V17.2004C8.8 19.2004 8.9 21.2004 9.5 23.0004C10 24.7004 10.9 26.3004 12.2 27.6004C13.7 29.1004 15.5 30.2004 17.4 30.7004C17.5 30.7004 17.7 30.8004 17.8 30.8004C17.9 30.8004 17.9 30.8004 18 30.8004C18 30.8004 18.3 30.9004 18.8 30.9004C19.2 31.0004 19.7 31.0004 20.1 31.0004C20.7 31.0004 21.3 31.0004 22 30.9004C24.3 30.6004 26.6 29.6004 28.4 27.9004C30 26.3004 30.9 24.5004 31.1 23.8004C31.4 22.9004 31.3 21.9004 30.9 21.0004C30.5 20.1004 29.7 19.4004 28.7 19.1004C27.7 18.8004 26.7 18.8004 25.8 19.3004C23.9 20.2004 23.1 22.5004 24.1 24.4004C24.3 24.7004 24.7 24.9004 25 24.7004C25.3 24.5004 25.5 24.1004 25.3 23.8004C24.7 22.6004 25.2 21.2004 26.4 20.6004C27 20.3004 27.6 20.3004 28.2 20.5004C28.8 20.7004 29.3 21.1004 29.6 21.7004C29.9 22.3004 29.9 22.9004 29.7 23.5004C29.6 23.8004 29.5 24.0004 29.3 24.2004C26.2 27.1004 21.3 26.9004 18.3 23.8004C18 23.5004 17.6 23.5004 17.3 23.8004C17 24.1004 17 24.5004 17.3 24.8004C19.9 27.6004 23.9 28.4004 27.3 27.1004C25.9 28.4004 24.2 29.2004 22.4 29.5004C20.8 29.7004 19.5 28.9004 19.1 28.7004C16.4 26.9004 15.1 23.6004 15.9 20.2004C16.9 16.0004 21.1 13.4004 25.3 14.4004C25.6 14.5004 25.9 14.5004 26.1 14.6004C27 14.9004 28 14.6004 28.5 13.7004C28.8 13.1004 28.9 12.5004 28.6 12.0004C28.6 11.9004 27.6 9.30041 24.7 7.10041C30.1 8.90041 33.9 14.0004 33.9 19.9004C33.8 23.5004 32.4 26.8004 29.8 29.4004ZM23.1 5.30041C22.6 5.20041 22.1 5.50041 21.9 6.00041C21.7 6.50041 21.9 7.00041 22.4 7.30041C25.5 9.10041 26.8 11.4004 27.1 12.2004C27.2 12.3004 27.2 12.4004 27.2 12.4004C27.3 12.8004 27.2 13.0004 27.2 13.1004C27.1 13.2004 26.9 13.5004 26.5 13.4004C26.2 13.3004 25.9 13.2004 25.5 13.1004C20.6 12.0004 15.6 15.1004 14.4 20.0004C13.5 23.7004 15 27.4004 17.9 29.5004C17.1 29.3004 16.2 29.0004 15.4 28.5004C15.4 28.5004 15.4 28.5004 15.3 28.5004C15.2 28.5004 15.1 28.4004 15.1 28.4004C13.1 27.1004 11.5 25.2004 10.8 22.9004C9.7 19.4004 10.5 15.4004 13.3 12.6004C14.4 11.6004 15.7 10.8004 17.1 10.3004C17.2 10.9004 17.2 11.6004 17.2 12.2004C17.2 12.6004 17.5 12.9004 17.9 12.9004C18.3 12.9004 18.6 12.6004 18.6 12.2004C18.6 11.2004 18.5 10.2004 18.3 9.30041C18.1 8.20041 17.7 7.10041 17.3 6.10041C17.2 5.90041 17 5.70041 16.8 5.60041C16.6 5.50041 16.4 5.50041 16.2 5.60041C10 7.40041 5.5 13.3004 5.5 19.9004C5.5 28.0004 12.1 34.7004 20.2 34.7004C20.3 34.7004 20.3 34.7004 20.3 34.7004C24.2 34.7004 27.9 33.2004 30.7 30.4004C33.6 27.6004 35.1 23.8004 35.1 19.9004C35.2 12.7004 30.2 6.60041 23.1 5.30041Z" fill="white"/>
<path d="M47.5016 27.0996C44.0016 27.0996 41.1016 25.0996 41.1016 21.1996V15.4996C41.1016 11.5996 43.9016 9.59961 47.3016 9.59961C49.3016 9.59961 51.3016 10.1996 52.9016 11.2996C53.1016 11.3996 53.1016 11.5996 53.0016 11.6996L52.2016 12.7996C52.1016 12.8996 52.0016 12.8996 51.8016 12.8996C50.5016 11.9996 48.9016 11.5996 47.3016 11.5996C44.8016 11.5996 43.1016 12.9996 43.1016 15.5996V21.2996C43.1016 23.8996 44.9016 25.2996 47.4016 25.2996C49.0016 25.2996 50.5016 24.7996 51.4016 23.9996V19.5996H47.5016C47.3016 19.5996 47.2016 19.4996 47.2016 19.2996V17.9996C47.2016 17.7996 47.3016 17.6996 47.5016 17.6996H53.1016C53.3016 17.6996 53.4016 17.7996 53.4016 17.9996V24.4996C53.4016 24.5996 53.4016 24.6996 53.3016 24.7996C52.0016 26.0996 49.9016 27.0996 47.5016 27.0996Z" fill="white"/>
<path d="M61.2016 25.3998C62.3016 25.3998 63.3016 25.1998 64.0016 24.9998V21.3998C63.2016 21.2998 62.1016 21.0998 61.2016 21.0998C59.0016 21.0998 58.0016 21.8998 58.0016 23.1998C58.1016 24.5998 59.4016 25.3998 61.2016 25.3998ZM61.3016 14.2998C64.2016 14.2998 66.0016 15.7998 66.0016 18.8998V25.9998C66.0016 26.0998 65.9016 26.2998 65.8016 26.2998C64.7016 26.6998 63.0016 27.0998 61.2016 27.0998C58.5016 27.0998 56.1016 25.9998 56.1016 23.1998C56.1016 20.6998 58.2016 19.3998 61.2016 19.3998C62.2016 19.3998 63.2016 19.4998 64.0016 19.6998V18.9998C64.0016 17.0998 63.2016 16.0998 61.2016 16.0998C59.9016 16.0998 58.7016 16.4998 57.8016 16.9998C57.7016 17.0998 57.5016 17.0998 57.4016 16.8998L56.7016 15.8998C56.6016 15.7998 56.6016 15.6998 56.7016 15.5998C57.9016 14.7998 59.5016 14.2998 61.3016 14.2998Z" fill="white"/>
<path d="M73.1 27.1C70.8 27.1 69.5 25.6 69.5 22.7V10.1C69.5 9.90005 69.6 9.80005 69.8 9.80005H71.2C71.4 9.80005 71.5 9.90005 71.5 10.1V22.7C71.5 24.5 72.1 25.3 73.3 25.3C73.6 25.3 74 25.3 74.4 25.2C74.6 25.2 74.7 25.3 74.7 25.5V26.7001C74.7 26.9001 74.6 27 74.5 27C74 27.1 73.5 27.1 73.1 27.1Z" fill="white"/>
<path d="M81.1 25.4C82.2 25.4 83.2 25.2 83.9 25V21.4C83.1 21.3 82 21.1 81.1 21.1C78.9 21.1 77.9 21.9 77.9 23.2C78 24.6 79.3 25.4 81.1 25.4ZM81.2 14.3C84.1 14.3 85.9 15.8 85.9 18.9V26C85.9 26.1 85.8 26.3 85.7 26.3C84.6 26.7 82.9 27.1 81.1 27.1C78.4 27.1 76 26 76 23.2C76 20.7 78.1 19.4 81.1 19.4C82.1 19.4 83.1 19.5 83.9 19.7V19C83.9 17.1 83.1 16.1 81.1 16.1C79.8 16.1 78.6 16.5 77.7 17C77.6 17.1 77.4 17.1 77.3 16.9L76.6 15.9C76.5 15.8 76.5 15.7 76.6 15.6C77.9 14.8 79.4 14.3 81.2 14.3Z" fill="white"/>
<path d="M97.6 22.1V19.5C97.6 17 96.3 16.1 94.2 16.1C93.2 16.1 92.1 16.3 91.4 16.6V24.6C92.2 25.1 93.1 25.5 94.2 25.5C96.4 25.4 97.6 24.4 97.6 22.1ZM94.3 14.3C97.4 14.3 99.6 15.8 99.6 19.4V22C99.6 25.2 97.5 27 94.4 27C93.3 27 92.3 26.7 91.5 26.3V31C91.5 31.2 91.4 31.3 91.2 31.3H89.8C89.6 31.3 89.5 31.2 89.5 31V15.5C89.5 15.4 89.5 15.2 89.7 15.2C91 14.7 92.8 14.3 94.3 14.3Z" fill="white"/>
<path d="M107.098 25.3998C108.198 25.3998 109.198 25.1998 109.898 24.9998V21.3998C109.098 21.2998 107.998 21.0998 107.098 21.0998C104.898 21.0998 103.898 21.8998 103.898 23.1998C103.898 24.5998 105.198 25.3998 107.098 25.3998ZM107.098 14.2998C109.998 14.2998 111.798 15.7998 111.798 18.8998V25.9998C111.798 26.0998 111.698 26.2998 111.598 26.2998C110.498 26.6998 108.798 27.0998 106.998 27.0998C104.298 27.0998 101.898 25.9998 101.898 23.1998C101.898 20.6998 103.998 19.3998 106.998 19.3998C107.998 19.3998 108.998 19.4998 109.798 19.6998V18.9998C109.798 17.0998 108.998 16.0998 106.998 16.0998C105.698 16.0998 104.498 16.4998 103.598 16.9998C103.498 17.0998 103.298 17.0998 103.198 16.8998L102.498 15.8998C102.398 15.7998 102.398 15.6998 102.498 15.5998C103.798 14.7998 105.298 14.2998 107.098 14.2998Z" fill="white"/>
<path d="M120.202 24.7004C121.302 24.7004 122.402 24.4004 123.102 24.0004V16.5004C122.402 16.3004 121.202 16.1004 120.302 16.1004C118.302 16.1004 116.902 16.9004 116.902 19.3004V21.7004C117.002 23.9004 118.402 24.7004 120.202 24.7004ZM120.102 31.6004C118.202 31.6004 116.802 31.0004 115.502 30.0004C115.402 29.9004 115.402 29.8004 115.502 29.6004L116.202 28.6004C116.302 28.5004 116.402 28.4004 116.602 28.6004C117.602 29.4004 118.702 29.9004 120.102 29.9004C122.202 29.9004 123.202 28.8004 123.202 26.4004V25.8004C122.302 26.2004 121.202 26.5004 120.202 26.5004C117.402 26.5004 115.102 25.0004 115.102 21.7004V19.3004C115.102 15.7004 117.402 14.4004 120.402 14.4004C122.102 14.4004 123.702 14.8004 124.902 15.3004C125.002 15.3004 125.102 15.4004 125.102 15.6004V26.5004C125.102 29.6004 123.602 31.6004 120.102 31.6004Z" fill="white"/>
<path d="M133.501 25.3998C135.601 25.3998 136.801 24.2998 136.801 22.4998V18.9998C136.801 17.1998 135.701 15.9998 133.501 15.9998C131.401 15.9998 130.301 17.1998 130.301 18.9998V22.3998C130.301 24.1998 131.401 25.3998 133.501 25.3998ZM133.501 27.0998C130.301 27.0998 128.301 25.1998 128.301 22.4998V18.9998C128.301 16.1998 130.301 14.2998 133.501 14.2998C136.701 14.2998 138.701 16.1998 138.701 18.9998V22.3998C138.801 25.1998 136.801 27.0998 133.501 27.0998Z" fill="white"/>
<path d="M146.101 27.1002C144.501 27.1002 142.801 26.6002 141.401 25.6002C141.301 25.5002 141.301 25.4002 141.301 25.2002L141.901 24.1002C142.001 23.9002 142.101 23.9002 142.301 24.0002C143.401 24.9002 144.701 25.3002 146.101 25.3002C147.701 25.3002 148.901 24.6002 148.901 23.4002C148.901 22.1002 147.401 21.8002 146.101 21.5002C144.401 21.1002 141.501 20.5002 141.501 17.7002C141.501 15.3002 143.801 14.2002 146.201 14.2002C147.701 14.2002 149.001 14.6002 150.301 15.3002C150.501 15.4002 150.501 15.5002 150.401 15.7002L149.801 16.8002C149.701 16.9002 149.601 17.0002 149.401 16.9002C148.401 16.4002 147.301 16.0002 146.101 16.0002C144.401 16.0002 143.401 16.7002 143.401 17.7002C143.401 19.0002 144.801 19.4002 146.501 19.7002C148.401 20.1002 150.901 20.6002 150.901 23.3002C150.901 25.8002 148.801 27.1002 146.101 27.1002Z" fill="white"/>
</svg>
