<svg width="80" height="32" viewBox="0 0 80 32" fill="none" xmlns="http://www.w3.org/2000/svg">
<g clip-path="url(#clip0_144_249852)">
<path fill-rule="evenodd" clip-rule="evenodd" d="M21.1201 14.08H25.6001V20.8H25.6321C27.3825 20.8 28.8001 19.3392 28.8001 17.536V14.08H33.6001V11.52H21.1201V14.08Z" fill="white"/>
<path fill-rule="evenodd" clip-rule="evenodd" d="M42.9903 17.92H39.9087C38.8335 17.92 37.9039 17.12 37.8543 16.0912C37.8465 15.8271 37.8923 15.5642 37.989 15.3183C38.0857 15.0724 38.2312 14.8487 38.4169 14.6607C38.6025 14.4727 38.8243 14.3243 39.0689 14.2245C39.3135 14.1247 39.5758 14.0755 39.8399 14.08H42.9279C44.0031 14.08 44.9311 14.88 44.9823 15.9088C44.9897 16.1733 44.9434 16.4365 44.8462 16.6826C44.7489 16.9287 44.6028 17.1525 44.4166 17.3405C44.2304 17.5285 44.008 17.6768 43.7628 17.7764C43.5177 17.876 43.2549 17.9248 42.9903 17.92ZM43.8751 11.2H38.9599C36.2191 11.2 33.9775 13.36 33.9775 16C33.9775 18.64 36.2175 20.8 38.9599 20.8H43.8751C46.6159 20.8 48.8591 18.64 48.8591 16C48.8591 13.36 46.6159 11.2 43.8751 11.2Z" fill="white"/>
<path fill-rule="evenodd" clip-rule="evenodd" d="M74.1313 17.92H71.0497C69.9745 17.92 69.0449 17.12 68.9953 16.0912C68.9879 15.8268 69.0342 15.5637 69.1313 15.3177C69.2285 15.0717 69.3745 14.848 69.5605 14.66C69.7465 14.472 69.9688 14.3237 70.2137 14.224C70.4587 14.1243 70.7213 14.0753 70.9857 14.08H74.0689C75.1441 14.08 76.0721 14.88 76.1233 15.9088C76.1307 16.1733 76.0844 16.4365 75.9872 16.6826C75.8899 16.9287 75.7438 17.1525 75.5576 17.3405C75.3714 17.5285 75.149 17.6768 74.9038 17.7764C74.6587 17.876 74.3959 17.9248 74.1313 17.92ZM75.0161 11.2H70.1009C67.3601 11.2 65.1201 13.36 65.1201 16C65.1201 18.64 67.3601 20.8 70.1025 20.8H75.0177C77.7601 20.8 80.0001 18.64 80.0001 16C80.0001 13.36 77.7601 11.2 75.0161 11.2Z" fill="white"/>
<path fill-rule="evenodd" clip-rule="evenodd" d="M58.6289 15.68H54.0801V13.76H58.6289C58.865 13.7609 59.0912 13.855 59.2581 14.022C59.4251 14.1889 59.5192 14.4151 59.5201 14.6512V14.7888C59.5192 15.0249 59.4251 15.2511 59.2581 15.4181C59.0912 15.585 58.865 15.6792 58.6289 15.68ZM62.9633 14.8608C62.9614 14.419 62.8702 13.9822 62.695 13.5766C62.5198 13.171 62.2644 12.8051 61.9441 12.5008C61.286 11.869 60.4083 11.5174 59.4961 11.52H50.5601V20.48H54.0801V18.24H57.8017L59.1073 20.48H62.9633L61.3633 17.6736C61.848 17.3804 62.2495 16.968 62.5296 16.4756C62.8096 15.9832 62.959 15.4273 62.9633 14.8608Z" fill="white"/>
<path d="M0 18.3792V13.192C0 11.815 0.547013 10.4944 1.5207 9.5207C2.49439 8.54701 3.815 8 5.192 8H16C14.16 11.52 4 17.8672 0 18.3792Z" fill="white"/>
<path d="M0.0561523 24H8.00015V19.9248C8.00015 19.9248 2.05615 24 0.0561523 24Z" fill="white"/>
<path d="M16.3201 9.46558V18.808C16.3201 20.185 15.773 21.5056 14.7994 22.4793C13.8257 23.453 12.5051 24 11.1281 24H10.5601V17.5456C10.5601 17.5456 14.7729 13.76 16.3201 9.46558Z" fill="white"/>
</g>
<defs>
<clipPath id="clip0_144_249852">
<rect width="80" height="16" fill="white" transform="translate(0 8)"/>
</clipPath>
</defs>
</svg>
