<svg width="101" height="28" viewBox="0 0 101 28" fill="none" xmlns="http://www.w3.org/2000/svg">
<g clip-path="url(#clip0_12_12522)">
<path d="M96.6723 8.96914H96.4587V5.20348L91.2148 5.20348V26.4805L96.8148 26.4805V10.2851L101.73 10.2851L101.73 4.875L101.053 4.87501C98.453 4.87503 97.3133 6.04897 96.6723 8.96914Z" fill="white"/>
<path d="M78.1923 4.875C71.4863 4.875 67.2773 9.8836 67.2773 16.0253C67.2773 22.167 71.6291 26.8464 78.0497 26.8464C83.5429 26.8464 87.5734 23.41 88.7506 18.9133H83.1147C82.7223 20.7045 80.7962 22.167 78.121 22.167C75.1377 22.167 73.1987 20.0641 72.9151 16.9026H88.7506V15.2941C88.7506 9.33508 84.5059 4.875 78.1923 4.875ZM73.0698 12.9909C73.8945 10.5668 75.902 9.33508 78.1923 9.33508C80.8063 9.33508 82.4935 10.8536 83.2941 12.9909H73.0698Z" fill="white"/>
<path d="M88.3974 16.9571L88.3927 12.9943L67.9062 12.9902L67.911 16.9528L88.3974 16.9571Z" fill="white"/>
<path d="M78.1923 4.875C71.4863 4.875 67.2773 9.8836 67.2773 16.0253C67.2773 22.167 71.6291 26.8464 78.0497 26.8464C83.5429 26.8464 87.5734 23.41 88.7506 18.9133H83.1147C82.7223 20.7045 80.7962 22.167 78.121 22.167C75.1377 22.167 73.1987 20.0641 72.9151 16.9026H88.7506V15.2941C88.7506 9.33508 84.5059 4.875 78.1923 4.875ZM73.0698 12.9909C73.8945 10.5668 75.902 9.33508 78.1923 9.33508C80.8063 9.33508 82.4935 10.8536 83.2941 12.9909H73.0698Z" fill="white"/>
<path d="M62.3545 21.801H66.5992V26.4805H63.0679C59.3582 26.4805 57.0753 25.1645 57.0753 20.3388V9.88307H54.5517C54.1091 9.88307 53.8785 9.34333 54.1784 9.00985L61.4733 0.529092C61.7867 0.180663 62.3545 0.407842 62.3545 0.881818V5.20365H66.5635V9.88307H62.3545V21.801Z" fill="white"/>
<path d="M47.2342 4.875C44.7017 4.875 42.8112 6.3739 41.8837 8.7137H41.7052V5.204H36.6758V26.481H41.955V9.99327H45.4864C47.0202 9.99327 47.5909 10.3223 47.5909 12.0039V26.481H52.8701V10.9437C52.8701 6.66628 50.8726 4.875 47.2342 4.875Z" fill="white"/>
<path d="M27.543 26.4799H32.822V5.20312H27.543V26.4799Z" fill="white"/>
<path d="M21.3202 5.17578H17.3687V16.6692L17.1826 16.7264L13.3196 6.41375L10.746 7.42638L14.755 18.1287L14.61 18.2625L7.74342 9.46682L5.72546 11.1216L12.8435 20.2394L12.6801 20.4626L3.7806 13.561L2.73939 14.9713C2.7099 15.0212 2.6806 15.0711 2.65148 15.1212L11.6932 22.1331L11.5663 22.3189L1.48715 17.7882L0.864334 19.2437L11.0619 23.8275L11.0068 24.0906L0.312246 21.7257L0.0578778 22.934L10.7813 25.3053L10.7496 25.4684H-0.121094V26.4981H21.3202V5.17578Z" fill="white"/>
</g>
<defs>
<clipPath id="clip0_12_12522">
<rect width="101" height="28" fill="white"/>
</clipPath>
</defs>
</svg>
