<svg width="113" height="34" viewBox="0 0 113 34" fill="none" xmlns="http://www.w3.org/2000/svg">
<path d="M60.9907 22.2802V6.41309H56.6016V22.2802H60.9907Z" fill="white"/>
<path d="M60.9907 3.84526V0.296875H56.6016V3.84526H60.9907Z" fill="white"/>
<path d="M25.8457 14.0287H15.5068V10.0192H30.4704V12.8179C30.4704 19.9438 24.6675 22.6553 15.5068 22.6553C6.3458 22.6553 0.542969 19.9438 0.542969 12.8179V11.3451C0.542969 4.21922 6.3458 1.50781 15.5068 1.50781C23.0475 1.50781 28.32 3.35379 29.9402 7.97073H24.6969C22.8412 6.00763 19.1887 5.51736 15.5068 5.51736C10.2341 5.51736 5.04981 6.52769 5.04981 11.3451V12.8179C5.04981 17.6353 10.2341 18.6457 15.5068 18.6457C20.308 18.6457 25.0209 17.808 25.8457 14.0287Z" fill="white"/>
<path d="M48.4485 18.7892C46.9168 20.7518 44.089 22.6559 40.9076 22.6559C36.1946 22.6559 33.4258 19.6844 33.4258 15.0105V6.41309H37.8148V14.1445C37.8148 17.6064 38.9634 18.6738 42.2921 18.6738C44.4718 18.6738 46.8579 17.7804 48.4485 16.7992V6.41309H52.8374V22.2805H48.4485V18.7892Z" fill="white"/>
<path fill-rule="evenodd" clip-rule="evenodd" d="M80.9351 18.8776C79.2855 20.8381 76.2811 22.6571 72.3633 22.6571C67.4443 22.6571 63.9688 19.569 63.9688 14.7793V13.8569C63.9688 9.06721 67.4443 5.98108 72.3633 5.98108C76.2811 5.98108 79.2855 7.79812 80.9351 9.76059V0.296875H85.3242V22.2806H80.9351V18.8776ZM74.1013 18.6744C76.5757 18.6744 79.3443 17.7799 80.9351 16.8574V11.7788C79.3443 10.8564 76.5757 9.96178 74.1013 9.96178C70.7142 9.96178 68.1217 11.1453 68.1217 13.8569V14.7793C68.1217 17.4929 70.7142 18.6744 74.1013 18.6744Z" fill="white"/>
<path fill-rule="evenodd" clip-rule="evenodd" d="M108.279 15.4156V14.0003C108.279 8.6916 104.509 5.98047 98.4708 5.98047C92.1967 5.98047 88.043 8.83645 88.043 14.1452V14.7794C88.043 20.0881 91.6663 22.2805 98.6776 22.2805H103.449V18.53H98.5301C94.8187 18.53 92.5796 17.6648 92.256 15.4156H108.279ZM103.449 12.4148H92.5211C93.2573 10.6823 95.1719 9.61551 98.3827 9.61551C101.269 9.61551 103.007 10.5101 103.449 12.4148Z" fill="white"/>
<path fill-rule="evenodd" clip-rule="evenodd" d="M109.477 21.4344V19.377H110.32C110.79 19.377 111.026 19.5462 111.026 19.8866C111.026 20.1593 110.876 20.3549 110.577 20.4733L111.196 21.4344H110.647L110.174 20.5937H109.907V21.4344H109.477ZM109.907 20.3116H110.019C110.381 20.3116 110.563 20.1856 110.563 19.9355C110.563 19.7512 110.4 19.6609 110.075 19.6609H109.907V20.3116Z" fill="white"/>
<path fill-rule="evenodd" clip-rule="evenodd" d="M110.226 22.3141C109.7 22.3141 109.248 22.1261 108.871 21.7518C108.493 21.3757 108.305 20.9299 108.305 20.4091C108.305 19.8844 108.495 19.4348 108.875 19.0625C109.255 18.692 109.713 18.5059 110.248 18.5059C110.784 18.5059 111.242 18.692 111.622 19.0625C112.002 19.4348 112.192 19.8824 112.192 20.4052C112.192 20.9375 112.001 21.3888 111.62 21.7593C111.24 22.128 110.775 22.3141 110.226 22.3141ZM110.226 21.9982C110.755 21.9982 111.175 21.8082 111.487 21.4265C111.742 21.1161 111.87 20.7757 111.87 20.4071C111.87 20.0423 111.742 19.7038 111.487 19.3935C111.175 19.0117 110.762 18.8218 110.248 18.8218C109.734 18.8218 109.322 19.0117 109.01 19.3935C108.755 19.7038 108.627 20.0423 108.627 20.4091C108.627 20.8416 108.785 21.214 109.101 21.528C109.418 21.8402 109.792 21.9982 110.226 21.9982Z" fill="white"/>
<path d="M33.4453 28.4395V33.2602H34.8497V28.4395H33.4453Z" fill="white"/>
<path d="M33.4258 26.6123V27.7933H34.868V26.6123H33.4258Z" fill="white"/>
<path d="M40.2626 33.2595V30.3975C40.2626 30.0407 40.176 29.7822 40.0033 29.622C39.8304 29.4617 39.5554 29.3817 39.1784 29.3817C38.9772 29.3817 38.778 29.4199 38.5796 29.4928C38.3816 29.5673 38.2105 29.6711 38.0661 29.8077C37.8023 30.0535 37.6701 30.3302 37.6701 30.6379V33.2595H36.2656V28.4404H37.6421V29.216C38.1698 28.6006 38.8486 28.293 39.678 28.293C40.3191 28.293 40.8107 28.4514 41.1533 28.7681C41.4957 29.0849 41.6669 29.5401 41.6669 30.13V33.2595H40.2626Z" fill="white"/>
<path d="M42.3047 28.4395L44.5481 33.2581H46.0656L48.3091 28.4395H46.8198L45.3303 31.9842L43.8507 28.4395H42.3047Z" fill="white"/>
<path fill-rule="evenodd" clip-rule="evenodd" d="M49.997 31.1822C50.0031 31.4225 50.0706 31.6356 50.1995 31.8194C50.3282 32.0052 50.5072 32.149 50.7368 32.2546C50.9662 32.3583 51.232 32.4111 51.5333 32.4111C52.2687 32.4111 52.7244 32.1927 52.9004 31.7557H54.2107C54.0786 32.3147 53.7877 32.7316 53.3384 33.001C52.8891 33.2723 52.2716 33.407 51.4865 33.407C50.5941 33.407 49.9011 33.1886 49.4077 32.7516C48.9143 32.3147 48.668 31.7029 48.668 30.9147C48.668 30.4103 48.7823 29.9588 49.0118 29.5619C49.2412 29.165 49.5709 28.8555 50.0015 28.6297C50.4319 28.4058 50.9365 28.293 51.5145 28.293C52.3943 28.293 53.0748 28.5096 53.5555 28.9447C54.036 29.378 54.2763 29.9861 54.2763 30.7671V31.1822H49.997ZM52.9663 30.3429C52.9535 30.0043 52.8187 29.7403 52.561 29.5528C52.3032 29.3653 51.945 29.2724 51.4865 29.2724C51.0967 29.2724 50.7652 29.3725 50.492 29.5765C50.2186 29.7786 50.0659 30.0352 50.0347 30.3429H52.9663Z" fill="white"/>
<path d="M58.6002 29.3872C58.8012 29.4818 58.9365 29.6311 59.0057 29.835L60.3347 29.6875C60.2029 29.2069 59.9296 28.8555 59.5146 28.6297C59.0999 28.4058 58.5121 28.293 57.7519 28.293C56.9663 28.293 56.3554 28.4222 55.9184 28.6807C55.4817 28.9392 55.2633 29.3033 55.2633 29.7695C55.2633 30.2264 55.4222 30.5687 55.7393 30.7999C56.0568 31.0311 56.6082 31.2041 57.3937 31.3206L57.9971 31.4043C58.4055 31.459 58.69 31.5245 58.8502 31.5992C59.0105 31.672 59.0906 31.7776 59.0906 31.9123C59.0906 32.0907 58.993 32.22 58.7982 32.3001C58.6032 32.3802 58.2893 32.4203 57.8558 32.4203C57.0197 32.4203 56.5485 32.189 56.4416 31.7266H55.0938C55.169 32.2946 55.4362 32.7152 55.8951 32.9919C56.3536 33.2687 57.0136 33.407 57.8746 33.407C58.7227 33.407 59.3638 33.2777 59.7975 33.0156C60.231 32.7535 60.4477 32.3675 60.4477 31.8558C60.4477 31.5609 60.3834 31.3169 60.2546 31.1222C60.126 30.9292 59.9073 30.769 59.5995 30.6433C59.2917 30.5159 58.8515 30.4139 58.2799 30.3338L57.6294 30.241C57.2208 30.1791 56.9444 30.1154 56.8 30.048C56.6554 29.9789 56.583 29.8787 56.583 29.7421C56.583 29.4108 56.9725 29.2433 57.7519 29.2433C58.1164 29.2433 58.3991 29.2924 58.6002 29.3872Z" fill="white"/>
<path d="M65.158 33.1489C64.7184 33.2841 64.2565 33.3517 63.7725 33.3517C63.1505 33.3517 62.6978 33.2146 62.4153 32.9405C62.1324 32.6664 61.991 32.2315 61.991 31.6338V29.4644H61.0391V28.4392H61.991V27.1562H63.3955V28.4392H65.0075V29.4644H63.3955V31.5881C63.3955 31.8275 63.455 32.0048 63.5746 32.1181C63.694 32.2333 63.8824 32.2899 64.1402 32.2899C64.4106 32.2899 64.6869 32.246 64.9698 32.1602L65.158 33.1489Z" fill="white"/>
<path d="M66.0625 28.4395V33.2602H67.467V28.4395H66.0625Z" fill="white"/>
<path d="M66.0391 26.6123V27.7933H67.4813V26.6123H66.0391Z" fill="white"/>
<path d="M76.1751 33.2595V30.3703C76.1751 30.0189 76.1011 29.7677 75.9535 29.6129C75.8056 29.4599 75.5716 29.3817 75.2511 29.3817C74.893 29.3817 74.5694 29.5145 74.2803 29.7786C74.1734 29.8787 74.0885 29.9934 74.0258 30.1263C73.9628 30.2574 73.9316 30.3958 73.9316 30.536V33.2595H72.5269V30.3703C72.5269 30.0262 72.4529 29.7749 72.3053 29.6183C72.1577 29.4617 71.9239 29.3817 71.6032 29.3817C71.2263 29.3817 70.9023 29.5237 70.6323 29.8077C70.3994 30.048 70.2834 30.3248 70.2834 30.6379V33.2595H68.8789V28.4404H70.2554V29.216C70.7515 28.6006 71.3677 28.293 72.1029 28.293C72.5111 28.293 72.8569 28.3749 73.1396 28.5369C73.4224 28.7007 73.6299 28.9356 73.7618 29.2433C74.0258 28.9247 74.321 28.6862 74.6481 28.5278C74.9744 28.3712 75.3454 28.293 75.7604 28.293C76.3447 28.293 76.794 28.4514 77.1082 28.7681C77.4224 29.0849 77.5794 29.5401 77.5794 30.13V33.2595H76.1751Z" fill="white"/>
<path fill-rule="evenodd" clip-rule="evenodd" d="M80.235 31.8194C80.1062 31.6356 80.0386 31.4225 80.0322 31.1822H84.3119V30.7671C84.3119 29.9861 84.0715 29.378 83.5907 28.9447C83.1101 28.5096 82.4299 28.293 81.5501 28.293C80.972 28.293 80.4675 28.4058 80.037 28.6297C79.6065 28.8555 79.2767 29.165 79.0474 29.5619C78.8178 29.9588 78.7031 30.4103 78.7031 30.9147C78.7031 31.7029 78.9496 32.3147 79.4431 32.7516C79.9366 33.1886 80.6294 33.407 81.5218 33.407C82.3071 33.407 82.9247 33.2723 83.3739 33.001C83.8232 32.7316 84.1139 32.3147 84.2459 31.7557H82.9356C82.7596 32.1927 82.304 32.4111 81.5688 32.4111C81.2671 32.4111 81.0017 32.3583 80.7723 32.2546C80.5428 32.149 80.3638 32.0052 80.235 31.8194ZM82.5962 29.5528C82.854 29.7403 82.989 30.0043 83.0016 30.3429H80.0703C80.1013 30.0352 80.2537 29.7786 80.5274 29.5765C80.8006 29.3725 81.1322 29.2724 81.5218 29.2724C81.9804 29.2724 82.3386 29.3653 82.5962 29.5528Z" fill="white"/>
<path d="M89.4736 33.2595V30.3975C89.4736 30.0407 89.3864 29.7822 89.2145 29.622C89.041 29.4617 88.7662 29.3817 88.3894 29.3817C88.1879 29.3817 87.989 29.4199 87.791 29.4928C87.5929 29.5673 87.4214 29.6711 87.2768 29.8077C87.0132 30.0535 86.8811 30.3302 86.8811 30.6379V33.2595H85.4766V28.4404H86.853V29.216C87.3807 28.6006 88.0597 28.293 88.8883 28.293C89.5294 28.293 90.0214 28.4514 90.3642 28.7681C90.707 29.0849 90.878 29.5401 90.878 30.13V33.2595H89.4736Z" fill="white"/>
<path d="M94.3743 33.3517C94.8584 33.3517 95.3207 33.2841 95.7603 33.1489L95.5719 32.1602C95.2884 32.246 95.0128 32.2899 94.7424 32.2899C94.4842 32.2899 94.2958 32.2333 94.1763 32.1181C94.0568 32.0048 93.9975 31.8275 93.9975 31.5881V29.4644H95.6094V28.4392H93.9975V27.1562H92.5931V28.4392H91.6406V29.4644H92.5931V31.6338C92.5931 32.2315 92.7344 32.6664 93.017 32.9405C93.2997 33.2146 93.7524 33.3517 94.3743 33.3517Z" fill="white"/>
<path fill-rule="evenodd" clip-rule="evenodd" d="M102.108 30.8327C102.108 31.6192 101.837 32.2455 101.296 32.7116C100.756 33.1758 100.027 33.407 99.1096 33.407C98.192 33.407 97.4758 33.1831 96.9603 32.7334C96.4457 32.2837 96.1875 31.6628 96.1875 30.8691C96.1875 30.3575 96.307 29.9079 96.546 29.52C96.7841 29.1322 97.1287 28.8319 97.5779 28.6152C98.0271 28.4004 98.56 28.293 99.1759 28.293C100.093 28.293 100.811 28.5169 101.33 28.9629C101.848 29.4089 102.108 30.0316 102.108 30.8327ZM100.655 30.8509C100.655 30.3703 100.525 29.9988 100.264 29.7385C100.004 29.4764 99.6312 29.3452 99.1471 29.3452C98.6699 29.3452 98.2992 29.4781 98.0349 29.7421C97.7715 30.008 97.6389 30.3757 97.6389 30.8509C97.6389 31.3297 97.7698 31.7011 98.0306 31.9633C98.2914 32.2255 98.6604 32.3548 99.1384 32.3548C99.6155 32.3548 99.9879 32.2255 100.255 31.9633C100.522 31.7011 100.655 31.3297 100.655 30.8509Z" fill="white"/>
<path d="M106.432 29.3872C106.634 29.4818 106.769 29.6311 106.838 29.835L108.167 29.6875C108.035 29.2069 107.762 28.8555 107.346 28.6297C106.932 28.4058 106.344 28.293 105.584 28.293C104.799 28.293 104.188 28.4222 103.751 28.6807C103.314 28.9392 103.095 29.3033 103.095 29.7695C103.095 30.2264 103.255 30.5687 103.571 30.7999C103.889 31.0311 104.44 31.2041 105.226 31.3206L105.83 31.4043C106.238 31.459 106.522 31.5245 106.683 31.5992C106.842 31.672 106.922 31.7776 106.922 31.9123C106.922 32.0907 106.826 32.22 106.63 32.3001C106.436 32.3802 106.122 32.4203 105.688 32.4203C104.852 32.4203 104.381 32.189 104.273 31.7266H102.926C103.002 32.2946 103.269 32.7152 103.727 32.9919C104.185 33.2687 104.846 33.407 105.707 33.407C106.555 33.407 107.196 33.2777 107.63 33.0156C108.063 32.7535 108.28 32.3675 108.28 31.8558C108.28 31.5609 108.215 31.3169 108.087 31.1222C107.958 30.9292 107.74 30.769 107.432 30.6433C107.124 30.5159 106.683 30.4139 106.112 30.3338L105.461 30.241C105.053 30.1791 104.777 30.1154 104.632 30.048C104.488 29.9789 104.416 29.8787 104.416 29.7421C104.416 29.4108 104.805 29.2433 105.584 29.2433C105.948 29.2433 106.232 29.2924 106.432 29.3872Z" fill="white"/>
</svg>
