<svg width="137" height="42" viewBox="0 0 137 42" fill="none" xmlns="http://www.w3.org/2000/svg">
<g clip-path="url(#clip0_12_12668)">
<path d="M50.0673 26.6175C50.2542 27.9441 50.6193 28.9396 51.1621 29.6027C52.1583 30.7961 53.8634 31.3922 56.2778 31.3918C57.7257 31.3918 58.9008 31.2335 59.8031 30.9181C61.515 30.3123 62.3706 29.1872 62.3706 27.5427C62.3706 26.5816 61.9496 25.8385 61.1072 25.3135C60.2648 24.7885 58.9344 24.3346 57.1162 23.9517L54.0052 23.2591C50.9476 22.575 48.8463 21.8315 47.7016 21.0299C45.7652 19.6879 44.797 17.5891 44.797 14.7331C44.797 12.1283 45.7444 9.96369 47.6385 8.23846C49.5329 6.51363 52.3164 5.65183 55.9887 5.65385C59.0546 5.65385 61.67 6.46598 63.8348 8.09065C65.9997 9.71533 67.1344 12.0738 67.2394 15.1668H61.4735C61.3668 13.4182 60.5939 12.1747 59.1544 11.4373C58.1962 10.9503 57.0036 10.7064 55.5773 10.7064C53.9912 10.7064 52.7246 11.023 51.7784 11.655C50.8322 12.287 50.3593 13.1686 50.3593 14.2994C50.3593 15.3421 50.8274 16.1183 51.7632 16.6284C52.362 16.9696 53.6349 17.3706 55.5817 17.8322L60.6255 19.0353C62.8355 19.5623 64.4923 20.2662 65.5966 21.1478C67.3093 22.5177 68.1657 24.4973 68.1657 27.088C68.1657 29.7465 67.1508 31.9543 65.1209 33.7119C63.0907 35.4686 60.2233 36.347 56.5179 36.3462C52.7342 36.3462 49.7586 35.4807 47.5909 33.7502C45.4233 32.0193 44.3381 29.6419 44.3353 26.6171L50.0673 26.6175ZM83.0623 25.1346C82.7212 25.351 82.3602 25.5328 81.9839 25.6773C81.4982 25.8484 80.999 25.9773 80.4917 26.0626L79.2283 26.2989C78.0433 26.5105 77.1913 26.7649 76.6745 27.0694C75.7985 27.5831 75.3612 28.3787 75.362 29.4561C75.362 30.4173 75.6292 31.1119 76.1636 31.5392C76.7207 31.9744 77.4098 32.201 78.1136 32.1805C79.3147 32.1854 80.4877 31.8128 81.4703 31.1143C82.4924 30.4036 83.0232 29.1076 83.0635 27.2273L83.0623 25.1346ZM79.6633 22.5096C80.6978 22.3783 81.4375 22.2136 81.8829 22.0169C82.6813 21.6744 83.0811 21.1413 83.0819 20.4172C83.0819 19.5357 82.7752 18.9271 82.1625 18.5919C81.5493 18.2563 80.6519 18.0879 79.4696 18.0871C78.1387 18.0871 77.1965 18.4162 76.6425 19.0749C76.2463 19.5611 75.9831 20.2186 75.8521 21.0468H70.4851C70.6029 19.1665 71.1254 17.6206 72.0516 16.4091C73.5267 14.5134 76.0598 13.566 79.6509 13.566C81.9907 13.566 84.0665 14.0333 85.8782 14.9673C87.6904 15.9023 88.5959 17.6662 88.5947 20.2593V30.1269C88.5947 30.8122 88.6063 31.6413 88.6326 32.615C88.6722 33.3516 88.7824 33.8508 88.9641 34.1133C89.1747 34.4011 89.4577 34.6266 89.7837 34.7663V35.595H83.7446C83.5869 35.2002 83.4693 34.7902 83.3935 34.3713C83.3227 33.9396 83.2707 33.5049 83.2377 33.0685C82.4602 33.9167 81.5611 34.6419 80.5704 35.2198C79.3261 35.9275 77.9182 36.2884 76.4907 36.2658C74.5552 36.2658 72.9567 35.7097 71.6953 34.5971C70.4336 33.4845 69.8029 31.9091 69.8029 29.8713C69.8029 27.2269 70.8178 25.3119 72.8477 24.1274C73.9604 23.4828 75.5984 23.0225 77.7613 22.7454L79.6633 22.5096ZM101.446 6.23538C101.727 6.25558 102.121 6.28506 102.615 6.32504V10.9047C102.303 10.8643 101.781 10.8348 101.046 10.8146C100.31 10.7948 99.8047 10.9567 99.5251 11.3081C99.2545 11.6312 99.1054 12.0405 99.1041 12.4639V14.278H102.754V18.2462H99.1041V35.5914H93.587V18.2458H90.4675V14.2776H93.5083V12.8972C93.5083 10.5957 93.8921 9.01021 94.6594 8.13992C95.4654 6.85085 97.4086 6.20671 100.49 6.20671C100.84 6.20671 101.158 6.216 101.444 6.23498M115.993 13.5781C116.064 13.5854 116.223 13.5951 116.47 13.608V19.366C115.94 19.3048 115.406 19.272 114.872 19.2679C112.636 19.2679 111.135 20.0049 110.367 21.4786C109.939 22.3081 109.724 23.5846 109.724 25.309V35.591H104.128V14.0817H109.432V17.8322C110.291 16.3986 111.04 15.4176 111.679 14.891C112.718 14.0094 114.07 13.5688 115.734 13.5688C115.838 13.5688 115.925 13.5688 115.997 13.5785M130.274 25.1342C129.933 25.351 129.572 25.5328 129.196 25.6773C128.71 25.8484 128.211 25.9773 127.704 26.0626L126.44 26.2989C125.255 26.5105 124.403 26.7649 123.886 27.0694C123.008 27.5831 122.568 28.3803 122.568 29.4606C122.568 30.4217 122.835 31.1163 123.37 31.5436C123.927 31.9792 124.616 32.2058 125.32 32.1849C126.521 32.1898 127.693 31.8174 128.675 31.1188C129.698 30.4076 130.229 29.1117 130.27 27.2313L130.274 25.1342ZM126.875 22.51C127.91 22.3783 128.649 22.2136 129.095 22.0165C129.891 21.6716 130.289 21.1385 130.289 20.4172C130.289 19.5357 129.983 18.9271 129.37 18.5919C128.757 18.2563 127.859 18.0879 126.676 18.0871C125.346 18.0871 124.404 18.4162 123.85 19.0749C123.454 19.5611 123.191 20.2186 123.06 21.0468H117.697C117.815 19.1665 118.337 17.6206 119.263 16.4091C120.739 14.5134 123.272 13.566 126.863 13.566C129.203 13.566 131.278 14.0333 133.09 14.9673C134.902 15.9023 135.809 17.665 135.811 20.2565V30.1245C135.811 30.8098 135.824 31.6389 135.85 32.6126C135.89 33.3492 136 33.8484 136.182 34.1109C136.392 34.3985 136.675 34.6241 137 34.7643V35.593H130.963C130.806 35.198 130.688 34.7879 130.613 34.3689C130.541 33.9374 130.489 33.5028 130.457 33.0665C129.679 33.9144 128.78 34.6395 127.789 35.2178C126.545 35.9255 125.137 36.2864 123.71 36.2638C121.774 36.2638 120.176 35.7077 118.914 34.5951C117.652 33.4821 117.022 31.9071 117.022 29.8693C117.022 27.2249 118.036 25.3098 120.067 24.1254C121.18 23.4808 122.817 23.02 124.98 22.7434L126.875 22.51ZM26.2017 30.7662C24.7079 30.7662 23.727 29.902 23.727 28.6056C23.727 27.5253 24.4527 26.6611 25.3063 26.6611C25.6474 26.6611 25.9461 26.7903 25.9461 27.1356C25.9461 27.3517 25.8606 27.5253 26.0739 27.5253C26.2017 27.5253 26.3308 27.3961 26.3308 27.0488C26.3308 26.6227 25.9461 26.2714 25.3917 26.2714H25.2627C25.3202 26.1503 25.3498 26.017 25.3482 25.8821C25.3501 25.8023 25.3359 25.723 25.3066 25.6489C25.2772 25.5748 25.2334 25.5075 25.1776 25.451C25.1218 25.3945 25.0553 25.3501 24.9821 25.3203C24.9088 25.2906 24.8304 25.2762 24.7515 25.2779C24.4527 25.2779 24.1535 25.4516 24.1535 25.6672C24.1501 25.6936 24.1558 25.7204 24.1697 25.7429C24.1836 25.7655 24.2049 25.7824 24.2298 25.7908C24.2465 25.7964 24.2643 25.7979 24.2818 25.7953C24.4092 25.7953 24.4527 25.6672 24.666 25.6672C24.7063 25.6624 24.7471 25.6668 24.7854 25.6802C24.8238 25.6936 24.8586 25.7157 24.8873 25.7447C24.9159 25.7737 24.9377 25.8089 24.9509 25.8477C24.9641 25.8865 24.9684 25.9278 24.9636 25.9685C24.9636 26.2714 24.7079 26.395 24.4946 26.5299C24.138 26.7417 23.8434 27.0455 23.6409 27.4102C23.4385 27.7749 23.3354 28.1875 23.3423 28.6056C23.3423 29.8152 24.0261 30.5954 25.0071 30.9382L24.3672 31.9333C23.5137 31.9333 23.0855 32.5827 22.3178 33.9647C22.2824 33.7877 22.1856 33.6293 22.0448 33.5182C21.904 33.4071 21.7286 33.3506 21.5501 33.3589C21.0796 33.3589 20.7809 33.7042 20.7809 34.1807C20.7758 34.232 20.7909 34.2832 20.8229 34.3234C20.8549 34.3635 20.9012 34.3893 20.9518 34.3952C20.9802 34.3971 21.0087 34.3929 21.0354 34.3829C21.0621 34.3728 21.0864 34.3571 21.1066 34.3368C21.1268 34.3165 21.1425 34.2921 21.1527 34.2652C21.1628 34.2383 21.1672 34.2095 21.1655 34.1807C21.1615 34.1268 21.1685 34.0727 21.1859 34.0216C21.2034 33.9706 21.2309 33.9236 21.2669 33.8837C21.3029 33.8438 21.3466 33.8117 21.3953 33.7894C21.444 33.7672 21.4967 33.7552 21.5501 33.7543C21.8489 33.7543 21.9711 33.9703 21.9711 34.2288C21.9804 34.5243 21.8898 34.8142 21.7143 35.0506C20.8188 36.519 19.5806 37.2536 18.5138 37.2536C17.5735 37.2536 17.0192 36.6923 17.0192 36.1309C17.0192 35.612 17.3179 35.1798 17.83 35.1798C18.1715 35.1798 18.3848 35.3959 18.3848 35.6972C18.3848 35.9572 18.1715 35.9572 18.1715 36.0869C18.1715 36.1733 18.2569 36.2161 18.3428 36.2161C18.5996 36.2161 18.7638 35.9148 18.7638 35.612C18.7638 35.1354 18.3792 34.7901 17.8248 34.7901C17.5999 34.7892 17.3795 34.8541 17.1903 34.977C17.001 35.0999 16.851 35.2755 16.7583 35.4827C16.665 35.2759 16.5147 35.1005 16.3255 34.9777C16.1362 34.8549 15.916 34.7898 15.6911 34.7901C15.1299 34.7901 14.7509 35.1358 14.7509 35.612C14.7509 35.9148 14.9218 36.2161 15.1719 36.2161C15.2557 36.2161 15.3416 36.1733 15.3416 36.0869C15.3416 35.9577 15.1283 35.9577 15.1283 35.6972C15.1283 35.3959 15.3416 35.1798 15.6899 35.1798C16.2008 35.1798 16.4999 35.6063 16.4999 36.1309C16.4999 36.6923 15.9451 37.2536 15.0061 37.2536C13.9397 37.2536 12.7015 36.5186 11.8044 35.0506C11.633 34.8101 11.5476 34.5179 11.5619 34.2219C11.5619 33.9631 11.6897 33.747 11.9829 33.747C12.0363 33.748 12.089 33.7599 12.1377 33.7822C12.1864 33.8044 12.2301 33.8365 12.2661 33.8764C12.3021 33.9164 12.3297 33.9633 12.3471 34.0144C12.3646 34.0654 12.3715 34.1196 12.3675 34.1735C12.3659 34.202 12.3702 34.2306 12.3802 34.2574C12.3903 34.2842 12.4058 34.3085 12.4258 34.3287C12.4458 34.349 12.4698 34.3647 12.4962 34.3749C12.5227 34.3851 12.551 34.3896 12.5792 34.3879C12.63 34.3822 12.6765 34.3565 12.7085 34.3163C12.7406 34.2762 12.7557 34.2248 12.7506 34.1735C12.7506 33.6969 12.4518 33.3516 11.9829 33.3516C11.8042 33.3428 11.6283 33.399 11.4871 33.5102C11.3459 33.6214 11.2489 33.78 11.2136 33.9574C10.4515 32.5815 10.0246 31.9333 9.17541 31.9333L8.53554 30.9382C9.51811 30.593 10.2003 29.8156 10.2003 28.6056C10.207 28.1875 10.1038 27.775 9.90127 27.4103C9.69876 27.0456 9.40418 26.7418 9.04759 26.5299C8.8343 26.4006 8.57908 26.2714 8.57908 25.9685C8.57439 25.9277 8.5789 25.8864 8.59227 25.8477C8.60563 25.8089 8.62751 25.7737 8.65626 25.7447C8.68501 25.7157 8.71989 25.6937 8.75826 25.6803C8.79664 25.6668 8.83752 25.6624 8.87784 25.6672C9.09153 25.6672 9.13347 25.7953 9.26128 25.7953C9.2786 25.7978 9.29628 25.7963 9.31292 25.7908C9.32957 25.7854 9.34473 25.7761 9.35723 25.7637C9.36972 25.7513 9.37921 25.7361 9.38495 25.7194C9.39068 25.7026 9.39251 25.6848 9.39029 25.6672C9.39029 25.4512 9.09153 25.2779 8.79237 25.2779C8.67327 25.2746 8.55605 25.3083 8.45654 25.3746C8.35703 25.4408 8.28003 25.5364 8.23598 25.6483C8.20682 25.7226 8.19244 25.8017 8.19444 25.8821C8.19284 26.017 8.2224 26.1503 8.27991 26.2714H8.1521C7.59092 26.2714 7.21347 26.6171 7.21347 27.0492C7.21347 27.3957 7.34128 27.5253 7.4691 27.5253C7.68199 27.5253 7.59651 27.3517 7.59651 27.1356C7.59651 26.7903 7.89527 26.6611 8.23797 26.6611C9.09153 26.6611 9.81687 27.5253 9.81687 28.6056C9.81687 29.902 8.8343 30.7662 7.34088 30.7662C5.59064 30.7662 4.26697 29.4699 4.26697 27.6546C4.26697 25.8817 5.29187 24.6693 6.44379 23.5935L7.42636 22.6424C8.66455 21.4753 9.17581 20.2658 9.17581 18.7546C9.17581 17.1114 8.19324 15.2965 6.14663 14.3894C6.56761 14.2602 6.82883 13.8208 6.82883 13.3092C6.82883 12.9639 6.70102 12.749 6.70102 12.4893C6.70102 11.97 6.99978 11.6675 7.42676 11.6675C7.59105 11.6621 7.75076 11.7228 7.87076 11.8364C7.99075 11.95 8.0612 12.1072 8.06662 12.2733C8.06952 12.3365 8.05935 12.3996 8.03675 12.4587C8.01416 12.5177 7.97964 12.5713 7.9354 12.616C7.89116 12.6608 7.83817 12.6958 7.77982 12.7187C7.72147 12.7416 7.65904 12.7519 7.59651 12.749C7.4687 12.749 7.38322 12.749 7.38322 12.8783C7.38322 13.0075 7.51223 13.0503 7.68199 13.0503C7.86639 13.0566 8.04664 12.994 8.18826 12.8744C8.32988 12.7549 8.42295 12.5867 8.44967 12.4021C8.54153 12.4562 8.64458 12.4861 8.75003 12.4889C8.81808 12.4918 8.88597 12.4802 8.94938 12.4551C9.0128 12.43 9.07037 12.3919 9.11844 12.3431C9.16651 12.2943 9.20402 12.2359 9.22861 12.1717C9.2532 12.1075 9.26432 12.0388 9.26128 11.97C9.26128 11.8836 9.21894 11.7539 9.09153 11.7539C9.00565 11.7539 8.96371 11.8408 8.96371 11.926C8.96557 11.9549 8.96133 11.9839 8.95127 12.0111C8.94121 12.0382 8.92556 12.0629 8.90536 12.0835C8.88516 12.1041 8.86086 12.1201 8.83409 12.1304C8.80731 12.1408 8.77866 12.1453 8.75003 12.1437C8.6642 12.1351 8.58253 12.1021 8.51452 12.0485C8.4465 11.9949 8.39493 11.9228 8.36579 11.8408C8.27209 11.6713 8.13608 11.5295 7.97131 11.4298C7.80655 11.33 7.61878 11.2757 7.42676 11.2722C7.17018 11.2677 6.92067 11.3572 6.72429 11.5242C6.5279 11.6912 6.39791 11.9245 6.35832 12.1808C6.06563 11.8799 5.73531 11.619 5.37575 11.4046C5.71685 11.1865 6.01602 11.0149 6.35832 10.7544C6.89836 10.3418 7.39889 9.87887 7.85334 9.37165L10.2003 6.77896C12.2493 4.48915 13.569 3.92781 14.8535 3.92781C15.9635 3.92781 16.5179 4.48915 16.5179 5.13733C16.5179 5.61346 16.3174 5.96602 15.997 6.13927C15.8025 5.93431 15.6721 5.6758 15.6224 5.39619C15.5789 5.18135 15.5369 5.18135 15.4934 5.18135C15.4075 5.18135 15.4075 5.26615 15.4075 5.35338C15.3993 5.66923 15.4792 5.98103 15.638 6.25315C15.5916 6.25315 15.5437 6.26123 15.4974 6.26123C15.0764 6.26123 14.8152 6.04396 14.8152 5.7855C14.8132 5.74553 14.8199 5.70562 14.8347 5.66852C14.8495 5.63142 14.8722 5.59802 14.901 5.57065C14.9849 5.48383 14.943 5.43981 14.901 5.43981C14.7297 5.43981 14.5583 5.65587 14.5583 5.91473C14.5583 6.21762 14.8152 6.64973 15.5409 6.64973C15.6775 6.64973 15.8133 6.62913 15.9439 6.58835C16.1854 6.76914 16.4779 6.86673 16.7783 6.86673C17.0788 6.86673 17.3712 6.76914 17.6127 6.58835C17.7437 6.62913 17.8803 6.64973 18.0169 6.64973C18.7414 6.64973 18.9995 6.22327 18.9995 5.91473C18.9995 5.65627 18.8285 5.43981 18.6584 5.43981C18.6164 5.43981 18.5729 5.48423 18.6584 5.57065C18.6865 5.59849 18.7086 5.632 18.7231 5.66901C18.7376 5.70603 18.7443 5.74572 18.7426 5.7855C18.7426 6.04396 18.487 6.26163 18.0604 6.26163C18.0113 6.26163 17.9622 6.26163 17.9202 6.25315C18.0789 5.98099 18.1586 5.66919 18.1503 5.35338C18.1503 5.26656 18.1503 5.18135 18.0648 5.18135C18.0225 5.18135 17.979 5.18135 17.937 5.39579C17.8861 5.67512 17.756 5.93345 17.5624 6.13927C17.2424 5.96562 17.0399 5.61346 17.0399 5.13733C17.0399 4.48915 17.5947 3.9274 18.7047 3.9274C19.9848 3.9274 21.3089 4.48875 23.3579 6.77896L25.7049 9.37165C26.1491 9.88906 26.6505 10.3532 27.1995 10.7548C27.5406 11.0149 27.8398 11.1813 28.1821 11.4042C27.8226 11.6182 27.4923 11.8795 27.1995 12.1804C27.1592 11.9245 27.029 11.6918 26.8329 11.525C26.6367 11.3582 26.3877 11.2684 26.1315 11.2722C25.9394 11.2755 25.7516 11.3298 25.5868 11.4296C25.422 11.5293 25.286 11.6711 25.1924 11.8408C25.1633 11.9227 25.1118 11.9946 25.0439 12.0482C24.9761 12.1018 24.8946 12.1349 24.809 12.1437C24.7804 12.1454 24.7517 12.1409 24.7249 12.1306C24.6981 12.1202 24.6738 12.1042 24.6536 12.0836C24.6334 12.063 24.6178 12.0383 24.6078 12.0111C24.5979 11.9839 24.5937 11.9549 24.5957 11.926C24.5957 11.8412 24.5522 11.7539 24.4679 11.7539C24.3389 11.7539 24.2969 11.8832 24.2969 11.97C24.2942 12.0388 24.3055 12.1074 24.3303 12.1715C24.355 12.2357 24.3926 12.294 24.4407 12.3427C24.4888 12.3914 24.5463 12.4296 24.6097 12.4548C24.6731 12.4799 24.7409 12.4916 24.809 12.4889C24.9144 12.4861 25.0175 12.4562 25.1085 12.4021C25.1358 12.5864 25.2289 12.7542 25.3703 12.8737C25.5118 12.9931 25.6916 13.056 25.8758 13.0503C26.0476 13.0503 26.175 13.0079 26.175 12.8787C26.175 12.7494 26.0891 12.7494 25.9617 12.7494C25.898 12.7575 25.8333 12.7507 25.7726 12.7296C25.7119 12.7084 25.6568 12.6735 25.6116 12.6275C25.5663 12.5815 25.532 12.5256 25.5115 12.4641C25.4909 12.4027 25.4845 12.3372 25.4928 12.2729C25.4987 12.1072 25.5692 11.9505 25.6888 11.8371C25.8084 11.7236 25.9675 11.6625 26.1315 11.6671C26.5596 11.6671 26.8584 11.97 26.8584 12.4889C26.8584 12.749 26.7294 12.9639 26.7294 13.3092C26.7294 13.8281 26.9862 14.2602 27.4128 14.3894C25.3638 15.2965 24.3824 17.1114 24.3824 18.755C24.3824 20.2658 24.8949 21.4753 26.1315 22.6424L27.114 23.5935C28.2663 24.6738 29.2908 25.8821 29.2908 27.6546C29.2908 29.4699 27.9672 30.7662 26.2169 30.7662H26.2017ZM16.7847 38.8015C16.5403 38.3203 16.2391 37.8707 15.8876 37.4628C16.277 37.3106 16.5966 37.0178 16.7847 36.641C16.9724 37.0175 17.2914 37.3103 17.6802 37.4628C17.3294 37.8709 17.0287 38.3204 16.7847 38.8015ZM17.2157 6.39248C17.08 6.45432 16.9329 6.48629 16.7841 6.48629C16.6353 6.48629 16.4882 6.45432 16.3525 6.39248C16.5463 6.24094 16.6957 6.03894 16.7847 5.80812C16.8732 6.03885 17.0222 6.24087 17.2157 6.39248ZM29.9746 25.7977C29.8625 25.7918 29.7509 25.817 29.6519 25.8706C29.5529 25.9242 29.4703 26.0041 29.4131 26.1018C29.072 25.3244 28.7309 24.5894 27.2362 23.2062C27.43 23.266 27.6317 23.2951 27.8342 23.293C28.3043 23.293 28.8167 23.1622 29.1143 22.8666C29.1532 23.0071 29.2375 23.1303 29.3537 23.2167C29.47 23.3031 29.6115 23.3476 29.7558 23.3431C30.2243 23.3431 30.3956 23.0402 30.3956 22.6945C30.3956 22.5641 30.3521 22.4345 30.2243 22.4345C29.9687 22.4345 30.1823 22.9534 29.7558 22.9534C29.7128 22.953 29.6703 22.9434 29.6312 22.9252C29.5922 22.9071 29.5573 22.8807 29.5291 22.8479C29.5008 22.8151 29.4797 22.7767 29.4672 22.7351C29.4547 22.6935 29.4511 22.6496 29.4566 22.6065C29.4566 22.3921 29.5844 22.132 29.5844 21.8291C29.5976 21.5371 29.5117 21.2493 29.3409 21.0135C29.1701 20.7777 28.9247 20.6081 28.6454 20.5327C28.5156 20.5073 28.3984 20.4377 28.3131 20.3356C28.2278 20.2335 28.1796 20.105 28.1765 19.9714C28.1765 19.6257 28.4321 19.5829 28.5975 19.5829C28.7632 19.5829 28.8966 19.6257 28.8966 19.4965C28.8966 19.3673 28.7688 19.2804 28.5132 19.2804C28.2144 19.2804 27.7878 19.4965 27.7878 19.971C27.7849 20.0679 27.8024 20.1642 27.8392 20.2537C27.8759 20.3432 27.9312 20.4237 28.0011 20.4899C27.7989 20.5253 27.6154 20.6314 27.4828 20.7896C27.3501 20.9479 27.2767 21.1483 27.2754 21.3558C27.2754 21.6571 27.3593 21.9583 27.5745 21.9583C27.8302 21.9583 27.6165 21.7423 27.6165 21.397C27.6165 21.0089 27.9576 20.8368 28.2999 20.8368C28.7688 20.8368 29.1954 21.2633 29.1954 21.8319C29.1954 22.4801 28.6833 22.9122 27.8717 22.9122C27.5491 22.9274 27.2274 22.8683 26.9307 22.7393C26.6341 22.6103 26.3703 22.4148 26.1594 22.1675C25.2627 21.1724 24.7559 20.3098 24.7559 18.7558C24.7559 16.7657 26.1594 15.0388 28.2128 14.4771C28.4353 14.4125 28.6308 14.2761 28.7695 14.0887C28.9081 13.9013 28.9824 13.6732 28.9809 13.4392C28.9809 13.0131 28.7253 12.6634 28.2987 12.6634C28.1273 12.6634 27.9995 12.7046 27.9995 12.8354C27.9995 12.9663 28.1273 12.9647 28.2128 12.9647C28.3254 12.9775 28.4286 13.0344 28.5002 13.1231C28.5719 13.2119 28.6064 13.3255 28.5963 13.4396C28.5961 13.5819 28.5528 13.7207 28.472 13.8373C28.3913 13.9539 28.2771 14.0426 28.1449 14.0914C28.0571 14.1237 27.9637 14.1374 27.8705 14.1318C27.4016 14.1318 27.1028 13.7865 27.1028 13.3104C27.1028 12.4033 28.1709 11.798 28.9809 11.4111C28.2552 11.0642 27.9983 10.9345 27.4439 10.5024C27.3873 10.4477 27.3428 10.3814 27.3135 10.3079C27.2842 10.2345 27.2708 10.1555 27.2742 10.0764C27.2742 9.86031 27.402 9.68665 27.5729 9.68665C27.6014 9.68507 27.6299 9.68959 27.6566 9.69991C27.6832 9.71024 27.7074 9.72615 27.7275 9.74658C27.7477 9.76702 27.7633 9.79153 27.7734 9.81851C27.7835 9.84548 27.7879 9.87432 27.7862 9.90312C27.7862 10.0323 27.7008 10.0323 27.7008 10.1192C27.6982 10.1367 27.6998 10.1547 27.7053 10.1715C27.7108 10.1884 27.7201 10.2037 27.7326 10.2163C27.745 10.2288 27.7601 10.2383 27.7768 10.2438C27.7935 10.2494 27.8112 10.251 27.8286 10.2484C27.914 10.2484 28.1273 10.1632 28.1273 9.82194C28.1286 9.74986 28.1147 9.67833 28.0867 9.61202C28.0587 9.54572 28.0172 9.48613 27.9649 9.43715C27.9126 9.38817 27.8506 9.35091 27.7831 9.32779C27.7155 9.30468 27.6439 9.29623 27.5729 9.303C27.4795 9.30298 27.387 9.32233 27.3012 9.35983C27.2154 9.39734 27.1381 9.45221 27.074 9.52107C27.01 9.58994 26.9606 9.67133 26.9289 9.76023C26.8972 9.84913 26.8838 9.94367 26.8895 10.038C26.5555 9.75875 26.2417 9.45562 25.9505 9.13096L24.5845 7.61856C24.1999 7.1921 24.4136 6.36663 24.968 6.36663C25.0212 6.36267 25.0747 6.36975 25.1252 6.38743C25.1757 6.40512 25.2221 6.43305 25.2615 6.4695C25.3009 6.50596 25.3325 6.55016 25.3544 6.59942C25.3764 6.64867 25.3881 6.70194 25.3889 6.75594C25.3889 7.14363 25.0043 6.97038 25.0043 7.1824C25.0039 7.20475 25.0082 7.22693 25.0169 7.24746C25.0256 7.26799 25.0386 7.2864 25.0549 7.30146C25.0713 7.31652 25.0906 7.32788 25.1116 7.33479C25.1326 7.3417 25.1549 7.34399 25.1768 7.34152C25.3013 7.3433 25.4231 7.30534 25.5249 7.23305C25.6267 7.16076 25.7034 7.05781 25.744 6.93888C25.7712 6.86013 25.7816 6.77654 25.7748 6.69335C25.763 6.48754 25.6711 6.29481 25.5191 6.15737C25.3672 6.01992 25.1676 5.94894 24.964 5.95996C24.402 5.95996 24.0261 6.38642 24.0261 6.99785L23.598 6.52131C21.7199 4.44715 20.1841 3.53608 18.6851 3.53608C18.2019 3.52799 17.7269 3.66349 17.3191 3.92579C17.1164 3.68013 16.9313 3.42021 16.7651 3.14798C16.5964 3.4204 16.4088 3.68033 16.2035 3.92579C15.7958 3.66349 15.3208 3.52799 14.8375 3.53608C13.3441 3.53608 11.8072 4.44473 9.92471 6.52131L9.50413 6.99785C9.50413 6.39208 9.11949 5.95996 8.5651 5.95996C8.46418 5.95413 8.36311 5.96848 8.26768 6.0022C8.17225 6.03592 8.08435 6.08834 8.00899 6.15647C7.93363 6.2246 7.87231 6.30708 7.82854 6.39921C7.78476 6.49134 7.75939 6.59129 7.75388 6.69335C7.74752 6.77642 7.75829 6.85993 7.78551 6.93858C7.81273 7.01722 7.85582 7.0893 7.91203 7.15023C7.96824 7.21117 8.03635 7.25963 8.11205 7.29256C8.18776 7.32549 8.2694 7.34216 8.35181 7.34152C8.37472 7.34394 8.39788 7.34115 8.41959 7.33335C8.4413 7.32555 8.46102 7.31295 8.47729 7.29646C8.49356 7.27997 8.50598 7.26001 8.51364 7.23804C8.5213 7.21607 8.52401 7.19264 8.52156 7.16948C8.52156 6.95342 8.13812 7.12667 8.13812 6.74302C8.13942 6.66161 8.16539 6.58257 8.21253 6.51656C8.25968 6.45055 8.32572 6.40076 8.40174 6.3739C8.4524 6.35633 8.5061 6.34946 8.5595 6.35371C9.1139 6.35371 9.32718 7.17352 8.94374 7.60563L7.57694 9.11885C7.28576 9.44336 6.97194 9.74634 6.63791 10.0255C6.64612 9.88354 6.61109 9.74247 6.53752 9.62129C6.46396 9.50012 6.35541 9.40467 6.22651 9.34783C6.14102 9.3104 6.04887 9.29103 5.95571 9.29088C5.88412 9.28268 5.81164 9.29007 5.74311 9.31254C5.67458 9.33501 5.61161 9.37205 5.55841 9.42117C5.50522 9.47028 5.46303 9.53034 5.4347 9.59731C5.40636 9.66428 5.39253 9.7366 5.39413 9.80942C5.39413 10.1567 5.60741 10.2359 5.69329 10.2359C5.71068 10.2386 5.72845 10.2371 5.74516 10.2315C5.76187 10.226 5.77706 10.2165 5.7895 10.2039C5.80194 10.1914 5.81128 10.176 5.81677 10.1591C5.82226 10.1422 5.82374 10.1242 5.8211 10.1067C5.8211 10.0198 5.73683 10.0198 5.73683 9.8906C5.73508 9.8618 5.7394 9.83295 5.74949 9.80597C5.75959 9.77898 5.77523 9.75447 5.79539 9.73405C5.81555 9.71363 5.83977 9.69776 5.86644 9.68751C5.89311 9.67725 5.92163 9.67283 5.95011 9.67454C6.12106 9.67454 6.24888 9.84819 6.24888 10.0638C6.25206 10.1431 6.23845 10.2222 6.20897 10.2957C6.17949 10.3693 6.13481 10.4356 6.07793 10.4903C5.56548 11.0093 5.26631 11.0589 4.54057 11.399C5.35219 11.7854 6.41863 12.3936 6.41863 13.2978C6.41863 13.774 6.12106 14.1193 5.65095 14.1193C5.55763 14.125 5.46414 14.1114 5.37625 14.0791C5.28836 14.0469 5.20792 13.9968 5.13992 13.932C5.07191 13.8671 5.01777 13.7889 4.98085 13.702C4.94392 13.6152 4.92498 13.5216 4.92521 13.4271C4.91596 13.313 4.9509 13.1997 5.02266 13.1112C5.09442 13.0227 5.1974 12.9658 5.30985 12.9526C5.39413 12.9526 5.52314 12.9526 5.52314 12.8233C5.52314 12.6937 5.39413 12.6509 5.22437 12.6509C4.80339 12.6509 4.54057 12.9966 4.54057 13.4271C4.53988 13.6611 4.61458 13.889 4.75338 14.0762C4.89217 14.2635 5.08752 14.3999 5.30985 14.465C7.35806 15.0707 8.7672 16.7548 8.7672 18.7433C8.7672 20.2985 8.21281 21.1187 7.36365 22.155C7.15437 22.4004 6.89306 22.5949 6.59917 22.7241C6.30528 22.8533 5.98636 22.9139 5.66613 22.9013C4.85531 22.9013 4.34286 22.4748 4.34286 21.821C4.34286 21.2597 4.76385 20.8259 5.23955 20.8259C5.58065 20.8259 5.92176 20.998 5.92176 21.3861C5.92176 21.7314 5.70847 21.9474 5.96569 21.9474C6.17898 21.9474 6.26445 21.6462 6.26445 21.3449C6.26252 21.1376 6.18889 20.9375 6.05633 20.7794C5.92377 20.6212 5.74064 20.515 5.53871 20.479C5.60846 20.4126 5.66352 20.3321 5.70028 20.2426C5.73704 20.1532 5.75467 20.0569 5.752 19.9601C5.752 19.4856 5.33102 19.2695 5.02626 19.2695C4.76944 19.2695 4.64162 19.3559 4.64162 19.4856C4.64162 19.6148 4.76944 19.572 4.94079 19.572C5.11214 19.572 5.36177 19.6148 5.36177 19.9601C5.35808 20.0935 5.30972 20.2216 5.22461 20.3236C5.1395 20.4256 5.02268 20.4953 4.89326 20.5214C4.61332 20.5959 4.36714 20.7652 4.19592 21.0012C4.0247 21.2372 3.93881 21.5255 3.95263 21.8178C3.95263 22.1207 4.08164 22.3868 4.08164 22.5956C4.08692 22.6387 4.08317 22.6824 4.07062 22.7239C4.05808 22.7654 4.03703 22.8037 4.00884 22.8365C3.98065 22.8692 3.94596 22.8956 3.90703 22.9138C3.8681 22.9321 3.82579 22.9419 3.78288 22.9425C3.36189 22.9425 3.56959 22.4236 3.31276 22.4236C3.18495 22.4236 3.14261 22.5528 3.14261 22.6836C3.14261 23.0293 3.31276 23.3318 3.78288 23.3318C3.9269 23.3365 4.0683 23.2921 4.18436 23.2058C4.30041 23.1194 4.38438 22.9961 4.42274 22.8557C4.72191 23.1569 5.23396 23.2821 5.70287 23.2821C5.90538 23.284 6.10699 23.2547 6.3008 23.1953C4.80738 24.5785 4.46508 25.3135 4.12398 26.0909C4.06661 25.9933 3.98399 25.9134 3.88503 25.8598C3.78607 25.8063 3.67452 25.781 3.5624 25.7868C3.14141 25.7868 2.92253 26.0469 2.92253 26.4362C2.92253 26.5218 2.92253 26.7819 3.13582 26.7819C3.30557 26.7819 3.2213 26.6082 3.2213 26.479C3.22182 26.4358 3.23135 26.3932 3.24926 26.3539C3.26718 26.3147 3.29307 26.2797 3.32526 26.2513C3.35745 26.2228 3.39521 26.2016 3.43607 26.1889C3.47693 26.1762 3.51998 26.1724 3.5624 26.1777C3.9035 26.1777 3.98338 26.479 3.9035 26.9551C3.86855 27.1835 3.85451 27.4147 3.86156 27.6457C3.86156 29.6758 5.35498 31.1458 7.31852 31.1458C7.6045 31.1377 7.88968 31.1091 8.17207 31.059L8.77 31.9677C8.56466 32.0268 8.38342 32.1508 8.25283 32.3215C8.12224 32.4923 8.04915 32.7009 8.04426 32.9167C8.04093 33.1143 8.09683 33.3084 8.20462 33.4733C8.31241 33.6382 8.46704 33.7663 8.64818 33.8407C8.768 33.89 8.89701 33.9142 9.02682 33.9118C9.36912 33.9118 9.62475 33.7381 9.62475 33.5649C9.62691 33.5418 9.624 33.5185 9.61624 33.4967C9.60847 33.4749 9.59603 33.4551 9.57982 33.4387C9.5636 33.4223 9.54401 33.4097 9.52243 33.4018C9.50085 33.394 9.47783 33.391 9.455 33.3932C9.32559 33.3932 9.32559 33.5225 9.03361 33.5225C8.91443 33.5255 8.7972 33.4915 8.69772 33.425C8.59824 33.3586 8.52128 33.2629 8.47723 33.1509C8.44783 33.0765 8.4337 32.9968 8.43569 32.9167C8.43569 32.573 8.73605 32.3129 9.16143 32.3129C9.97264 32.3129 10.3573 33.2636 10.9117 34.213L11.4733 35.1641C12.3703 36.7189 13.8202 37.6263 15.0161 37.6263C15.188 37.6333 15.3601 37.619 15.5285 37.5835C16.0406 38.1025 16.553 39.0519 16.7667 39.484C16.9796 39.0576 17.4909 38.1025 18.0045 37.5835C18.1728 37.6189 18.3448 37.6333 18.5166 37.6263C19.7108 37.6263 21.1627 36.7193 22.0594 35.1641L22.6138 34.213C23.1682 33.264 23.5528 32.3125 24.3644 32.3125C24.7854 32.3125 25.0898 32.573 25.0898 32.9167C25.0917 32.9967 25.0775 33.0762 25.0482 33.1505C25.0188 33.2248 24.9749 33.2923 24.919 33.3489C24.8631 33.4055 24.7964 33.4501 24.723 33.4799C24.6496 33.5098 24.5709 33.5242 24.4918 33.5225C24.1931 33.5225 24.1931 33.3932 24.0709 33.3932C24.0479 33.3908 24.0247 33.3935 24.0029 33.4013C23.9811 33.409 23.9613 33.4216 23.9449 33.438C23.9285 33.4544 23.916 33.4743 23.9081 33.4963C23.9003 33.5182 23.8973 33.5416 23.8995 33.5649C23.8995 33.7385 24.1563 33.9122 24.4974 33.9122C24.6272 33.9144 24.7561 33.8901 24.8765 33.8408C24.9968 33.7915 25.1061 33.7183 25.1978 33.6254C25.2895 33.5325 25.3617 33.4218 25.4102 33.3001C25.4587 33.1783 25.4824 33.0479 25.48 32.9167C25.473 32.7026 25.3992 32.4963 25.2691 32.3273C25.139 32.1583 24.9593 32.0352 24.7559 31.9757L25.3526 31.0675C25.6346 31.1176 25.9198 31.1462 26.2057 31.1543C28.1709 31.1543 29.6647 29.6843 29.6647 27.6546C29.6716 27.4236 29.6574 27.1924 29.6224 26.964C29.5365 26.4875 29.6224 26.1862 29.9635 26.1862C30.0059 26.1808 30.049 26.1845 30.0899 26.1971C30.1308 26.2098 30.1686 26.231 30.2009 26.2595C30.2331 26.2879 30.259 26.3229 30.2768 26.3622C30.2947 26.4015 30.3042 26.4442 30.3046 26.4875C30.3046 26.6167 30.2187 26.7903 30.39 26.7903C30.6033 26.7903 30.6033 26.5303 30.6033 26.4451C30.6033 26.0553 30.39 25.7953 29.9635 25.7953L29.9746 25.7977ZM28.8531 33.2285C26.975 35.173 24.1999 36.5549 21.5541 37.8525C19.8039 38.7167 18.0972 39.5797 16.7731 40.6172C15.4498 39.5793 13.7415 38.7167 11.9925 37.8525C9.34556 36.5549 6.57161 35.173 4.69395 33.2285C2.30743 30.7666 1.14952 28.2531 1.14952 25.4104C1.14952 22.9942 2.09015 20.96 4.22343 18.2381C4.39319 18.02 4.56454 17.8044 4.56454 17.6323C4.56454 17.4603 4.39319 17.1134 4.30891 16.9417L2.81429 13.6565C2.47319 12.9231 2.13209 12.2349 2.13209 11.4971C2.13209 10.8913 2.51673 10.4592 3.02758 10.0271L5.16246 8.0846C5.19968 8.04476 5.22374 7.99423 5.23133 7.93997C5.23891 7.88571 5.22964 7.83041 5.2048 7.78171L4.5226 6.36017C4.43672 6.18652 4.43672 6.05567 4.56454 5.97046C6.65588 4.54892 8.40653 4.11277 10.9245 3.42058C13.3106 2.7724 15.4498 2.21065 16.7735 1.34642C18.0972 2.21065 20.2305 2.76796 22.621 3.42058C25.1389 4.11277 26.8472 4.6301 28.9809 5.97046C29.1087 6.05567 29.1087 6.18652 29.0228 6.36017L28.3406 7.78171C28.3164 7.83067 28.3076 7.88597 28.3155 7.94014C28.3233 7.99431 28.3475 8.04473 28.3846 8.0846L30.5107 10.0259C31.0231 10.4523 31.4062 10.8901 31.4062 11.4959C31.4062 12.2309 31.065 12.9174 30.7239 13.6548L29.2333 16.9401C29.1479 17.1118 28.9765 17.4587 28.9765 17.6307C28.9765 17.8028 29.1478 18.0188 29.3176 18.2365C31.6238 20.8292 32.3915 22.9885 32.3915 25.4088C32.3915 28.2519 31.2392 30.7666 28.8487 33.2272L28.8531 33.2285ZM30.8546 18.3645C30.4711 17.888 30.2582 17.6719 30.2582 17.5003C30.2582 17.3282 30.386 17.0738 30.5139 16.7653L31.7936 13.9137C32.1782 13.0495 32.5193 12.3145 32.5193 11.4091C32.5193 10.7597 32.2637 10.1111 31.6238 9.54975L29.7877 7.95052C29.7144 7.88878 29.6654 7.80247 29.6497 7.7073C29.634 7.61213 29.6527 7.51443 29.7022 7.43198L30.386 5.87677C30.4126 5.82499 30.4185 5.76487 30.4025 5.70882C30.3866 5.65276 30.3499 5.60505 30.3002 5.5755C28.2088 4.15396 25.8187 3.28408 23.5556 2.6355C21.2929 2.03135 18.2625 1.16712 16.7695 0C15.2745 1.16712 12.2441 1.99015 9.98143 2.6355C7.71873 3.28085 5.32942 4.14912 3.24366 5.5751C3.19338 5.60413 3.15631 5.65188 3.14034 5.70816C3.12437 5.76444 3.13078 5.82479 3.15819 5.87637L3.84159 7.43279C3.89169 7.51502 3.91079 7.61276 3.89539 7.70808C3.87998 7.8034 3.8311 7.8899 3.75771 7.95173L1.9212 9.55096C1.28093 10.1196 1.0241 10.7605 1.0241 11.4103C1.0241 12.3157 1.36521 13.0503 1.74985 13.9145L3.02998 16.7661C3.15899 17.069 3.2868 17.3274 3.2868 17.5011C3.2868 17.6747 3.07351 17.8888 2.68887 18.3653C0.769277 20.7819 0 22.7721 0 25.4084C0 29.0802 1.79258 31.8877 3.84159 34.0071C5.93294 36.1664 8.8359 37.592 11.4832 38.8884C13.2335 39.7526 15.068 40.6168 16.7763 42C18.483 40.6168 20.3191 39.7526 22.0694 38.8884C24.7151 37.592 27.6612 36.1664 29.7094 34.0071C31.7584 31.8877 33.551 29.0802 33.551 25.4088C33.551 22.7717 32.7833 20.7848 30.8617 18.3653" fill="white"/>
<path d="M19.724 26.5315C19.5154 27.0277 19.1739 27.4552 18.7378 27.7656C18.3022 28.0757 17.7895 28.2563 17.2576 28.287C15.2661 28.4534 15.2366 26.0598 15.2366 26.0598V20.219H15.2953C15.9367 20.1512 16.5851 20.2077 17.2057 20.3853C18.9995 20.8998 20.284 22.5387 20.2193 24.425C20.1914 25.1531 20.0231 25.8686 19.724 26.5315ZM15.2322 12.1921C15.2322 12.1921 15.6531 11.0638 17.2352 11.1845C18.8169 11.3057 19.6749 12.6186 19.7196 13.9064C19.7643 15.1947 20.1031 18.0475 16.855 19.1916H15.2366L15.2322 12.1921ZM21.1064 22.7991C20.9457 22.1759 20.6716 21.5883 20.298 21.0666C19.4556 19.9181 18.4858 19.5425 18.4439 19.5284C18.6733 19.3969 18.8936 19.2498 19.1033 19.0882C19.7826 18.5653 20.2932 17.8503 20.5704 17.0338C20.9775 15.8704 21.0304 14.6103 20.7221 13.4162C20.02 10.7524 18.1435 10.3542 18.1435 10.3542C18.1435 10.3542 15.9607 9.47827 14.4589 11.4046C14.4421 11.378 13.6265 10.1071 12.1834 10.7738C10.9344 11.47 11.653 12.5717 11.9605 12.7636C11.9605 12.7636 12.3687 13.0382 12.6032 12.7636C12.7746 12.5592 12.6032 12.3476 12.5065 12.205C12.3268 11.9207 12.6244 11.6037 13.0426 11.611C13.406 11.611 14.1318 11.8953 14.1318 12.8904V26.3942C14.1318 26.5064 14.0179 27.2273 13.4188 27.2128C12.8197 27.1986 12.602 26.5646 12.9443 26.2181C12.9216 26.162 12.8849 26.1129 12.8377 26.0755C12.7757 26.0432 11.8551 26.0174 11.9629 27.0056C12.0712 27.9934 13.2407 28.4707 14.3674 27.8496C14.6427 28.3389 15.0431 28.7443 15.5267 29.0232C16.0103 29.3021 16.5592 29.4443 17.1158 29.4347C19.0893 29.4347 20.3271 27.76 20.3271 27.76C20.3271 27.76 21.9108 25.8142 21.1036 22.8177" fill="white"/>
<path d="M12.8253 25.2921C14.266 26.3833 16.0379 26.9327 17.836 26.8457C19.0569 26.7957 20.2392 26.3986 21.247 25.7C24.1635 23.6391 22.8594 20.9653 22.774 20.7246C22.774 20.7246 21.9683 18.8669 19.986 18.1763C19.986 18.1763 18.497 17.6703 16.1332 17.4954C13.7695 17.3206 12.8432 16.2972 13.2039 15.0421C13.5646 13.7869 15.4047 13.2207 16.543 13.1484C18.1643 13.0545 19.7714 13.4984 21.1204 14.4125C21.356 14.6031 21.5749 14.8139 21.7746 15.0433C21.7746 15.0433 22.0973 15.4697 22.3022 15.2508C22.4764 15.059 22.1732 14.7905 22.1732 14.7905C21.8436 14.3876 21.6472 13.8905 21.6117 13.3689C21.579 13.0126 21.5725 12.6544 21.5921 12.2971C21.6065 12.153 21.6328 12.0103 21.6708 11.8707C21.7043 11.7495 21.7323 11.5762 21.5597 11.5468C21.4195 11.5225 21.3508 11.6885 21.3365 11.7144C21.1666 12.0041 20.9105 12.2321 20.6047 12.3658C20.299 12.4996 19.9593 12.5322 19.6341 12.4591C17.7237 12.0399 16.5458 12.0597 16.5458 12.0597C16.5458 12.0597 14.3171 11.9034 12.8249 13.5252C12.495 13.8731 12.251 14.2947 12.1124 14.7559C11.9739 15.217 11.9449 15.7047 12.0276 16.1793C12.3831 17.9926 14.2356 18.6597 16.1432 18.6395C16.8993 18.631 17.6535 18.716 18.3892 18.8927C18.801 18.9884 19.2048 19.1177 19.5962 19.2792C20.0957 19.4804 20.5442 19.7925 20.9085 20.1923C21.2729 20.5921 21.5439 21.0694 21.7015 21.5892C21.9739 22.5516 21.8741 23.8435 20.1422 24.8886C16.9445 26.8214 13.0957 25.0304 11.4828 21.2209C11.4516 21.1585 11.3972 21.111 11.3315 21.0889C11.2658 21.0668 11.1942 21.0719 11.1321 21.103C10.9284 21.1882 11.0411 21.481 11.0411 21.481C11.0411 21.481 11.6402 22.5742 11.5252 23.4356C11.4326 24.0193 11.1278 24.547 10.6704 24.9153C10.5047 25.0687 10.3014 25.2521 10.4599 25.4116C10.6185 25.5707 10.7855 25.4827 11.0211 25.2695H11.0311C11.2948 25.0803 11.6111 24.9806 11.9344 24.9847C12.2577 24.9887 12.5715 25.0964 12.8305 25.2921" fill="white"/>
<path d="M16.543 12.2757V28.1848C16.55 28.7608 16.4262 29.3307 16.1812 29.8507C15.9104 30.4064 15.461 30.9625 14.7437 30.9625C14.7437 30.9625 13.9017 31.0352 13.6293 30.4977C13.305 29.8664 13.8498 29.6205 13.8498 29.6205C13.8498 29.6205 14.2288 29.444 14.0475 29.1472C13.8666 28.85 13.4635 29.005 13.4635 29.005C13.2537 29.0901 13.0628 29.217 12.9025 29.3781C12.7421 29.5393 12.6155 29.7315 12.5301 29.9432C12.2214 30.6741 12.7298 31.8938 14.1094 32.027C14.6515 32.082 15.1984 31.9903 15.6939 31.7612C16.1894 31.5321 16.6158 31.174 16.9293 30.7234C16.9293 30.7234 17.937 31.9317 19.4009 32.128C19.4009 32.128 19.5766 32.1494 19.6269 32.0739C19.6777 31.9987 19.6889 31.8748 19.4544 31.71C19.2199 31.5452 17.8639 30.7549 17.8695 29.3746V11.7483C17.8649 11.2625 17.9816 10.7833 18.2089 10.3552C18.4361 9.92712 18.7666 9.56396 19.1696 9.29937L19.2044 9.27796C19.7485 8.97776 20.3263 8.74482 20.9255 8.58415C20.9255 8.58415 21.261 8.52439 21.3001 8.35679C21.3392 8.18919 21.2426 8.08379 21.0193 8.10802C20.5884 8.14245 20.1637 8.23326 19.756 8.37819C19.154 8.59425 18.4267 9.02919 17.2592 9.0304C16.3581 9.0304 15.1535 8.70935 14.6442 8.56154C14.5169 8.52223 14.3921 8.47475 14.2708 8.41938C14.1529 8.36688 13.99 8.31115 13.8861 8.38102C13.8398 8.41727 13.8079 8.46903 13.7959 8.52699C13.784 8.58495 13.7929 8.64531 13.821 8.69723C13.8464 8.74262 13.8855 8.77868 13.9325 8.80021C14.282 9.02354 14.3786 9.00213 14.7073 9.17417C15.0928 9.37323 15.4372 9.64491 15.7218 9.9746C16.2622 10.6168 16.5536 11.4355 16.5419 12.2785" fill="white"/>
</g>
<defs>
<clipPath id="clip0_12_12668">
<rect width="137" height="42" fill="white"/>
</clipPath>
</defs>
</svg>
