<svg width="114" height="33" viewBox="0 0 114 33" fill="none" xmlns="http://www.w3.org/2000/svg">
<path fill-rule="evenodd" clip-rule="evenodd" d="M29.5862 9.55103C29.606 9.38591 29.6919 9.26042 29.8372 9.16135C29.9362 9.0953 30.1344 9.04247 30.4118 8.99623C31.8648 8.8113 33.1726 8.98302 34.3086 10.119C35.0615 10.8786 35.4182 11.9221 35.3653 12.9392C35.3191 13.963 34.8634 14.9603 34.0047 15.6208C32.6508 16.6577 31.1581 16.6709 29.5532 16.7039V10.2313C29.5532 10.0068 29.5532 9.78219 29.5862 9.55103ZM40.3915 25.5675V25.8647H36.1843L29.5532 17.7541V23.4341C29.5532 25.0193 31.4619 25.5675 32.5979 25.5675V25.8647H32.413C31.1185 25.8581 29.824 25.759 28.5294 25.7524C27.2349 25.7524 25.9404 25.8515 24.6459 25.8647H24.5204H24.4609V25.5675C25.5903 25.5675 27.4991 25.0193 27.5057 23.4407V10.2775C27.5057 8.69242 25.5969 8.14423 24.4609 8.14423V7.84701H28.5559C28.9984 7.84701 29.4475 7.84701 29.8834 7.8338C30.425 7.81399 30.9534 7.80078 31.495 7.80078C33.2782 7.80078 34.7247 8.13762 36.0984 9.47838C36.924 10.2908 37.3864 11.6381 37.3665 12.9392C37.3533 14.1281 36.9372 15.1122 36.0918 15.9246C34.8964 17.0738 33.4499 17.5295 31.8054 17.6352C33.265 19.359 34.6916 21.2744 36.2107 23.0048C37.0759 23.9889 38.8988 25.5741 40.4113 25.5741" fill="white"/>
<path fill-rule="evenodd" clip-rule="evenodd" d="M53.3888 13.7519L54.8815 10.8194C55.2249 12.6621 55.8325 14.4718 56.5326 16.2551C57.4705 18.4346 58.4216 20.6142 59.3462 22.8003C59.7756 23.7844 60.3898 24.7157 61.3211 25.2969C61.7438 25.5083 62.2457 25.6272 62.8533 25.6272V25.9244C61.6051 25.9244 60.3568 25.8187 59.1019 25.8187C57.596 25.8187 56.0835 25.9244 54.5776 25.9244C54.5776 25.8253 54.5776 25.7262 54.5776 25.6272C56.5194 25.6272 58.0187 24.9997 57.1073 22.7937L53.3888 13.7387V13.7519ZM43.2109 25.6338V25.931C44.3536 25.931 45.4962 25.8451 46.6388 25.8253C47.7682 25.8253 48.891 25.931 50.0204 25.931C50.0204 25.8319 50.0204 25.7328 50.0204 25.6338C47.1539 25.6338 47.6361 24.1609 48.356 22.1068C48.924 20.35 49.6307 18.6328 50.3242 16.9221C51.5329 13.9236 52.7547 10.9383 53.9172 7.91992L52.3122 7.94634C51.7772 10.9119 50.3837 14.0227 49.1486 16.9221C48.4154 18.6394 47.722 20.3764 47.0152 22.1002C46.2491 23.9628 45.4896 25.6338 43.2109 25.6338Z" fill="white"/>
<path fill-rule="evenodd" clip-rule="evenodd" d="M104.35 13.7519L105.842 10.8194C106.186 12.6621 106.793 14.4718 107.494 16.2551C108.431 18.4346 109.383 20.6142 110.307 22.8003C110.736 23.7844 111.351 24.7157 112.282 25.2969C112.705 25.5083 113.207 25.6272 113.814 25.6272V25.9244C112.566 25.9244 111.311 25.8187 110.063 25.8187C108.557 25.8187 107.044 25.9244 105.539 25.9244C105.539 25.8253 105.539 25.7262 105.539 25.6272C107.48 25.6272 108.98 24.9997 108.068 22.7937L104.35 13.7387V13.7519ZM94.1719 25.6338V25.931C95.3145 25.931 96.4571 25.8451 97.5997 25.8253C98.7291 25.8253 99.8519 25.931 100.981 25.931V25.6338C98.1149 25.6338 98.597 24.1609 99.3169 22.1068C99.8849 20.35 100.592 18.6328 101.285 16.9221C102.494 13.9236 103.716 10.9383 104.878 7.91992L103.273 7.94634C102.738 10.9119 101.345 14.0227 100.11 16.9221C99.3764 18.6394 98.6829 20.3764 97.9762 22.1002C97.21 23.9628 96.4505 25.6338 94.1719 25.6338Z" fill="white"/>
<path fill-rule="evenodd" clip-rule="evenodd" d="M72.9248 12.4109C73.5127 13.4808 74.1137 14.5508 74.7213 15.6142C75.5799 17.1134 76.4584 18.6061 77.35 20.0921C78.0897 21.3206 78.5653 22.067 78.7766 22.3444C81.0817 18.5995 83.0631 14.6301 85.137 10.7465C85.6455 9.78219 86.0484 8.8047 86.4975 7.8206L87.8383 7.80078C87.8911 8.69242 87.9506 9.59066 88.0166 10.4823C88.3931 14.5904 88.7894 18.7052 89.1592 22.8133C89.3111 24.5107 90.3018 25.6665 92.1181 25.6665V25.9637C90.7642 25.9637 89.6282 25.8515 88.2676 25.8515C86.907 25.8515 85.804 25.9571 84.4303 25.9637V25.6665C85.1766 25.6665 85.9361 25.4486 86.4711 24.9862C87.1712 24.372 87.2042 23.6587 87.125 22.8001C86.7947 19.1279 86.4579 15.3764 86.1277 11.6976C85.8305 12.2193 85.3747 13.0515 84.7341 14.2007C83.5716 16.3076 82.4224 18.4212 81.2732 20.5281C80.4146 22.1132 79.5956 23.6455 78.8229 25.2636C78.6181 25.6929 78.4992 25.9571 78.4464 26.0562C78.3803 25.9241 78.2548 25.6929 78.0699 25.3759C76.2206 22.2057 74.576 18.9033 72.6739 15.7462C71.518 13.8441 70.8245 12.6949 70.6066 12.2854C70.4613 14.247 70.3292 16.2086 70.1839 18.1702C70.0584 19.9072 69.9263 21.5188 69.7744 23.2096C69.6357 24.7683 70.9566 25.6731 72.4361 25.6731V25.9703C71.201 25.9703 70.3358 25.8713 69.1007 25.8647C67.9977 25.8779 66.8881 25.9703 65.7852 25.9703V25.6731C67.4231 25.6731 68.4072 24.7881 68.5591 23.1699C68.7176 21.499 68.8828 19.8874 68.9686 18.1768C69.1337 16.017 69.1932 13.8507 69.3649 11.691C69.3979 11.2683 69.4177 10.872 69.4243 10.5153C69.4574 9.62368 69.4376 8.72544 69.4376 7.8338L70.851 7.81399C70.8972 7.9725 70.9566 8.16404 71.0293 8.382C71.5048 9.86145 72.1587 11.0569 72.9182 12.4307" fill="white"/>
<path fill-rule="evenodd" clip-rule="evenodd" d="M6.625 4.94133L12.6023 0.113281L13.5401 2.00883L6.625 4.94133Z" fill="white"/>
<path fill-rule="evenodd" clip-rule="evenodd" d="M10.0855 7.58864C4.96686 7.58864 0.8125 11.7364 0.8125 16.855C0.8125 21.9737 4.96686 26.1281 10.0855 26.1281C15.2042 26.1281 19.3585 21.9737 19.3585 16.855C19.3585 11.7364 15.2042 7.58203 10.0855 7.58203M10.0855 8.48688C6.24818 8.48688 3.13075 12.2317 3.13075 16.8484C3.13075 21.4651 6.24818 25.21 10.0855 25.21C13.9229 25.21 17.0403 21.4651 17.0403 16.8484C17.0403 12.2317 13.9229 8.48688 10.0855 8.48688Z" fill="white"/>
</svg>
