<svg width="162" height="55" viewBox="0 0 162 55" fill="none" xmlns="http://www.w3.org/2000/svg">
<g clip-path="url(#clip0_12_12561)">
<path d="M53.6685 26.4854H60.0016V28.482H53.6685V35.2305H61.2475V37.2271H51.6719V18.8105H61.2475V20.8071H53.6685V26.4854Z" fill="white"/>
<path d="M73.0201 37.2271H63.8438V18.8105H65.8403V35.2305H73.0201V37.2271Z" fill="white"/>
<path d="M77.1501 18.8105H75.0977V37.2271H77.1501V18.8105Z" fill="white"/>
<path d="M85.8159 20.8071V37.2271H83.8113V20.8071H79.7383V18.8105H89.857V20.8071H85.8159Z" fill="white"/>
<path d="M94.4497 26.4854H100.783V28.482H94.4497V35.2305H102.029V37.2271H92.4531V18.8105H102.029V20.8071H94.4497V26.4854Z" fill="white"/>
<path d="M52.1514 40.9326H51.6562V45.365H52.1514V40.9326Z" fill="white"/>
<path d="M56.5031 45.365H56.0239L54.5065 42.1146V45.365H54.0273V40.9326H54.5065L56.0239 44.1831V40.9326H56.5031V45.365Z" fill="white"/>
<path d="M58.878 40.9326L59.7804 44.8859L60.7148 40.9326H61.21L60.1797 45.365H59.3811L58.3828 40.9326H58.878Z" fill="white"/>
<path d="M63.5651 42.7775H65.0905V43.2646H63.5651V44.8859H65.386V45.365H63.0859V40.9326H65.386V41.4118H63.5651V42.7775Z" fill="white"/>
<path d="M68.6831 41.3477C68.2359 41.3477 67.8286 41.3477 67.8286 41.9467C67.8286 43.1846 69.5616 42.2102 69.5616 44.1429C69.5616 45.4127 68.9387 45.4207 68.1161 45.4207C67.9244 45.4207 67.573 45.3808 67.2695 45.3249L67.3574 44.8697C67.6609 44.9176 67.9564 44.9416 68.148 44.9416C68.6512 44.9416 69.0665 44.9735 69.0665 44.095C69.0665 42.6974 67.3334 43.6877 67.3334 41.8988C67.3334 40.9324 68.0202 40.8525 68.723 40.8525C68.9147 40.8525 69.1942 40.8925 69.362 40.9324L69.2741 41.3876C69.1224 41.3477 68.7071 41.3317 68.6911 41.3317" fill="white"/>
<path d="M72.899 41.4118V45.365H72.4118V41.4118H71.4375V40.9326H73.8733V41.4118H72.899Z" fill="white"/>
<path d="M76.2412 40.9326H75.7461V45.365H76.2412V40.9326Z" fill="white"/>
<path d="M80.9179 45.365H80.4387V42.1865L79.7439 43.8636H79.2168L78.53 42.1945V45.365H78.0508V40.9326H78.53L79.4803 43.2327L80.4387 40.9326H80.9179V45.365Z" fill="white"/>
<path d="M83.2096 42.7775H84.735V43.2646H83.2096V44.8859H85.0305V45.365H82.7305V40.9326H85.0305V41.4118H83.2096V42.7775Z" fill="white"/>
<path d="M89.3939 45.365H88.9067L87.3893 42.1146V45.365H86.9102V40.9326H87.3893L88.9067 44.1831V40.9326H89.3939V45.365Z" fill="white"/>
<path d="M92.7232 41.4118V45.365H92.244V41.4118H91.2617V40.9326H93.6976V41.4118H92.7232Z" fill="white"/>
<path d="M97.4008 43.1523C97.4008 41.6748 97.305 41.3473 96.5942 41.3473C95.8834 41.3473 95.7876 41.6828 95.7876 43.1443C95.7876 44.6217 95.8834 44.9412 96.5942 44.9412C97.305 44.9412 97.4008 44.6138 97.4008 43.1443M97.872 43.1443C97.872 44.8374 97.7123 45.4284 96.5942 45.4284C95.4761 45.4284 95.3164 44.8374 95.3164 43.1523C95.3164 41.4592 95.4681 40.8682 96.5942 40.8682C97.7203 40.8682 97.872 41.4592 97.872 43.1443Z" fill="white"/>
<path d="M101.164 41.3477C100.716 41.3477 100.309 41.3477 100.309 41.9467C100.309 43.1846 102.042 42.2102 102.042 44.1429C102.042 45.4127 101.419 45.4207 100.597 45.4207C100.405 45.4207 100.053 45.3808 99.75 45.3249L99.8379 44.8697C100.141 44.9176 100.437 44.9416 100.628 44.9416C101.132 44.9416 101.547 44.9735 101.547 44.095C101.547 42.6974 99.8139 43.6877 99.8139 41.8988C99.8139 40.9324 100.501 40.8525 101.204 40.8525C101.395 40.8525 101.675 40.8925 101.842 40.9324L101.755 41.3876C101.603 41.3477 101.188 41.3317 101.172 41.3317" fill="white"/>
<g clip-path="url(#clip1_12_12561)">
<path d="M29.0352 18.1388L43.8761 18.1201L36.0543 30.8703L29.0352 18.1388Z" fill="#7E7E7E"/>
<path d="M-0.179688 9.57016H15.7067C14.3439 9.57016 24.9473 9.02879 28.7182 16.1226C32.4892 23.2164 42.7005 43.5458 42.7005 43.5458H26.3847C24.3126 43.5458 17.6295 43.9938 13.1679 35.5372C7.04479 24.0005 -0.179688 9.57016 -0.179688 9.57016Z" fill="white"/>
</g>
</g>
<defs>
<clipPath id="clip0_12_12561">
<rect width="161" height="55" fill="white" transform="translate(0.0429688)"/>
</clipPath>
<clipPath id="clip1_12_12561">
<rect width="44.0563" height="33.9943" fill="white" transform="translate(-0.179688 9.57031)"/>
</clipPath>
</defs>
</svg>
