<svg width="108" height="45" viewBox="0 0 108 45" fill="none" xmlns="http://www.w3.org/2000/svg">
<path d="M2.79676 20.8194V22.9256C2.80423 22.9752 2.79995 23.0259 2.78423 23.0735C2.76852 23.1211 2.74183 23.1643 2.70632 23.1997C2.6708 23.2351 2.62746 23.2617 2.57979 23.2772C2.53212 23.2927 2.48147 23.2969 2.43192 23.2892H0.657381C0.608016 23.2823 0.557715 23.2869 0.51042 23.3026C0.463125 23.3184 0.420122 23.3449 0.38478 23.38C0.349439 23.4152 0.322719 23.458 0.306716 23.5052C0.290713 23.5525 0.285861 23.6027 0.292541 23.6521V26.2939C0.285174 26.3434 0.289546 26.394 0.305307 26.4415C0.321067 26.489 0.347774 26.5322 0.383275 26.5675C0.418776 26.6028 0.462077 26.6293 0.509689 26.6448C0.557301 26.6603 0.60789 26.6644 0.657381 26.6568H2.43255C2.48203 26.6497 2.53247 26.6542 2.5799 26.67C2.62733 26.6857 2.67046 26.7123 2.70589 26.7475C2.74132 26.7828 2.76809 26.8258 2.78408 26.8731C2.80006 26.9204 2.80484 26.9709 2.79803 27.0204V43.8546C2.78707 43.9291 2.80277 44.0051 2.84238 44.0692C2.88199 44.1332 2.94295 44.1813 3.01451 44.2048C3.06225 44.2207 3.11305 44.2253 3.16287 44.2181H6.32354C6.37291 44.2251 6.42321 44.2205 6.4705 44.2047C6.5178 44.189 6.5608 44.1625 6.59614 44.1273C6.63148 44.0922 6.6582 44.0493 6.6742 44.0021C6.69021 43.9549 6.69506 43.9046 6.68838 43.8552V27.0236C6.67729 26.949 6.69294 26.873 6.73256 26.8089C6.77219 26.7448 6.83323 26.6968 6.90487 26.6734C6.95265 26.6576 7.00345 26.6533 7.05322 26.6606H10.1413C10.216 26.6713 10.2921 26.6555 10.3564 26.616C10.4208 26.5764 10.4692 26.5156 10.4934 26.4441C10.5091 26.3968 10.5134 26.3464 10.5061 26.2971V23.6521C10.5136 23.6026 10.5093 23.552 10.4936 23.5045C10.478 23.4569 10.4513 23.4137 10.4159 23.3783C10.3805 23.343 10.3372 23.3164 10.2896 23.3008C10.242 23.2852 10.1914 23.281 10.1419 23.2886H7.05322C7.00386 23.2955 6.95355 23.2909 6.90626 23.2752C6.85897 23.2594 6.81596 23.2329 6.78062 23.1978C6.74528 23.1626 6.71856 23.1197 6.70256 23.0725C6.68655 23.0253 6.6817 22.975 6.68838 22.9256V20.0432C6.68838 19.0499 7.10225 18.226 8.36613 18.226C8.76106 18.2245 9.15456 18.2735 9.53706 18.3718C9.58269 18.3948 9.63316 18.4065 9.68424 18.4061C9.73533 18.4056 9.78558 18.393 9.83079 18.3692C9.876 18.3454 9.91488 18.3111 9.9442 18.2693C9.97351 18.2275 9.99241 18.1792 9.99932 18.1286L10.5851 15.7072C10.6016 15.6611 10.6084 15.6122 10.605 15.5634C10.6016 15.5146 10.5881 15.4671 10.5654 15.4238C10.5426 15.3805 10.5111 15.3424 10.4729 15.3119C10.4346 15.2815 10.3904 15.2593 10.3431 15.2468C9.57477 14.9883 8.76932 14.8571 7.95863 14.8584C4.18289 14.8603 2.79803 16.7724 2.79803 20.8181L2.79676 20.8194ZM22.6987 35.0055V35.9249C22.6987 38.5412 21.1667 41.2307 17.349 41.2307C14.0667 41.2307 13.1912 40.0432 13.1912 38.1795C13.1912 36.6514 13.8464 34.6425 17.3254 34.6425H22.3338C22.4084 34.634 22.4837 34.6517 22.5466 34.6926C22.6096 34.7335 22.6564 34.7951 22.6789 34.8667C22.6936 34.914 22.6971 34.9642 22.6891 35.0131L22.6987 35.0055ZM68.1018 22.8951C67.3179 22.8833 66.541 23.0443 65.8263 23.3668C65.1117 23.6892 64.4769 24.1651 63.967 24.7607C63.7976 25.0013 63.6276 24.881 63.6276 24.541V23.6451C63.6384 23.5705 63.6224 23.4944 63.5826 23.4303C63.5427 23.3663 63.4816 23.3183 63.4098 23.2949C63.3625 23.2792 63.3122 23.2747 63.2628 23.2816H60.1021C60.0272 23.2709 59.951 23.2868 59.8865 23.3263C59.822 23.3658 59.7733 23.4265 59.7487 23.498C59.733 23.5452 59.7284 23.5953 59.7353 23.6445V43.8559C59.7282 43.9055 59.7328 43.9562 59.7488 44.0038C59.7647 44.0514 59.7916 44.0946 59.8272 44.1299C59.8629 44.1652 59.9063 44.1917 59.954 44.2073C60.0018 44.2228 60.0525 44.227 60.1021 44.2194H63.2628C63.3115 44.2246 63.3608 44.2187 63.4069 44.202C63.453 44.1853 63.4947 44.1583 63.5287 44.123C63.5628 44.0878 63.5884 44.0452 63.6036 43.9986C63.6187 43.952 63.623 43.9025 63.6161 43.8539V30.6777C63.6161 27.8678 64.7336 26.2939 67.1652 26.2939C67.8942 26.2851 68.6214 26.3659 69.3307 26.5346C69.5726 26.5829 69.721 26.511 69.7681 26.2684L70.3768 23.6292C70.3923 23.583 70.3974 23.5339 70.3918 23.4855C70.3862 23.4371 70.37 23.3905 70.3443 23.3491C70.3187 23.3076 70.2844 23.2721 70.2439 23.245C70.2034 23.2179 70.1575 23.1997 70.1094 23.1918C69.4547 22.9966 68.7748 22.8992 68.0916 22.9027L68.1018 22.8951ZM48.5928 26.2939C52.2412 26.2939 53.2376 28.8376 53.2376 33.6785C53.2376 38.5195 52.2405 41.2364 48.5921 41.2364C44.9437 41.2364 43.6321 38.5157 43.6321 33.6785C43.6321 28.8414 44.9424 26.2939 48.5928 26.2939ZM34.1201 19.2505H30.9576C30.8829 19.24 30.807 19.2559 30.7428 19.2954C30.6786 19.3349 30.6303 19.3956 30.6061 19.467C30.5904 19.5143 30.5861 19.5647 30.5933 19.6141V22.9314C30.6045 23.0061 30.5887 23.0823 30.5488 23.1465C30.5089 23.2106 30.4475 23.2585 30.3756 23.2816C30.3281 23.2974 30.2775 23.302 30.2279 23.2949H28.843C28.7936 23.288 28.7433 23.2926 28.696 23.3083C28.6488 23.3241 28.6057 23.3506 28.5704 23.3857C28.5351 23.4209 28.5083 23.4638 28.4923 23.511C28.4763 23.5582 28.4715 23.6085 28.4782 23.6579V26.2996C28.4671 26.3741 28.4827 26.4502 28.5224 26.5143C28.562 26.5784 28.623 26.6264 28.6947 26.6498C28.7424 26.6655 28.7932 26.6699 28.843 26.6625H30.2279C30.3026 26.6521 30.3786 26.668 30.4428 26.7075C30.5071 26.747 30.5556 26.8077 30.58 26.879C30.5957 26.9264 30.6 26.9768 30.5927 27.0261V38.5488C30.5927 42.8613 32.6614 44.5734 36.1143 44.5734C37.5234 44.5734 37.9137 44.4525 38.2607 44.3073C38.3444 44.2775 38.416 44.2209 38.4644 44.1463C38.5127 44.0717 38.5351 43.9833 38.5281 43.8947V41.3102C38.5281 41.0441 38.3836 40.9473 38.1143 41.0205C37.6263 41.1693 37.1185 41.2428 36.6084 41.2383C35.1975 41.2383 34.4913 40.6551 34.4913 38.906V27.0248C34.4801 26.9501 34.4958 26.8738 34.5355 26.8096C34.5753 26.7453 34.6366 26.6973 34.7085 26.674C34.756 26.6584 34.8066 26.654 34.8562 26.6613H38.3581C38.4061 26.6682 38.4549 26.6654 38.5017 26.6533C38.5486 26.6411 38.5926 26.6197 38.6311 26.5904C38.6696 26.5611 38.7019 26.5243 38.7261 26.4824C38.7503 26.4405 38.7659 26.3941 38.772 26.3461L39.3323 23.6821C39.4043 23.4388 39.2833 23.2937 39.0159 23.2937H34.8492C34.7997 23.3006 34.7493 23.296 34.7019 23.2802C34.6544 23.2644 34.6114 23.2378 34.576 23.2025C34.5406 23.1672 34.5139 23.1241 34.498 23.0768C34.4821 23.0294 34.4774 22.979 34.4843 22.9295V19.6083C34.4938 19.5346 34.4772 19.4599 34.4374 19.3972C34.3977 19.3344 34.3372 19.2875 34.2666 19.2645C34.2198 19.249 34.1702 19.2445 34.1214 19.2511L34.1201 19.2505ZM19.8927 23.2949H14.0571C14.0078 23.288 13.9575 23.2926 13.9102 23.3083C13.8629 23.3241 13.8199 23.3506 13.7845 23.3857C13.7492 23.4209 13.7225 23.4638 13.7065 23.511C13.6905 23.5582 13.6856 23.6085 13.6923 23.6579V26.2996C13.6812 26.3741 13.6968 26.4502 13.7365 26.5143C13.7761 26.5784 13.8371 26.6264 13.9088 26.6498C13.9566 26.6655 14.0074 26.6699 14.0571 26.6625H19.1146C21.5456 26.6625 22.6891 27.4871 22.6891 29.7392V31.3373C22.6965 31.3869 22.6921 31.4374 22.6764 31.485C22.6606 31.5325 22.6339 31.5756 22.5984 31.611C22.5629 31.6463 22.5196 31.6728 22.472 31.6883C22.4244 31.7038 22.3738 31.7079 22.3243 31.7003L17.023 31.6767C12.5233 31.6767 9.19323 33.3481 9.19323 38.0706C9.19323 42.7467 12.8652 44.5868 16.1952 44.5868C18.7319 44.5868 21.0598 43.81 22.2753 42.4493C22.5191 42.2061 22.6891 42.2545 22.6891 42.5945V43.8539C22.6818 43.9035 22.6862 43.9541 22.7019 44.0016C22.7177 44.0492 22.7444 44.0924 22.7799 44.1277C22.8154 44.1631 22.8586 44.1896 22.9062 44.2052C22.9538 44.2208 23.0044 44.225 23.054 44.2175H26.2165C26.2659 44.2244 26.3162 44.2199 26.3635 44.2041C26.4108 44.1884 26.4538 44.1619 26.4891 44.1267C26.5245 44.0915 26.5512 44.0487 26.5672 44.0015C26.5832 43.9543 26.5881 43.904 26.5814 43.8546V29.247C26.5814 25.1287 24.2032 23.2886 19.8927 23.2886V23.2949ZM48.5883 22.9065C42.4853 22.9295 39.7379 26.418 39.7379 33.6843C39.7379 40.9505 42.5102 44.5849 48.5883 44.5849C54.6658 44.5849 57.1241 40.9505 57.1241 33.6843C57.1241 26.418 54.6677 22.9027 48.5921 22.9027L48.5883 22.9065Z" fill="white"/>
<path fill-rule="evenodd" clip-rule="evenodd" d="M95.1201 0C94.9976 0.00443548 94.8796 0.0471932 94.7826 0.12225L91.126 2.76463C90.9612 2.88813 90.8482 3.06845 90.8089 3.2706C90.7696 3.47274 90.8068 3.68228 90.9133 3.85852L94.8158 10.0646C94.9074 10.2085 95.0106 10.2919 95.1099 10.2919C95.2099 10.2919 95.3054 10.1907 95.3856 10.0137L96.9131 6.22456C97.0857 5.71801 97.1047 5.17176 96.9679 4.65441L95.5747 0.378848C95.5511 0.274498 95.4938 0.18083 95.4116 0.112343C95.3295 0.0438566 95.227 0.00437135 95.1201 0ZM89.7328 4.06736C89.5733 3.55605 89.2666 3.10313 88.851 2.76527L85.1981 0.12225C85.1012 0.0471932 84.9832 0.00443548 84.8607 0C84.7545 0.00529425 84.653 0.0449142 84.5714 0.112896C84.4897 0.180877 84.4324 0.273541 84.408 0.376938L83.0167 4.65187C82.9553 4.8487 82.9697 5.0614 83.0571 5.24816C83.1445 5.43491 83.2986 5.5822 83.4892 5.66107L90.3008 8.39896C90.4956 8.47536 90.6382 8.46709 90.7064 8.38177C90.7356 8.32763 90.753 8.2679 90.7574 8.20654C90.7618 8.14518 90.753 8.08359 90.7318 8.02584L89.7328 4.06736ZM76.1669 6.65944L77.562 10.935C77.6186 11.0999 77.7254 11.2429 77.8675 11.3439C78.0096 11.445 78.1797 11.4991 78.354 11.4985C78.4196 11.4991 78.4852 11.4921 78.5489 11.4756L85.6629 9.69914C85.8387 9.65648 85.9514 9.57498 85.9749 9.47947C85.9985 9.38396 85.9284 9.26171 85.7896 9.14519L82.6442 6.38183C82.2953 6.09021 81.6159 5.70182 81.1613 5.70182H76.6546C76.4592 5.70182 76.3051 5.91321 76.2153 6.038C76.1238 6.23228 76.1065 6.45334 76.1669 6.65944ZM82.8047 13.1139C82.7652 13.0222 82.6404 12.9623 82.459 12.9502L78.3738 12.6726H78.2757C77.7722 12.6874 77.2821 12.8386 76.8577 13.11L73.2068 15.7524C73.1361 15.7974 73.0772 15.8587 73.0351 15.9312C72.993 16.0036 72.9689 16.0851 72.9648 16.1688C72.9694 16.2518 72.9937 16.3325 73.0358 16.4042C73.0779 16.4759 73.1365 16.5364 73.2068 16.5808L76.8577 19.2257C77.0272 19.3437 77.2342 19.3948 77.4391 19.3693C77.644 19.3438 77.8322 19.2435 77.9675 19.0876L82.6818 13.4787C82.8009 13.3354 82.8435 13.2049 82.8047 13.1139ZM82.4946 18.2484C82.5145 18.1312 82.487 18.011 82.4182 17.9141C82.4002 17.8957 82.3786 17.8813 82.3547 17.8718C82.3307 17.8624 82.3051 17.8581 82.2794 17.8593C82.1806 17.8662 82.0854 17.8998 82.0043 17.9567L78.5336 20.1254C78.0934 20.4327 77.754 20.8634 77.5581 21.3632L76.1631 25.6388C76.1327 25.7182 76.1212 25.8037 76.1296 25.8883C76.138 25.973 76.166 26.0546 76.2115 26.1265C76.2632 26.193 76.33 26.2462 76.4064 26.2816C76.4829 26.3171 76.5666 26.3337 76.6508 26.3302H81.1753C81.3834 26.3243 81.5819 26.2417 81.7328 26.0983C81.8837 25.955 81.9763 25.7609 81.9929 25.5534L82.4946 18.2484ZM85.165 22.2317C85.0733 22.0884 84.9702 22.0044 84.8728 22.0044C84.7747 22.0044 84.6677 22.1075 84.5958 22.2845L83.0696 26.0743C82.8963 26.5808 82.8779 27.1274 83.0167 27.6444L84.408 31.92C84.4318 32.0237 84.489 32.1167 84.5708 32.1848C84.6525 32.2529 84.7544 32.2923 84.8607 32.2969C84.9832 32.2925 85.1012 32.2497 85.1981 32.1747L88.851 29.5317C89.0158 29.4082 89.1288 29.2278 89.1681 29.0257C89.2074 28.8235 89.1702 28.614 89.0636 28.4378L85.165 22.2317ZM90.2479 28.2296C90.4071 28.7402 90.714 29.1936 91.1298 29.5317L94.7826 32.174C94.88 32.2497 94.9988 32.2927 95.122 32.2969C95.228 32.2918 95.3294 32.2523 95.4108 32.1842C95.4921 32.1162 95.5491 32.0234 95.5728 31.92L96.9679 27.6444C97.0281 27.4472 97.0129 27.2346 96.9252 27.0479C96.8376 26.8612 96.6837 26.7136 96.4935 26.6339L89.6781 23.8961C89.605 23.8636 89.5262 23.8457 89.4463 23.8432C89.4139 23.8399 89.3812 23.8447 89.3512 23.8573C89.3212 23.8699 89.2948 23.8898 89.2744 23.9152C89.2449 23.9687 89.2272 24.0279 89.2225 24.0889C89.2177 24.1498 89.2261 24.2111 89.247 24.2685L90.2479 28.2289V28.2296ZM103.808 25.6388L102.413 21.3632C102.357 21.2005 102.252 21.059 102.112 20.9582C101.973 20.8574 101.805 20.802 101.633 20.7997C101.567 20.7997 101.502 20.808 101.438 20.8233L94.3064 22.5997C94.1307 22.6424 94.0154 22.7239 93.9944 22.8187C93.9727 22.9142 94.039 23.0365 94.1778 23.153L97.3251 25.7827C97.7542 26.1074 98.27 26.2978 98.8073 26.3302H103.322C103.406 26.3336 103.49 26.3169 103.567 26.2814C103.643 26.246 103.71 26.1929 103.762 26.1265C103.807 26.0543 103.834 25.9727 103.842 25.8881C103.85 25.8035 103.839 25.7181 103.808 25.6388ZM97.1608 19.2136C97.1977 19.3034 97.3263 19.3639 97.5059 19.3754L101.603 19.6555H101.701C102.205 19.6404 102.695 19.4893 103.119 19.2181L106.772 16.5732C106.843 16.5291 106.901 16.4686 106.944 16.3969C106.986 16.3251 107.01 16.2443 107.014 16.1612C107.009 16.079 106.985 15.9991 106.943 15.9281C106.902 15.8571 106.844 15.7971 106.774 15.7531L103.121 13.1119C102.983 13.0121 102.816 12.959 102.645 12.9604C102.525 12.9592 102.406 12.984 102.296 13.0333C102.186 13.0825 102.089 13.155 102.009 13.2457L97.2818 18.8622C97.1742 18.9908 97.1219 19.1226 97.1608 19.2136ZM101.492 12.1441C101.904 11.8537 102.22 11.4478 102.402 10.9777L103.828 6.61869C103.884 6.42542 103.868 6.21841 103.783 6.03609C103.701 5.92148 103.555 5.71328 103.375 5.71328H98.759C98.3686 5.71328 98.0229 6.17363 97.9955 6.56457L97.4804 14.0428C97.4632 14.1622 97.4882 14.2838 97.5511 14.3867C97.625 14.4663 97.7676 14.4663 97.9414 14.365L101.492 12.1441Z" fill="white"/>
</svg>
