<svg width="109" height="55" viewBox="0 0 109 55" fill="none" xmlns="http://www.w3.org/2000/svg">
<path fill-rule="evenodd" clip-rule="evenodd" d="M103.555 35.4988C103.555 35.7474 103.762 35.9491 104.017 35.9491H107.775C108.03 35.9491 108.236 35.7474 108.236 35.4988V9.10077C108.236 8.85203 108.03 8.65039 107.775 8.65039H104.017C103.762 8.65039 103.555 8.85203 103.555 9.10077V35.4988ZM34.5049 32.2552C36.3725 32.2552 38.3131 31.5741 39.6746 30.3622C39.7963 30.2538 39.9653 30.2092 40.1243 30.2514L43.4118 31.1243C43.698 31.2003 43.8376 31.5168 43.6776 31.7607C41.8312 34.5757 37.996 36.2538 34.5049 36.2538C28.6095 36.2538 24.0531 31.5815 24.0531 26.0479C24.0531 20.2898 28.8003 15.8039 34.5049 15.8039C39.5565 15.8039 43.8072 19.3921 44.7262 24.1032L44.7273 24.1083C44.9599 25.1471 45.0471 26.2352 44.8688 27.3269C44.8346 27.5369 44.6449 27.6854 44.4271 27.6854H28.8891C28.7651 27.6854 28.6726 27.7968 28.6982 27.9151C29.3053 30.7212 31.6596 32.2552 34.5049 32.2552ZM28.6994 24.061C28.6699 24.1808 28.7628 24.2961 28.8891 24.2961H40.0039C40.13 24.2961 40.223 24.1808 40.1934 24.061C39.6276 21.7721 37.5253 19.8025 34.4659 19.8025C31.4081 19.8025 29.2656 21.7704 28.6994 24.061ZM67.0069 23.6867V35.4988C67.0069 35.7474 66.8004 35.9491 66.5457 35.9491H62.7882C62.5335 35.9491 62.327 35.7474 62.327 35.4988V24.9816C62.327 21.9462 60.1358 20.031 57.569 20.031C54.3569 20.031 52.2651 22.578 52.2651 25.7432V35.4988C52.2651 35.7474 52.0586 35.9491 51.8039 35.9491H48.0465C47.7918 35.9491 47.5853 35.7474 47.5853 35.4988V16.597C47.5853 16.3483 47.7918 16.1466 48.0465 16.1466H51.8039C52.0586 16.1466 52.2651 16.3483 52.2651 16.597V17.8487C52.2651 18.0247 52.4887 18.1065 52.6072 17.9738C53.4566 17.0225 55.8748 15.8039 58.583 15.8039C62.9823 15.8039 67.0069 18.7474 67.0069 23.6867ZM95.0704 35.4988C95.0704 35.7474 95.2768 35.9491 95.5315 35.9491H99.289C99.5437 35.9491 99.7499 35.7474 99.7499 35.4988V16.597C99.7499 16.3483 99.5437 16.1466 99.289 16.1466H95.5315C95.2768 16.1466 95.0704 16.3483 95.0704 16.597V17.9409C95.0704 18.1129 94.8552 18.1967 94.7339 18.072C93.2868 16.5846 91.2312 15.8039 88.6745 15.8039C83.1718 15.8039 78.6125 20.2828 78.6125 26.0479C78.6125 31.5863 83.1737 36.2538 88.6745 36.2538C91.2335 36.2538 93.2895 35.6645 94.7356 34.2152C94.8577 34.0928 95.0704 34.1773 95.0704 34.3481V35.4988ZM89.1814 32.1409C85.6369 32.1409 82.9805 29.347 82.9805 26.0479C82.9805 22.7503 85.6353 19.9167 89.1814 19.9167C92.6081 19.9167 95.3823 22.7478 95.3823 26.0479C95.3823 29.3502 92.5666 32.1409 89.1814 32.1409ZM75.371 16.597C75.371 16.3483 75.1645 16.1466 74.9098 16.1466H71.1524C70.8977 16.1466 70.6912 16.3483 70.6912 16.597V35.4988C70.6912 35.7474 70.8977 35.9491 71.1524 35.9491H74.9098C75.1645 35.9491 75.371 35.7474 75.371 35.4988V16.597ZM15.0551 35.491C15.1212 35.4632 15.1978 35.4741 15.2531 35.5192C16.2218 36.3106 16.8262 37.3771 16.8262 38.5602C16.8262 39.8149 16.1467 40.938 15.0737 41.7414C14.0011 42.5447 12.5274 43.0363 10.9073 43.0363C9.28734 43.0363 7.81367 42.5447 6.74098 41.7414C5.66809 40.938 4.98856 39.8149 4.98856 38.5602C4.98856 38.4606 4.90779 38.377 4.80577 38.377H0.599624C0.493367 38.377 0.40625 38.4598 0.40625 38.5636C0.40625 43.3788 5.07908 47.3292 10.9073 47.3292C16.7356 47.3292 21.4085 43.3788 21.4085 38.5636C21.4085 36.4202 20.4863 34.4529 18.9476 32.9256C18.8785 32.8569 18.8742 32.7482 18.9378 32.6745C20.4795 30.8892 21.4085 28.5831 21.4085 26.0645C21.4085 20.3993 16.7069 15.8069 10.9073 15.8069C5.10776 15.8069 0.40625 20.3993 0.40625 26.0645C0.40625 31.7297 5.10776 36.3222 10.9073 36.3222C12.3809 36.3222 13.783 36.0259 15.0551 35.491ZM17.208 26.0645C17.208 29.4636 14.3871 32.2191 10.9073 32.2191C7.4276 32.2191 4.60669 29.4636 4.60669 26.0645C4.60669 22.6654 7.4276 19.9099 10.9073 19.9099C14.3871 19.9099 17.208 22.6654 17.208 26.0645Z" fill="white"/>
<path fill-rule="evenodd" clip-rule="evenodd" d="M17.1757 8.65039C16.1596 8.65039 15.3359 9.45903 15.3359 10.4565V10.7001C15.3359 11.6976 16.1596 12.5062 17.1757 12.5062H20.6074V15.875C20.6074 16.8725 21.4312 17.6811 22.4473 17.6811H22.6954C23.7115 17.6811 24.5353 16.8725 24.5353 15.875V12.5062V10.4565C24.5353 9.48316 23.7509 8.68963 22.7688 8.6518C22.7536 8.65122 22.7383 8.65081 22.723 8.65059C22.7138 8.65046 22.7046 8.65039 22.6954 8.65039H20.6074H17.1757Z" fill="white"/>
<path d="M26.9375 47.3293V41.2695H27.8734V47.3293H26.9375Z" fill="white"/>
<path d="M34.3201 47.3293V43.7708C34.3201 43.2379 34.1575 42.8081 33.8324 42.4815C33.5161 42.1463 33.0944 41.9787 32.5672 41.9787C32.2069 41.9787 31.8905 42.0561 31.6182 42.2107C31.3457 42.3655 31.1305 42.576 30.9723 42.8425C30.8142 43.109 30.7351 43.4141 30.7351 43.7579L30.3134 43.5258C30.3134 43.0703 30.4232 42.662 30.6428 42.301C30.8625 41.94 31.1569 41.6564 31.526 41.4501C31.9037 41.2438 32.3343 41.1406 32.8176 41.1406C33.2921 41.1406 33.7138 41.2524 34.0828 41.4758C34.4519 41.6994 34.7375 42.0002 34.9396 42.3784C35.1504 42.7566 35.2559 43.1691 35.2559 43.6161V47.3293H34.3201ZM29.8125 47.3293V41.2696H30.7351V47.3293H29.8125Z" fill="white"/>
<path d="M39.2077 47.3293L36.3477 41.2695H37.3758L39.7878 46.5685H39.2077L41.6329 41.2695H42.6346L39.7482 47.3293H39.2077Z" fill="white"/>
<path d="M46.4601 47.4582C45.8363 47.4582 45.2783 47.3207 44.7862 47.0456C44.2942 46.7706 43.9031 46.3924 43.6132 45.9111C43.332 45.4297 43.1914 44.8882 43.1914 44.2866C43.1914 43.6935 43.332 43.1606 43.6132 42.6878C43.8944 42.2065 44.2766 41.8283 44.7599 41.5532C45.2432 41.2782 45.7835 41.1406 46.3811 41.1406C46.9434 41.1406 47.4398 41.2653 47.8704 41.5145C48.3097 41.7638 48.6524 42.1119 48.8985 42.5589C49.1533 42.9973 49.2807 43.5044 49.2807 44.0802C49.2807 44.149 49.2763 44.2307 49.2675 44.3252C49.2587 44.4111 49.2411 44.5143 49.2148 44.6347H43.8505V43.861H48.7139L48.3844 44.1447C48.3932 43.6978 48.3141 43.3152 48.1472 42.9973C47.989 42.6706 47.7562 42.4214 47.4487 42.2495C47.1499 42.0689 46.7852 41.9787 46.3547 41.9787C45.9066 41.9787 45.5155 42.0733 45.1817 42.2624C44.8477 42.4515 44.5841 42.7179 44.3908 43.0617C44.2063 43.3969 44.1141 43.7966 44.1141 44.2608C44.1141 44.7249 44.2107 45.1332 44.404 45.4855C44.6061 45.838 44.8828 46.1131 45.2343 46.3107C45.5947 46.5084 46.0075 46.6073 46.4733 46.6073C46.8511 46.6073 47.1982 46.5428 47.5145 46.4138C47.8309 46.2763 48.0989 46.0744 48.3186 45.8079L48.9117 46.401C48.6217 46.7362 48.2614 46.9984 47.8309 47.1875C47.4091 47.3679 46.9522 47.4582 46.4601 47.4582Z" fill="white"/>
<path d="M52.6547 47.4582C52.3207 47.4582 52.0001 47.4153 51.6925 47.3293C51.385 47.2347 51.1038 47.1058 50.849 46.9425C50.6029 46.7792 50.3877 46.5857 50.2031 46.3623L50.7962 45.7692C51.0423 46.0614 51.3191 46.2806 51.6266 46.4267C51.943 46.5643 52.2945 46.6331 52.6811 46.6331C53.0941 46.6331 53.4147 46.5557 53.6432 46.401C53.8805 46.2463 53.9991 46.0314 53.9991 45.7563C53.9991 45.4984 53.9156 45.2964 53.7486 45.1503C53.5817 45.0042 53.3664 44.8882 53.1028 44.8022C52.848 44.7163 52.5756 44.6347 52.2856 44.5573C51.9956 44.4713 51.7189 44.3682 51.4553 44.2479C51.1917 44.1189 50.9764 43.9427 50.8094 43.7192C50.6513 43.4958 50.5722 43.2035 50.5722 42.8425C50.5722 42.4987 50.6557 42.2022 50.8226 41.9529C50.9984 41.6951 51.2444 41.4974 51.5607 41.3598C51.8858 41.2137 52.2681 41.1406 52.7073 41.1406C53.1731 41.1406 53.5948 41.2223 53.9727 41.3856C54.3505 41.5489 54.6537 41.7896 54.8821 42.1076L54.289 42.6878C54.1045 42.4557 53.8716 42.2795 53.5905 42.1592C53.3181 42.0303 53.0105 41.9658 52.6679 41.9658C52.2724 41.9658 51.9693 42.0432 51.7584 42.1978C51.5564 42.344 51.4553 42.5374 51.4553 42.778C51.4553 43.0101 51.5388 43.1949 51.7057 43.3325C51.8726 43.4614 52.0835 43.5688 52.3384 43.6548C52.6019 43.7321 52.8787 43.8138 53.1687 43.8998C53.4586 43.9771 53.7355 44.0846 53.9991 44.2221C54.2627 44.351 54.4736 44.5315 54.6318 44.7635C54.7987 44.9871 54.8821 45.2922 54.8821 45.679C54.8821 46.2205 54.6801 46.6545 54.2758 46.9812C53.8805 47.2992 53.34 47.4582 52.6547 47.4582Z" fill="white"/>
<path d="M59.2974 47.4582C58.9371 47.4582 58.6076 47.3852 58.3089 47.239C58.0189 47.0843 57.7905 46.8652 57.6236 46.5815C57.4565 46.2893 57.3731 45.9325 57.3731 45.5114V38.7168H58.3089V45.4855C58.3089 45.8552 58.4011 46.1345 58.5857 46.3236C58.7702 46.5127 59.025 46.6073 59.3501 46.6073C59.5522 46.6073 59.7324 46.5728 59.8905 46.5042C60.0487 46.4354 60.1981 46.328 60.3386 46.1818L60.9186 46.7491C60.7077 46.9812 60.4748 47.1574 60.22 47.2777C59.9652 47.398 59.6577 47.4582 59.2974 47.4582ZM55.8047 42.1076V41.2696H60.6945V42.1076H55.8047Z" fill="white"/>
<path d="M62.2812 47.3293V41.2695H63.217V47.3293H62.2812Z" fill="white"/>
<path d="M65.1523 47.3293V41.2696H66.0749V47.3293H65.1523ZM69.4095 47.3293V43.6161C69.4095 43.1176 69.2558 42.7222 68.9482 42.4299C68.6406 42.1292 68.254 41.9787 67.7884 41.9787C67.472 41.9787 67.1821 42.0475 66.9185 42.1849C66.6637 42.3139 66.4572 42.4987 66.299 42.7394C66.1496 42.98 66.0749 43.268 66.0749 43.6032L65.6532 43.4356C65.6532 42.9715 65.7586 42.5675 65.9695 42.2237C66.1804 41.8798 66.4615 41.6134 66.813 41.4243C67.1733 41.2352 67.5775 41.1406 68.0256 41.1406C68.465 41.1406 68.856 41.2352 69.1986 41.4243C69.5501 41.6134 69.8269 41.8798 70.029 42.2237C70.2398 42.5675 70.3454 42.9757 70.3454 43.4485V47.3293H69.4095ZM73.6799 47.3293V43.6161C73.6799 43.1176 73.5261 42.7222 73.2186 42.4299C72.9111 42.1292 72.52 41.9787 72.0455 41.9787C71.7381 41.9787 71.4524 42.0475 71.1889 42.1849C70.934 42.3139 70.7275 42.4987 70.5694 42.7394C70.42 42.98 70.3454 43.268 70.3454 43.6032L69.7917 43.4356C69.8181 42.9715 69.9411 42.5675 70.1608 42.2237C70.3893 41.8798 70.6836 41.6134 71.0439 41.4243C71.4129 41.2352 71.8171 41.1406 72.2565 41.1406C72.6958 41.1406 73.0912 41.2352 73.4427 41.4243C73.8029 41.6134 74.0841 41.8798 74.2862 42.2237C74.4971 42.5675 74.6025 42.9757 74.6025 43.4485V47.3293H73.6799Z" fill="white"/>
<path d="M79.2648 47.4582C78.6409 47.4582 78.083 47.3207 77.5908 47.0456C77.0988 46.7706 76.7078 46.3924 76.4178 45.9111C76.1366 45.4297 75.9961 44.8882 75.9961 44.2866C75.9961 43.6935 76.1366 43.1606 76.4178 42.6878C76.699 42.2065 77.0812 41.8283 77.5645 41.5532C78.0478 41.2782 78.5882 41.1406 79.1857 41.1406C79.748 41.1406 80.2445 41.2653 80.6751 41.5145C81.1143 41.7638 81.4571 42.1119 81.7031 42.5589C81.9579 42.9973 82.0853 43.5044 82.0853 44.0802C82.0853 44.149 82.081 44.2307 82.0721 44.3252C82.0634 44.4111 82.0457 44.5143 82.0195 44.6347H76.6551V43.861H81.5186L81.1891 44.1447C81.1978 43.6978 81.1188 43.3152 80.9518 42.9973C80.7937 42.6706 80.5608 42.4214 80.2532 42.2495C79.9545 42.0689 79.5899 41.9787 79.1593 41.9787C78.7112 41.9787 78.3202 42.0733 77.9863 42.2624C77.6524 42.4515 77.3888 42.7179 77.1955 43.0617C77.0109 43.3969 76.9187 43.7966 76.9187 44.2608C76.9187 44.7249 77.0154 45.1332 77.2087 45.4855C77.4107 45.838 77.6875 46.1131 78.039 46.3107C78.3993 46.5084 78.8122 46.6073 79.2779 46.6073C79.6558 46.6073 80.0028 46.5428 80.3192 46.4138C80.6355 46.2763 80.9035 46.0744 81.1232 45.8079L81.7163 46.401C81.4264 46.7362 81.066 46.9984 80.6355 47.1875C80.2138 47.3679 79.7568 47.4582 79.2648 47.4582Z" fill="white"/>
<path d="M88.0702 47.3293V43.7708C88.0702 43.2379 87.9076 42.8081 87.5825 42.4815C87.2661 42.1463 86.8444 41.9787 86.3172 41.9787C85.9569 41.9787 85.6406 42.0561 85.3682 42.2107C85.0958 42.3655 84.8805 42.576 84.7224 42.8425C84.5642 43.109 84.4852 43.4141 84.4852 43.7579L84.0634 43.5258C84.0634 43.0703 84.1732 42.662 84.3928 42.301C84.6125 41.94 84.9069 41.6564 85.276 41.4501C85.6537 41.2438 86.0844 41.1406 86.5676 41.1406C87.0421 41.1406 87.4639 41.2524 87.8329 41.4758C88.202 41.6994 88.4875 42.0002 88.6897 42.3784C88.9005 42.7566 89.0059 43.1691 89.0059 43.6161V47.3293H88.0702ZM83.5625 47.3293V41.2696H84.4852V47.3293H83.5625Z" fill="white"/>
<path d="M93.6842 47.4582C93.3238 47.4582 92.9944 47.3852 92.6956 47.239C92.4056 47.0843 92.1772 46.8652 92.0103 46.5815C91.8433 46.2893 91.7599 45.9325 91.7599 45.5114V38.7168H92.6956V45.4855C92.6956 45.8552 92.7879 46.1345 92.9724 46.3236C93.1569 46.5127 93.4117 46.6073 93.7368 46.6073C93.939 46.6073 94.1191 46.5728 94.2773 46.5042C94.4354 46.4354 94.5848 46.328 94.7254 46.1818L95.3053 46.7491C95.0944 46.9812 94.8615 47.1574 94.6067 47.2777C94.3519 47.398 94.0444 47.4582 93.6842 47.4582ZM90.1914 42.1076V41.2696H95.0812V42.1076H90.1914Z" fill="white"/>
<path d="M99.4739 47.4582C98.8763 47.4582 98.3316 47.3164 97.8394 47.0327C97.3562 46.7491 96.9695 46.3666 96.6796 45.8853C96.3985 45.4039 96.2578 44.8668 96.2578 44.2737C96.2578 43.6891 96.3985 43.1606 96.6796 42.6878C96.9695 42.215 97.3562 41.8412 97.8394 41.5662C98.3316 41.2825 98.8763 41.1406 99.4739 41.1406C100.08 41.1406 100.625 41.2782 101.108 41.5532C101.591 41.8283 101.974 42.2065 102.255 42.6878C102.544 43.1606 102.69 43.6891 102.69 44.2737C102.69 44.8753 102.544 45.4168 102.255 45.8982C101.974 46.3708 101.591 46.7491 101.108 47.0327C100.625 47.3164 100.08 47.4582 99.4739 47.4582ZM99.4739 46.5815C99.9131 46.5815 100.3 46.4826 100.633 46.285C100.976 46.0873 101.244 45.8122 101.438 45.4598C101.64 45.1074 101.741 44.712 101.741 44.2737C101.741 43.8352 101.64 43.4485 101.438 43.1133C101.244 42.7695 100.976 42.4987 100.633 42.301C100.3 42.1033 99.9131 42.0045 99.4739 42.0045C99.0433 42.0045 98.6566 42.1033 98.3139 42.301C97.9713 42.4987 97.7033 42.7695 97.51 43.1133C97.3167 43.4485 97.22 43.8352 97.22 44.2737C97.22 44.7206 97.3167 45.1203 97.51 45.4726C97.7033 45.8165 97.9713 46.0873 98.3139 46.285C98.6566 46.4826 99.0433 46.5815 99.4739 46.5815Z" fill="white"/>
<path d="M106.124 47.4582C105.789 47.4582 105.468 47.4153 105.161 47.3293C104.853 47.2347 104.572 47.1058 104.318 46.9425C104.072 46.7792 103.856 46.5857 103.672 46.3623L104.265 45.7692C104.511 46.0614 104.788 46.2806 105.095 46.4267C105.412 46.5643 105.763 46.6331 106.149 46.6331C106.562 46.6331 106.883 46.5557 107.111 46.401C107.349 46.2463 107.468 46.0314 107.468 45.7563C107.468 45.4984 107.384 45.2964 107.218 45.1503C107.05 45.0042 106.835 44.8882 106.571 44.8022C106.316 44.7163 106.044 44.6347 105.754 44.5573C105.464 44.4713 105.187 44.3682 104.924 44.2479C104.66 44.1189 104.444 43.9427 104.278 43.7192C104.12 43.4958 104.041 43.2035 104.041 42.8425C104.041 42.4987 104.124 42.2022 104.291 41.9529C104.467 41.6951 104.713 41.4974 105.03 41.3598C105.354 41.2137 105.737 41.1406 106.176 41.1406C106.641 41.1406 107.063 41.2223 107.441 41.3856C107.819 41.5489 108.122 41.7896 108.35 42.1076L107.757 42.6878C107.573 42.4557 107.341 42.2795 107.059 42.1592C106.786 42.0303 106.479 41.9658 106.137 41.9658C105.741 41.9658 105.437 42.0432 105.227 42.1978C105.025 42.344 104.924 42.5374 104.924 42.778C104.924 43.0101 105.007 43.1949 105.174 43.3325C105.341 43.4614 105.552 43.5688 105.807 43.6548C106.07 43.7321 106.347 43.8138 106.637 43.8998C106.927 43.9771 107.204 44.0846 107.468 44.2221C107.731 44.351 107.942 44.5315 108.1 44.7635C108.267 44.9871 108.35 45.2922 108.35 45.679C108.35 46.2205 108.149 46.6545 107.744 46.9812C107.349 47.2992 106.809 47.4582 106.124 47.4582Z" fill="white"/>
</svg>
