<svg width="2249" height="726" viewBox="0 0 2249 726" fill="none" xmlns="http://www.w3.org/2000/svg">
<g clip-path="url(#clip0_120_150)">
<path d="M1135.03 292.132L1210.95 292.134C1215.54 321.828 1221.19 351.381 1225.56 381.1C1204.37 377.95 1179.14 371.311 1158.32 366.079C1146.22 375.514 1121.45 400.25 1109.26 411.706C1163.81 416.769 1215.54 421.841 1270.69 423.561C1458.68 429.425 1648.74 410.294 1828.8 354.337C1879.02 338.731 1932.18 318.587 1978.47 293.813C1976.51 312.133 1973.38 331.255 1970.83 349.601H1924.28C1922.71 366.437 1918.9 388.574 1916.45 405.609L1899.94 521H1835.37C1838.09 511.598 1841.72 480.327 1843.28 469.331C1848.59 433.284 1853.64 397.2 1858.43 361.081C1832.18 370.271 1805.82 379.123 1779.34 387.633C1777.02 401.131 1774.98 416.083 1773.18 429.691H1692.16C1689.65 440.912 1687.74 459.631 1686.17 471.51H1775.89C1773.82 478.65 1769.71 511.842 1768.32 521H1748.5H1620.62L1635.11 419.759C1625.42 421.651 1617.15 422.93 1607.36 424.208C1618.14 465.714 1594.27 511.122 1552.48 523.619C1504.36 538.013 1466.34 520.483 1430.14 490.079C1439.61 474.605 1450.9 457.196 1459.69 441.617C1477.46 458.661 1498.4 476.606 1525.21 472.898C1531.31 472.052 1537.72 468.551 1541.23 463.406C1544.03 459.291 1545.04 454.214 1544.03 449.339C1542.58 442.259 1538.26 437.143 1532.42 433.241C1498.62 435.725 1464.8 437.876 1430.97 439.695C1431.33 517.412 1356.22 546.956 1291.92 517.459C1276.06 510.185 1264.52 501.286 1251.25 490.084C1260.48 474.097 1271.29 457.649 1280.84 441.659C1297.04 456.905 1312.1 470.963 1335.59 473.3C1350.64 474.796 1364.27 468.064 1365.86 451.367C1366.36 446.045 1364.15 441.742 1358.22 441.723C1317.38 441.597 1276.28 441.92 1235.5 439.364L1249.38 521H1188.85C1185.97 506.11 1183.4 480.014 1181.31 464.137H1118.13C1114.24 470.449 1097.11 512.924 1094.09 521H1032.63C1038.58 505.522 1048.13 485.765 1055.06 470.199L1098.56 372.416L1121.27 321.1C1124.29 314.254 1131.15 297.487 1135.03 292.132Z" fill="white"/>
<path d="M432.752 292.23L484.592 292.156C511.726 292.129 546.62 289.33 570.582 305.334C600.077 325.034 596.868 375.52 579.35 402.218C570.101 416.316 552.353 422.112 536.031 424.623C538.209 430.334 541.429 437.132 544.25 442.569C557.383 467.879 568.407 496.257 582.249 521H520.891C517.942 515.088 515.536 508.772 513.082 502.627C512.157 502.035 477.09 418.922 473.371 409.839C467.451 443.773 462.343 486.565 457.663 521H399.74C405.276 489.685 409.598 454.701 414.14 423.051C420.597 379.48 426.801 335.872 432.752 292.23ZM475.533 395.464C491.42 395.63 504.439 397.128 518.533 388.96C538.72 370.289 535.427 336.071 501.074 335.402C495.335 335.337 489.594 335.339 483.855 335.409C481.17 355.215 477.925 375.748 475.533 395.464Z" fill="white"/>
<path d="M688.879 292.131H765.303C774.268 353.929 786.986 415.922 796.415 477.727C798.504 491.416 800.788 507.67 803.978 521H743.441C741.051 505.564 739.753 490.459 737.79 474.99L702.5 474.996H667.172C661.29 486.913 653.16 508.242 648.274 521L586.843 520.988C600 489.117 616.745 453.697 630.896 421.967C650.023 379.078 669.076 334.459 688.879 292.131ZM683.654 427.947H696.5H732.339C726.748 402.845 724.897 370.017 720.31 343.706C716.618 349.696 712.748 360.541 709.668 367.299C700.888 386.569 693.018 409.232 683.654 427.947Z" fill="white"/>
<path d="M849.313 292.131L994.131 292.141C990.697 307.412 990.469 325.62 986.556 341.703H900.07C897.531 355.63 895.856 369.48 894.056 383.51H975.03C972.961 398.985 970.379 414.149 968.533 429.691H886.812L884.285 450.026C883.461 456.841 882.703 465.098 881.007 471.63H970.386C968.451 488.257 965.652 504.495 963.681 521H815.952L837.784 368.316C840.224 351.051 845.321 306.341 849.313 292.131Z" fill="white"/>
<path d="M333.25 292.131H396.701C394.737 298.89 392.992 313.683 391.955 321.055L384.841 371.708C378.001 419.455 368.752 473.624 363.692 521H299.995C303.41 507.957 307.781 467.805 310.107 452.872C318.388 399.7 324.696 345.269 333.25 292.131Z" fill="white"/>
<path d="M1359.59 283.344C1385.11 278.88 1421.8 290.659 1440.72 307.981C1433.27 322.436 1424.31 338.397 1417.77 353.073C1405.39 341.164 1383.83 327.56 1365.86 333.146C1355.68 336.31 1349.45 345.615 1353.31 356.121C1358.01 368.912 1371.16 374.395 1382.49 379.939C1389.54 382.758 1401.39 390.058 1407.8 394.121C1372.96 394.21 1323.94 392.217 1289.4 389.41C1287.29 383.589 1285.83 378.159 1285.21 371.972C1280.26 321.936 1310.88 288.624 1359.59 283.344Z" fill="white"/>
<path d="M1538.58 283.357C1563.95 278.323 1600.74 291.269 1619.82 308.082C1612.55 320.678 1602.89 339.732 1596.6 352.892C1583.19 341.255 1564.27 328.075 1545.55 332.916C1534.97 335.65 1528.2 344.578 1531.9 355.41C1535.92 367.17 1546.49 372.517 1556.73 377.622C1564.15 381.509 1571.06 384.671 1578.68 388.125C1545.63 391.575 1504.35 392.288 1470.83 393.32C1450.67 355.661 1471.8 303.16 1511.76 289.453C1522.22 285.863 1527.69 284.483 1538.58 283.357Z" fill="white"/>
<path d="M1653.64 292.23H1799.13C1796.05 308.671 1794.13 325.055 1792.15 341.64L1747.5 341.703H1704.58C1703.69 350.966 1701.51 363.142 1700.14 372.583C1680.23 375.924 1661.28 379.214 1641.14 381.252C1644.84 351.514 1649.01 321.836 1653.64 292.23Z" fill="white"/>
<path d="M67.7593 593.832C85.7305 593.69 107.876 591.887 124.696 597.995C138.601 603.044 141.499 620.292 136.192 632.468C133.113 639.532 124.898 642.399 118.177 644.54C140.029 650.662 144.248 658.622 141.398 680.221C132.375 707.376 90.4297 701.351 67.7593 701.183V593.832ZM80.9809 651.015V689.844C94.7869 689.974 110.865 691.668 122.581 684.275C128.854 676.223 132.678 663.499 122.35 656.743C110.63 649.079 94.5204 650.957 80.9809 651.015ZM80.9809 639.374C91.3315 639.468 111.821 640.882 119.841 635.05C125.287 629.25 128.908 617.848 121.381 612.109C110.3 603.659 94.2307 604.996 80.9809 605.174V639.374Z" fill="white"/>
<path d="M912.49 593.832H932.407C943.061 623.112 956.018 654.107 965.669 683.412C973.603 657.462 989.567 620.915 999.377 593.833L1019.3 593.832V701.183H1006.07C1006.04 674.794 1005.01 639.337 1006.86 613.867C1006.97 611.977 1007.32 610.473 1006.32 608.975C997.04 628.175 989.293 654.742 980.897 674.858C977.558 682.857 974.949 692.616 970.631 700.064C967.972 701.785 962.752 701.232 959.351 701.187C955.048 686.941 947.544 668.675 942.163 654.292C936.609 639.447 930.006 620.126 923.568 606.177C926.252 630.332 924.967 675.56 924.936 701.14L912.49 701.189V593.832Z" fill="white"/>
<path d="M1821.42 292.23H1962.28C1947.04 299.203 1931.7 305.937 1916.25 312.429C1905.13 316.218 1892.84 321.374 1881.38 325.456C1858.72 333.448 1835.79 340.651 1812.63 347.053C1816.57 331.947 1818.17 309.071 1821.42 292.23Z" fill="white"/>
<path d="M250.264 619.441C285.744 618.239 283.802 639.117 282.935 667.044C282.605 677.678 283.708 689.176 282.727 699.605C280.714 702.431 281.736 701.621 278.627 703.012C273.084 702.39 271.518 694.372 270.672 690.054C256.16 703.324 237.987 709.716 222.2 694.028C219.619 689.962 216.882 681.714 217.194 676.956C218.812 652.323 255.221 652.98 270.034 652.72C270.598 623.416 251.009 627.345 230.861 636.005C229.849 633.21 227.666 629.059 226.306 626.269C235.99 621.889 239.74 620.547 250.264 619.441ZM238.21 665.961C232.121 672.061 227.454 680.631 235.081 687.99C235.904 688.776 236.759 689.526 237.646 690.239C247.616 693.968 254.892 691.851 263.72 686.275C269.172 678.226 270.977 672.262 269.998 662.344C269.691 662.134 268.759 661.422 268.491 661.402C258.689 662.592 247.203 662.673 238.21 665.961Z" fill="white"/>
<path d="M807.03 593.832H822.057C829.935 618.515 848.272 662.736 852.657 686.133C859.2 659.954 869.948 634.076 878.409 608.422C880.045 603.461 881.997 598.594 884.149 593.833L897.862 593.832L893.234 607.646C892.275 609.615 891.229 612.507 890.508 614.602C880.584 643.472 869.268 672.149 859.894 701.183H845.989C838.897 679.264 829.756 656.462 822.341 634.446C819.841 627.024 810.378 599.411 807.03 593.832Z" fill="white"/>
<path d="M686.742 592.419C699.762 591.703 707.904 593.705 719.711 598.564L714.718 610.156C704.05 606.208 696.389 603.371 684.404 604.57C648.411 608.17 643.28 665.502 668.273 684.43C678.128 691.893 689.487 691.685 701.489 689.794L715.838 686.64L715.841 698.183C677.818 710.064 642.669 699.294 638.869 655.389C635.956 621.731 651.285 595.136 686.742 592.419Z" fill="white"/>
<path d="M593.835 592.38C606.313 591.405 615.854 594.4 627.078 598.738C624.552 602.579 623.117 605.977 621.223 610.14C609.888 605.754 599.339 602.335 587.032 605.35C578.197 607.437 570.609 613.065 566.046 620.913C560.196 630.772 558.984 642.64 559.924 653.855C562.302 682.242 582.724 696.664 610.231 689.337C613.489 688.491 618.236 686.713 621.102 687.957C622.931 690.269 622.289 695.086 622.214 698.278C583.47 710.384 548.382 698.258 545.352 653.913C543.05 620.208 558.963 595.134 593.835 592.38Z" fill="white"/>
<path d="M726.04 593.832H805.956L806.109 605.655H773V667.5V701.183L759.448 701.184V605.655H726.142L726.04 593.832Z" fill="white"/>
<path d="M327.07 619.455C339.654 618.317 347.448 620.156 358.987 624.726C357.268 628.081 355.735 631.41 354.152 634.826C345.294 631.273 315.08 623.904 314.823 640.439C319.401 654.925 358.893 655.48 360.478 676.922C361.684 693.241 349.184 700.619 335.02 702.367C322.622 703.742 314.396 701.732 302.995 697.957L302.967 685.888C319.39 691.321 322.961 693.706 340.579 690.52C363.891 670.232 321.96 666.157 311.678 656.651C292.939 639.325 304.67 622.158 327.07 619.455Z" fill="white"/>
<path d="M418.627 587L431.647 587.001V701.18L418.627 701.183V587Z" fill="white"/>
<path d="M195.828 619.409C199.473 618.971 206.26 619.46 210.177 619.64C209.849 622.379 209.676 627.45 208.572 629.95C207.403 632.594 190.026 631.212 183.392 638.001C172.279 649.375 176.103 685.321 176.199 701.178L163.257 701.183C162.616 688.794 163.299 672.103 163.099 659.376C162.949 649.78 162.547 630.62 163.532 621.603C166.14 620.086 171.023 620.537 174.239 620.554L175.347 635.055C182.284 626.656 185.444 622.65 195.828 619.409Z" fill="white"/>
<path d="M379.943 620.557H393V701.183L379.943 701.184V620.557Z" fill="white"/>
<path d="M382.44 591.726C386.453 589.536 391.481 591.028 393.649 595.053C395.818 599.077 394.298 604.097 390.261 606.243C386.256 608.373 381.283 606.867 379.132 602.874C376.98 598.88 378.459 593.899 382.44 591.726Z" fill="white"/>
<path d="M52.7118 292.23H129.115C134.964 334.653 142.438 381.733 147.001 423.799C165.49 379.859 185.463 336.232 204 292.23H283.07C281.989 333.989 279.596 376.292 277.243 418.006C275.32 452.104 274.812 487.029 272.391 521H215.48L225.169 361.8C203.536 406.332 186.342 455.219 165.546 500.345C162.583 506.773 159.347 514.407 156.882 521H111.785C109.152 509.213 105.701 478.114 104.322 464.604C100.865 430.734 94.1762 393.582 91.3251 360.209C82.6907 410.819 68.5135 470.876 56.9377 521H0V520.168C6.76304 498.272 12.3357 468.058 17.7549 445.314C29.8468 394.563 40.4002 342.948 52.7118 292.23Z" fill="white"/>
<path d="M2248.27 0H2249V1.30367C2247.61 6.76726 2246.1 12.1997 2244.47 17.597C2208.54 137.632 2111.51 218.17 2006.52 277.654C2004.47 278.814 2002.68 277.846 2000.81 277.093C2000.26 275.161 2000.32 274.722 2002.23 273.213C2084.68 207.922 2145.92 138.676 2175.68 34.8166C2181.71 32.661 2198.48 24.3149 2204.94 21.1561C2218.38 14.5843 2235.51 7.23812 2248.27 0Z" fill="white"/>
<path d="M452.9 576.11L464.881 576.119C484.118 600.37 489.816 639.158 486.281 669.464C483.735 691.296 477.548 707.697 465.537 726H453.511C473.797 689.421 480.378 651.87 468.658 610.962C465.174 598.624 459.863 586.876 452.9 576.11Z" fill="white"/>
<path d="M31.8598 576.116L43.9895 576.115C15.3999 626.764 16.1596 675.68 43.8237 726H31.5131C3.76546 680.328 1.31795 621.189 31.8598 576.116Z" fill="white"/>
</g>
<defs>
<clipPath id="clip0_120_150">
<rect width="2249" height="726" fill="white"/>
</clipPath>
</defs>
</svg>
