<svg xmlns:xlink="http://www.w3.org/1999/xlink" _ngcontent-ng-c3772562492="" xmlns="http://www.w3.org/2000/svg" width="83" height="20" viewBox="0 0 83 20" fill="none"><path _ngcontent-ng-c3772562492="" d="M57.3395 19.2126L57.1935 19.1486C55.2679 18.1751 54.7745 16.3413 54.7745 14.7283V9.69661C54.7745 8.07607 55.2679 6.24267 57.1935 5.27628C57.2407 5.24958 57.2895 5.22584 57.3395 5.20517C59.8532 4.36103 62.5651 4.36103 65.0788 5.20517C65.1285 5.22343 65.1772 5.24482 65.2243 5.26921C67.15 6.24267 67.6433 8.07609 67.6433 9.69615V14.7297C67.6433 16.3431 67.15 18.1765 65.2243 19.1434C65.1771 19.1697 65.1285 19.1935 65.0788 19.2145C62.565 20.058 59.8533 20.058 57.3395 19.2145V19.2126ZM57.6039 9.41923V14.9981C57.6104 15.1328 57.6385 16.9808 61.2045 16.9808C64.8471 16.9808 64.8056 15.1328 64.8125 14.9981V9.41923C64.8056 9.28454 64.778 7.43653 61.2114 7.43653C57.562 7.43653 57.6108 9.28454 57.6039 9.41923ZM43.9786 14.9129V0.635539C43.973 0.609899 43.9707 0.583617 43.9717 0.557361C43.9703 0.538085 43.9726 0.51871 43.9786 0.500375V0.479183C43.9984 0.387961 44.0476 0.306167 44.1183 0.246906C44.1889 0.187645 44.277 0.154347 44.3684 0.152344H46.4119C46.5159 0.153832 46.6151 0.197207 46.688 0.273042C46.7609 0.348877 46.8016 0.451046 46.8012 0.557361V4.85007H51.9681C52.0192 4.85001 52.0698 4.86026 52.1171 4.88024C52.1644 4.90022 52.2073 4.92952 52.2435 4.96649C52.2796 5.00345 52.3083 5.04736 52.3278 5.09567C52.3474 5.14398 52.3574 5.19575 52.3573 5.24803V7.30891C52.3563 7.41419 52.3148 7.51483 52.242 7.58924C52.1691 7.66364 52.0706 7.70588 51.9676 7.70686H46.8012V14.9124C46.8012 16.369 47.3572 16.9949 48.6641 16.9949C49.4289 16.9865 50.1731 16.741 50.7984 16.2909C50.9721 16.1698 51.125 16.0709 51.2642 15.9852C51.278 15.9781 51.2849 15.964 51.2987 15.964C51.314 15.9458 51.3331 15.9312 51.3545 15.9212C51.3572 15.9185 51.3604 15.9164 51.364 15.9152C51.3676 15.914 51.3714 15.9136 51.3752 15.9141C51.4268 15.8869 51.4839 15.8724 51.542 15.8717C51.6123 15.872 51.6812 15.892 51.7413 15.9295C51.8013 15.967 51.8501 16.0207 51.8824 16.0846L52.8691 17.9966C52.8995 18.0537 52.9153 18.1177 52.9152 18.1827C52.9144 18.2774 52.8832 18.3692 52.8263 18.444L52.8194 18.4516L52.8056 18.4657C52.7758 18.4932 52.7431 18.5171 52.7079 18.5368H52.701C52.3504 18.7869 51.9752 18.9989 51.5816 19.1693C50.6077 19.6199 49.5502 19.8502 48.4812 19.8446C45.5357 19.8451 43.9786 18.1393 43.9786 14.9129ZM22.0779 19.8446C19.7349 19.8446 18.0037 19.2833 16.9266 18.1817C16.4692 17.6842 16.115 17.0972 15.8854 16.456C15.6558 15.8148 15.5556 15.1327 15.5907 14.4509V9.58266C15.5872 8.96785 15.709 8.35904 15.9484 7.79502C16.1878 7.231 16.5394 6.72413 16.981 6.30672C18.1787 5.15524 19.4834 4.57221 21.7844 4.57221C25.9691 4.57221 28.115 6.82523 28.115 11.0751C28.115 11.5291 28.1348 11.912 28.1352 12.235C28.1368 12.3792 28.1308 12.5234 28.1173 12.6669C28.1103 12.7239 28.1034 12.7733 28.0965 12.8303C28.0939 12.8332 28.0919 12.8366 28.0907 12.8404C28.0895 12.8441 28.0891 12.8481 28.0896 12.852C28.0584 12.9235 28.0077 12.9844 27.9436 13.0272C27.8795 13.0701 27.8046 13.0931 27.728 13.0936H18.421V14.4509C18.4027 14.7485 18.4437 15.0469 18.5417 15.3278C18.6397 15.6088 18.7925 15.8664 18.9909 16.0851C19.5819 16.6822 20.6664 16.9733 22.1884 16.9799C22.9988 17.0117 23.8088 16.9085 24.5867 16.6742C25.4822 16.3766 25.9982 16.062 26.2064 16.062C26.2768 16.0623 26.3458 16.0823 26.4058 16.1199C26.4658 16.1576 26.5146 16.2113 26.5468 16.2753L27.4368 18.0023C27.4761 18.0776 27.4911 18.1636 27.4799 18.2481C27.4686 18.3326 27.4317 18.4114 27.3742 18.4732C27.3447 18.501 27.3119 18.5249 27.2765 18.5444H27.2696C26.0599 19.4118 24.3499 19.8451 22.1741 19.8451C22.1424 19.8384 22.1096 19.8379 22.0779 19.8446ZM18.421 9.77432V10.2293H25.3311V9.77292C25.3311 9.77292 25.3311 9.76444 25.3311 9.7489C25.3311 9.496 25.2302 7.33952 21.9175 7.33952C19.5704 7.33999 18.421 8.75613 18.421 9.77432ZM36.7631 19.8376C36.6097 19.8376 36.4568 19.8376 36.3112 19.83L35.915 19.8089C35.7967 19.8023 35.6787 19.7947 35.5672 19.7806C33.3915 19.5889 32.0638 18.8566 31.283 17.8968C31.2134 17.8026 31.1448 17.7192 31.0817 17.6194C31.0048 17.513 30.9352 17.3995 30.8661 17.2855C30.8177 17.2003 30.774 17.108 30.7279 17.0152C30.6488 16.8418 30.5793 16.6639 30.5197 16.4825C30.5139 16.4663 30.5093 16.4496 30.5058 16.4326C30.4761 16.3494 30.4529 16.2639 30.4363 16.1769C30.4191 16.1314 30.4075 16.084 30.4017 16.0356C30.3556 15.8388 30.3209 15.6394 30.2976 15.4384V15.4318C30.2902 15.332 30.2838 15.2326 30.2695 15.1333C30.2631 14.9844 30.2557 14.8347 30.2557 14.6859V9.74607C30.2538 9.48227 30.2701 9.21867 30.3045 8.95723C30.3256 8.76355 30.3582 8.57135 30.4022 8.38172V8.36712C30.416 8.3172 30.4229 8.26776 30.4367 8.22584C30.4644 8.12647 30.4925 8.0271 30.5201 7.93479C30.5815 7.74986 30.6509 7.57216 30.7283 7.40168C30.788 7.27062 30.8578 7.14464 30.937 7.02493C30.9928 6.92556 31.0554 6.83325 31.1181 6.74235C31.8685 5.68366 33.2104 4.85195 35.5322 4.64615C35.6575 4.63202 35.7755 4.61789 35.9008 4.61036C36.033 4.60329 36.1772 4.59622 36.3108 4.58916C36.4775 4.58257 36.6512 4.58258 36.8115 4.58258H36.8875C37.0257 4.58258 37.1515 4.58917 37.2906 4.5967H37.3947C37.4366 4.5967 37.4717 4.60376 37.5131 4.60376C38.92 4.61005 40.2972 5.01782 41.4896 5.78114C41.5306 5.8083 41.5701 5.83771 41.608 5.86921L41.6149 5.87627C41.6801 5.94731 41.7162 6.04118 41.7158 6.13859C41.7157 6.17865 41.7098 6.21848 41.6983 6.2568L41.1054 8.22678C41.0802 8.30525 41.0333 8.37458 40.9704 8.42632C40.9074 8.47807 40.8311 8.51002 40.7507 8.5183H40.7295C40.6311 8.49861 40.5373 8.45993 40.4531 8.40433C40.4531 8.40433 39.8022 8.04076 39.5447 7.9056C38.7942 7.55977 37.9761 7.39446 37.1533 7.42241C35.7561 7.42241 34.7486 7.56368 34.1714 7.84154C33.8346 7.99608 33.5513 8.25122 33.359 8.57342C33.1667 8.89562 33.0743 9.26978 33.0939 9.6467C33.0923 9.64799 33.0909 9.64963 33.09 9.6515C33.089 9.65337 33.0885 9.65543 33.0884 9.65754C33.0884 9.65965 33.089 9.66171 33.0899 9.66359C33.0909 9.66546 33.0922 9.66709 33.0939 9.66836C33.088 9.72986 33.0855 9.79166 33.0865 9.85344V14.5629C33.0855 14.6247 33.088 14.6865 33.0939 14.748V14.7763C33.093 14.8078 33.0953 14.8394 33.1008 14.8705C33.0976 15.2305 33.1972 15.5837 33.3875 15.8867C33.5777 16.1897 33.8503 16.4293 34.1719 16.5763C34.7491 16.8536 35.7566 16.9959 37.1538 16.9959C38.257 16.941 39.3381 16.6593 40.3324 16.1675C40.361 16.1519 40.4089 16.1284 40.4365 16.1152C40.4892 16.0908 40.5456 16.0763 40.6033 16.0723C40.6736 16.0734 40.7423 16.0937 40.8022 16.1312C40.8621 16.1688 40.911 16.2221 40.9437 16.2857L41.8245 18.0051C41.8552 18.0629 41.871 18.1277 41.8706 18.1935C41.8695 18.2908 41.8357 18.3848 41.7748 18.4596L41.761 18.4737C41.7316 18.5015 41.699 18.5254 41.6638 18.5448C40.6701 19.2984 39.2379 19.7533 37.3952 19.8239H37.257C37.1345 19.8362 37.0115 19.841 36.8884 19.8385L36.7631 19.8376ZM0.889268 19.5602C0.786326 19.5592 0.687871 19.517 0.615076 19.4426C0.542282 19.3681 0.500961 19.2675 0.5 19.1622V9.69615C0.5 8.07561 0.986473 6.2422 2.91208 5.27581C3.76709 4.835 5.17812 4.57174 6.93006 4.57174C8.30044 4.50836 9.66819 4.74604 10.9411 5.26875C12.8667 6.24221 13.3601 8.07561 13.3601 9.69568V19.1618L13.3532 19.2399C13.3325 19.3287 13.2839 19.408 13.2148 19.4658C13.1457 19.5235 13.06 19.5566 12.9708 19.5597H10.9273C10.8654 19.5598 10.8045 19.5442 10.7499 19.5144C10.6953 19.4846 10.6488 19.4414 10.6145 19.3888C10.5806 19.3452 10.5568 19.2943 10.5449 19.2399C10.5395 19.2143 10.5373 19.188 10.5385 19.1618V9.41923C10.5247 9.28454 10.4966 7.43653 6.93051 7.43653C3.28798 7.43653 3.33728 9.28454 3.32253 9.41923V19.1627C3.32157 19.268 3.28025 19.3686 3.20746 19.443C3.13466 19.5174 3.03621 19.5597 2.93327 19.5607L0.889268 19.5602ZM80.0672 19.5494C80.0053 19.5495 79.9444 19.534 79.8898 19.5043C79.8353 19.4746 79.7887 19.4315 79.7544 19.3789C79.7202 19.3353 79.6964 19.2842 79.6848 19.2296C79.6788 19.2039 79.6763 19.1774 79.6775 19.1509V9.41923C79.6636 9.28454 79.6355 7.43653 76.0699 7.43653C72.4269 7.43653 72.4767 9.28454 72.462 9.41923V19.1514C72.461 19.2567 72.4197 19.3574 72.3469 19.4319C72.2741 19.5064 72.1757 19.5487 72.0727 19.5498H70.0287C69.9257 19.5487 69.8273 19.5064 69.7545 19.4319C69.6817 19.3574 69.6404 19.2567 69.6394 19.1514V9.69661C69.6394 8.07607 70.1259 6.24267 72.052 5.27628C72.907 4.83547 74.318 4.57221 76.0699 4.57221C77.4403 4.50882 78.8081 4.74649 80.081 5.26921C82.0066 6.24267 82.5 8.07609 82.5 9.69615V19.1509L82.4935 19.2296C82.4728 19.3183 82.4242 19.3977 82.3551 19.4554C82.2861 19.5132 82.2004 19.5462 82.1112 19.5494H80.0672Z" fill="black"></path></svg>