<svg viewBox="0 0 107 40" xmlns:xlink="http://www.w3.org/1999/xlink" xmlns="http://www.w3.org/2000/svg" width="107" height="40" fill="none"><path d="M28.782.16H0v28.78h28.782V.16z" fill="#293953"></path><path d="M28.779.16H9.593v9.592H28.78V.161z" fill="#25A7DB"></path><path d="M19.186 9.752H9.593v9.592h9.593V9.752z" fill="#AACBDE"></path><path d="M9.593 28.94V.16H.001v28.78h9.592z" fill="#1C6C9D"></path><path d="M38.314 34.756h-.702v5.185h.702v-5.185zM43.005 38.43a2.994 2.994 0 00.02.354l-3.007-3.91a.324.324 0 00-.101-.095.3.3 0 00-.138-.023h-.364v5.185h.616v-3.694c0-.049 0-.101-.003-.16 0-.06-.006-.118-.01-.177l3 3.904a.338.338 0 00.111.098c.04.02.086.03.138.03h.354v-5.186h-.616v3.674zM48.381 34.808a.32.32 0 00-.089.115l-1.458 3.661c-.033.082-.063.17-.089.269-.026.095-.049.197-.072.302a6.66 6.66 0 00-.082-.302 2.335 2.335 0 00-.092-.269l-1.465-3.661a.288.288 0 00-.085-.118.224.224 0 00-.151-.046h-.56l2.114 5.186h.633l2.114-5.186h-.564a.212.212 0 00-.15.052l-.004-.003zM49.653 39.945h3.197v-.574h-2.492v-1.77h2.016v-.55h-2.016v-1.722h2.492v-.573h-3.197v5.189zM56.675 37.453a1.603 1.603 0 00-.397-.252 5.518 5.518 0 00-.456-.18l-.456-.155a2.227 2.227 0 01-.396-.173.9.9 0 01-.282-.246.581.581 0 01-.108-.36c0-.116.02-.22.062-.319a.67.67 0 01.184-.255.894.894 0 01.301-.17c.121-.044.26-.063.416-.063.168 0 .309.02.427.062a1.88 1.88 0 01.508.269c.055.04.101.062.144.062a.17.17 0 00.095-.026.294.294 0 00.069-.082l.17-.334a1.805 1.805 0 00-.626-.397 2.19 2.19 0 00-.793-.138c-.26 0-.489.04-.685.122-.2.078-.367.187-.502.318-.134.134-.24.285-.308.455-.072.17-.108.351-.108.531 0 .23.036.423.108.577.072.154.164.285.282.39.115.105.25.187.397.253.147.065.301.124.455.173.154.05.308.099.456.145.148.046.282.105.397.17.114.069.21.15.282.253a.65.65 0 01.105.386.98.98 0 01-.073.387.836.836 0 01-.21.298.971.971 0 01-.33.194 1.343 1.343 0 01-.446.069c-.2 0-.37-.027-.508-.082a1.98 1.98 0 01-.355-.18 2.225 2.225 0 01-.242-.18c-.066-.057-.125-.083-.174-.083a.168.168 0 00-.092.026.242.242 0 00-.072.07l-.203.334c.193.206.43.373.708.494.275.122.58.184.918.184.275 0 .521-.043.738-.124.216-.086.396-.2.547-.348a1.46 1.46 0 00.338-.521c.078-.2.114-.413.114-.64 0-.212-.036-.396-.108-.543a1.15 1.15 0 00-.282-.374l-.01.003zM57.672 35.346h1.682v4.599h.701v-4.6h1.679v-.59h-4.062v.59zM63.163 34.756h-.701v5.185h.701v-5.185zM68.997 34.775c-.036.013-.066.046-.099.102l-1.753 3.19a2.652 2.652 0 00-.167.38 3.263 3.263 0 00-.076-.194 1.573 1.573 0 00-.088-.183l-1.794-3.193c-.032-.056-.065-.089-.098-.102a.423.423 0 00-.144-.016h-.518v5.186h.616v-3.813c0-.052 0-.104-.007-.167-.003-.062-.01-.121-.016-.183l1.816 3.255c.06.108.145.163.253.163h.101c.109 0 .194-.055.253-.163l1.777-3.242c-.007.062-.01.118-.013.177v3.976h.616v-5.186h-.518a.524.524 0 00-.144.017l.003-.004zM70.759 39.945h3.196v-.574h-2.488v-1.77h2.016v-.55h-2.016v-1.722h2.488v-.573H70.76v5.189zM78.645 38.43a3.088 3.088 0 00.017.354l-3.006-3.91a.325.325 0 00-.102-.095.3.3 0 00-.138-.023h-.36v5.185h.616v-3.694-.16c0-.06-.007-.118-.01-.177l3 3.904a.338.338 0 00.111.098c.04.02.086.03.138.03h.354v-5.186h-.616v3.674h-.004zM79.862 35.346h1.682v4.599h.702v-4.6h1.678v-.59h-4.062v.59zM88.334 35.44a2.328 2.328 0 00-.81-.547 2.69 2.69 0 00-1.046-.197c-.383 0-.727.066-1.042.197a2.315 2.315 0 00-.806.547 2.47 2.47 0 00-.522.84 2.962 2.962 0 00-.183 1.068c0 .387.062.744.183 1.069.125.324.299.603.522.839.223.233.491.416.806.544.315.131.662.194 1.042.194s.728-.066 1.046-.194a2.35 2.35 0 00.81-.544 2.49 2.49 0 00.521-.84c.125-.324.184-.681.184-1.068s-.062-.744-.184-1.068a2.39 2.39 0 00-.52-.84zm-.147 2.767c-.089.252-.21.465-.37.64-.161.173-.355.307-.581.402a2.014 2.014 0 01-.76.138c-.28 0-.532-.046-.758-.138a1.57 1.57 0 01-.58-.403 1.756 1.756 0 01-.37-.639 2.664 2.664 0 01-.132-.855c0-.318.043-.604.131-.86a1.82 1.82 0 01.37-.642 1.61 1.61 0 01.581-.403c.226-.095.479-.14.757-.14.279 0 .535.045.76.14.227.095.42.23.581.403.16.174.282.39.37.643.09.252.132.537.132.858 0 .322-.043.604-.131.856zM92.67 37.827a1.148 1.148 0 00-.282-.374 1.563 1.563 0 00-.4-.252 5.496 5.496 0 00-.456-.18l-.456-.154a2.23 2.23 0 01-.396-.174.9.9 0 01-.282-.246.582.582 0 01-.108-.36c0-.115.02-.22.062-.319a.707.707 0 01.183-.255.96.96 0 01.302-.174 1.25 1.25 0 01.416-.062c.168 0 .309.02.427.062a1.872 1.872 0 01.508.269c.055.04.101.062.144.062a.17.17 0 00.095-.026.293.293 0 00.069-.082l.17-.334a1.805 1.805 0 00-.626-.397 2.19 2.19 0 00-.793-.138c-.26 0-.489.04-.685.122-.2.078-.367.186-.502.318-.134.134-.24.285-.308.455a1.36 1.36 0 00-.108.531c0 .23.036.423.108.577.072.154.164.285.282.39.115.105.25.187.397.253.147.065.301.124.455.173.154.05.308.099.456.145.148.045.282.104.397.17.114.069.21.15.281.252.073.102.106.23.106.387a.98.98 0 01-.073.387.836.836 0 01-.21.298.921.921 0 01-.33.194 1.34 1.34 0 01-.446.068c-.2 0-.37-.026-.509-.081a1.985 1.985 0 01-.354-.18 2.227 2.227 0 01-.242-.181c-.066-.056-.125-.082-.174-.082a.168.168 0 00-.092.026.278.278 0 00-.072.066l-.203.334c.193.207.43.374.708.495.275.121.58.184.918.184.275 0 .521-.043.737-.125.217-.085.397-.2.548-.347A1.46 1.46 0 0092.67 39c.078-.2.114-.413.114-.639 0-.213-.036-.396-.108-.544l-.006.01zM46.24 6.972c0 .207.007.426.02.659.013.233.03.472.053.721L40.182.603a2.435 2.435 0 00-.22-.24.755.755 0 00-.443-.203 2.98 2.98 0 00-.328-.016h-1.577V13.05h2.64V6.133c0-.19-.007-.39-.017-.606-.013-.217-.026-.436-.043-.66l6.085 7.69c.147.19.301.319.459.39.16.07.354.106.583.106h1.56V.148h-2.638v6.827l-.004-.003zM61.598 1.904A6.361 6.361 0 0059.484.508C58.66.168 57.746 0 56.744 0c-1.004 0-1.919.167-2.748.505-.826.337-1.534.8-2.121 1.39a6.196 6.196 0 00-1.364 2.09 6.95 6.95 0 00-.482 2.607c0 .934.16 1.803.482 2.606a6.242 6.242 0 001.364 2.094 6.292 6.292 0 002.121 1.397c.826.337 1.74.505 2.747.505s1.918-.168 2.74-.505a6.247 6.247 0 002.115-1.397 6.336 6.336 0 001.36-2.094 6.953 6.953 0 00.483-2.606c0-.934-.161-1.793-.482-2.596a6.238 6.238 0 00-1.36-2.092zm-1.472 6.419a3.698 3.698 0 01-.711 1.298 3.013 3.013 0 01-1.138.81c-.449.186-.96.278-1.53.278-.571 0-1.096-.092-1.548-.279a3.009 3.009 0 01-1.14-.81 3.652 3.652 0 01-.715-1.297c-.168-.512-.25-1.089-.25-1.731 0-.643.082-1.213.25-1.724.163-.512.403-.944.714-1.298a3.086 3.086 0 011.141-.817c.453-.19.967-.281 1.547-.281s1.086.095 1.531.281c.45.19.83.463 1.138.817.308.354.547.786.711 1.298.164.511.25 1.085.25 1.724 0 .64-.082 1.223-.25 1.73zM73.342.144a.984.984 0 00-.63.2c-.17.135-.284.282-.343.446L69.89 7.7c-.105.301-.213.63-.324.983-.108.354-.207.728-.289 1.118a20.788 20.788 0 00-.665-2.101L66.114.79a.975.975 0 00-.354-.469c-.164-.118-.377-.177-.64-.177h-2.41l5.174 12.905h2.711L75.768.144H73.34h.003zM80.095.144H77.03L72.034 13.05h2.338a.99.99 0 00.629-.2c.17-.134.285-.282.344-.446l.764-2.248h4.908l.76 2.248c.066.19.184.345.351.466.167.121.383.18.642.18h2.322L80.094.144zm-3.294 7.969l1.186-3.517a17.18 17.18 0 00.574-1.796c.102.353.203.681.305.986.105.305.194.57.272.793l1.187 3.534H76.8zM37.612 28.793h3.013v-5.021h4.41V21.46h-4.41v-3.268h5.298v-2.305h-8.31v12.905zM55.03 23.532c0 .456-.06.862-.174 1.22a2.515 2.515 0 01-.502.908c-.22.249-.485.439-.803.57-.315.134-.675.2-1.075.2-.4 0-.761-.066-1.076-.2a2.184 2.184 0 01-.803-.577 2.556 2.556 0 01-.502-.911 3.976 3.976 0 01-.173-1.216V15.89h-2.993v7.644c0 .79.128 1.518.38 2.18.256.662.62 1.233 1.098 1.708a5.017 5.017 0 001.744 1.118c.685.265 1.46.4 2.321.4.862 0 1.626-.131 2.311-.4a4.97 4.97 0 001.745-1.118 4.882 4.882 0 001.101-1.708 5.994 5.994 0 00.387-2.18v-7.644h-2.993v7.644l.006-.003zM59.038 18.261h3.632v10.532h2.993V18.261h3.633v-2.373H59.038v2.373zM89.775 23.765a2.806 2.806 0 00-.564-.374c.42-.16.79-.363 1.112-.61.321-.248.593-.53.816-.845a3.59 3.59 0 00.502-1.033c.111-.37.167-.767.167-1.186 0-.55-.095-1.056-.282-1.524a3.04 3.04 0 00-.908-1.213c-.416-.345-.954-.61-1.613-.803-.659-.19-1.456-.289-2.387-.289h-4.2v12.905h2.994v-4.776h.76c.23 0 .41.036.535.109a.87.87 0 01.331.354l2.144 3.746c.216.377.577.567 1.079.567h2.71l-2.746-4.49a2.167 2.167 0 00-.456-.541l.006.003zM88.76 20.73a1.624 1.624 0 01-.4.642 1.884 1.884 0 01-.705.43 3.116 3.116 0 01-1.039.154H85.41V18.13h1.206c.774 0 1.344.16 1.715.479.37.318.554.76.554 1.327 0 .282-.043.548-.125.794zM102.004 15.888h-3.066l-4.996 12.905h2.338a.99.99 0 00.63-.2c.17-.134.284-.282.343-.445l.764-2.25h4.908l.76 2.25a.95.95 0 00.351.465c.167.121.384.18.643.18H107l-4.996-12.905zm-3.295 7.972l1.187-3.517c.088-.223.183-.489.282-.797.101-.308.196-.639.291-1 .102.355.204.682.305.987.105.305.194.57.272.793l1.187 3.534h-3.524zM78.38 23.532c0 .456-.058.862-.173 1.22a2.512 2.512 0 01-.501.908c-.22.249-.486.439-.804.57-.314.134-.675.2-1.075.2-.4 0-.76-.066-1.075-.2a2.184 2.184 0 01-.803-.577 2.555 2.555 0 01-.502-.911 3.973 3.973 0 01-.174-1.216V15.89H70.28v7.644c0 .79.128 1.518.38 2.18.256.662.62 1.233 1.099 1.708a5.016 5.016 0 001.744 1.118c.685.265 1.459.4 2.32.4.863 0 1.627-.131 2.312-.4a4.97 4.97 0 001.744-1.118 4.882 4.882 0 001.102-1.708 5.992 5.992 0 00.386-2.18v-7.644h-2.993v7.644l.007-.003z" fill="#293953"></path></svg>