<svg width="70" height="40" viewBox="0 0 70 40" fill="none" xmlns="http://www.w3.org/2000/svg">
<g clip-path="url(#clip0_212_50435)">
<path d="M1.3143 34.756H0.612305V39.941H1.3143V34.756ZM6.00531 38.43C6.00497 38.5483 6.01165 38.6665 6.02531 38.784L3.01831 34.874C2.99189 34.8354 2.95743 34.803 2.9173 34.779C2.87376 34.7606 2.82647 34.7527 2.7793 34.756H2.41531V39.941H3.0313V36.247C3.0313 36.198 3.03131 36.146 3.02831 36.087C3.02831 36.027 3.02231 35.969 3.01831 35.91L6.01831 39.814C6.04761 39.8545 6.08552 39.8879 6.12931 39.912C6.16931 39.932 6.2153 39.942 6.2673 39.942H6.6213V34.756H6.00531V38.43ZM11.3813 34.808C11.3432 34.839 11.3128 34.8783 11.2923 34.923L9.8343 38.584C9.8013 38.666 9.7713 38.754 9.7453 38.853C9.7193 38.948 9.69631 39.05 9.67331 39.155C9.64834 39.0537 9.621 38.953 9.5913 38.853C9.56613 38.7615 9.53541 38.6717 9.49931 38.584L8.03431 34.923C8.01653 34.877 7.98727 34.8364 7.94931 34.805C7.90622 34.7719 7.85255 34.7555 7.79831 34.759H7.2383L9.35231 39.945H9.98531L12.0993 34.759H11.5353C11.4805 34.7562 11.4267 34.7749 11.3853 34.811L11.3813 34.808ZM12.6533 39.945H15.8503V39.371H13.3583V37.601H15.3743V37.051H13.3583V35.329H15.8503V34.756H12.6533V39.945ZM19.6753 37.453C19.5561 37.3499 19.4223 37.265 19.2783 37.201C19.129 37.1343 18.9769 37.0742 18.8223 37.021L18.3663 36.866C18.229 36.8213 18.0964 36.7634 17.9703 36.693C17.8601 36.6317 17.764 36.5479 17.6883 36.447C17.6134 36.3423 17.5754 36.2157 17.5803 36.087C17.5803 35.971 17.6003 35.867 17.6423 35.768C17.6825 35.6696 17.7456 35.5822 17.8263 35.513C17.9146 35.4373 18.0169 35.3795 18.1273 35.343C18.2483 35.299 18.3873 35.28 18.5433 35.28C18.7113 35.28 18.8523 35.3 18.9703 35.342C19.1524 35.4051 19.3238 35.4958 19.4783 35.611C19.5333 35.651 19.5793 35.673 19.6223 35.673C19.6558 35.6739 19.6889 35.6649 19.7173 35.647C19.7451 35.6241 19.7685 35.5963 19.7863 35.565L19.9563 35.231C19.7774 35.0568 19.5642 34.9216 19.3303 34.834C19.0768 34.7394 18.8079 34.6926 18.5373 34.696C18.2773 34.696 18.0483 34.736 17.8523 34.818C17.6523 34.896 17.4853 35.005 17.3503 35.136C17.2163 35.27 17.1103 35.421 17.0423 35.591C16.9703 35.761 16.9343 35.942 16.9343 36.122C16.9343 36.352 16.9703 36.545 17.0423 36.699C17.1143 36.853 17.2063 36.984 17.3243 37.089C17.4393 37.194 17.5743 37.276 17.7213 37.342C17.8683 37.407 18.0223 37.466 18.1763 37.515C18.3303 37.565 18.4843 37.614 18.6323 37.66C18.7803 37.706 18.9143 37.765 19.0293 37.83C19.1433 37.899 19.2393 37.98 19.3113 38.083C19.386 38.1974 19.4228 38.3325 19.4163 38.469C19.4184 38.6016 19.3936 38.7333 19.3433 38.856C19.2961 38.9696 19.2244 39.0713 19.1333 39.154C19.0373 39.2399 18.9251 39.3059 18.8033 39.348C18.6596 39.396 18.5088 39.4193 18.3573 39.417C18.1573 39.417 17.9873 39.39 17.8493 39.335C17.7252 39.2871 17.6063 39.2268 17.4943 39.155C17.4097 39.1005 17.3288 39.0404 17.2523 38.975C17.1863 38.918 17.1273 38.892 17.0783 38.892C17.0458 38.8916 17.0138 38.9006 16.9863 38.918C16.9577 38.936 16.9331 38.9599 16.9143 38.988L16.7113 39.322C16.9043 39.528 17.1413 39.695 17.4193 39.816C17.6943 39.938 17.9993 40 18.3373 40C18.6123 40 18.8583 39.957 19.0753 39.876C19.2913 39.79 19.4713 39.676 19.6223 39.528C19.771 39.3806 19.8863 39.2029 19.9603 39.007C20.0383 38.807 20.0743 38.594 20.0743 38.367C20.0743 38.155 20.0383 37.971 19.9663 37.824C19.899 37.6813 19.803 37.554 19.6843 37.45L19.6753 37.453ZM20.6723 35.346H22.3543V39.945H23.0553V35.345H24.7343V34.755H20.6723V35.346ZM26.1633 34.756H25.4623V39.941H26.1633V34.756ZM31.9973 34.775C31.9613 34.788 31.9313 34.821 31.8983 34.877L30.1453 38.067C30.0798 38.1891 30.024 38.3162 29.9783 38.447C29.955 38.3815 29.9297 38.3168 29.9023 38.253C29.8769 38.1902 29.8476 38.129 29.8143 38.07L28.0203 34.877C27.9883 34.821 27.9553 34.788 27.9223 34.775C27.8756 34.7614 27.8269 34.756 27.7783 34.759H27.2603V39.945H27.8763V36.132C27.8763 36.08 27.8763 36.028 27.8693 35.965C27.8663 35.903 27.8593 35.844 27.8533 35.782L29.6693 39.037C29.7293 39.145 29.8143 39.2 29.9223 39.2H30.0233C30.1323 39.2 30.2173 39.145 30.2763 39.037L32.0533 35.795C32.0463 35.857 32.0433 35.913 32.0403 35.972V39.948H32.6563V34.762H32.1383C32.0897 34.761 32.0413 34.7667 31.9943 34.779L31.9973 34.775ZM33.7593 39.945H36.9553V39.371H34.4673V37.601H36.4833V37.051H34.4673V35.329H36.9553V34.756H33.7603L33.7593 39.945ZM41.6453 38.43C41.6442 38.5482 41.6499 38.6664 41.6623 38.784L38.6563 34.874C38.6296 34.8353 38.5948 34.8029 38.5543 34.779C38.5108 34.7606 38.4635 34.7527 38.4163 34.756H38.0563V39.941H38.6723V36.247V36.087C38.6723 36.027 38.6653 35.969 38.6623 35.91L41.6623 39.814C41.6916 39.8545 41.7295 39.8879 41.7733 39.912C41.8133 39.932 41.8593 39.942 41.9113 39.942H42.2653V34.756H41.6493V38.43H41.6453ZM42.8623 35.346H44.5443V39.945H45.2463V35.345H46.9243V34.755H42.8623V35.346ZM51.3343 35.44C51.1061 35.2024 50.83 35.016 50.5243 34.893C50.1922 34.7583 49.8366 34.6913 49.4783 34.696C49.0953 34.696 48.7513 34.762 48.4363 34.893C48.1319 35.0161 47.8571 35.2026 47.6303 35.44C47.4015 35.6819 47.2239 35.9677 47.1083 36.28C46.9822 36.6217 46.9201 36.9838 46.9253 37.348C46.9253 37.735 46.9873 38.092 47.1083 38.417C47.2333 38.741 47.4073 39.02 47.6303 39.256C47.8533 39.489 48.1213 39.672 48.4363 39.8C48.7513 39.931 49.0983 39.994 49.4783 39.994C49.8583 39.994 50.2063 39.928 50.5243 39.8C50.8294 39.6773 51.1053 39.492 51.3343 39.256C51.5624 39.0136 51.7395 38.728 51.8553 38.416C51.9803 38.092 52.0393 37.735 52.0393 37.348C52.0393 36.961 51.9773 36.604 51.8553 36.28C51.7424 35.9668 51.5642 35.6807 51.3343 35.44ZM51.1873 38.207C51.0983 38.459 50.9773 38.672 50.8173 38.847C50.6563 39.02 50.4623 39.154 50.2363 39.249C49.9942 39.3436 49.7362 39.3905 49.4763 39.387C49.1963 39.387 48.9443 39.341 48.7183 39.249C48.4969 39.1605 48.2985 39.0226 48.1383 38.846C47.9711 38.6616 47.845 38.4438 47.7683 38.207C47.678 37.9311 47.6334 37.6423 47.6363 37.352C47.6363 37.034 47.6793 36.748 47.7673 36.492C47.8453 36.2549 47.9713 36.0364 48.1373 35.85C48.2987 35.6743 48.4972 35.5366 48.7183 35.447C48.9443 35.352 49.1973 35.307 49.4753 35.307C49.7543 35.307 50.0103 35.352 50.2353 35.447C50.4623 35.542 50.6553 35.677 50.8163 35.85C50.9763 36.024 51.0983 36.24 51.1863 36.493C51.2763 36.745 51.3183 37.03 51.3183 37.351C51.3183 37.673 51.2753 37.955 51.1873 38.207ZM55.6703 37.827C55.603 37.6843 55.507 37.557 55.3883 37.453C55.2685 37.3492 55.1336 37.2642 54.9883 37.201C54.8391 37.1342 54.6869 37.0742 54.5323 37.021L54.0763 36.867C53.939 36.822 53.8064 36.7637 53.6803 36.693C53.5701 36.6317 53.474 36.5479 53.3983 36.447C53.3235 36.3422 53.2855 36.2156 53.2903 36.087C53.2903 35.972 53.3103 35.867 53.3523 35.768C53.3934 35.6704 53.456 35.5832 53.5353 35.513C53.6245 35.4371 53.7269 35.3781 53.8373 35.339C53.9715 35.295 54.1121 35.274 54.2533 35.277C54.4213 35.277 54.5623 35.297 54.6803 35.339C54.8625 35.402 55.0338 35.4927 55.1883 35.608C55.2433 35.648 55.2893 35.67 55.3323 35.67C55.3658 35.6709 55.3989 35.6619 55.4273 35.644C55.4552 35.6211 55.4785 35.5933 55.4963 35.562L55.6663 35.228C55.4874 35.0538 55.2742 34.9186 55.0403 34.831C54.7868 34.7364 54.5179 34.6896 54.2473 34.693C53.9873 34.693 53.7583 34.733 53.5623 34.815C53.3623 34.893 53.1953 35.001 53.0603 35.133C52.9263 35.267 52.8203 35.418 52.7523 35.588C52.6811 35.756 52.6443 35.9365 52.6443 36.119C52.6443 36.349 52.6803 36.542 52.7523 36.696C52.8243 36.85 52.9163 36.981 53.0343 37.086C53.1493 37.191 53.2843 37.273 53.4313 37.339C53.5783 37.404 53.7323 37.463 53.8863 37.512C54.0403 37.562 54.1943 37.611 54.3423 37.657C54.4903 37.702 54.6243 37.761 54.7393 37.827C54.8533 37.896 54.9493 37.977 55.0203 38.079C55.0933 38.181 55.1263 38.309 55.1263 38.466C55.1284 38.5986 55.1036 38.7303 55.0533 38.853C55.0061 38.9666 54.9344 39.0683 54.8433 39.151C54.7481 39.2381 54.6357 39.3042 54.5133 39.345C54.3696 39.3927 54.2187 39.4157 54.0673 39.413C53.8673 39.413 53.6973 39.387 53.5583 39.332C53.4346 39.284 53.316 39.2237 53.2043 39.152C53.1196 39.0972 53.0388 39.0367 52.9623 38.971C52.8963 38.915 52.8373 38.889 52.7883 38.889C52.7558 38.8886 52.7238 38.8976 52.6963 38.915C52.6686 38.9326 52.6442 38.9549 52.6243 38.981L52.4213 39.315C52.6143 39.522 52.8513 39.689 53.1293 39.81C53.4043 39.931 53.7093 39.994 54.0473 39.994C54.3223 39.994 54.5683 39.951 54.7843 39.869C55.0013 39.784 55.1813 39.669 55.3323 39.522C55.4812 39.3743 55.5964 39.1963 55.6703 39C55.7483 38.8 55.7843 38.587 55.7843 38.361C55.7843 38.148 55.7483 37.965 55.6763 37.817L55.6703 37.827ZM9.24031 6.972C9.24031 7.179 9.2473 7.398 9.2603 7.631C9.2733 7.864 9.2903 8.103 9.3133 8.352L3.1823 0.603C3.11441 0.518181 3.04091 0.438002 2.96231 0.363C2.84114 0.248229 2.68535 0.176843 2.51931 0.16C2.41035 0.148642 2.30085 0.143301 2.19131 0.144H0.614304V13.05H3.25431V6.133C3.25431 5.943 3.2473 5.743 3.2373 5.527C3.2243 5.31 3.21131 5.091 3.19431 4.867L9.2793 12.557C9.4263 12.747 9.5803 12.876 9.7383 12.947C9.8983 13.017 10.0923 13.053 10.3213 13.053H11.8813V0.148H9.24331V6.975L9.2393 6.972H9.24031ZM24.5983 1.904C23.9944 1.30163 23.2754 0.826887 22.4843 0.508C21.6603 0.168 20.7463 0 19.7443 0C18.7403 0 17.8253 0.167 16.9963 0.505C16.1703 0.842 15.4623 1.305 14.8753 1.895C14.2836 2.49194 13.8195 3.20303 13.5113 3.985C13.1848 4.81502 13.0212 5.70012 13.0293 6.592C13.0293 7.526 13.1893 8.395 13.5113 9.198C13.8202 9.98081 14.2841 10.6931 14.8753 11.292C15.48 11.897 16.2017 12.3723 16.9963 12.689C17.8223 13.026 18.7363 13.194 19.7433 13.194C20.7503 13.194 21.6613 13.026 22.4833 12.689C23.2764 12.3728 23.9962 11.8973 24.5983 11.292C25.186 10.6911 25.6484 9.9793 25.9583 9.198C26.2849 8.36834 26.4489 7.4836 26.4413 6.592C26.4413 5.658 26.2803 4.799 25.9593 3.996C25.6515 3.21419 25.1879 2.50262 24.5983 1.904ZM23.1263 8.323C22.9792 8.79916 22.7373 9.24066 22.4153 9.621C22.1047 9.97642 21.7149 10.2539 21.2773 10.431C20.8283 10.617 20.3173 10.709 19.7473 10.709C19.1763 10.709 18.6513 10.617 18.1993 10.43C17.761 10.2533 17.3704 9.97578 17.0593 9.62C16.7349 9.24104 16.4916 8.79963 16.3443 8.323C16.1763 7.811 16.0943 7.234 16.0943 6.592C16.0943 5.949 16.1763 5.379 16.3443 4.868C16.5073 4.356 16.7473 3.924 17.0583 3.57C17.3708 3.21366 17.7613 2.93409 18.1993 2.753C18.6523 2.563 19.1663 2.472 19.7463 2.472C20.3263 2.472 20.8323 2.567 21.2773 2.753C21.7273 2.943 22.1073 3.216 22.4153 3.57C22.7233 3.924 22.9623 4.356 23.1263 4.868C23.2903 5.379 23.3763 5.953 23.3763 6.592C23.3763 7.232 23.2943 7.815 23.1263 8.322V8.323ZM36.3423 0.144C36.1155 0.136031 35.893 0.206686 35.7123 0.344C35.5423 0.479 35.4283 0.626 35.3693 0.79L32.8903 7.7C32.7853 8.001 32.6773 8.33 32.5663 8.683C32.4583 9.037 32.3593 9.411 32.2773 9.801C32.0929 9.0894 31.871 8.38808 31.6123 7.7L29.1143 0.79C29.0473 0.600983 28.9237 0.43721 28.7603 0.321C28.5963 0.203 28.3833 0.144 28.1203 0.144H25.7103L30.8843 13.049H33.5953L38.7683 0.144H36.3403H36.3423ZM43.0953 0.144H40.0303L35.0343 13.05H37.3723C37.5987 13.0572 37.8207 12.9867 38.0013 12.85C38.1713 12.716 38.2863 12.568 38.3453 12.404L39.1093 10.156H44.0173L44.7773 12.404C44.8433 12.594 44.9613 12.749 45.1283 12.87C45.2953 12.991 45.5113 13.05 45.7703 13.05H48.0923L43.0953 0.144ZM39.8013 8.113L40.9873 4.596C41.2114 4.00829 41.403 3.40872 41.5613 2.8C41.6633 3.153 41.7643 3.481 41.8663 3.786C41.9713 4.091 42.0603 4.356 42.1383 4.579L43.3253 8.113H39.8013ZM0.612305 28.793H3.62531V23.772H8.03531V21.46H3.62531V18.192H8.92331V15.887H0.613304V28.792L0.612305 28.793ZM18.0303 23.532C18.0303 23.988 17.9703 24.394 17.8563 24.752C17.7539 25.0863 17.5829 25.3955 17.3543 25.66C17.1343 25.909 16.8693 26.099 16.5513 26.23C16.2363 26.364 15.8763 26.43 15.4763 26.43C15.0763 26.43 14.7153 26.364 14.4003 26.23C14.092 26.1016 13.8173 25.9042 13.5973 25.653C13.3693 25.387 13.1984 25.0769 13.0953 24.742C12.975 24.3481 12.9166 23.9378 12.9223 23.526V15.89H9.92931V23.534C9.92931 24.324 10.0573 25.052 10.3093 25.714C10.5653 26.376 10.9293 26.947 11.4073 27.422C11.9045 27.9119 12.4985 28.2927 13.1513 28.54C13.8363 28.805 14.6113 28.94 15.4723 28.94C16.3343 28.94 17.0983 28.809 17.7833 28.54C18.4371 28.2941 19.0317 27.9131 19.5283 27.422C20.011 26.9362 20.3862 26.3543 20.6293 25.714C20.8926 25.0177 21.0238 24.2784 21.0163 23.534V15.89H18.0233V23.534L18.0293 23.531L18.0303 23.532ZM22.0383 18.261H25.6703V28.793H28.6633V18.261H32.2963V15.888H22.0383V18.261ZM52.7753 23.765C52.6031 23.618 52.4137 23.4925 52.2113 23.391C52.6313 23.231 53.0013 23.028 53.3233 22.781C53.6443 22.533 53.9163 22.251 54.1393 21.936C54.361 21.6208 54.5305 21.272 54.6413 20.903C54.7523 20.533 54.8083 20.136 54.8083 19.717C54.8083 19.167 54.7133 18.661 54.5263 18.193C54.3309 17.7185 54.0185 17.3012 53.6183 16.98C53.2023 16.635 52.6643 16.37 52.0053 16.177C51.3463 15.987 50.5493 15.888 49.6183 15.888H45.4183V28.793H48.4123V24.017H49.1723C49.4023 24.017 49.5823 24.053 49.7073 24.126C49.8489 24.2103 49.9637 24.333 50.0383 24.48L52.1823 28.226C52.3983 28.603 52.7593 28.793 53.2613 28.793H55.9713L53.2253 24.303C53.104 24.0989 52.9499 23.9161 52.7693 23.762L52.7753 23.765ZM51.7603 20.73C51.6794 20.9725 51.5423 21.1925 51.3603 21.372C51.16 21.5657 50.9192 21.7126 50.6553 21.802C50.3202 21.9118 49.9689 21.9638 49.6163 21.956H48.4103V18.13H49.6163C50.3903 18.13 50.9603 18.29 51.3313 18.609C51.7013 18.927 51.8853 19.369 51.8853 19.936C51.8853 20.218 51.8423 20.484 51.7603 20.73ZM65.0043 15.888H61.9383L56.9423 28.793H59.2803C59.507 28.8005 59.7294 28.7299 59.9103 28.593C60.0803 28.459 60.1943 28.311 60.2533 28.148L61.0173 25.898H65.9253L66.6853 28.148C66.7507 28.3359 66.8735 28.4986 67.0363 28.613C67.2033 28.734 67.4203 28.793 67.6793 28.793H70.0003L65.0043 15.888ZM61.7093 23.86L62.8963 20.343C62.9843 20.12 63.0793 19.854 63.1783 19.546C63.2793 19.238 63.3743 18.907 63.4693 18.546C63.5713 18.901 63.6733 19.228 63.7743 19.533C63.8793 19.838 63.9683 20.103 64.0463 20.326L65.2333 23.86H61.7093ZM41.3803 23.532C41.3803 23.988 41.3223 24.394 41.2073 24.752C41.1053 25.0862 40.9346 25.3955 40.7063 25.66C40.4863 25.909 40.2203 26.099 39.9023 26.23C39.5883 26.364 39.2273 26.43 38.8273 26.43C38.4273 26.43 38.0673 26.364 37.7523 26.23C37.444 26.1016 37.1693 25.9042 36.9493 25.653C36.7213 25.387 36.5504 25.0769 36.4473 24.742C36.3266 24.3481 36.2679 23.9379 36.2733 23.526V15.89H33.2803V23.534C33.2803 24.324 33.4083 25.052 33.6603 25.714C33.9163 26.376 34.2803 26.947 34.7593 27.422C35.2565 27.912 35.8505 28.2927 36.5033 28.54C37.1883 28.805 37.9623 28.94 38.8233 28.94C39.6863 28.94 40.4503 28.809 41.1353 28.54C41.7887 28.294 42.383 27.913 42.8793 27.422C43.3624 26.9363 43.7379 26.3543 43.9813 25.714C44.2443 25.0176 44.3752 24.2783 44.3673 23.534V15.89H41.3743V23.534L41.3813 23.531L41.3803 23.532Z" fill="#293953"/>
</g>
<defs>
<clipPath id="clip0_212_50435">
<rect width="70" height="40" fill="white"/>
</clipPath>
</defs>
</svg>
