<svg width="66" height="16" viewBox="0 0 66 16" fill="none" xmlns="http://www.w3.org/2000/svg">
<g clip-path="url(#clip0_212_50441)">
<path fill-rule="evenodd" clip-rule="evenodd" d="M25.8065 3.928C26.6905 3.928 27.8005 4.088 28.4115 4.282L26.8995 11.082C26.1755 14.328 24.9855 15.807 21.4175 15.807C20.3405 15.807 19.3115 15.597 18.6205 15.357L19.0545 13.766C19.8255 14.184 20.6445 14.312 21.3685 14.312C23.3785 14.312 24.1505 13.252 24.5195 11.741L24.7775 10.68C24.0055 11.708 23.2025 12.158 21.8675 12.158C20.2125 12.158 19.4085 11.13 19.4085 9.763C19.4085 6.13 22.7205 3.929 25.8065 3.928ZM25.3225 5.424C23.4745 5.424 21.7545 7.32 21.7545 9.57C21.7545 10.293 22.0115 10.824 22.7985 10.824C24.3095 10.824 25.1465 8.895 25.4845 7.464L25.9505 5.52C25.7471 5.45678 25.5354 5.42442 25.3225 5.424ZM16.3845 3.912C17.3165 3.912 18.5225 4.072 19.0855 4.282L17.9755 9.298H17.9765C17.6865 10.598 17.6065 11.548 17.5905 12.158H15.3235C15.3555 11.756 15.5005 11.001 15.6295 10.261C15.0515 11.306 14.1015 12.335 12.5265 12.335C10.9515 12.335 10.0835 11.258 10.0835 9.763C10.0835 6.147 13.3145 3.912 16.3845 3.912ZM15.9675 5.407C14.1185 5.407 12.4305 7.368 12.4305 9.522C12.4305 10.246 12.6875 10.841 13.5235 10.841C14.6485 10.841 15.7255 9.297 16.1755 7.368L16.6095 5.503C16.4031 5.43214 16.1855 5.3996 15.9675 5.407ZM44.6305 3.912C45.5615 3.912 46.7675 4.072 47.3305 4.282L46.2205 9.298C45.9305 10.598 45.8515 11.548 45.8355 12.158H43.5685C43.6005 11.756 43.7455 11.001 43.8745 10.261C43.2955 11.306 42.3465 12.335 40.7715 12.335C39.1965 12.335 38.3275 11.258 38.3275 9.763C38.3275 6.147 41.5605 3.912 44.6305 3.912ZM44.2105 5.407C42.3625 5.407 40.6755 7.368 40.6755 9.522C40.6755 10.246 40.9325 10.841 41.7685 10.841C42.8935 10.841 43.9705 9.297 44.4205 7.368L44.8545 5.503C44.6478 5.43206 44.4289 5.39952 44.2105 5.407ZM7.14048 1.436C8.94048 1.436 10.1625 2.706 10.1625 4.154C10.1625 7.031 7.88048 8.189 5.67747 8.189H5.67948H3.62148L2.78548 12.159H0.438477L2.72048 1.435L7.14048 1.436ZM3.94248 6.613H4.74648C6.32148 6.613 7.76848 6.259 7.76848 4.379C7.76848 3.527 6.88448 3.012 5.96848 3.012H4.71448L3.94248 6.613ZM35.1135 1.436C36.5435 1.436 38.0885 2.096 38.0885 3.688C38.0885 5.278 37.0265 6.323 35.4685 6.613C36.6245 6.87 37.3635 7.609 37.3635 8.734C37.3635 11.499 34.7275 12.158 32.5085 12.158H28.5385L30.8215 1.436H35.1135ZM31.0935 10.728H32.2025C33.5525 10.728 34.9505 10.31 34.9505 8.653C34.9505 7.529 33.6975 7.352 32.8295 7.352H31.8165L31.0935 10.728ZM32.1065 5.938H33.2475C34.5015 5.938 35.7235 5.454 35.7235 4.025C35.7235 3.125 34.8225 2.866 34.0835 2.866H32.7495L32.1065 5.938Z" fill="white"/>
<path d="M53.7932 3.92799C55.1272 3.92799 55.9952 4.57099 55.9952 5.90499C55.9952 6.19499 55.9622 6.49999 55.8982 6.82199L54.7732 12.158H52.5552L53.5672 7.30299C53.6322 7.01299 53.6972 6.74099 53.6972 6.46799C53.6972 5.85799 53.4072 5.42399 52.6352 5.42399C51.4302 5.42399 50.8512 6.49999 50.6272 7.54399L49.6472 12.158H47.4102L48.7291 5.88799C48.8581 5.29399 48.9691 4.69899 49.0341 4.08799H51.1242L50.8832 5.51799C51.6542 4.44199 52.4592 3.92799 53.7932 3.92799ZM59.6602 7.41599L63.1161 4.08799H65.7372L61.7172 7.75299L64.2572 12.158H61.7172L59.5312 7.92999L58.6632 12.158H56.4302L58.8742 0.567993H61.0922L59.6622 7.41599H59.6602Z" fill="white"/>
</g>
<defs>
<clipPath id="clip0_212_50441">
<rect width="66" height="16" fill="white"/>
</clipPath>
</defs>
</svg>
