<svg viewBox="0 0 118 30" xmlns:xlink="http://www.w3.org/1999/xlink" xmlns="http://www.w3.org/2000/svg" width="118" height="30" fill="none"><path fill="#fff" d="M26.244 25.741c.244 0 .47.024.675.071.206.048.385.12.537.22.153.1.28.227.379.383.098.156.163.34.197.555a.053.053 0 0 1-.015.043.054.054 0 0 1-.041.02h-.828a.077.077 0 0 1-.05-.017.063.063 0 0 1-.027-.046.568.568 0 0 0-.26-.415c-.152-.097-.353-.146-.605-.146-.108 0-.207.01-.297.029a.799.799 0 0 0-.237.085.452.452 0 0 0-.156.15.424.424 0 0 0-.056.22c0 .216.141.354.423.415.281.063.59.128.927.194.337.068.646.18.928.333.282.156.423.434.423.836h-.001c0 .214-.042.404-.124.57a1.163 1.163 0 0 1-.355.418 1.696 1.696 0 0 1-.563.256 2.99 2.99 0 0 1-.742.085c-.274 0-.526-.028-.755-.085a1.732 1.732 0 0 1-.593-.259 1.224 1.224 0 0 1-.393-.438 1.414 1.414 0 0 1-.165-.623c0-.017.008-.032.021-.046a.06.06 0 0 1 .044-.017h.822c.02 0 .037.006.052.017a.066.066 0 0 1 .024.046c.013.112.04.213.079.305a.61.61 0 0 0 .167.233.721.721 0 0 0 .285.148c.116.036.258.054.429.054.272 0 .481-.043.628-.128.148-.083.22-.22.22-.412 0-.23-.14-.378-.42-.444a32.07 32.07 0 0 0-.924-.202 3.131 3.131 0 0 1-.922-.333c-.282-.154-.423-.431-.423-.834 0-.19.038-.361.115-.515.074-.153.184-.284.329-.393.143-.106.32-.189.531-.248.21-.056.448-.085.717-.085Z"/><path fill="#fff" fill-rule="evenodd" d="M20.174 25.74c.322 0 .61.05.872.148.262.1.486.243.672.427.186.184.33.407.431.671.102.266.153.563.153.891h.001c0 .311-.05.597-.152.856a1.913 1.913 0 0 1-.43.669 1.97 1.97 0 0 1-.672.435 2.366 2.366 0 0 1-.875.157c-.319 0-.61-.052-.871-.157a1.875 1.875 0 0 1-1.098-1.104 2.325 2.325 0 0 1-.153-.856c0-.31.05-.616.15-.882.1-.264.241-.488.425-.675.184-.183.407-.327.67-.429.261-.1.555-.15.877-.15Zm.001.68c-.192 0-.361.033-.508.1a.996.996 0 0 0-.37.287c-.1.125-.175.278-.226.458a2.268 2.268 0 0 0-.076.612c0 .22.027.42.08.598.052.178.13.329.231.452.1.124.224.218.373.285.147.066.314.099.502.099s.356-.033.505-.1a.995.995 0 0 0 .37-.284c.097-.122.172-.271.225-.45.051-.178.076-.378.076-.6 0-.222-.025-.423-.076-.603a1.38 1.38 0 0 0-.226-.461 1.017 1.017 0 0 0-.37-.29 1.212 1.212 0 0 0-.51-.103ZM8.45 25.826a.088.088 0 0 1 .086.062l1.388 3.958c.006.013.004.026-.006.04a.046.046 0 0 1-.038.02h-.81a.088.088 0 0 1-.053-.017.086.086 0 0 1-.035-.043l-.323-.979H7.086l-.311.976a.088.088 0 0 1-.086.063h-.807a.045.045 0 0 1-.038-.02c-.01-.013-.012-.026-.006-.04l1.424-3.958a.082.082 0 0 1 .035-.046.09.09 0 0 1 .053-.016h1.1Zm-1.145 2.339H8.43l-.575-1.745-.55 1.745Z" clip-rule="evenodd"/><path fill="#fff" d="M15.68 25.825c.019 0 .034.007.048.02.014.013.02.028.02.046l-.029 1.974.03 1.975a.055.055 0 0 1-.02.045.066.066 0 0 1-.048.02h-1.022a.103.103 0 0 1-.056-.017.083.083 0 0 1-.04-.04l-1.648-2.85.039 1.251v1.592a.056.056 0 0 1-.021.045.066.066 0 0 1-.047.02h-.728a.056.056 0 0 1-.044-.02.056.056 0 0 1-.02-.045l.03-1.975-.03-1.975c0-.017.007-.032.02-.046a.057.057 0 0 1 .044-.02h.98c.02 0 .04.005.06.015a.13.13 0 0 1 .04.042l1.68 2.877v-.049l-.035-1.03v-1.79c0-.017.007-.031.02-.045a.06.06 0 0 1 .047-.02h.73Z"/><path fill="#fff" fill-rule="evenodd" d="M24.726.8c1.2 0 2.35.22 3.411.625 4.398 1.438 7.587 5.58 7.587 10.457 0 6.064-4.931 10.996-10.994 10.998h-.076a10.943 10.943 0 0 1-3.989-.776 8.098 8.098 0 0 1-2.735-1.58 11.076 11.076 0 0 1-2.779-3.233v4.706a.86.86 0 0 1-.33.679.858.858 0 0 1-.55.198H1.078a.862.862 0 0 1-.85-.72.865.865 0 0 1-.014-.157V15.39A7.453 7.453 0 0 1 2.91 9.645H1.075a.862.862 0 0 1-.861-.861 7.469 7.469 0 0 1 7.468-7.47 7.472 7.472 0 0 1 7.233 5.599 11.056 11.056 0 0 1 6.397-5.487 9.566 9.566 0 0 1 3.414-.627ZM13.792 13.08a7.506 7.506 0 0 1-1.313 1.428h1.565a10.92 10.92 0 0 1-.252-1.428Z" clip-rule="evenodd"/><path fill="#FFE72D" d="M29.425 10.66a4.029 4.029 0 0 1 4.024 4.024 4.029 4.029 0 0 1-4.024 4.024 4.029 4.029 0 0 1-4.024-4.024 4.028 4.028 0 0 1 4.024-4.024Z"/><path fill="#000" fill-rule="evenodd" d="M7.682 2.196A6.607 6.607 0 0 1 8.21 15.39h6.062v.02h.018v6.608h-.018v.015H1.078v-.015h-.003V15.41a6.607 6.607 0 0 1 6.607-6.607v1.05a5.564 5.564 0 0 0-5.557 5.536h5.562v-1.028a5.562 5.562 0 0 0 5.553-5.558 5.564 5.564 0 0 0-5.486-5.557h-.072a5.566 5.566 0 0 0-5.458 4.508h5.458v1.05H1.075a6.607 6.607 0 0 1 6.607-6.608ZM2.125 16.264v4.703H13.24v-4.703H2.125Z" clip-rule="evenodd"/><path fill="#000" d="M7.682 2.196Z"/><path fill="#FFE72D" d="M13.24 16.264v4.703H2.125v-4.703H13.24Z"/><path fill="#DDE05B" d="M7.682 9.671c.001 2.753.005 7.053.005 5.215v.502H2.125c0-.369.038-.963.26-1.661a5.567 5.567 0 0 1 5.297-3.874v-.181Z"/><path fill="#9ED5D6" d="M7.754 3.246a5.564 5.564 0 0 1 5.486 5.557 5.562 5.562 0 0 1-5.553 5.558l-.005-6.082v-.525H2.224a5.566 5.566 0 0 1 5.458-4.508h.072Z"/><path fill="#DDE05B" d="M24.726 2.315c4.473 0 8.112 3.639 8.112 8.112 0 .346-.022.687-.064 1.022a4.645 4.645 0 0 0-3.59-1.417 7.283 7.283 0 0 0-4.337-2.794c-3.411-.73-6.786 1.057-8.182 4.105a8.144 8.144 0 0 1-.052-.916c0-4.473 3.64-8.112 8.113-8.112Z"/><path fill="#9ED5D6" d="M23.312 7.709c.462 0 .931.048 1.4.149a6.648 6.648 0 0 1 3.741 2.27 4.666 4.666 0 0 0-3.686 4.556 4.666 4.666 0 0 0 3.258 4.442 6.738 6.738 0 0 1-1.083.87 6.637 6.637 0 0 1-5.028.924 6.636 6.636 0 0 1-4.208-2.903 6.639 6.639 0 0 1-.923-5.028c.666-3.107 3.405-5.247 6.457-5.28h.072Z"/><path fill="#000" fill-rule="evenodd" d="M24.726 1.765c5.589 0 10.136 4.547 10.136 10.137 0 5.589-4.547 10.136-10.136 10.136h-.066C19.1 22.004 14.59 17.47 14.59 11.903c0-5.59 4.547-10.137 10.137-10.137ZM23.24 7.709c-3.052.033-5.791 2.173-6.457 5.28a6.64 6.64 0 0 0 .923 5.028 6.637 6.637 0 0 0 4.208 2.903 6.637 6.637 0 0 0 5.028-.924 6.753 6.753 0 0 0 1.083-.87 4.666 4.666 0 0 1-3.258-4.443 4.666 4.666 0 0 1 3.686-4.556 6.648 6.648 0 0 0-3.74-2.27c-.47-.1-.939-.148-1.401-.148h-.072Zm6.185 2.95a4.029 4.029 0 0 0-4.024 4.024 4.029 4.029 0 0 0 4.024 4.024 4.029 4.029 0 0 0 4.024-4.024 4.029 4.029 0 0 0-4.024-4.023Zm-4.7-8.344c-4.472 0-8.112 3.639-8.112 8.112 0 .31.018.615.052.915 1.396-3.047 4.77-4.835 8.182-4.104a7.283 7.283 0 0 1 4.336 2.794 4.645 4.645 0 0 1 3.59 1.417c.043-.335.065-.676.065-1.022 0-4.473-3.64-8.112-8.112-8.112Z" clip-rule="evenodd"/><path fill="#fff" fill-rule="evenodd" d="M63.806 7.928c.884 0 1.994.16 2.605.354l-1.512 6.8c-.724 3.246-1.914 4.725-5.482 4.725-1.077 0-2.106-.21-2.797-.45l.434-1.591c.771.418 1.59.546 2.314.546 2.01 0 2.782-1.06 3.151-2.571l.258-1.061c-.772 1.028-1.575 1.478-2.91 1.478-1.655 0-2.459-1.028-2.459-2.395 0-3.633 3.312-5.834 6.398-5.835Zm-.484 1.496c-1.848 0-3.568 1.896-3.568 4.146 0 .723.257 1.254 1.044 1.254 1.511 0 2.348-1.929 2.686-3.36l.466-1.944a2.13 2.13 0 0 0-.628-.096ZM54.384 7.912c.932 0 2.138.16 2.701.37l-1.11 5.016h.001c-.29 1.3-.37 2.25-.386 2.86h-2.267c.032-.402.177-1.157.306-1.897-.578 1.045-1.528 2.074-3.103 2.074-1.575 0-2.443-1.077-2.443-2.572 0-3.616 3.231-5.851 6.301-5.851Zm-.417 1.495c-1.849 0-3.537 1.961-3.537 4.115 0 .724.257 1.319 1.093 1.319 1.125 0 2.202-1.544 2.652-3.473l.434-1.865a1.79 1.79 0 0 0-.642-.096ZM82.63 7.912c.931 0 2.137.16 2.7.37l-1.11 5.016h.001c-.29 1.3-.37 2.25-.386 2.86h-2.267c.032-.402.177-1.157.306-1.897-.579 1.045-1.528 2.074-3.103 2.074-1.575 0-2.444-1.077-2.444-2.572 0-3.616 3.232-5.851 6.302-5.851Zm-.42 1.495c-1.848 0-3.535 1.961-3.535 4.115 0 .724.257 1.319 1.093 1.319 1.125 0 2.202-1.544 2.652-3.473l.434-1.865a1.792 1.792 0 0 0-.643-.096ZM45.14 5.436c1.8 0 3.022 1.27 3.022 2.718 0 2.877-2.282 4.035-4.485 4.035h.002-2.058l-.836 3.97h-2.347L40.72 5.435h4.42Zm-3.198 5.177h.804c1.575 0 3.022-.354 3.022-2.234 0-.852-.884-1.367-1.8-1.367h-1.254l-.772 3.6ZM73.113 5.436c1.43 0 2.975.66 2.975 2.252 0 1.59-1.062 2.635-2.62 2.925 1.156.257 1.895.996 1.895 2.121 0 2.765-2.636 3.424-4.855 3.424h-3.97l2.283-10.722h4.292Zm-4.02 9.292h1.109c1.35 0 2.748-.418 2.748-2.075 0-1.124-1.253-1.301-2.121-1.301h-1.013l-.723 3.376Zm1.013-4.79h1.141c1.254 0 2.476-.484 2.476-1.913 0-.9-.901-1.159-1.64-1.159h-1.334l-.643 3.071Z" clip-rule="evenodd"/><path fill="#fff" d="M91.793 7.928c1.334 0 2.202.643 2.202 1.977 0 .29-.033.595-.097.917l-1.125 5.336h-2.218l1.012-4.855c.065-.29.13-.562.13-.835 0-.61-.29-1.044-1.062-1.044-1.205 0-1.784 1.076-2.008 2.12l-.98 4.614H85.41l1.319-6.27c.129-.594.24-1.189.305-1.8h2.09l-.241 1.43c.771-1.076 1.575-1.59 2.909-1.59ZM97.66 11.416l3.456-3.328h2.621l-4.02 3.665 2.54 4.405h-2.54l-2.186-4.228-.868 4.228H94.43l2.444-11.59h2.218l-1.43 6.848Z"/></svg>