<svg width="500" height="139" viewBox="0 0 500 139" fill="none" xmlns="http://www.w3.org/2000/svg">
<path d="M328.076 23.5121C329.081 23.4029 330.04 23.4099 331.045 23.3809C341.923 23.067 352.387 23.2486 363.173 24.7489C391.679 28.8584 418.655 40.2047 441.524 57.7043C449.725 64.02 457.786 71.7131 464.752 79.3873C466.018 80.782 469.543 83.6502 469.279 85.4804C463.191 85.8506 452.961 85.4684 446.581 85.4558L403.245 85.4824L268.167 85.487L233.663 85.4741C229.877 85.4806 223.074 85.21 219.44 85.7743C216.619 86.9626 213.079 90.6939 210.868 92.6277C201.946 100.433 192.167 106.799 181.629 112.196C178.536 113.781 175.191 115.05 172.047 116.653C170.173 117.509 167.365 118.281 165.365 118.955C144.296 126.051 119.085 126.834 97.6444 120.524C76.2392 114.315 56.7197 102.869 40.8505 87.2228C37.9365 84.4057 33.5463 80.3011 31.6851 76.8856C34.0471 76.5973 43.3633 76.8526 46.3359 76.8548L78.8993 76.8614L166.857 76.8575L196.456 76.869C202.204 76.87 208.42 76.9892 214.122 76.7597C216.256 75.19 218.843 72.5229 220.897 70.6803C225.113 66.8244 229.498 63.1587 234.04 59.6937C261.171 38.6976 293.865 26.1179 328.076 23.5121ZM339.403 76.8585L410.591 76.8575L432.431 76.8548C436.944 76.8534 441.568 76.6795 446.054 77.0397C448.888 77.2675 448.176 77.6723 449.905 75.3617C445.798 72.5168 442.12 69.304 438.241 66.1662C410.594 43.7984 374.89 30.6432 339.208 31.5781C304.124 32.7214 270.184 44.3305 241.753 64.913C239.308 66.6508 228.355 74.1953 227.503 76.3079L227.621 76.6556C229.825 77.3099 234.487 76.8239 237.03 76.8183L253.839 76.8524L339.403 76.8585ZM188.489 99.0731C193.1 96.2424 203.01 89.5582 206.416 85.4906C202.878 85.2929 199.519 85.4572 195.984 85.4716L179.758 85.4553L123.594 85.4636L75.4648 85.457L60.3352 85.4485C57.9892 85.4443 55.0542 85.2912 52.7876 85.4477L52.388 85.8503C52.9512 87.8712 66.4754 97.1062 68.7321 98.5859C104.881 122.291 152.925 122.748 188.489 99.0731Z" fill="white"/>
<path d="M66.1449 29.323C68.5926 29.3308 71.5788 29.9339 73.8911 29.8924C78.0373 29.7095 82.4668 29.4088 86.582 29.511C93.2913 29.6773 98.5203 30.8281 98.1122 38.6943C97.7693 45.3085 93.9289 45.0632 89.9544 48.7567C93.3423 53.6214 96.4302 58.641 99.9247 63.409C101.135 65.0599 103.937 65.9705 103.835 68.1074L103.332 68.5469C102.101 68.9324 95.1643 68.749 93.9223 68.3296C92.6313 67.8935 89.3085 62.4711 88.4882 61.0062C86.4567 57.3786 82.4333 52.8203 80.8765 49.1873L81.1389 48.5684C81.8021 47.9119 83.0834 47.7971 84.0434 47.6178C84.7012 47.4554 86.7433 46.2654 87.2935 45.8323C88.8821 44.5901 89.9141 42.7697 90.1641 40.7688C91.1571 32.2476 78.4037 30.8023 78.5539 35.7528C78.8364 45.0671 77.9471 54.7098 78.8461 63.9562C79.0079 65.6193 83.7092 65.5893 83.428 68.0633C82.0487 69.78 75.9765 68.3218 73.6615 68.402C71.3119 68.4832 66.4793 70.0466 65.7798 67.0942C66.8406 65.6203 70.4661 65.9224 70.3448 62.238C70.0392 52.9571 70.8627 43.3964 69.8909 34.1841C69.777 33.1038 67.0142 32.4798 66.1776 31.5582C65.8664 30.8827 66.0532 30.0785 66.1449 29.323Z" fill="white"/>
<path d="M183.22 29.605C183.553 29.5511 183.888 29.5097 184.223 29.4809C186.461 29.3048 189.21 29.9784 191.535 29.9084C197.79 29.7199 204.096 29.3746 210.355 29.5009C211.836 29.5306 212.99 30.7892 212.9 32.2731C212.824 33.5358 212.275 37.637 211.446 38.4983L210.892 38.4854C208.9 37.2676 209.772 34.8968 209.035 34.2083C207.644 32.9088 195.824 32.0395 195.685 35.1018C195.516 38.8287 195.478 42.5418 195.161 46.0894C197.512 46.485 202.002 47.1595 204.279 46.5235C205.346 46.225 206.868 42.6095 208.795 42.3771L209.16 42.8373C209.197 42.9987 209.186 53.9551 209.106 54.1973C206.153 56.8668 206.735 51.7689 205.813 51.1417C203.595 49.632 198.13 50.3062 195.614 50.603C195.13 52.7878 195.607 62.6609 196.192 65.0678C199.392 65.369 205.115 65.4299 208.356 64.6913C208.723 64.6076 209.69 63.6663 210.015 63.3493C210.254 61.6918 210.576 59.9848 211.802 58.7604C214.661 58.615 213.463 66.3373 212.515 67.5598C211.014 69.4968 204.918 68.8915 202.539 68.8354C196.622 68.6962 191.06 68.0536 185.125 69.0859L184.701 68.6291C184.292 67.0197 186.26 65.359 187.342 64.4384L187.578 33.8477C186.101 33.1912 182.836 31.8929 182.688 30.1425L183.22 29.605Z" fill="white"/>
<path d="M107.117 29.6054C110.078 29.144 113.348 29.9556 116.351 29.8792C122.188 29.7305 127.998 29.3593 133.844 29.5027C135.62 29.5464 136.955 30.147 136.969 32.1847C136.932 33.4296 136.71 37.5015 135.966 38.3143C132.158 38.2034 135.253 34.5438 132.474 33.7651C129.109 32.8226 123.185 32.6512 120.028 34.0556C119.814 38.2075 119.703 42.3641 119.696 46.5217C120.973 46.3763 127.028 46.7606 129.397 46.6643C130.027 45.1197 130.653 42.914 132.475 42.5792C134.272 43.9858 133.126 48.048 133.369 50.3242C133.52 51.7303 133.616 53.1678 133.798 54.6322C132.84 54.7519 131.715 54.7312 130.736 54.739C130.124 50.3198 130.298 50.2883 125.394 50.2649C123.498 50.2556 121.792 50.2525 119.91 50.6656C119.802 51.156 119.744 51.6559 119.737 52.158C119.718 54.2603 119.464 63.5036 120.588 64.6443C123.193 65.6656 128.647 65.0206 131.552 65.0282C135.964 65.0394 132.816 59.0053 137.465 59.2309L137.772 59.5964C138.16 61.2118 137.604 68.2659 135.553 68.5707C128.372 69.6386 120.855 68.0635 113.61 68.5478C112.607 68.6149 109.916 69.2489 109.207 68.9224L109.027 68.2754C109.328 66.4511 110.448 65.3508 111.629 63.9864C111.749 60.3488 112.379 36.3659 111.478 34.494C110.516 32.4978 108.09 32.5819 107.035 30.9963C106.811 30.0894 106.779 30.4316 107.117 29.6054Z" fill="white"/>
<path d="M31.0682 29.4767C33.9422 29.4267 36.8726 29.7313 39.8895 29.763C45.3532 29.9074 54.7291 28.3074 59.551 31.4117C67.6455 36.6233 61.1967 48.9126 53.1744 50.2999C51.2497 50.6328 46.9147 51.6399 46.3217 49.0038C45.9722 47.4489 47.6867 47.4238 48.7477 47.2075C55.3496 46.2055 55.2279 41.5519 54.2733 36.0914C53.263 34.8246 52.2305 34.0983 50.9419 33.1746C49.0074 32.9876 45.7929 32.3206 44.3951 33.8199C43.4138 38.2337 43.9207 59.8194 44.4219 64.9973C46.572 65.8884 48.2752 65.3595 49.4062 66.8336C49.567 67.65 49.0948 68.3372 48.7089 69.0995C45.9949 68.8813 43.3511 68.5847 40.624 68.5608C37.7907 68.5362 34.3974 69.0895 31.629 68.5599C31.1226 68.0831 31.0858 67.9758 30.9248 67.2906C31.5863 65.5731 33.5239 66.0074 35.3272 64.723C35.6499 64.3311 35.7999 63.8651 35.8213 63.3647C35.9299 61.0526 35.7894 58.7423 35.8301 56.4222C35.933 50.228 35.904 44.0242 35.8613 37.8299C35.8552 36.9179 35.6825 33.8796 35.0803 33.3436C32.7824 31.2979 31.2416 33.3748 31.0682 29.4767Z" fill="white"/>
<path d="M353.311 92.4759C353.872 92.3825 353.948 92.3813 354.504 92.5096C354.887 93.722 354.499 104.56 354.472 106.572L354.426 123.423C355.499 124.988 356.894 125.687 357.672 127.128L357.306 127.515L357.653 127.166L357.175 127.535L357.628 127.1L357.241 127.525C356.153 127.696 352.128 127.342 350.965 127.231L349.416 123.479C345.955 127.831 342.869 128.793 337.569 126.978C331.203 123.303 330.193 112.747 336.13 107.967C342.094 103.166 344.106 104.646 350.613 105.196C350.477 102.392 350.445 99.583 350.516 96.7759C349.443 96.2275 347.433 95.4076 347.006 94.3561L347.235 93.8896C348.111 93.3924 352.028 92.741 353.311 92.4759ZM339.928 123.609C340.991 123.971 342.201 124.443 343.308 124.516C345.625 124.276 346.979 124.392 348.635 122.427C350.835 119.82 350.66 113.991 350.299 110.683C350.279 110.521 350.26 110.358 350.238 110.196C348.343 108.273 346.277 107.002 343.55 106.591C342.925 106.77 341.342 107.183 340.85 107.494C334.825 111.305 335.596 118.963 339.928 123.609Z" fill="white"/>
<path d="M164.308 28.8855C168.092 28.4271 175.289 30.5208 178.855 31.7826C178.798 34.0536 178.348 37.5581 177.952 39.8243C177.784 40.7903 177.61 40.791 176.933 41.1919C174.192 41.2316 175.664 36.5751 174.059 35.318C168.801 31.0542 157.976 31.9911 153.737 37.2548C148.5 43.7595 149.393 56.2192 155.933 61.6081C160.331 65.2321 164.794 65.4574 170.06 65.0848C173.097 64.5905 176.792 62.3313 178.884 63.2602L179.143 63.9774C178.247 67.4205 170.372 69.2377 167.15 69.4272C160.42 69.8227 153.641 68.5771 148.409 64.1132C140.594 57.4454 139.35 44.2643 146.096 36.4676C151.036 30.7279 157.041 29.4064 164.308 28.8855Z" fill="white"/>
<path d="M219.552 93.7103C221.072 93.5613 223.367 93.7047 225.003 93.7676C229.934 93.9571 236.669 92.7149 241.262 94.4936C250.022 97.8857 245.78 108.645 238.816 111.212C236.671 112.002 232.498 112.97 231.41 110.046C231.545 109.454 231.436 109.654 231.985 109.257C232.882 109.004 233.351 109.259 234.213 109.579C235.432 109.174 236.662 108.918 237.914 108.636C239.116 107.607 240.206 106.03 241.158 104.742C241.663 100.155 240.875 99.6954 237.732 96.4494C234.723 95.6156 234.001 95.7185 230.923 95.8185C230.369 95.7695 230.226 95.7995 229.678 95.8899C229.06 96.2947 228.434 97.2709 228.362 98.0657C227.652 105.976 228.023 114.772 228.154 122.75C228.166 123.515 229.283 125.201 229.65 125.779C230.59 125.915 231.584 125.913 232.156 126.578C231.314 127.979 220.915 127.844 219.31 127.098L219.173 126.71C219.638 126.065 220.666 125.968 221.488 125.784C221.998 125.217 222.605 124.412 223.094 123.799C223.241 122.899 223.342 121.775 223.34 120.858C223.323 113.44 223.387 106.016 223.38 98.6C223.379 97.4741 222.429 96.4457 221.527 95.8865C220.66 95.3496 219.525 95.3193 218.823 94.5899L218.867 94.161L219.552 93.7103Z" fill="white"/>
<path d="M455.59 104.441C468.974 103.401 466.293 113.857 466.445 123.53C467.515 125.021 468.94 126.363 470.252 127.645C468.535 127.628 466.093 127.716 464.471 127.324C463.327 127.049 463.147 126.396 462.664 125.494C461.74 124.905 461.988 125.507 460.852 125.637L460.73 125.393L461.513 124.37L461.444 123.894L461.069 123.792C460.091 124.535 458.152 126.529 457.186 127.475C454.812 127.847 453.8 127.919 451.39 127.393C446.993 125.596 447.134 120.173 450.359 116.836C453.407 113.68 461.074 114.578 462.027 111.732C462.035 110.177 461.281 109.455 460.322 108.277C457.774 107.24 457.239 107.163 454.529 107.206C453.554 108.137 451.303 111.758 449.793 110.358C449.444 109.489 449.766 108.598 449.981 107.663C451.422 106.765 454.12 104.916 455.59 104.441ZM455.781 124.717C457.647 124.4 458.749 124.186 460.486 123.282C462.274 120.029 464.791 115.191 458.781 115.127C458.295 115.629 457.193 116.653 456.512 116.824C452.22 117.908 449.812 123.785 455.781 124.717Z" fill="white"/>
<path d="M397.627 104.435C411.282 103.76 406.042 116.65 407.745 125.529C408.611 125.755 409.618 125.896 410.189 126.541L410.143 126.956C408.521 128.008 404.857 127.645 402.972 127.253C402.457 123.381 403.455 117.336 403.089 113.226C402.945 111.588 402.396 109.825 401.072 108.773C398.403 106.654 396.098 108.494 393.366 108.762C392.718 109.345 392.259 110.894 391.93 111.779C391.571 113.486 391.386 121.686 392.003 123.472C392.822 125.851 393.979 126.348 396.008 127.364C392.908 127.552 386.669 127.63 383.646 127.278C385.122 126.016 386.164 125.051 387.454 123.615C387.786 120.257 387.452 113.805 387.737 109.558C386.517 108.891 385.183 108.35 384.534 107.143C384.527 105.093 389.481 104.907 391.188 104.746C391.571 105.6 391.918 106.857 392.2 107.782C394.601 106.675 395.259 104.965 397.627 104.435Z" fill="white"/>
<path d="M374.088 125.523C376.29 124.657 377.602 123.892 379.937 124.068L380.481 124.39C380.483 124.944 380.351 125.289 379.898 125.642C376.073 128.566 367.719 128.84 364.282 125.087C361.843 122.422 361.175 119.967 360.997 116.439C360.682 110.138 365.9 104.308 372.488 104.405C375.09 104.461 377.566 105.544 379.371 107.418C384.049 112.275 381.934 116.563 375.154 116.346C374.571 116.073 372.29 115.809 371.346 115.596C372.112 115.552 372.875 115.527 373.641 115.52L373.914 115.1C374.827 114.397 375.412 114.27 376.517 113.928C376.717 112.964 377.037 111.978 377.322 111.031C374.641 106.803 374.58 106.215 369.534 106.391C368.412 107.733 367.336 108.597 366.546 110.281C365.031 113.508 366.736 113.303 368.851 114.336C368.5 114.538 367.926 114.786 367.763 115.093C365.158 117.346 365.553 119.824 367.704 122.359C369.439 124.402 371.558 125.011 374.088 125.523Z" fill="white"/>
<path d="M273.898 122.92C281.669 128.098 283.764 122.307 286.499 124.027C286.091 128.184 278.986 128.095 276.054 127.741C273.296 127.408 271.152 126.281 269.454 124.067C266.064 120.111 266.42 111.226 270.359 107.728C271.32 106.877 273.091 106.029 274.084 105.032C274.735 104.495 280.062 104.427 280.872 104.513C284.489 104.9 289.892 111.889 286.974 115.182C285.94 115.742 284.657 115.974 283.503 116.24L282.628 115.989C282.194 115.166 282.425 114.549 282.513 113.499L282.972 110.7C281.901 108.439 281.403 107.814 279.294 106.335C278.181 106.376 276.764 106.475 275.689 106.33C273.706 108.471 270.405 111.099 272.696 114.037L273.525 114.321C273.847 115.098 273.637 115.391 272.91 115.833C270.418 118.243 272.742 120.557 273.898 122.92Z" fill="white"/>
<path d="M309.041 107.904C308.051 107.155 306.899 106.482 306.956 105.157C307.858 104.373 313.556 104.633 314.319 105.133L314.444 106.075C310.214 110.949 307.226 118.14 305.051 124.221C302.024 132.687 299.206 123.635 297.963 120.7L292.475 107.857C291.474 107.254 289.301 106.316 289.892 105.03L290.906 104.655C293.918 105.074 296.153 105.006 299.16 104.922C299.56 104.911 299.663 105.114 299.848 105.409C299.563 106.213 298.45 106.839 297.711 107.354C297.799 109.591 301.697 122.207 304.065 121.553C305.38 117.009 307.917 112.305 309.041 107.904Z" fill="white"/>
<path d="M423.004 104.427C425.836 104.251 430.034 103.976 430.704 107.6C430.917 108.756 430.836 111.579 429.453 111.84L429.097 111.595L429.178 110.466C428.558 109.536 425.904 107.681 424.865 107.15C424.09 107.153 422.543 107.121 421.855 107.269C414.455 108.857 415.026 120.433 420.402 123.987C421.521 124.727 423.977 125.592 425.246 125.365C426.397 124.642 429.251 123.442 430.129 124.955C429.934 126.689 427.78 127.32 426.168 127.651C414.657 130.015 408.294 119.174 414.15 109.605C415.496 107.409 420.097 104.838 423.004 104.427Z" fill="white"/>
<path d="M262.483 104.453C263.288 104.455 263.483 104.436 264.203 104.774C265.396 105.985 264.901 108.632 264.949 110.654C262.959 110.02 260.986 109.266 258.939 108.62C258.325 109.389 257.303 110.437 256.615 111.19C256.581 111.319 256.549 111.449 256.517 111.579C255.883 114.252 255.217 122.065 256.776 124.551C257.603 125.869 258.693 126.335 260.142 126.665L260.232 126.936L259.971 127.231C257.293 127.743 250.99 127.557 248.132 127.362C248.032 127.138 248.019 126.906 247.983 126.656C249.688 125.687 250.403 124.948 251.707 123.57C251.668 119.493 252.129 114.387 251.837 110.325C251.766 109.318 249.59 108.25 248.639 107.69C248.48 105.054 254.459 104.13 256.039 105.507C256.191 106.924 255.105 107.078 255.861 108.171C258.544 107.932 258.786 104.694 262.483 104.453Z" fill="white"/>
<path d="M324.617 104.667C324.888 104.606 325.108 104.688 325.383 104.752C326.591 107.5 324.173 119.999 326.478 125.241C327.354 125.661 328.725 126.074 328.786 127.102C327.652 127.928 321.849 127.54 320.137 127.504C319.263 127.4 318.498 127.412 318.012 126.654C318.705 125.919 320.917 124.648 321.012 123.652C321.451 119.104 321.237 114.06 321.249 109.495C319.681 107.924 320.164 108.55 318.256 108.131C317.671 105.652 322.868 105.052 324.617 104.667Z" fill="white"/>
<path d="M441.146 104.701C441.615 104.731 441.688 104.774 442.098 104.967C442.11 110.56 441.19 117.107 441.893 122.712C442.178 124.989 444.339 126.132 446.132 127.311C442.541 127.541 439.632 127.553 436.058 127.493C435.361 127.425 434.695 127.438 434.153 126.998C434.522 125.568 437.734 125.879 437.541 121.65C437.371 117.938 438.049 113.206 437.358 109.474C437.205 108.633 434.948 108.073 434.261 107.9C433.914 105.722 439.622 104.904 441.146 104.701Z" fill="white"/>
<path d="M370.424 94.602C371.38 94.5264 372.002 94.5035 372.79 95.2026C373.927 96.2097 378.044 100.756 376.868 102.133C375.944 101.959 372.87 99.198 371.153 98.3143C369.939 99.4348 366.648 102.531 365.07 102.537L364.838 102.164C365.085 100.52 369.146 95.6286 370.424 94.602Z" fill="white"/>
<path d="M438.256 94.1733C439.829 94.0282 441.139 93.8238 442.029 95.5211C442.844 97.0805 442.156 98.5457 440.7 99.3772C436.885 99.8506 435.548 96.2341 438.256 94.1733Z" fill="white"/>
<path d="M323.486 93.95C326.618 94.5255 327.105 98.8201 323.356 99.5202C319.732 98.6267 319.188 94.8225 323.486 93.95Z" fill="white"/>
<path d="M282.513 113.499C282.425 114.549 282.194 115.166 282.628 115.989L283.504 116.24C281.421 116.723 274.552 116.828 272.91 115.833C273.637 115.391 273.847 115.098 273.525 114.321L272.696 114.037C275.523 113.534 277.864 114.242 280.672 114.334C280.906 114.341 282.211 113.663 282.513 113.499Z" fill="white"/>
<path d="M368.851 114.336L369.272 114.518C370.265 113.901 372.658 113.218 373.636 114.131C373.699 114.368 373.826 114.901 373.914 115.1L373.641 115.52C372.875 115.527 372.112 115.553 371.346 115.596C372.29 115.809 374.57 116.073 375.153 116.347C374.431 116.485 368.455 116.557 368.021 116.284L368.141 115.487L367.763 115.093C367.926 114.786 368.499 114.538 368.851 114.336Z" fill="white"/>
</svg>
