<svg width="76" height="31" viewBox="0 0 76 31" fill="none" xmlns="http://www.w3.org/2000/svg">
<g clip-path="url(#clip0_12_12600)">
<path d="M28.9634 18.9044C28.9858 18.3294 29.0367 17.7569 29.1362 17.1893C29.3316 16.0624 29.6859 14.9696 30.1883 13.9444C30.8505 12.5903 31.7645 11.3778 32.8805 10.3731C33.9781 9.3772 35.2637 8.61609 36.66 8.13563C37.503 7.84339 38.368 7.64783 39.2609 7.57593C39.5061 7.55632 39.7519 7.53861 39.9977 7.53616C40.3655 7.53235 40.7342 7.53071 41.1013 7.54978C41.9294 7.59281 42.7377 7.74861 43.5305 7.98148C44.5618 8.28464 45.5448 8.73534 46.4497 9.31988C47.16 9.7775 47.8187 10.3121 48.4141 10.9143C48.4286 10.929 48.4386 10.9481 48.4645 10.9851L44.2792 15.2533C44.1318 15.1242 43.9962 15.0006 43.8555 14.8829C42.9654 14.1386 41.9351 13.7052 40.7623 13.626C39.3051 13.5276 38.0091 13.9433 36.9009 14.8652C35.7809 15.7967 35.1435 16.9905 34.9322 18.4013C34.9096 18.5539 34.9028 18.7083 34.8843 18.8875C34.8735 18.9248 34.8719 18.9365 34.8746 18.9491C34.8271 19.5284 34.9023 20.0976 35.0398 20.6595C35.2642 21.5801 35.6973 22.4018 36.3487 23.1048C37.2219 24.0472 38.302 24.6483 39.6048 24.8221C41.2446 25.0408 42.6927 24.6001 43.9326 23.543C44.2695 23.256 44.5673 22.9253 44.8783 22.6099C45.189 22.2951 45.4927 21.9737 45.8008 21.6566C46.4074 21.0324 47.0143 20.4084 47.6223 19.7855C48.0411 19.3565 48.4631 18.9305 48.8817 18.5013C49.4694 17.8988 50.0548 17.2939 50.642 16.6906C50.9209 16.4044 51.202 16.12 51.4809 15.834C52.0889 15.2111 52.6958 14.5869 53.3041 13.9642C53.6084 13.6527 53.9164 13.3449 54.2201 13.0328C54.7974 12.4401 55.3744 11.8469 55.9492 11.2518C57.0296 10.1337 58.231 9.17198 59.6753 8.51994C60.5802 8.11085 61.5213 7.81588 62.5082 7.6609C62.9589 7.59184 63.4129 7.54819 63.8684 7.53017C65.5727 7.45581 67.1942 7.77475 68.7457 8.45267C69.7993 8.91358 70.7747 9.53883 71.6364 10.3056C72.8227 11.3558 73.781 12.5722 74.4822 13.9746C75.0169 15.0436 75.3886 16.1639 75.5699 17.3391C75.637 17.7754 75.6767 18.2161 75.7071 18.6565C75.7332 19.0346 75.7289 19.4145 75.7276 19.8201C75.7087 19.8588 75.7063 19.8718 75.7098 19.8857C75.7012 20.7118 75.5597 21.5202 75.3533 22.3185C74.8663 24.2005 73.9718 25.8816 72.6378 27.3273C71.1825 28.9051 69.3968 29.9962 67.2942 30.5847C66.5903 30.7819 65.8724 30.9203 65.138 30.95C64.6534 30.9696 64.1662 30.9996 63.6832 30.9731C62.6566 30.918 61.6425 30.719 60.67 30.3818C59.3918 29.9392 58.2254 29.3016 57.2153 28.4263C56.5674 27.8649 55.974 27.2442 55.3636 26.6431C54.9976 26.2822 54.6448 25.9088 54.2878 25.5395C53.7719 25.0062 53.261 24.4685 52.7411 23.939C52.6018 23.7969 52.4382 23.677 52.2655 23.5294C52.239 23.5539 52.1763 23.6084 52.1189 23.6675C51.7173 24.0829 51.3168 24.499 50.9161 24.9152C50.4164 25.4341 49.9322 25.9679 49.4128 26.4677C48.9738 26.8904 48.6291 27.3907 48.1888 27.8088C46.7122 29.2115 44.9788 30.1814 42.971 30.6754C42.3741 30.8222 41.7677 30.9298 41.1498 30.9508C40.6795 30.9666 40.2071 30.9993 39.7384 30.9742C38.4146 30.9069 37.1133 30.6015 35.8957 30.0722C34.8796 29.6318 33.9345 29.0401 33.0918 28.3168C32.1003 27.4698 31.2579 26.4593 30.6001 25.3281C29.8735 24.0807 29.3862 22.7507 29.1415 21.3363C29.0071 20.5582 28.9532 19.7757 28.9618 18.9578C28.9641 18.9401 28.9646 18.9222 28.9634 18.9044ZM69.8345 19.573C69.841 19.5619 69.8428 19.5499 69.8509 19.4995C69.8646 19.1273 69.8408 18.7548 69.7801 18.3874C69.5672 17.0515 68.9988 15.8899 67.9402 14.9889C66.6927 13.9275 65.2423 13.4541 63.5808 13.6622C62.7303 13.7684 61.9649 14.0901 61.264 14.5664C60.7659 14.9053 60.3646 15.3408 59.9504 15.7635C59.2716 16.4564 58.6 17.1564 57.923 17.8514C57.4897 18.2962 57.052 18.7366 56.6178 19.1806C56.5804 19.2187 56.554 19.2672 56.524 19.3088C56.6569 19.4494 56.776 19.5818 56.9019 19.7076C57.4323 20.2382 57.9637 20.7676 58.4965 21.2955C58.9382 21.7332 59.3829 22.1681 59.8259 22.6042L59.9022 22.6796C60.1965 22.9711 60.4727 23.2829 60.7886 23.5507C62.0318 24.6047 63.48 25.0359 65.1202 24.8226C65.9465 24.7153 66.7013 24.4135 67.3829 23.9499C68.3617 23.2837 69.053 22.3975 69.4677 21.3132C69.6801 20.7578 69.8205 20.1848 69.8345 19.573ZM16.8967 14.814H16.632C14.6997 14.814 12.7669 14.7999 10.8349 14.8195C9.68683 14.8309 8.68969 15.2449 7.85182 16.0124C7.28507 16.5313 6.88675 17.149 6.66927 17.8748C6.56207 18.2245 6.50676 18.5882 6.50515 18.9542C6.50622 22.8469 6.50568 26.7395 6.50568 30.6321V30.8996C6.33671 30.9459 0.547108 30.9563 0.280845 30.9124C0.277611 30.8473 0.271682 30.7789 0.271682 30.7106C0.271143 26.67 0.265214 22.6295 0.275725 18.589C0.27842 17.6275 0.491322 16.6939 0.816874 15.7864C1.24322 14.5972 1.88273 13.5252 2.72976 12.5727C4.00987 11.1341 5.58616 10.1171 7.44461 9.51435C8.16767 9.28011 8.90906 9.11397 9.67093 9.05732C10.1687 9.02 10.6681 8.98977 11.1672 8.98759C12.9836 8.97942 14.7995 8.98432 16.6156 8.98432H16.8967V14.814ZM25.9111 8.98432C25.9281 9.00094 25.9335 9.00557 25.9383 9.01102C25.9429 9.01619 25.9507 9.02191 25.9507 9.02736L25.9612 30.8996C25.7949 30.9454 20.1498 30.959 19.8436 30.9165V8.98432H25.9111ZM19.9978 6.25741C19.572 5.76007 19.3003 5.20989 19.1844 4.58618C19.0443 3.83037 19.1394 3.10016 19.4682 2.40835C20.0191 1.24917 20.9567 0.541292 22.2467 0.296436C23.8098 -0.000441192 25.3225 0.666035 26.149 1.96603C26.4741 2.47808 26.653 3.03261 26.7064 3.63263C26.8077 4.77057 26.4231 5.73529 25.6033 6.53495C24.9792 7.14396 24.2079 7.50566 23.3261 7.56776C22.0123 7.66036 20.8871 7.24609 19.9978 6.25741Z" fill="white"/>
<path d="M28.958 18.9085C28.9642 18.912 28.9648 18.9199 28.9607 18.9382C28.9462 18.9376 28.9451 18.9256 28.958 18.9085ZM34.8818 18.9428C34.8719 18.9365 34.8735 18.9248 34.8856 18.9063C34.8972 18.912 34.8964 18.9245 34.8818 18.9428ZM75.7184 19.8795C75.7063 19.8718 75.7087 19.8588 75.7246 19.8397C75.7305 19.8462 75.7289 19.8596 75.7184 19.8795ZM69.828 19.5801C69.8162 19.5741 69.8173 19.5616 69.8321 19.5434C69.8429 19.5499 69.841 19.5619 69.828 19.5801Z" fill="white"/>
</g>
<defs>
<clipPath id="clip0_12_12600">
<rect width="76" height="31" fill="white"/>
</clipPath>
</defs>
</svg>
