<svg width="71" height="50" viewBox="0 0 71 50" fill="none" xmlns="http://www.w3.org/2000/svg">
<path d="M47.5201 36.6811H53.1782C55.294 36.6811 56.7659 35.7306 56.7659 33.7847C56.7659 31.838 55.294 30.8883 53.1782 30.8883H47.5201V36.6811V36.6811ZM47.5201 46.7748H55.0639C59.0655 46.7748 61.1358 44.7376 61.1358 40.7993V36.6811H60.9976C59.8469 40.1209 56.8577 41.1618 53.3155 41.1618H47.7048C47.5665 41.1618 47.5201 41.2066 47.5201 41.3426V46.7739V46.7748ZM36.8954 33.7847L42.6908 39.3055V28.264L36.8954 33.7847ZM17.2087 46.7748H42.6908V45.5065C42.6908 43.2885 43.4731 42.022 45.266 41.3426V41.2075H38.1379C37.7695 41.2075 37.6322 41.1618 37.3557 40.8906L33.6297 37.0884L29.7664 40.9354C29.5827 41.1162 29.4444 41.2075 29.076 41.2075H23.327C23.0049 41.2075 23.0049 41.0258 23.1887 40.845L30.5478 33.8295L23.0504 26.6788C22.8667 26.498 22.9131 26.3172 23.2351 26.3172H29.0305C29.3516 26.3172 29.4908 26.362 29.6745 26.5884L33.7225 30.5714L37.5403 26.5884C37.7241 26.4076 37.8614 26.3163 38.1379 26.3163H53.2709C56.7667 26.3163 59.8486 27.4486 60.9985 30.8883H61.1367V8.39446C61.1358 4.4562 59.0664 2.41992 55.0639 2.41992H17.2087C13.2062 2.41992 11.1367 4.4562 11.1367 8.39446V40.845C11.1367 44.7376 13.2062 46.7739 17.2087 46.7739V46.7748Z" fill="white"/>
</svg>
